<?xml version="1.0" standalone="no"?>
<!DOCTYPE svg PUBLIC "-//W3C//DTD SVG 1.1//EN" "http://www.w3.org/Graphics/SVG/1.1/DTD/svg11.dtd" >
<svg>
<metadata>
Created by FontForge 20090622 at Thu Sep 27 11:33:24 2012
 By ffonts
Copyright (c) Arkandis Digital Foundry, under GNU General Public License V2 and later, with font exception.
</metadata>
<defs>
<font id="BerenisADFPro-Italic" horiz-adv-x="550" >
  <font-face 
    font-family="Berenis ADF Pro"
    font-weight="400"
    font-style="italic"
    font-stretch="normal"
    units-per-em="1000"
    panose-1="2 0 5 3 8 0 0 9 0 3"
    ascent="750"
    descent="-250"
    x-height="400"
    cap-height="722"
    bbox="-98 -310 2048 961"
    underline-thickness="50"
    underline-position="-125"
    slope="-16.5"
    stemh="24"
    stemv="85"
    unicode-range="U+0020-U+FB06"
  />
<missing-glyph horiz-adv-x="642" 
d="M175 0v700h500v-700h-500zM225 605v-510l170 255zM255 50h340l-170 255zM455 350l170 -255v510zM425 395l170 255h-340z" />
    <glyph glyph-name="f_j" unicode="fj" horiz-adv-x="469" 
d="M244 -127c0 -12 -23 -22 -23 -49c0 -9 4 -15 12 -15c49 0 88 86 116 181l114 393h-188l-168 -568l-89 -15l172 583h-79l5 17h79l47 158c20 69 102 172 255 172c80 0 113 -32 113 -60c0 -22 -20 -42 -53 -42c-36 0 -45 12 -45 28s9 35 9 49c0 11 -6 18 -24 18
c-35 0 -128 -22 -165 -148l-52 -175h265l-109 -386c-29 -98 -63 -214 -213 -214c-58 0 -82 23 -82 47s25 49 64 49c22 0 39 -10 39 -23z" />
    <glyph glyph-name="f_f_j" unicode="ffj" horiz-adv-x="735" 
d="M512 -127c0 -12 -23 -22 -23 -49c0 -9 4 -15 12 -15c49 0 87 86 116 181l120 393h-188l-168 -568l-89 -15l172 583h-189l-168 -568l-89 -15l172 583h-79l5 17h79l47 158c20 69 69 172 222 172c72 0 99 -26 99 -51c0 -26 -27 -51 -64 -51c-30 0 -39 8 -39 20
c0 19 24 47 24 63c0 7 -5 12 -20 12c-35 0 -95 -22 -132 -148l-52 -175h189l47 158c20 69 102 172 255 172c80 0 113 -32 113 -60c0 -22 -20 -42 -53 -42c-36 0 -45 12 -45 28s9 35 9 49c0 11 -6 18 -24 18c-35 0 -128 -22 -165 -148l-52 -175h265l-115 -386
c-29 -98 -63 -214 -213 -214c-58 0 -82 23 -82 47s25 49 64 49c22 0 39 -10 39 -23z" />
    <glyph glyph-name="f_t" unicode="ft" horiz-adv-x="548" 
d="M430 -13c-45 0 -56 30 -56 59c0 28 9 54 16 76l83 261h-198l-168 -568l-89 -15l172 583h-79l5 17h79l47 158c20 69 69 172 222 172c72 0 99 -26 99 -51c0 -26 -27 -51 -64 -51c-30 0 -39 8 -39 20c0 19 24 47 24 63c0 7 -5 12 -20 12c-35 0 -95 -22 -132 -148l-52 -175
h197l32 109l107 71l-66 -180h106l-10 -16h-101l-98 -316c-1 -4 -1 -8 -1 -12c0 -16 11 -25 22 -25h3c8 0 24 9 37 24l38 45l12 -9c-54 -75 -86 -104 -128 -104z" />
    <glyph glyph-name="f_f_t" unicode="fft" horiz-adv-x="822" 
d="M706 -13c-45 0 -56 30 -56 59c0 28 9 54 16 76l78 261h-198l-168 -568l-89 -15l172 583h-186l-168 -568l-89 -15l172 583h-79l5 17h79l47 158c20 69 69 172 222 172c72 0 99 -26 99 -51c0 -26 -27 -51 -64 -51c-30 0 -39 8 -39 20c0 19 24 47 24 63c0 7 -5 12 -20 12
c-35 0 -95 -22 -132 -148l-52 -175h186l47 158c20 69 69 172 222 172c72 0 99 -26 99 -51c0 -26 -27 -51 -64 -51c-30 0 -39 8 -39 20c0 19 24 47 24 63c0 7 -5 12 -20 12c-35 0 -95 -22 -132 -148l-52 -175h197l32 109l107 71l-69 -180h109l-10 -16h-104l-90 -316
c-1 -4 -1 -8 -1 -12c0 -16 11 -25 22 -25h3c8 0 24 9 37 24l38 45l12 -9c-54 -75 -86 -104 -128 -104z" />
    <glyph glyph-name="f_f" unicode="ff" horiz-adv-x="556" 
d="M472 383h-197l-168 -568l-89 -15l172 583h-79l5 17h79l47 158c20 69 69 172 222 172c72 0 99 -26 99 -51c0 -26 -27 -51 -64 -51c-30 0 -39 8 -39 20c0 19 24 47 24 63c0 7 -5 12 -20 12c-35 0 -95 -22 -132 -148l-52 -175h197l47 158c20 69 69 172 222 172
c72 0 99 -26 99 -51c0 -26 -27 -51 -64 -51c-30 0 -39 8 -39 20c0 19 24 47 24 63c0 7 -5 12 -20 12c-35 0 -95 -22 -132 -148l-52 -175h98l-5 -17h-98l-168 -568l-89 -15z" />
    <glyph glyph-name="f_i" unicode="fi" horiz-adv-x="525" 
d="M468 383h-193l-168 -568l-89 -15l172 583h-79l5 17h79l47 158c20 69 102 172 255 172c80 0 113 -32 113 -60c0 -22 -20 -42 -53 -42c-36 0 -45 12 -45 28s9 35 9 49c0 11 -6 18 -24 18c-35 0 -128 -22 -165 -148l-52 -175h265l-89 -297c-5 -17 -14 -49 -16 -58
c0 -6 8 -13 15 -13c8 0 24 9 37 24l38 45l12 -9c-54 -75 -89 -102 -131 -102c-30 0 -41 18 -41 47c0 19 5 44 13 72z" />
    <glyph glyph-name="f_l" unicode="fl" horiz-adv-x="534" 
d="M464 730h181l-186 -627c-5 -17 -13 -49 -15 -58c0 -6 7 -13 15 -13c9 0 26 9 39 24l40 45l12 -9c-55 -75 -89 -102 -133 -102c-32 0 -44 19 -44 49c0 20 5 43 13 70l180 606h-27c0 7 -60 8 -75 8c-35 0 -95 -22 -132 -148l-52 -175h98l-5 -17h-98l-168 -568l-89 -15
l172 583h-79l5 17h79l47 158c20 69 69 172 222 172z" />
    <glyph glyph-name="f_f_i" unicode="ffi" horiz-adv-x="803" 
d="M464 383h-189l-168 -568l-89 -15l172 583h-79l5 17h79l47 158c20 69 69 172 222 172c72 0 99 -26 99 -51c0 -26 -27 -51 -64 -51c-30 0 -39 8 -39 20c0 19 24 47 24 63c0 7 -5 12 -20 12c-35 0 -95 -22 -132 -148l-52 -175h189l47 158c20 69 102 172 255 172
c80 0 113 -32 113 -60c0 -22 -20 -42 -53 -42c-36 0 -45 12 -45 28s9 35 9 49c0 11 -6 18 -24 18c-35 0 -128 -22 -165 -148l-52 -175h265l-89 -297c-5 -17 -14 -49 -16 -58c0 -6 8 -13 15 -13c8 0 24 9 37 24l38 45l12 -9c-54 -75 -89 -102 -131 -102c-30 0 -41 18 -41 47
c0 19 5 44 13 72l85 274h-193l-168 -568l-89 -15z" />
    <glyph glyph-name="f_f_l" unicode="ffl" horiz-adv-x="822" 
d="M746 730h181l-186 -627c-5 -17 -13 -49 -15 -58c0 -6 7 -13 15 -13c9 0 26 9 39 24l40 45l12 -9c-55 -75 -89 -102 -133 -102c-32 0 -44 19 -44 49c0 20 5 43 13 70l180 606h-27c0 7 -60 8 -75 8c-35 0 -95 -22 -132 -148l-52 -175h98l-5 -17h-98l-168 -568l-89 -15
l172 583h-79l5 17h79l47 158c20 69 69 172 222 172zM18 -200l172 583h-79l5 17h79l47 158c20 69 69 172 222 172c72 0 99 -26 99 -51c0 -26 -27 -51 -64 -51c-30 0 -39 8 -39 20c0 19 24 47 24 63c0 7 -5 12 -20 12c-35 0 -95 -22 -132 -148l-52 -175h98l-5 -17h-98
l-168 -568z" />
    <glyph glyph-name="longs_t" unicode="&#x17f;t" horiz-adv-x="539" 
d="M137 383c184 28 58 347 353 347c72 0 100 -26 100 -51c0 -26 -27 -51 -65 -51c-29 0 -38 8 -38 20c0 19 23 47 23 63c0 7 -5 12 -20 12c-35 0 -91 -23 -132 -148l-253 -775h-85l196 583h-79zM439 69c-1 -4 -1 -8 -1 -12c0 -16 11 -25 22 -25h3c8 0 24 9 37 24l38 45
l12 -9c-54 -75 -86 -104 -128 -104c-48 0 -56 23 -56 53c0 26 10 57 17 81l81 256h-87l13 22h82l33 109l107 71l-66 -180h105l-13 -22h-101z" />
    <glyph glyph-name=".notdef" horiz-adv-x="642" 
d="M175 0v700h500v-700h-500zM225 605v-510l170 255zM255 50h340l-170 255zM455 350l170 -255v510zM425 395l170 255h-340z" />
    <glyph glyph-name="space" unicode=" " horiz-adv-x="300" 
 />
    <glyph glyph-name="exclam" unicode="!" horiz-adv-x="285" 
d="M155 81c27 0 48 -20 48 -45c0 -30 -29 -51 -56 -51c-26 0 -47 21 -47 46c0 23 23 50 55 50zM178 193c135 443 91 544 173 544c28 0 46 -16 46 -40c0 -74 -61 -83 -192 -508z" />
    <glyph glyph-name="quotedbl" unicode="&#x22;" horiz-adv-x="342" 
d="M350 510l64 191c7 21 18 31 36 31s33 -14 33 -29c0 -11 -6 -20 -13 -30l-107 -163h-13zM217 510l63 191c8 21 18 31 36 31s33 -14 33 -29c0 -11 -6 -20 -12 -30l-108 -163h-12z" />
    <glyph glyph-name="numbersign" unicode="#" horiz-adv-x="474" 
d="M327 438l-84 -175h112l83 175h-111zM173 228h-88l13 35h94l84 175h-89l14 36h95l106 212h52l-107 -212h112l106 212h52l-107 -212h87l-14 -36h-94l-83 -175h88l-13 -35h-95l-112 -228h-52l114 228h-112l-114 -228h-50z" />
    <glyph glyph-name="dollar" unicode="$" horiz-adv-x="445" 
d="M446 531c0 49 59 44 59 88c0 23 -28 48 -65 53l-81 -274c22 -30 131 -34 131 -138c0 -80 -70 -256 -251 -267l-37 -123h-43l37 122c-99 9 -136 63 -136 116c0 54 40 107 90 107c26 0 43 -14 43 -35c0 -4 0 -8 -2 -12c-15 -51 -53 -29 -68 -78c-1 -5 -2 -10 -2 -14
c0 -32 32 -58 80 -64l92 309c-85 36 -116 83 -116 137c0 70 57 212 226 236l32 107h43l-31 -106c75 -7 119 -46 119 -102c0 -34 -15 -93 -78 -93c-26 0 -42 12 -42 31zM396 670c-87 -10 -141 -108 -141 -173c0 -38 20 -64 64 -88zM245 14c108 10 164 133 164 200
c0 78 -66 94 -76 97z" />
    <glyph glyph-name="percent" unicode="%" horiz-adv-x="843" 
d="M207 441c0 115 95 259 201 259c50 0 93 -48 93 -122c0 -107 -89 -245 -201 -245c-59 0 -93 42 -93 108zM304 343c67 0 129 246 129 303c0 37 -14 45 -25 45c-68 0 -130 -253 -130 -308c0 -25 7 -40 26 -40zM542 98c0 115 95 258 201 258c52 0 95 -40 95 -114
c0 -111 -87 -253 -202 -253c-59 0 -94 43 -94 109zM743 347c-67 0 -130 -249 -130 -307c0 -26 8 -41 27 -41c41 0 74 82 104 180c17 59 24 98 24 123c0 37 -14 45 -25 45zM821 708h50l-634 -708h-50z" />
    <glyph glyph-name="ampersand" unicode="&#x26;" horiz-adv-x="728" 
d="M327 394c-119 -67 -136 -170 -136 -222c0 -57 22 -162 108 -162c34 0 68 17 109 53c-43 101 -66 200 -81 331zM501 722c-38 0 -94 -37 -94 -201c0 -19 2 -40 3 -71c72 26 155 97 155 184c0 52 -26 88 -64 88zM630 626c0 -99 -103 -157 -217 -199c15 -134 40 -247 69 -307
c68 72 142 219 145 260l-82 2l4 20h219l-6 -20c-111 -13 -133 -149 -266 -292c25 -52 54 -64 82 -64c40 0 66 22 113 94l25 -10c-58 -85 -115 -125 -180 -125c-45 0 -85 13 -116 57c-66 -42 -112 -57 -168 -57c-95 0 -155 63 -155 159c0 164 168 244 227 274
c0 19 -1 34 -1 48c0 221 106 271 177 271c72 0 130 -45 130 -111z" />
    <glyph glyph-name="quotesingle" unicode="'" horiz-adv-x="236" 
d="M227 510l67 191c8 21 20 31 38 31c19 0 36 -13 36 -29c0 -10 -6 -17 -14 -29l-113 -164h-14z" />
    <glyph glyph-name="parenleft" unicode="(" horiz-adv-x="284" 
d="M456 736l7 -3c-76 -45 -118 -85 -156 -153c-104 -181 -139 -411 -139 -522c0 -61 9 -110 34 -178l-14 -3c-50 81 -75 173 -75 277c0 260 156 503 343 582z" />
    <glyph glyph-name="parenright" unicode=")" horiz-adv-x="285" 
d="M10 -123l-6 3c76 46 116 85 155 153c103 180 139 408 139 519c0 62 -10 112 -35 181l15 3c49 -80 75 -171 75 -274c0 -260 -154 -504 -343 -585z" />
    <glyph glyph-name="asterisk" unicode="*" horiz-adv-x="400" 
d="M527 628l-15 -50h-81l40 -57l-47 -36l-39 56l-24 -79h-51l24 79l-73 -56l-25 36l74 57h-80l15 50h80l-40 57l46 36l40 -56l23 79h51l-23 -79l72 56l26 -36l-74 -57h81z" />
    <glyph glyph-name="plus" unicode="+" horiz-adv-x="518" 
d="M288 178h-184v48h184v178h64v-178h182v-48h-182v-176h-64v176z" />
    <glyph glyph-name="comma" unicode="," horiz-adv-x="238" 
d="M33 -134l-10 10c65 32 103 71 111 120l-15 -3c-4 0 -8 -1 -11 -1c-27 0 -38 23 -38 42c0 22 23 46 54 46c34 0 58 -30 58 -61c0 -60 -58 -119 -149 -153z" />
    <glyph glyph-name="hyphen" unicode="-" horiz-adv-x="324" 
d="M372 178h-300v48h300v-48z" />
    <glyph glyph-name="period" unicode="." horiz-adv-x="200" 
d="M112 95c29 0 52 -25 52 -55s-23 -55 -52 -55s-52 25 -52 55s23 55 52 55z" />
    <glyph glyph-name="slash" unicode="/" horiz-adv-x="518" 
d="M690 722h46l-543 -830h-47z" />
    <glyph glyph-name="zero" unicode="0" horiz-adv-x="480" 
d="M253 2c145 0 241 448 241 578c0 76 -21 116 -63 116c-146 0 -244 -480 -244 -583c0 -75 23 -111 66 -111zM565 500c0 -221 -142 -510 -317 -510c-79 0 -130 77 -130 198c0 195 127 516 316 516c80 0 131 -81 131 -204z" />
    <glyph glyph-name="one" unicode="1" horiz-adv-x="369" 
d="M437 704l-180 -588c-11 -42 -11 -42 -11 -50v-7c0 -29 13 -36 69 -36h44l-7 -23h-316l6 23h34c87 0 82 15 105 93l120 406c12 41 12 41 12 51c0 4 1 8 1 11c0 21 -11 23 -60 23h-58l12 19c62 0 156 36 208 78h21z" />
    <glyph glyph-name="two" unicode="2" horiz-adv-x="475" 
d="M187 497c0 104 100 207 219 207c92 0 152 -59 152 -148c0 -99 -52 -172 -114 -225c-23 -20 -36 -15 -155 -110c-82 -65 -118 -117 -142 -156h204c44 0 57 12 96 83l24 41l25 -6l-79 -183h-366c12 57 51 98 298 331c70 66 126 136 126 233c0 74 -37 122 -96 122
c-61 0 -135 -64 -135 -117c0 -43 57 -41 57 -83c0 -32 -26 -55 -57 -55c-35 0 -57 26 -57 66z" />
    <glyph glyph-name="three" unicode="3" horiz-adv-x="480" 
d="M231 1c142 0 174 190 174 254c0 63 -25 105 -63 105c-31 0 -41 -7 -51 -7c-14 0 -21 5 -21 11s8 12 27 12c20 0 45 -4 50 -4c63 0 133 114 133 215c0 65 -33 103 -88 103c-43 0 -94 -34 -94 -68c0 -33 26 -43 26 -68c0 -28 -24 -46 -50 -46c-29 0 -47 21 -47 51
c0 62 75 145 183 145c90 0 149 -55 149 -136c0 -51 -25 -137 -126 -176c-10 -7 -23 -18 -35 -27c77 -36 92 -101 92 -136c0 -112 -90 -239 -246 -239c-97 0 -154 47 -154 128c0 73 39 89 64 89c27 0 49 -20 49 -45c0 -56 -59 -29 -59 -93c0 -40 39 -68 87 -68z" />
    <glyph glyph-name="four" unicode="4" horiz-adv-x="456" 
d="M540 704l-130 -479h101l-14 -34h-98l-24 -75c-7 -26 -12 -42 -12 -50v-7c0 -29 13 -36 69 -36h13l-6 -23h-264l8 23h12c90 0 81 17 104 93l19 75h-244l2 26l422 487h42zM329 225l97 354l-297 -354h200z" />
    <glyph glyph-name="five" unicode="5" horiz-adv-x="575" 
d="M638 704c-1 -14 -47 -94 -166 -94c-30 0 -66 5 -113 15l-67 -224c45 22 75 30 115 30c87 0 146 -60 146 -147c0 -131 -110 -294 -275 -294c-86 0 -144 49 -144 126c0 51 32 82 68 82c28 0 46 -15 46 -38c0 -35 -34 -50 -53 -59c-4 -4 -9 -9 -9 -31c0 -41 40 -68 89 -68
c104 0 189 138 189 282c0 79 -33 123 -93 123c-36 0 -67 -15 -97 -45c-5 -34 -18 -50 -39 -50c-14 0 -26 7 -26 17c0 17 14 28 38 43l103 329c59 -21 124 -31 174 -31c65 0 107 31 110 31c1 0 3 1 4 3z" />
    <glyph glyph-name="six" unicode="6" horiz-adv-x="572" 
d="M310 2c96 0 160 147 160 269c0 75 -26 118 -77 118c-97 0 -163 -141 -163 -275c0 -74 28 -112 80 -112zM523 571c0 29 25 46 25 80c0 28 -16 45 -43 45c-47 0 -158 -41 -234 -377c41 65 90 97 152 97c79 0 132 -58 132 -145c0 -81 -58 -281 -245 -281
c-95 0 -149 69 -149 190c0 186 139 524 347 524c71 0 120 -40 120 -97c0 -55 -36 -71 -61 -71c-27 0 -44 14 -44 35z" />
    <glyph glyph-name="seven" unicode="7" horiz-adv-x="485" 
d="M639 704l-2 -12l-93 -148c-297 -504 -196 -559 -290 -559c-27 0 -43 15 -43 38c0 56 40 129 239 424l110 183h-151c-92 0 -108 -9 -158 -95l-22 -34l-27 3l99 200l18 -4l88 -6c31 -2 58 -4 82 -4c46 0 105 6 150 14z" />
    <glyph glyph-name="eight" unicode="8" horiz-adv-x="491" 
d="M267 2c92 0 160 76 160 166c0 103 -92 148 -133 172l-19 -10c-76 -40 -121 -122 -121 -204c0 -79 42 -124 113 -124zM389 379c0 0 122 58 122 200c0 66 -38 114 -95 114c-74 0 -139 -72 -139 -161c0 -58 33 -101 112 -153zM569 570c0 -119 -147 -198 -155 -200
c39 -38 85 -93 85 -156c0 -95 -75 -224 -243 -224c-103 0 -165 47 -165 128c0 92 55 179 174 231c-39 37 -55 74 -55 128c0 127 98 227 214 227c87 0 145 -56 145 -134z" />
    <glyph glyph-name="nine" unicode="9" horiz-adv-x="480" 
d="M568 501c0 -192 -139 -511 -347 -511c-73 0 -121 36 -121 94c0 37 23 67 59 67c26 0 45 -16 45 -39v-5c0 -25 -26 -37 -26 -67c0 -27 17 -38 44 -38c46 0 155 22 232 355c-45 -60 -91 -87 -150 -87c-78 0 -132 61 -132 145c0 111 92 289 245 289c96 0 151 -75 151 -203z
M336 298c97 0 162 143 162 267c0 80 -30 129 -83 129c-90 0 -158 -157 -158 -282c0 -73 27 -114 79 -114z" />
    <glyph glyph-name="colon" unicode=":" horiz-adv-x="238" 
d="M213 375c29 0 52 -25 52 -55s-23 -55 -52 -55s-52 25 -52 55s23 55 52 55zM131 95c29 0 52 -25 52 -55s-23 -55 -52 -55s-52 25 -52 55s23 55 52 55z" />
    <glyph glyph-name="semicolon" unicode=";" horiz-adv-x="237" 
d="M205 375c29 0 52 -25 52 -55s-23 -55 -52 -55s-52 25 -52 55s23 55 52 55zM34 -134l-10 10c65 32 103 71 111 120l-15 -3c-4 0 -8 -1 -11 -1c-27 0 -38 23 -38 42c0 22 23 46 54 46c34 0 58 -30 58 -61c0 -60 -58 -119 -149 -153z" />
    <glyph glyph-name="less" unicode="&#x3c;" horiz-adv-x="518" 
d="M507 366l-345 -164l346 -163v-53l-436 192v48l435 192v-52z" />
    <glyph glyph-name="equal" unicode="=" horiz-adv-x="518" 
d="M534 315v-49h-431v49h431zM534 140v-50h-431v50h431z" />
    <glyph glyph-name="greater" unicode="&#x3e;" horiz-adv-x="517" 
d="M130 366v52l434 -192v-48l-434 -192v53l345 163z" />
    <glyph glyph-name="question" unicode="?" horiz-adv-x="380" 
d="M387 728c-44 0 -120 -35 -129 -183h-28c0 6 1 10 1 13c8 105 73 179 157 179c65 0 108 -46 108 -114c0 -187 -247 -211 -247 -353c0 -34 15 -55 39 -55c49 0 71 65 76 77h27c-15 -50 -57 -83 -105 -83c-44 0 -73 30 -73 76c0 169 236 224 236 363c0 46 -26 80 -62 80z
M234 81c27 0 47 -20 47 -45c0 -30 -28 -51 -55 -51c-26 0 -46 20 -46 45c0 29 26 51 54 51z" />
    <glyph glyph-name="at" unicode="@" horiz-adv-x="783" 
d="M500 525c-59 0 -129 -161 -129 -258c0 -62 16 -98 48 -98c71 0 126 193 126 264c0 57 -17 92 -45 92zM266 299c0 140 128 235 220 235c41 0 71 -25 83 -67l14 62h100l-77 -285c-3 -15 -3 -26 -3 -35c0 -24 10 -42 22 -42c60 0 151 135 151 264s-97 285 -272 285
c-181 0 -311 -149 -311 -355c0 -207 132 -355 318 -355c103 0 190 55 252 162h69c-22 -39 -133 -182 -332 -182c-213 0 -375 160 -375 370c0 250 194 380 374 380c188 0 343 -134 343 -298c0 -156 -131 -284 -250 -284c-46 0 -78 21 -78 51c0 13 0 22 5 37
c-41 -60 -72 -81 -114 -81c-44 0 -139 28 -139 138z" />
    <glyph glyph-name="A" unicode="A" horiz-adv-x="639" 
d="M553 730l1 -706h79l-7 -24h-268l7 24h95v219h-215l-130 -219h116l-7 -24h-229l7 24h55l446 706h50zM460 585l-191 -309h191v309z" />
    <glyph glyph-name="B" unicode="B" horiz-adv-x="589" 
d="M634 253c0 -101 -82 -253 -304 -253h-309l7 24h91l200 674h-91l7 24h307c90 0 165 -29 165 -119c0 -140 -142 -209 -196 -225c84 -19 123 -60 123 -125zM326 384h73c106 0 159 44 192 156c10 33 15 60 15 82c0 54 -31 76 -99 76h-34c-43 0 -58 -11 -73 -63zM320 363
l-78 -263c-8 -27 -12 -45 -12 -56c0 -18 11 -20 35 -20h36c119 0 172 31 213 169c11 37 16 66 16 88c0 70 -49 82 -138 82h-72z" />
    <glyph glyph-name="C" unicode="C" horiz-adv-x="594" 
d="M119 212c0 228 204 525 426 525c62 0 121 -11 158 -83l22 76h36l-69 -274h-41c1 20 2 44 2 70c0 89 -16 195 -113 195c-164 0 -256 -285 -281 -371c-25 -87 -39 -157 -39 -211c0 -93 39 -138 116 -138c119 0 201 137 247 236h43l-81 -237h-38l16 55
c-56 -46 -130 -70 -201 -70c-128 0 -203 89 -203 227z" />
    <glyph glyph-name="D" unicode="D" horiz-adv-x="648" 
d="M756 512c0 -143 -103 -512 -445 -512h-287l7 24h91l200 674h-91l7 24h272c98 0 155 -17 191 -52c37 -36 55 -91 55 -158zM268 24h58c133 0 216 93 288 337c24 83 37 148 37 199c0 96 -46 138 -139 138h-44c-38 0 -47 -6 -66 -69l-159 -537c-7 -23 -11 -38 -11 -49
c0 -17 11 -19 36 -19z" />
    <glyph glyph-name="E" unicode="E" horiz-adv-x="589" 
d="M336 24c126 0 184 59 262 228h42l-92 -252h-525l7 24h91l200 674h-91l7 24h515l-60 -240h-41c7 40 10 73 10 100c0 107 -51 116 -144 116h-44c-43 0 -54 -7 -71 -63l-78 -262h136l38 127h44l-84 -285h-44l41 138h-136l-79 -266c-3 -13 -5 -23 -5 -32c0 -22 14 -31 45 -31
h56z" />
    <glyph glyph-name="F" unicode="F" horiz-adv-x="555" 
d="M740 722l-59 -240h-42c7 43 11 78 11 106c0 89 -39 113 -144 113h-38c-43 0 -55 -10 -72 -66l-78 -262h136l43 143h44l-93 -315h-44l45 152h-136l-98 -329h105l-7 -24h-296l7 24h91l200 674h-91l7 24h509z" />
    <glyph glyph-name="G" unicode="G" horiz-adv-x="654" 
d="M314 4c57 0 153 31 207 214l22 76h-91l7 24h274l-7 -24h-89l-91 -309h-39l-2 98c-75 -68 -133 -95 -204 -95c-93 0 -205 60 -205 221c0 40 7 87 23 140c78 265 278 388 413 388c62 0 126 -35 153 -113l32 108h36l-67 -267h-41c2 24 3 46 3 67c0 126 -42 189 -123 189
c-115 0 -217 -130 -289 -372c-25 -83 -35 -147 -35 -196c0 -121 61 -149 113 -149z" />
    <glyph glyph-name="H" unicode="H" horiz-adv-x="688" 
d="M589 358h-279l-99 -334h92l-7 -24h-283l7 24h90l200 674h-90l7 24h283l-7 -24h-92l-91 -307h279l91 307h-88l7 24h280l-7 -24h-91l-200 -674h91l-7 -24h-283l7 24h91z" />
    <glyph glyph-name="I" unicode="I" horiz-adv-x="309" 
d="M412 698l-200 -674h91l-7 -24h-283l7 24h91l200 674h-91l7 24h283l-7 -24h-91z" />
    <glyph glyph-name="J" unicode="J" horiz-adv-x="473" 
d="M451 262c-50 -169 -112 -277 -275 -277c-96 0 -132 52 -132 111c0 77 62 167 130 167c36 0 51 -21 51 -45c0 -36 -32 -79 -77 -79c-10 0 -16 1 -29 5h-3c-7 0 -21 -33 -21 -68c0 -37 16 -75 70 -75c95 0 144 123 185 262l129 435h-90l7 24h282l-7 -24h-91z" />
    <glyph glyph-name="K" unicode="K" horiz-adv-x="671" 
d="M288 311l420 387h-136l7 24h266l-7 -23c-50 0 -111 -32 -168 -85l-175 -164l96 -370c9 -49 18 -57 63 -57h19l-7 -23h-295l7 24h116l-87 360l-136 -131l-68 -229h93l-7 -24h-284l7 24h91l200 674h-91l7 24h284l-7 -24h-93z" />
    <glyph glyph-name="L" unicode="L" horiz-adv-x="553" 
d="M308 24c114 0 186 48 265 235h42l-95 -259h-505l7 24h91l200 674h-91l7 24h283l-7 -24h-90l-181 -611c-4 -16 -9 -30 -9 -40c0 -15 10 -23 47 -23h36z" />
    <glyph glyph-name="M" unicode="M" horiz-adv-x="783" 
d="M454 722l-3 -554l318 554h217l-7 -24h-91l-200 -674h91l-7 -24h-284l7 24h92l196 661l-388 -685h-37l4 685l-196 -661h99l-7 -24h-248l7 24h98l200 674h-91l7 24h223z" />
    <glyph glyph-name="N" unicode="N" horiz-adv-x="678" 
d="M401 722l170 -553l157 529h-97l7 24h246l-7 -24c-66 0 -103 -18 -143 -152l-162 -546h-40l-194 611l-174 -587h98l-7 -24h-246l7 24h97l200 674h-98l7 24h179z" />
    <glyph glyph-name="O" unicode="O" horiz-adv-x="653" 
d="M118 221c0 222 190 516 429 516c126 0 202 -97 202 -237c0 -238 -204 -515 -427 -515c-128 0 -204 96 -204 236zM542 721c-168 0 -253 -252 -284 -358c-15 -51 -40 -142 -40 -220s25 -142 108 -142c169 0 252 256 283 360c15 50 40 141 40 219c0 77 -24 141 -107 141z
" />
    <glyph glyph-name="P" unicode="P" horiz-adv-x="563" 
d="M529 722c147 0 185 -65 185 -130c0 -73 -47 -177 -155 -229c-40 -19 -82 -28 -160 -28h-92l-92 -311h98l-7 -24h-290l7 24h91l200 674h-91l7 24h299zM313 356h99c87 0 145 56 180 172c10 35 16 65 16 88c0 57 -31 82 -91 82h-54c-44 0 -49 -2 -67 -63z" />
    <glyph glyph-name="Q" unicode="Q" horiz-adv-x="654" 
d="M114 233c0 228 206 504 424 504c128 0 207 -99 207 -239c0 -148 -89 -332 -250 -458c-4 -46 -6 -82 -6 -109c0 -49 7 -69 23 -69c19 0 35 25 59 96h44c-27 -91 -86 -147 -155 -147c-49 0 -75 34 -75 96c0 27 5 59 15 96c-30 -9 -49 -12 -77 -12c-130 0 -209 100 -209 242
zM489 98c91 124 155 382 155 484c0 81 -28 139 -109 139c-148 0 -237 -204 -283 -358c-28 -95 -42 -168 -42 -223c0 -19 2 -36 5 -51c11 91 86 159 170 159c121 0 99 -140 104 -150zM377 232c-68 0 -121 -114 -121 -167c0 -37 23 -58 64 -58c31 0 53 8 85 31l6 18
c12 41 18 76 18 104c0 47 -17 72 -52 72z" />
    <glyph glyph-name="R" unicode="R" horiz-adv-x="612" 
d="M707 601c0 -37 -21 -200 -244 -237c51 -18 75 -42 75 -109c0 -12 -1 -26 -2 -41l-14 -86c-3 -26 -5 -44 -5 -58c0 -29 7 -34 19 -34c22 0 40 32 65 107h41c-34 -105 -81 -153 -152 -153c-53 0 -76 25 -76 81c0 20 2 43 8 70l13 79c2 20 5 43 5 64c0 42 -14 78 -82 78h-46
l-100 -338h91l-7 -24h-283l7 24h90l200 674h-90l7 24h295c120 0 185 -44 185 -121zM408 383c106 0 151 72 179 166c8 29 13 54 13 74c0 52 -29 75 -87 75h-45c-52 0 -57 -1 -70 -46l-80 -269h90z" />
    <glyph glyph-name="S" unicode="S" horiz-adv-x="534" 
d="M568 273c0 -112 -88 -289 -293 -289c-73 0 -152 38 -171 110l-31 -106h-37l78 273h40c-3 -24 -5 -48 -5 -72c0 -102 35 -189 139 -189c128 0 195 143 195 222c0 78 -65 87 -87 95l-73 25c-87 28 -126 65 -126 127c0 98 89 268 259 268h4c96 0 144 -36 148 -117l30 102h36
l-60 -237h-41c1 14 2 28 2 43c0 89 -25 192 -123 192c-106 0 -165 -121 -165 -192c0 -44 23 -76 73 -93l82 -28c47 -14 126 -34 126 -134z" />
    <glyph glyph-name="T" unicode="T" horiz-adv-x="586" 
d="M414 703c-56 0 -129 -44 -213 -244h-41l90 263h512l-64 -263h-42c8 46 13 86 13 121c0 77 -23 123 -81 123c-25 0 -41 -17 -52 -54l-185 -625h96l-7 -24h-295l7 24h97l185 625c4 12 5 22 5 30c0 16 -8 24 -25 24z" />
    <glyph glyph-name="U" unicode="U" horiz-adv-x="677" 
d="M243 127c0 -46 22 -119 114 -119c67 0 132 40 181 111c26 38 41 73 67 160l124 419h-96l7 24h247l-7 -24h-98l-126 -425c-33 -112 -102 -288 -328 -288c-158 0 -188 78 -188 141c0 29 6 54 10 67l150 505h-89l7 24h283l-7 -24h-92l-131 -440c-20 -69 -28 -103 -28 -131z
" />
    <glyph glyph-name="V" unicode="V" horiz-adv-x="630" 
d="M438 698c-56 0 -71 -27 -71 -76l21 -474l327 550h-113l7 24h235l-7 -24h-12c-45 0 -79 -22 -131 -108l-365 -605h-38l-30 713h-55l7 24h268l-7 -24h-36z" />
    <glyph glyph-name="W" unicode="W" horiz-adv-x="831" 
d="M353 180l206 392l4 126h-61l7 24h251l-7 -24h-34c-45 0 -55 -38 -56 -75l-13 -443l279 518h-105l7 24h213l-7 -24h-6c-54 0 -100 -74 -123 -116l-322 -597h-37l17 517l-277 -517h-41l13 713h-53l7 24h245l-7 -24h-42c-47 0 -47 -63 -47 -65z" />
    <glyph glyph-name="X" unicode="X" horiz-adv-x="622" 
d="M369 24c42 1 67 17 67 57c0 5 -1 11 -2 16l-56 225l-252 -298h130l-7 -24h-246l7 24h5c43 0 83 27 135 87l207 241l-94 346h-53l7 24h266l-7 -23h-35c-29 0 -39 -7 -45 -27c-1 -5 -2 -16 1 -26l46 -215l214 267h-104l7 24h238l-7 -23h-16c-44 0 -83 -19 -150 -100
l-164 -197l86 -378h79l-7 -24h-283l7 24h26z" />
    <glyph glyph-name="Y" unicode="Y" horiz-adv-x="618" 
d="M430 699c-39 0 -44 -47 -44 -63c0 -3 0 -6 1 -9l57 -273l260 344h-125l7 24h247l-7 -23h-10c-69 0 -118 -74 -148 -116l-210 -281l-82 -278h97l-7 -24h-296l7 24h98l79 265l-89 409h-59l7 24h276l-7 -23h-52z" />
    <glyph glyph-name="Z" unicode="Z" horiz-adv-x="520" 
d="M289 24c121 0 176 89 240 240h45l-93 -264h-456l7 24l545 674h-106c-112 0 -155 -40 -233 -213h-44l88 237h423l-7 -24l-546 -674h137z" />
    <glyph glyph-name="bracketleft" unicode="[" horiz-adv-x="285" 
d="M87 -98h126l-6 -10h-196l257 830h186l-8 -8h-117z" />
    <glyph glyph-name="backslash" unicode="\" horiz-adv-x="517" 
d="M248 708l272 -708h-42l-272 708h42z" />
    <glyph glyph-name="bracketright" unicode="]" horiz-adv-x="284" 
d="M379 712h-127l8 10h196l-257 -830h-185l7 8h116z" />
    <glyph glyph-name="asciicircum" unicode="^" horiz-adv-x="517" 
d="M567 318h-71l-143 337l-144 -337h-71l180 404h70z" />
    <glyph glyph-name="underscore" unicode="_" horiz-adv-x="427" 
d="M-30 -81h427v-42h-427v42z" />
    <glyph glyph-name="grave" unicode="`" horiz-adv-x="246" 
d="M287 535h-39l-132 118c-9 8 -22 20 -22 30c0 13 14 23 32 23c14 0 22 -6 44 -31z" />
    <glyph glyph-name="a" unicode="a" horiz-adv-x="488" 
d="M86 121c0 139 116 291 236 291c45 0 74 -20 89 -63l14 52h74l-86 -298c-5 -17 -14 -49 -16 -58c0 -6 8 -13 16 -13c9 0 26 9 39 24l39 45l12 -9c-55 -75 -89 -102 -133 -102c-33 0 -46 20 -46 51c0 7 1 15 2 23c-40 -53 -80 -76 -130 -76c-70 0 -110 55 -110 133zM216 9
c93 0 169 208 169 305c0 61 -28 79 -54 79c-98 0 -168 -215 -168 -304c0 -50 17 -80 53 -80z" />
    <glyph glyph-name="b" unicode="b" horiz-adv-x="452" 
d="M488 282c0 -131 -114 -294 -237 -294c-84 0 -139 69 -139 132c0 10 1 19 4 28l168 567h-67l5 15h141l-113 -381c41 43 81 63 126 63c69 0 112 -52 112 -130zM243 9c100 0 166 215 166 306c0 63 -28 78 -53 78c-87 0 -165 -184 -165 -298c0 -50 16 -86 52 -86z" />
    <glyph glyph-name="c" unicode="c" horiz-adv-x="366" 
d="M330 298c0 32 39 38 39 74c0 18 -13 30 -31 30c-95 0 -172 -205 -172 -306c0 -53 20 -83 59 -83c40 0 76 26 119 93l33 -5c-58 -81 -107 -113 -177 -113c-82 0 -117 55 -117 126c0 125 109 298 253 298c70 0 98 -37 98 -74c0 -34 -26 -68 -65 -68c-24 0 -39 11 -39 28z
" />
    <glyph glyph-name="d" unicode="d" horiz-adv-x="486" 
d="M86 121c0 139 116 291 236 291c45 0 74 -20 89 -63l108 366h-84l5 15h158l-185 -627c-5 -17 -14 -49 -16 -58c0 -6 8 -13 16 -13c9 0 26 9 39 24l39 45l12 -9c-55 -75 -89 -102 -133 -102c-33 0 -46 20 -46 51c0 7 1 15 2 23c-40 -53 -80 -76 -130 -76
c-70 0 -110 55 -110 133zM216 9c93 0 169 208 169 305c0 61 -28 79 -54 79c-98 0 -168 -215 -168 -304c0 -50 17 -80 53 -80z" />
    <glyph glyph-name="e" unicode="e" horiz-adv-x="370" 
d="M145 167c16 3 206 35 206 171c0 40 -23 65 -55 65c-95 0 -139 -160 -151 -236zM370 78l17 -12c-48 -53 -113 -78 -181 -78c-96 0 -146 53 -146 142c0 142 123 282 253 282c62 0 103 -32 103 -79c0 -104 -190 -174 -273 -186c-2 -16 -3 -33 -3 -40c0 -69 29 -106 86 -106
c49 0 89 21 144 77z" />
    <glyph glyph-name="f" unicode="f" horiz-adv-x="274" 
d="M18 -200l172 583h-79l5 17h79l47 158c20 69 69 172 222 172c72 0 99 -26 99 -51c0 -26 -27 -51 -64 -51c-30 0 -39 8 -39 20c0 19 24 47 24 63c0 7 -5 12 -20 12c-35 0 -95 -22 -132 -148l-52 -175h98l-5 -17h-98l-168 -568z" />
    <glyph glyph-name="g" unicode="g" horiz-adv-x="440" 
d="M92 114c0 130 123 298 250 298c49 0 82 -24 99 -73l52 61h32c-32 -70 -25 -44 -50 -127l-79 -259c-66 -198 -204 -212 -282 -214c-44 0 -73 18 -94 49l11 12c21 -28 43 -40 76 -40h2c77 0 179 71 208 178l15 52c-45 -46 -76 -63 -123 -63c-74 0 -117 51 -117 126z
M346 403c-105 0 -174 -239 -174 -319c0 -50 19 -77 56 -77c61 0 111 65 150 197c15 52 22 91 22 120c0 63 -29 79 -54 79z" />
    <glyph glyph-name="h" unicode="h" horiz-adv-x="500" 
d="M209 715l5 15h149l-119 -400c52 57 98 82 149 82c70 0 94 -31 94 -79c0 -25 -7 -54 -16 -85l-42 -144c-5 -17 -13 -48 -15 -57c0 -6 7 -14 15 -14c9 0 27 10 41 26l38 44l13 -10c-56 -76 -91 -103 -136 -103c-33 0 -45 19 -45 49c0 20 5 44 13 70l42 144
c7 22 14 52 14 78c0 31 -11 57 -46 57h-1c-63 0 -135 -119 -155 -185l-60 -203h-76l212 715h-74z" />
    <glyph glyph-name="i" unicode="i" horiz-adv-x="263" 
d="M133 387l4 15h143l-89 -299c-5 -17 -14 -49 -16 -58c0 -6 8 -13 15 -13c8 0 24 9 37 24l38 45l12 -9c-54 -75 -89 -102 -131 -102c-30 0 -41 18 -41 47c0 19 5 44 13 72l83 278h-68zM296 597c23 0 34 -15 34 -33c0 -28 -25 -64 -63 -64c-25 0 -36 15 -36 33
c0 28 27 64 65 64z" />
    <glyph glyph-name="j" unicode="j" horiz-adv-x="251" 
d="M321 598c23 0 34 -15 34 -33c0 -28 -25 -64 -63 -64c-25 0 -36 15 -36 33c0 28 27 64 65 64zM5 -127c0 -12 -23 -22 -23 -49c0 -9 4 -15 12 -15c49 0 85 78 113 173l119 403h-87l4 15h171l-111 -376c-29 -98 -69 -224 -219 -224c-58 0 -82 23 -82 47s25 49 64 49
c22 0 39 -10 39 -23z" />
    <glyph glyph-name="k" unicode="k" horiz-adv-x="508" 
d="M396 -10c-40 0 -68 24 -84 70l-54 151l-66 -56l-45 -155h-76l212 715h-74l5 15h148l-160 -539l240 194h-114l4 15h225l-4 -15c-60 -6 -106 -29 -170 -81l-51 -47l66 -183c16 -36 33 -42 41 -42c9 0 26 9 39 24l39 45l12 -9c-55 -75 -89 -102 -133 -102z" />
    <glyph glyph-name="l" unicode="l" horiz-adv-x="242" 
d="M212 715l4 15h147l-186 -627c-5 -17 -13 -49 -15 -58c0 -6 7 -13 15 -13c9 0 26 9 39 24l40 45l12 -9c-55 -75 -89 -102 -133 -102c-32 0 -44 19 -44 49c0 20 5 43 13 70l180 606h-72z" />
    <glyph glyph-name="m" unicode="m" horiz-adv-x="721" 
d="M649 102c-5 -17 -13 -48 -15 -57c0 -6 7 -14 15 -14c9 0 27 10 41 26l38 44l13 -10c-56 -76 -91 -103 -136 -103c-33 0 -45 19 -45 49c0 20 5 44 13 70l40 144c6 23 14 54 14 80c0 30 -10 55 -41 55c-56 0 -109 -63 -139 -164l-66 -222h-77l77 261c7 23 13 50 13 73
c0 29 -10 52 -43 52c-52 0 -110 -65 -137 -155l-69 -231h-75l114 385h-69l5 15h144l-21 -70c47 56 90 82 137 82c53 0 86 -37 86 -89v-2c52 61 96 91 149 91c62 0 88 -33 88 -85c0 -18 -3 -38 -9 -60z" />
    <glyph glyph-name="n" unicode="n" horiz-adv-x="500" 
d="M348 109l42 140c5 18 10 44 10 69c0 35 -10 68 -41 68c-87 0 -138 -123 -158 -190l-58 -196h-76l114 385h-63l4 15h139l-19 -63c49 50 96 75 147 75c62 -1 89 -39 89 -95c0 -22 -4 -47 -12 -73l-42 -140c-5 -17 -13 -48 -15 -57c0 -6 7 -14 15 -14c9 0 27 10 41 26l38 44
l13 -10c-56 -76 -91 -103 -136 -103c-33 0 -45 19 -45 49c0 20 5 44 13 70z" />
    <glyph glyph-name="o" unicode="o" horiz-adv-x="414" 
d="M86 126c0 134 121 286 247 286c72 0 117 -58 117 -139c0 -140 -126 -285 -244 -285c-75 0 -120 57 -120 138zM209 -2c102 0 170 246 170 330c0 49 -17 74 -49 74c-59 0 -108 -68 -148 -202c-16 -53 -23 -96 -23 -128c0 -49 17 -74 50 -74z" />
    <glyph glyph-name="p" unicode="p" horiz-adv-x="456" 
d="M493 283c0 -132 -120 -295 -240 -295c-47 0 -72 21 -82 71l-79 -259h-74l174 584h-64l5 16h139l-23 -76c42 57 86 88 134 88c69 0 110 -53 110 -129zM249 7c94 0 167 226 167 314c0 46 -17 72 -50 72c-57 0 -171 -163 -171 -299c0 -52 18 -87 54 -87z" />
    <glyph glyph-name="q" unicode="q" horiz-adv-x="440" 
d="M82 114c0 130 123 298 250 298c49 0 82 -24 99 -73l52 61h32c-32 -70 -25 -44 -50 -127l-141 -473h-77l75 251c-45 -46 -76 -63 -123 -63c-74 0 -117 51 -117 126zM336 403c-105 0 -174 -239 -174 -319c0 -50 19 -77 56 -77c61 0 111 65 150 197c15 52 22 91 22 120
c0 63 -29 79 -54 79z" />
    <glyph glyph-name="r" unicode="r" horiz-adv-x="371" 
d="M378 378c-77 -11 -157 -171 -186 -268l-32 -110h-75l114 385h-67l5 15h141l-36 -121c48 77 103 121 151 121c40 0 56 -20 56 -41c0 -27 -26 -58 -64 -58c-23 0 -35 11 -35 26c0 14 10 33 28 51z" />
    <glyph glyph-name="s" unicode="s" horiz-adv-x="338" 
d="M172 319c0 -93 185 -71 185 -206c0 -74 -69 -125 -170 -125c-88 0 -141 34 -141 88c0 28 18 47 45 47c24 0 42 -14 42 -31c0 -30 -24 -15 -24 -54c0 -26 35 -40 83 -40c65 0 96 32 96 89c0 110 -179 88 -179 203c0 70 67 122 160 122c75 0 129 -32 129 -79
c0 -25 -18 -42 -46 -42c-24 0 -42 12 -42 28c0 22 19 21 19 49c0 22 -27 35 -64 35c-55 0 -93 -33 -93 -84z" />
    <glyph glyph-name="t" unicode="t" horiz-adv-x="269" 
d="M151 -12c-41 0 -55 30 -55 53c0 26 10 57 17 81l81 256h-87l13 22h82l33 109l107 71l-66 -180h105l-13 -22h-101l-98 -309c-1 -4 -1 -8 -1 -12c0 -16 11 -25 22 -25h3c8 0 24 9 37 24l38 45l12 -9c-52 -73 -89 -102 -129 -104z" />
    <glyph glyph-name="u" unicode="u" horiz-adv-x="512" 
d="M439 100c-5 -17 -13 -48 -15 -57c0 -6 7 -14 15 -14c9 0 25 10 39 26l38 44l13 -10c-56 -76 -89 -103 -134 -103c-33 0 -45 19 -45 49c0 19 5 43 13 70c-56 -84 -96 -116 -160 -116h-5c-54 0 -81 31 -81 71c0 24 6 50 13 75l76 250h-90l2 15h168l-87 -282
c-5 -16 -11 -40 -11 -61c0 -26 10 -48 43 -48c65 0 140 108 179 238l45 153h75z" />
    <glyph glyph-name="v" unicode="v" horiz-adv-x="421" 
d="M476 345c0 -95 -65 -358 -234 -358h-2c-79 0 -115 55 -115 118c0 29 4 59 13 85l61 195h-88l7 15h162l-60 -194c-17 -54 -21 -75 -21 -119c0 -45 13 -82 63 -82c109 0 171 203 171 272c0 56 -44 61 -44 94c0 18 15 33 36 33c30 0 51 -27 51 -59z" />
    <glyph glyph-name="w" unicode="w" horiz-adv-x="656" 
d="M477 -12h-3c-72 0 -100 62 -100 133c-55 -83 -92 -133 -166 -133h-3c-64 0 -97 38 -97 84c0 20 5 41 11 62l78 251h-84l7 15h161l-81 -249c-6 -24 -18 -60 -18 -90c0 -31 12 -55 51 -55c78 0 151 180 168 237l44 142h73l-52 -177c-15 -53 -22 -90 -22 -123
c0 -49 22 -79 54 -79c92 0 166 186 166 268c0 59 -45 64 -45 97c0 18 16 33 37 33c30 0 52 -27 52 -59c0 -90 -69 -357 -231 -357z" />
    <glyph glyph-name="x" unicode="x" horiz-adv-x="427" 
d="M80 67c51 0 25 -54 51 -54c15 0 36 29 63 82l39 77l-15 79c-7 36 -14 111 -42 111c-15 0 -27 -18 -73 -72l-12 10c37 48 72 100 113 100c35 0 53 -21 64 -79l15 -78l29 54c17 31 46 103 113 103c27 0 46 -16 46 -38c0 -21 -16 -35 -41 -35c-38 0 -20 35 -44 35
c-16 0 -35 -25 -58 -73l-38 -77l23 -105c9 -42 19 -94 41 -94c30 0 71 68 73 72l22 -8c-58 -88 -99 -89 -116 -89h-1c-40 0 -62 23 -76 83l-16 72l-29 -57c-36 -64 -77 -98 -117 -98c-33 0 -53 17 -53 41c0 23 16 38 39 38z" />
    <glyph glyph-name="y" unicode="y" horiz-adv-x="444" 
d="M289 13c-57 267 -80 357 -104 357c-16 0 -49 -48 -62 -85l-25 15c40 82 78 112 119 112c37 0 62 -36 82 -124l43 -196c63 96 101 184 101 231c0 24 -7 53 -7 59c0 15 17 30 38 30c23 0 36 -14 36 -31c0 -29 -12 -63 -62 -156c-164 -303 -242 -425 -351 -425
c-46 0 -79 23 -79 51c0 19 18 33 41 33c32 0 36 -21 36 -35v-12c0 -18 8 -26 21 -26c25 0 67 38 98 89z" />
    <glyph glyph-name="z" unicode="z" horiz-adv-x="391" 
d="M51 -12c-17 0 -23 4 -23 19c0 170 354 270 355 329l-53 -3h-9c-61 0 -91 29 -131 29c-25 0 -49 -22 -78 -73l-27 6c45 71 93 105 150 105c47 0 106 -45 145 -45c35 0 20 45 51 45c11 0 23 -2 23 -6c-3 -167 -369 -290 -371 -340c16 7 48 7 64 7h6c60 0 112 -35 156 -35
c32 0 55 26 82 83l26 -4c-27 -71 -85 -117 -145 -117c-86 0 -148 55 -182 55c-12 0 -13 -2 -13 -28c0 -17 -13 -27 -26 -27z" />
    <glyph glyph-name="braceleft" unicode="{" horiz-adv-x="284" 
d="M138 300l6 9c59 21 77 50 106 145l37 122c20 63 40 97 68 118c20 15 57 28 88 28h6l-7 -4c-50 -7 -73 -43 -105 -146l-42 -133c-25 -83 -50 -116 -104 -132c27 -14 40 -32 40 -60c0 -15 -4 -30 -17 -74l-34 -115c-15 -49 -20 -82 -20 -102c0 -35 13 -57 39 -59l-6 -5h-17
c-43 0 -68 23 -68 65c0 20 7 52 22 103l27 92c17 55 18 60 18 85c0 30 -12 51 -37 63z" />
    <glyph glyph-name="bar" unicode="|" horiz-adv-x="242" 
d="M230 722v-722h-58v722h58z" />
    <glyph glyph-name="braceright" unicode="}" horiz-adv-x="284" 
d="M327 314l-6 -9c-59 -20 -78 -51 -107 -145l-37 -122c-13 -41 -40 -146 -155 -146h-4l7 4c48 6 70 42 102 146l41 132c26 83 51 116 104 133c-26 13 -38 32 -38 59c0 15 0 31 14 74l37 115c12 44 20 79 20 100c0 36 -14 59 -39 62l5 5h18c41 0 68 -25 68 -63
c0 -21 -10 -65 -23 -106l-27 -91c-14 -46 -18 -61 -18 -83c0 -32 12 -56 38 -65z" />
    <glyph glyph-name="asciitilde" unicode="~" horiz-adv-x="518" 
d="M158 186l-42 31c31 66 77 110 118 110c21 0 40 -9 84 -38l41 -27c46 -35 54 -38 71 -38c24 0 52 30 75 81l42 -31c-32 -66 -78 -109 -118 -109c-21 0 -42 8 -85 36l-39 28c-52 36 -54 38 -71 38c-25 0 -53 -30 -76 -81z" />
    <glyph glyph-name="uni00A0" unicode="&#xa0;" horiz-adv-x="300" 
 />
    <glyph glyph-name="exclamdown" unicode="&#xa1;" horiz-adv-x="284" 
d="M295 549c26 0 47 -21 47 -46c0 -23 -23 -50 -55 -50c-27 0 -48 20 -48 45c0 30 29 51 56 51zM263 341c-132 -430 -90 -544 -173 -544c-28 0 -45 15 -45 40c0 73 61 86 191 508z" />
    <glyph glyph-name="cent" unicode="&#xa2;" horiz-adv-x="366" 
d="M330 298c0 31 39 38 39 74c0 16 -10 27 -25 30l-115 -389c39 2 74 28 115 93l33 -5c-52 -72 -96 -105 -155 -112l-26 -89h-47l27 90c-65 10 -93 60 -93 124c0 114 91 269 217 294l27 92h46l-26 -88c62 -4 87 -39 87 -74c0 -34 -26 -68 -65 -68c-24 0 -39 11 -39 28z
M294 387c-71 -46 -128 -202 -128 -291c0 -31 7 -55 21 -69z" />
    <glyph glyph-name="sterling" unicode="&#xa3;" horiz-adv-x="468" 
d="M473 533c0 61 79 42 79 107c0 28 -25 53 -56 53c-87 0 -121 -101 -137 -150c-4 -13 -7 -30 -28 -182h143l-7 -25h-135c-10 -101 -51 -194 -86 -246c33 -36 54 -47 85 -47c54 0 89 25 133 95l32 -7c-48 -95 -114 -146 -187 -146c-42 0 -75 18 -110 62
c-47 -44 -78 -62 -115 -62c-42 0 -60 22 -60 49c0 40 42 91 108 91c20 0 37 -5 64 -22c21 54 39 92 46 233h-113l7 25h101c6 80 10 110 23 153c33 113 127 190 227 190c84 0 117 -48 117 -97c0 -52 -37 -106 -89 -106c-27 0 -42 13 -42 32zM120 116c-22 0 -55 -45 -55 -87
c0 -21 8 -36 24 -36c23 0 46 20 79 73c-15 35 -28 50 -48 50z" />
    <glyph glyph-name="currency" unicode="&#xa4;" horiz-adv-x="567" 
d="M527 544l47 53l49 -38l-48 -55c32 -46 47 -104 47 -162c0 -57 -15 -112 -48 -158l49 -48l-49 -43l-49 43c-39 -28 -88 -42 -135 -42c-49 0 -105 15 -145 50l-46 -51l-49 43l49 50c-32 49 -48 105 -48 163c0 55 17 114 48 158l-49 52l49 38l49 -54c41 35 87 53 135 53
c51 0 102 -16 144 -52zM389 543h-4c-98 0 -175 -81 -175 -196c0 -118 80 -199 175 -199c102 0 179 72 179 197c0 120 -78 198 -175 198z" />
    <glyph glyph-name="yen" unicode="&#xa5;" horiz-adv-x="477" 
d="M385 699c-27 0 -34 -40 -34 -69l17 -289l145 238c14 23 35 65 35 93c0 16 -7 27 -26 27h-17l7 23h178l-7 -23h-6c-49 0 -98 -88 -116 -118l-160 -260h85l-8 -27h-97l-33 -111h97l-7 -26h-97l-13 -41l-4 -15c-7 -27 -12 -44 -12 -56c0 -19 12 -22 44 -22h19l-7 -23h-246
l7 23h18c49 0 55 6 72 64l21 70h-97l7 26h97l33 111h-97l8 27h81l-21 324c-2 44 -7 54 -31 54h-13l7 23h201l-7 -23h-23z" />
    <glyph glyph-name="brokenbar" unicode="&#xa6;" horiz-adv-x="521" 
d="M396 310v-310h-58v310h58zM396 722v-309h-58v309h58z" />
    <glyph glyph-name="section" unicode="&#xa7;" horiz-adv-x="428" 
d="M271 452c-43 0 -78 -45 -78 -101c0 -22 6 -49 18 -72l36 -68c29 -61 46 -76 80 -76c42 0 83 48 83 101c0 29 -7 62 -26 95l-33 59c-19 39 -49 62 -80 62zM446 618c0 43 37 38 37 70c0 27 -28 44 -60 44c-72 0 -90 -71 -90 -112c0 -39 14 -82 58 -164l43 -75
c24 -39 37 -75 37 -109c0 -82 -62 -150 -127 -150c-16 0 -27 2 -40 4c23 -60 31 -87 31 -123c0 -113 -82 -153 -148 -153c-71 0 -121 42 -121 98c0 34 20 57 49 57c25 0 43 -15 43 -38c0 -32 -33 -32 -33 -68c0 -25 28 -44 58 -44c51 0 83 48 83 115c0 40 -8 77 -51 151
l-47 81c-25 42 -37 77 -37 113c0 89 62 146 127 146c16 0 34 -2 52 -7c-26 57 -44 88 -44 129c0 102 66 154 153 154c69 0 119 -40 119 -96c0 -50 -33 -59 -49 -59c-24 0 -43 16 -43 36z" />
    <glyph glyph-name="dieresis" unicode="&#xa8;" horiz-adv-x="356" 
d="M224 579c0 32 34 65 62 65c19 0 32 -16 32 -35c0 -31 -31 -65 -63 -65c-19 0 -31 15 -31 35zM390 578c0 34 33 66 62 66c19 0 32 -16 32 -35c0 -31 -31 -65 -63 -65c-19 0 -31 15 -31 34z" />
    <glyph glyph-name="copyright" unicode="&#xa9;" horiz-adv-x="794" 
d="M505 722c-175 0 -315 -161 -315 -361c0 -197 141 -361 310 -361c177 0 318 159 318 362c0 199 -142 360 -313 360zM504 737c202 0 369 -168 369 -375c0 -211 -166 -377 -375 -377c-199 0 -363 171 -363 376c0 207 164 376 369 376zM657 578l8 -163h-42
c-25 108 -62 155 -119 155c-71 0 -106 -74 -106 -214c0 -135 35 -200 111 -200c67 0 105 44 120 138l43 -3c-13 -94 -72 -144 -168 -144c-117 0 -202 89 -202 212c0 121 90 220 202 220c36 0 55 -7 95 -36l20 35h38z" />
    <glyph glyph-name="ordfeminine" unicode="&#xaa;" horiz-adv-x="360" 
d="M474 532h12c-30 -49 -47 -76 -96 -77c-18 0 -29 9 -29 23c0 4 2 30 3 38c-27 -46 -45 -60 -92 -61c-47 0 -75 31 -75 78c0 75 65 198 150 198c38 0 64 -27 65 -68l23 63h44l-73 -197c-6 -19 -9 -32 -9 -40v-7c0 -13 4 -20 12 -20c14 0 34 16 65 70zM285 460
c79 0 114 161 114 209c0 38 -16 57 -41 57c-72 0 -117 -135 -117 -209c0 -39 17 -57 44 -57zM182 349h242l-2 -19h-242z" />
    <glyph glyph-name="guillemotleft" unicode="&#xab;" horiz-adv-x="364" 
d="M326 233l42 -140c4 -7 3 -8 -2 -8h-8c-3 0 -5 2 -12 9l-82 145l172 147c10 9 17 13 19 13h1c0 -5 -37 -40 -54 -64zM153 233l42 -140c4 -7 3 -8 -2 -8h-8c-2 0 -5 2 -11 9c-8 15 -10 28 -32 64l-51 81l70 53c5 4 115 107 122 107c1 0 2 0 2 -1c0 -8 -44 -47 -55 -63z" />
    <glyph glyph-name="logicalnot" unicode="&#xac;" horiz-adv-x="518" 
d="M87 293h431v-293h-64v230h-367v63z" />
    <glyph glyph-name="sfthyphen" unicode="&#xad;" horiz-adv-x="324" 
d="M372 178h-300v48h300v-48z" />
    <glyph glyph-name="registered" unicode="&#xae;" horiz-adv-x="794" 
d="M505 722c-175 0 -316 -161 -316 -361c0 -197 141 -361 311 -361c177 0 318 159 318 362c0 199 -142 360 -313 360zM504 737c202 0 369 -168 369 -375c0 -211 -166 -377 -375 -377c-199 0 -363 171 -363 376c0 207 164 376 369 376zM453 393h51c53 0 77 30 77 94
s-20 88 -70 88h-30c-28 0 -28 0 -28 -42v-140zM369 214v324c0 36 -2 37 -40 37h-21v14h205c102 0 159 -37 159 -101c0 -56 -30 -87 -99 -107c32 -19 46 -42 57 -94l9 -37c8 -55 11 -60 18 -60c9 0 13 23 13 65h43v-5c0 -56 -29 -87 -78 -87c-51 0 -76 25 -82 87l-5 32
c-5 70 -25 97 -73 97h-22v-158c0 -35 2 -39 40 -39h19v-16h-204v16h21c37 0 40 6 40 32z" />
    <glyph glyph-name="macron" unicode="&#xaf;" horiz-adv-x="324" 
d="M503 644h-300l14 48h300z" />
    <glyph glyph-name="degree" unicode="&#xb0;" horiz-adv-x="340" 
d="M192 482c0 104 95 204 183 204c55 0 89 -41 89 -101c0 -94 -85 -205 -181 -205c-57 0 -91 42 -91 102zM291 408c59 0 119 105 119 182c0 40 -16 68 -44 68c-55 0 -121 -94 -121 -180c0 -41 17 -70 46 -70z" />
    <glyph glyph-name="plusminus" unicode="&#xb1;" horiz-adv-x="518" 
d="M97 0v61h430v-61h-430zM281 300h-184v60h184v221h64v-221h182v-60h-182v-182h-64v182z" />
    <glyph glyph-name="two.superior" unicode="&#xb2;" horiz-adv-x="332" 
d="M474 693c0 -66 -110 -104 -245 -229h130c29 0 34 14 49 34l15 18h38l-57 -124c-7 4 -14 8 -21 8h-211c-10 -1 -20 -4 -32 -8l7 22c121 120 243 192 243 296c0 24 -11 38 -32 38c-39 0 -68 -44 -68 -64c0 -12 9 -14 9 -23c0 -18 -22 -27 -39 -27c-19 0 -29 11 -29 28
c0 43 59 95 144 95c60 0 99 -26 99 -64z" />
    <glyph glyph-name="three.superior" unicode="&#xb3;" horiz-adv-x="323" 
d="M379 748c-26 0 -64 -50 -64 -85c0 -6 2 -6 2 -8c0 -10 -21 -13 -38 -13c-18 0 -29 9 -29 23c0 32 53 92 139 92c58 0 91 -24 91 -62c0 -66 -93 -105 -114 -111c49 -13 74 -35 74 -69c0 -62 -64 -128 -170 -128c-65 0 -106 21 -106 52c0 27 25 45 57 45c22 0 37 -8 37 -17
c0 -20 -39 -17 -39 -40c0 -15 22 -30 45 -30c65 0 95 102 95 143c0 23 -9 36 -27 36c-14 0 -24 -2 -30 -2c-9 0 -12 3 -12 7c0 5 8 12 18 12c5 0 13 -3 22 -3c48 0 74 99 74 127c0 20 -8 31 -25 31z" />
    <glyph glyph-name="acute" unicode="&#xb4;" horiz-adv-x="246" 
d="M207 535l116 140c22 25 31 31 44 31c17 0 32 -11 32 -23c0 -10 -11 -20 -22 -30l-132 -118h-38z" />
    <glyph glyph-name="uni00B5" unicode="&#xb5;" horiz-adv-x="504" 
d="M344 0l26 88c-56 -66 -103 -94 -156 -94c-42 0 -67 18 -81 55c-14 -47 -29 -190 -34 -207c-11 -36 -36 -61 -62 -61c-20 0 -32 14 -32 35c0 39 67 155 80 198l108 366h-67l5 20h153l-70 -239c-7 -25 -18 -58 -18 -86c0 -29 11 -51 46 -51c27 0 120 36 148 130l67 226h-80
l5 20h163l-112 -380h75l-6 -20h-158z" />
    <glyph glyph-name="paragraph" unicode="&#xb6;" horiz-adv-x="557" 
d="M362 339h-32c-79 0 -119 36 -119 107s42 181 103 239c56 35 124 37 171 37h218l-4 -11c-35 -5 -46 -10 -56 -26c-15 -12 -20 -45 -28 -71l-195 -644c-18 -58 -18 -58 -18 -67v-5c0 -19 10 -25 47 -30l-4 -12h-288l4 12h2c73 0 68 25 90 102zM592 711h-66l-250 -841h66z
M369 345l105 366h-2c-60 0 -93 -36 -123 -134l-25 -85c-7 -25 -14 -54 -14 -71c0 -5 -1 -11 -1 -15c0 -39 14 -61 40 -61h20z" />
    <glyph glyph-name="periodcentered" unicode="&#xb7;" horiz-adv-x="226" 
d="M187 309c32 0 58 -28 58 -62c0 -35 -26 -63 -59 -63c-31 0 -59 28 -59 63c0 34 28 62 60 62z" />
    <glyph glyph-name="cedilla" unicode="&#xb8;" horiz-adv-x="227" 
d="M160 -110c0 -18 -18 -90 -121 -90c-27 0 -51 10 -63 16l8 6c17 -10 30 -15 47 -15c35 0 65 46 65 82c0 22 -12 40 -42 40h-17l58 76h33l-44 -59c36 0 76 -20 76 -56z" />
    <glyph glyph-name="one.superior" unicode="&#xb9;" horiz-adv-x="226" 
d="M291 466l-3 -11c-3 -10 -5 -18 -5 -23c0 -10 8 -12 31 -12h24l-6 -20h-201l6 20h29c33 0 37 3 45 30l63 210c4 13 6 21 6 27c0 9 -6 10 -21 10h-39l6 18c48 1 101 19 125 42h30c-13 -34 -20 -56 -27 -79z" />
    <glyph glyph-name="ordmasculine" unicode="&#xba;" horiz-adv-x="317" 
d="M310 456c92 0 118 163 118 200c0 44 -18 60 -48 60h-5c-20 0 -36 -1 -55 -25c-30 -39 -58 -129 -58 -181c0 -41 16 -54 48 -54zM221 542c0 93 80 180 162 180c51 0 89 -43 89 -93c0 -58 -50 -177 -163 -177c-55 0 -88 33 -88 90zM162 348h243l-1 -19h-243z" />
    <glyph glyph-name="guillemotright" unicode="&#xbb;" horiz-adv-x="365" 
d="M355 254l-42 140c0 4 -1 6 -1 7s0 1 2 1h8c4 0 7 -2 13 -10c0 0 35 -77 83 -145l-173 -146l10 9c-1 0 -32 -26 -35 -26v1c1 9 8 3 57 67zM245 247c-59 -50 -186 -162 -196 -162c0 3 31 34 56 67l77 102l-42 140c0 4 -1 6 -1 7s0 1 2 1h9c4 0 7 -1 12 -10z" />
    <glyph glyph-name="onequarter" unicode="&#xbc;" horiz-adv-x="691" 
d="M285 409l-3 -11c-3 -10 -5 -17 -5 -22c0 -11 9 -13 32 -13h24l-6 -20h-201l6 20h29c33 0 36 3 44 30l63 210c4 13 6 22 6 27c0 9 -6 10 -20 10h-38l5 18c47 1 100 19 124 42h30c-13 -34 -20 -56 -27 -79zM690 357h34c-13 -35 -13 -35 -31 -94l-42 -142h51l-10 -33h-51
l-12 -41c-2 -7 -3 -12 -3 -15c0 -10 8 -12 32 -12h3l-6 -20h-156l6 20h6c32 0 37 3 44 27l12 41h-119l5 18zM577 121l43 147l-140 -147h97zM771 708h50l-634 -708h-50z" />
    <glyph glyph-name="onehalf" unicode="&#xbd;" horiz-adv-x="753" 
d="M283 409l-3 -11c-3 -10 -5 -17 -5 -22c0 -11 8 -13 32 -13h24l-6 -20h-201l6 20h29c33 0 36 3 44 30l63 210c4 13 6 22 6 27c0 9 -6 10 -20 10h-38l5 18c47 1 100 19 124 42h30c-13 -34 -20 -56 -27 -79zM780 289c0 -71 -113 -106 -252 -225h135c30 0 35 16 51 38l17 20
h36l-57 -130c-7 4 -14 8 -22 8h-221c-10 -1 -20 -4 -32 -8l6 22c127 121 254 190 254 293c0 26 -13 41 -37 41c-48 0 -74 -51 -74 -64c0 -16 21 -14 21 -28c0 -17 -21 -28 -44 -28s-37 12 -37 31c0 48 69 98 152 98c63 0 104 -28 104 -68zM747 708h50l-634 -708h-50z" />
    <glyph glyph-name="threequarters" unicode="&#xbe;" horiz-adv-x="689" 
d="M359 691c-24 0 -52 -28 -52 -47c0 -10 8 -12 8 -21c0 -17 -22 -29 -47 -29c-20 0 -33 9 -33 22c0 28 49 84 134 84c56 0 90 -24 90 -62c0 -57 -74 -99 -118 -111c51 -13 77 -35 77 -70c0 -53 -54 -127 -167 -127c-73 0 -102 32 -102 62c0 29 25 56 64 56
c23 0 38 -8 38 -20c0 -27 -49 -22 -49 -53c0 -18 20 -35 43 -35c69 0 94 115 94 145c0 22 -9 34 -25 34c-13 0 -23 -2 -28 -2c-8 0 -11 3 -11 7c0 5 7 12 16 12c4 0 12 -3 21 -3c44 0 70 98 70 128c0 19 -7 30 -23 30zM682 357h34c-13 -35 -14 -35 -31 -94l-42 -142h51
l-10 -33h-51l-12 -41c-2 -7 -3 -12 -3 -15c0 -10 8 -12 32 -12h3l-6 -20h-156l6 20h6c32 0 37 3 44 27l12 41h-119l5 18zM569 121l43 147l-140 -147h97zM783 708h50l-634 -708h-50z" />
    <glyph glyph-name="questiondown" unicode="&#xbf;" horiz-adv-x="379" 
d="M311 549c27 0 46 -20 46 -44c0 -30 -25 -52 -54 -52c-27 0 -47 20 -47 45c0 30 28 51 55 51zM249 318c-30 0 -57 -23 -76 -78h-28c14 51 56 84 105 84c44 0 72 -31 72 -78c0 -168 -235 -222 -235 -364c0 -44 26 -77 63 -77c51 0 117 39 128 183h28c-1 -6 -1 -11 -1 -14
c-8 -103 -74 -177 -158 -177c-65 0 -105 46 -105 116c0 186 245 205 245 351c0 34 -14 54 -38 54z" />
    <glyph glyph-name="Agrave" unicode="&#xc0;" horiz-adv-x="639" 
d="M553 730l1 -706h79l-7 -24h-268l7 24h95v219h-215l-130 -219h116l-7 -24h-229l7 24h55l446 706h50zM460 585l-191 -309h191v309zM586 797h-39l-126 73c-10 6 -22 20 -22 30c0 13 14 23 32 23h4c11 0 17 -1 40 -21z" />
    <glyph glyph-name="Aacute" unicode="&#xc1;" horiz-adv-x="639" 
d="M553 730l1 -706h79l-7 -24h-268l7 24h95v219h-215l-130 -219h116l-7 -24h-229l7 24h55l446 706h50zM460 585l-191 -309h191v309zM527 797l114 106c24 19 30 20 41 20h3c17 0 32 -11 32 -23c0 -10 -11 -24 -22 -30l-130 -73h-38z" />
    <glyph glyph-name="Acircumflex" unicode="&#xc2;" horiz-adv-x="639" 
d="M553 730l1 -706h79l-7 -24h-268l7 24h95v219h-215l-130 -219h116l-7 -24h-229l7 24h55l446 706h50zM460 585l-191 -309h191v309zM606 907l73 -110h-44l-68 69l-111 -69h-44l138 110h56z" />
    <glyph glyph-name="Atilde" unicode="&#xc3;" horiz-adv-x="639" 
d="M553 730l1 -706h79l-7 -24h-268l7 24h95v219h-215l-130 -219h116l-7 -24h-229l7 24h55l446 706h50zM460 585l-191 -309h191v309zM519 892c48 0 75 -60 105 -60c18 0 44 31 61 72h35c-25 -64 -76 -107 -126 -107c-51 0 -65 59 -100 59c-18 0 -39 -21 -56 -59h-34
c28 58 73 95 115 95z" />
    <glyph glyph-name="Adieresis" unicode="&#xc4;" horiz-adv-x="639" 
d="M553 730l1 -706h79l-7 -24h-268l7 24h95v219h-215l-130 -219h116l-7 -24h-229l7 24h55l446 706h50zM460 585l-191 -309h191v309zM431 833c0 35 35 65 62 65c19 0 32 -16 32 -35c0 -37 -35 -66 -63 -66c-19 0 -31 16 -31 36zM597 832c0 36 34 66 62 66c19 0 32 -16 32 -35
c0 -37 -35 -66 -63 -66c-19 0 -31 15 -31 35z" />
    <glyph glyph-name="Aring" unicode="&#xc5;" horiz-adv-x="639" 
d="M553 730l1 -706h79l-7 -24h-268l7 24h95v219h-215l-130 -219h116l-7 -24h-229l7 24h55l446 706h50zM460 585l-191 -309h191v309zM576 900c38 0 67 -14 67 -49c0 -7 -2 -16 -4 -25c-17 -56 -61 -76 -109 -76c-38 0 -66 14 -66 49c0 8 2 17 5 27c16 53 60 74 107 74z
M575 894c-28 0 -55 -18 -70 -69c-5 -14 -7 -26 -7 -35c0 -26 15 -35 35 -35c28 0 53 16 69 70c4 14 5 25 5 34c0 25 -13 35 -32 35z" />
    <glyph glyph-name="AE" unicode="&#xc6;" horiz-adv-x="744" 
d="M528 24c151 0 188 116 246 209h30l-84 -233h-453l6 23l1 1h77l80 264h-175l-167 -264h108l-6 -24h-181l6 24h30l434 674h-137l6 24h540l-52 -226h-34l2 10c2 15 6 54 6 77c0 78 -31 117 -94 117h-24c-47 0 -56 -10 -76 -82l-70 -242h118l38 124h35l-85 -285h-34l39 139
h-118l-86 -285v-6c0 -26 17 -39 55 -39h19zM437 314l99 326c7 29 7 29 7 36c0 12 -4 25 -9 25c-6 0 -16 -7 -30 -29l-226 -358h159z" />
    <glyph glyph-name="Ccedilla" unicode="&#xc7;" horiz-adv-x="594" 
d="M370 -111c0 -18 -18 -88 -121 -88c-27 0 -51 9 -63 15l8 6c17 -10 30 -14 47 -14c35 0 65 44 65 79c0 22 -12 39 -42 39h-17l47 60c-111 13 -175 99 -175 226c0 228 204 525 426 525c62 0 121 -11 158 -83l22 76h36l-69 -274h-41c1 20 2 44 2 70c0 89 -16 195 -113 195
c-164 0 -256 -285 -281 -371c-25 -87 -39 -157 -39 -211c0 -93 39 -138 116 -138c119 0 201 137 247 236h43l-81 -237h-38l16 55c-55 -45 -127 -69 -196 -70l-33 -42c36 0 76 -20 76 -54z" />
    <glyph glyph-name="Egrave" unicode="&#xc8;" horiz-adv-x="589" 
d="M336 24c126 0 184 59 262 228h42l-92 -252h-525l7 24h91l200 674h-91l7 24h515l-60 -240h-41c7 40 10 73 10 100c0 107 -51 116 -144 116h-44c-43 0 -54 -7 -71 -63l-78 -262h136l38 127h44l-84 -285h-44l41 138h-136l-79 -266c-3 -13 -5 -23 -5 -32c0 -22 14 -31 45 -31
h56zM587 797h-39l-126 73c-10 6 -22 20 -22 30c0 13 14 23 32 23h3c12 0 17 -1 41 -21z" />
    <glyph glyph-name="Eacute" unicode="&#xc9;" horiz-adv-x="589" 
d="M336 24c126 0 184 59 262 228h42l-92 -252h-525l7 24h91l200 674h-91l7 24h515l-60 -240h-41c7 40 10 73 10 100c0 107 -51 116 -144 116h-44c-43 0 -54 -7 -71 -63l-78 -262h136l38 127h44l-84 -285h-44l41 138h-136l-79 -266c-3 -13 -5 -23 -5 -32c0 -22 14 -31 45 -31
h56zM510 797l114 106c23 19 30 20 40 20h4c17 0 32 -11 32 -23c0 -10 -11 -24 -22 -30l-130 -73h-38z" />
    <glyph glyph-name="Ecircumflex" unicode="&#xca;" horiz-adv-x="589" 
d="M336 24c126 0 184 59 262 228h42l-92 -252h-525l7 24h91l200 674h-91l7 24h515l-60 -240h-41c7 40 10 73 10 100c0 107 -51 116 -144 116h-44c-43 0 -54 -7 -71 -63l-78 -262h136l38 127h44l-84 -285h-44l41 138h-136l-79 -266c-3 -13 -5 -23 -5 -32c0 -22 14 -31 45 -31
h56zM589 907l73 -110h-44l-68 69l-111 -69h-44l138 110h56z" />
    <glyph glyph-name="Edieresis" unicode="&#xcb;" horiz-adv-x="589" 
d="M336 24c126 0 184 59 262 228h42l-92 -252h-525l7 24h91l200 674h-91l7 24h515l-60 -240h-41c7 40 10 73 10 100c0 107 -51 116 -144 116h-44c-43 0 -54 -7 -71 -63l-78 -262h136l38 127h44l-84 -285h-44l41 138h-136l-79 -266c-3 -13 -5 -23 -5 -32c0 -22 14 -31 45 -31
h56zM413 833c0 34 37 65 63 65c19 0 32 -16 32 -35c0 -37 -35 -66 -63 -66c-19 0 -32 16 -32 36zM579 832c0 35 35 66 63 66c19 0 32 -16 32 -35c0 -37 -35 -66 -63 -66c-19 0 -32 15 -32 35z" />
    <glyph glyph-name="Igrave" unicode="&#xcc;" horiz-adv-x="309" 
d="M412 698l-200 -674h91l-7 -24h-283l7 24h91l200 674h-91l7 24h283l-7 -24h-91zM440 797h-39l-126 73c-10 6 -22 20 -22 30c0 13 14 23 32 23h3c12 0 17 -1 41 -21z" />
    <glyph glyph-name="Iacute" unicode="&#xcd;" horiz-adv-x="309" 
d="M412 698l-200 -674h91l-7 -24h-283l7 24h91l200 674h-91l7 24h283l-7 -24h-91zM336 797l114 106c23 19 30 20 40 20h4c17 0 32 -11 32 -23c0 -10 -11 -24 -22 -30l-130 -73h-38z" />
    <glyph glyph-name="Icircumflex" unicode="&#xce;" horiz-adv-x="309" 
d="M412 698l-200 -674h91l-7 -24h-283l7 24h91l200 674h-91l7 24h283l-7 -24h-91zM449 907l73 -110h-44l-68 69l-111 -69h-44l138 110h56z" />
    <glyph glyph-name="Idieresis" unicode="&#xcf;" horiz-adv-x="309" 
d="M412 698l-200 -674h91l-7 -24h-283l7 24h91l200 674h-91l7 24h283l-7 -24h-91zM273 833c0 34 37 65 63 65c19 0 32 -16 32 -35c0 -37 -35 -66 -63 -66c-19 0 -32 16 -32 36zM439 832c0 35 35 66 63 66c19 0 32 -16 32 -35c0 -37 -35 -66 -63 -66c-19 0 -32 15 -32 35z
" />
    <glyph glyph-name="Eth" unicode="&#xd0;" horiz-adv-x="666" 
d="M496 722c86 0 259 -6 259 -248c0 -162 -86 -313 -178 -395c-64 -56 -141 -79 -254 -79h-264l8 24h74l100 341h-90l12 25h89l93 308h-107l10 24h248zM661 525c0 141 -60 173 -150 173h-25c-45 -2 -60 -23 -75 -74l-68 -234h171l-10 -25h-172l-78 -261
c-3 -14 -7 -30 -7 -40v-7c0 -24 14 -33 40 -33h27c83 0 142 15 184 58c86 86 163 296 163 443z" />
    <glyph glyph-name="Ntilde" unicode="&#xd1;" horiz-adv-x="678" 
d="M401 722l170 -553l157 529h-97l7 24h246l-7 -24c-66 0 -103 -18 -143 -152l-162 -546h-40l-194 611l-174 -587h98l-7 -24h-246l7 24h97l200 674h-98l7 24h179zM546 892c48 0 75 -60 105 -60c18 0 44 31 61 72h35c-25 -64 -76 -107 -126 -107c-51 0 -65 59 -100 59
c-18 0 -39 -21 -56 -59h-34c28 58 73 95 115 95z" />
    <glyph glyph-name="Ograve" unicode="&#xd2;" horiz-adv-x="653" 
d="M118 221c0 222 190 516 429 516c126 0 202 -97 202 -237c0 -238 -204 -515 -427 -515c-128 0 -204 96 -204 236zM542 721c-168 0 -253 -252 -284 -358c-15 -51 -40 -142 -40 -220s25 -142 108 -142c169 0 252 256 283 360c15 50 40 141 40 219c0 77 -24 141 -107 141z
M620 797h-39l-126 73c-10 6 -22 20 -22 30c0 13 14 23 32 23h4c11 0 17 -1 40 -21z" />
    <glyph glyph-name="Oacute" unicode="&#xd3;" horiz-adv-x="653" 
d="M118 221c0 222 190 516 429 516c126 0 202 -97 202 -237c0 -238 -204 -515 -427 -515c-128 0 -204 96 -204 236zM542 721c-168 0 -253 -252 -284 -358c-15 -51 -40 -142 -40 -220s25 -142 108 -142c169 0 252 256 283 360c15 50 40 141 40 219c0 77 -24 141 -107 141z
M513 797l114 106c24 19 30 20 41 20h3c17 0 32 -11 32 -23c0 -10 -11 -24 -22 -30l-130 -73h-38z" />
    <glyph glyph-name="Ocircumflex" unicode="&#xd4;" horiz-adv-x="653" 
d="M118 221c0 222 190 516 429 516c126 0 202 -97 202 -237c0 -238 -204 -515 -427 -515c-128 0 -204 96 -204 236zM542 721c-168 0 -253 -252 -284 -358c-15 -51 -40 -142 -40 -220s25 -142 108 -142c169 0 252 256 283 360c15 50 40 141 40 219c0 77 -24 141 -107 141z
M623 907l73 -110h-44l-68 69l-111 -69h-44l138 110h56z" />
    <glyph glyph-name="Otilde" unicode="&#xd5;" horiz-adv-x="653" 
d="M118 221c0 222 190 516 429 516c126 0 202 -97 202 -237c0 -238 -204 -515 -427 -515c-128 0 -204 96 -204 236zM542 721c-168 0 -253 -252 -284 -358c-15 -51 -40 -142 -40 -220s25 -142 108 -142c169 0 252 256 283 360c15 50 40 141 40 219c0 77 -24 141 -107 141z
M536 892c48 0 75 -60 105 -60c18 0 44 31 61 72h35c-25 -64 -76 -107 -126 -107c-51 0 -65 59 -100 59c-18 0 -39 -21 -56 -59h-34c28 58 73 95 115 95z" />
    <glyph glyph-name="Odieresis" unicode="&#xd6;" horiz-adv-x="653" 
d="M118 221c0 222 190 516 429 516c126 0 202 -97 202 -237c0 -238 -204 -515 -427 -515c-128 0 -204 96 -204 236zM542 721c-168 0 -253 -252 -284 -358c-15 -51 -40 -142 -40 -220s25 -142 108 -142c169 0 252 256 283 360c15 50 40 141 40 219c0 77 -24 141 -107 141z
M448 833c0 35 35 65 62 65c19 0 32 -16 32 -35c0 -37 -35 -66 -63 -66c-19 0 -31 16 -31 36zM614 832c0 36 34 66 62 66c19 0 32 -16 32 -35c0 -37 -35 -66 -63 -66c-19 0 -31 15 -31 35z" />
    <glyph glyph-name="multiply" unicode="&#xd7;" horiz-adv-x="517" 
d="M318 167l-169 -166l-45 35l168 166l-168 166l45 35l169 -166l169 166l46 -34l-169 -167l169 -167l-46 -34z" />
    <glyph glyph-name="Oslash" unicode="&#xd8;" horiz-adv-x="665" 
d="M351 21c218 0 303 392 303 526c0 23 -2 45 -6 64l-400 -536c21 -36 57 -54 103 -54zM233 103l403 538c-19 50 -57 78 -107 78c-194 0 -304 -410 -304 -538c0 -27 3 -55 8 -78zM134 234c0 260 196 497 392 497c56 0 105 -18 144 -54l53 73h45l-74 -87
c35 -48 52 -105 52 -175c0 -228 -171 -496 -399 -496c-55 0 -101 10 -137 29l-91 -108h-44l113 139c-36 44 -54 107 -54 182z" />
    <glyph glyph-name="Ugrave" unicode="&#xd9;" horiz-adv-x="677" 
d="M243 127c0 -46 22 -119 114 -119c67 0 132 40 181 111c26 38 41 73 67 160l124 419h-96l7 24h247l-7 -24h-98l-126 -425c-33 -112 -102 -288 -328 -288c-158 0 -188 78 -188 141c0 29 6 54 10 67l150 505h-89l7 24h283l-7 -24h-92l-131 -440c-20 -69 -28 -103 -28 -131z
M592 797h-39l-126 73c-10 6 -22 20 -22 30c0 13 14 23 32 23h3c12 0 17 -1 41 -21z" />
    <glyph glyph-name="Uacute" unicode="&#xda;" horiz-adv-x="677" 
d="M243 127c0 -46 22 -119 114 -119c67 0 132 40 181 111c26 38 41 73 67 160l124 419h-96l7 24h247l-7 -24h-98l-126 -425c-33 -112 -102 -288 -328 -288c-158 0 -188 78 -188 141c0 29 6 54 10 67l150 505h-89l7 24h283l-7 -24h-92l-131 -440c-20 -69 -28 -103 -28 -131z
M554 797l114 106c23 19 30 20 40 20h4c17 0 32 -11 32 -23c0 -10 -11 -24 -22 -30l-130 -73h-38z" />
    <glyph glyph-name="Ucircumflex" unicode="&#xdb;" horiz-adv-x="677" 
d="M243 127c0 -46 22 -119 114 -119c67 0 132 40 181 111c26 38 41 73 67 160l124 419h-96l7 24h247l-7 -24h-98l-126 -425c-33 -112 -102 -288 -328 -288c-158 0 -188 78 -188 141c0 29 6 54 10 67l150 505h-89l7 24h283l-7 -24h-92l-131 -440c-20 -69 -28 -103 -28 -131z
M633 907l73 -110h-44l-68 69l-111 -69h-44l138 110h56z" />
    <glyph glyph-name="Udieresis" unicode="&#xdc;" horiz-adv-x="677" 
d="M243 127c0 -46 22 -119 114 -119c67 0 132 40 181 111c26 38 41 73 67 160l124 419h-96l7 24h247l-7 -24h-98l-126 -425c-33 -112 -102 -288 -328 -288c-158 0 -188 78 -188 141c0 29 6 54 10 67l150 505h-89l7 24h283l-7 -24h-92l-131 -440c-20 -69 -28 -103 -28 -131z
M457 833c0 34 37 65 63 65c19 0 32 -16 32 -35c0 -37 -35 -66 -63 -66c-19 0 -32 16 -32 36zM623 832c0 35 35 66 63 66c19 0 32 -16 32 -35c0 -37 -35 -66 -63 -66c-19 0 -32 15 -32 35z" />
    <glyph glyph-name="Yacute" unicode="&#xdd;" horiz-adv-x="618" 
d="M430 699c-39 0 -44 -47 -44 -63c0 -3 0 -6 1 -9l57 -273l260 344h-125l7 24h247l-7 -23h-10c-69 0 -118 -74 -148 -116l-210 -281l-82 -278h97l-7 -24h-296l7 24h98l79 265l-89 409h-59l7 24h276l-7 -23h-52zM524 797l114 106c24 19 30 20 41 20h3c17 0 32 -11 32 -23
c0 -10 -11 -24 -22 -30l-130 -73h-38z" />
    <glyph glyph-name="Thorn" unicode="&#xde;" horiz-adv-x="570" 
d="M406 215c148 18 159 200 159 238c0 82 -34 114 -118 114h-10c-38 0 -51 -12 -65 -62l-82 -289h19c85 0 85 0 97 -1zM456 586c107 0 198 -32 198 -158c0 -73 -38 -149 -107 -190c-63 -37 -104 -42 -265 -42l-53 -172h100l-8 -24h-261l6 24h73l201 674h-99l8 24h262l-6 -24
h-76l-32 -112h59z" />
    <glyph glyph-name="germandbls" unicode="&#xdf;" horiz-adv-x="509" 
d="M295 0c51 0 127 186 127 270c0 112 -102 102 -102 110c0 13 130 22 175 172c11 37 16 69 16 95c0 47 -17 74 -50 74c-54 0 -116 -54 -146 -155l-224 -756l-89 -10l213 720c39 131 115 211 247 211h2c86 0 124 -53 124 -120c0 -82 -56 -184 -150 -235
c47 -20 74 -74 74 -133c0 -107 -104 -258 -219 -258c-62 0 -85 28 -85 58c0 33 29 68 68 68c23 0 38 -11 38 -29c0 -28 -30 -39 -30 -71c0 -9 6 -11 11 -11z" />
    <glyph glyph-name="agrave" unicode="&#xe0;" horiz-adv-x="488" 
d="M86 121c0 139 116 291 236 291c45 0 74 -20 89 -63l14 52l74 -1l-86 -297c-5 -17 -14 -49 -16 -58c0 -6 8 -13 16 -13c9 0 26 9 39 24l39 45l12 -9c-55 -75 -89 -102 -133 -102c-33 0 -46 20 -46 51c0 7 1 15 2 23c-40 -53 -80 -76 -130 -76c-70 0 -110 55 -110 133z
M216 9c93 0 169 208 169 305c0 61 -28 79 -54 79c-98 0 -168 -215 -168 -304c0 -50 17 -80 53 -80zM488 472h-39l-132 118c-10 8 -22 20 -22 30c0 13 14 23 32 23c14 0 22 -6 44 -31z" />
    <glyph glyph-name="aacute" unicode="&#xe1;" horiz-adv-x="488" 
d="M86 121c0 139 116 291 236 291c45 0 74 -20 89 -63l14 52l74 -1l-86 -297c-5 -17 -14 -49 -16 -58c0 -6 8 -13 16 -13c9 0 26 9 39 24l39 45l12 -9c-55 -75 -89 -102 -133 -102c-33 0 -46 20 -46 51c0 7 1 15 2 23c-40 -53 -80 -76 -130 -76c-70 0 -110 55 -110 133z
M216 9c93 0 169 208 169 305c0 61 -28 79 -54 79c-98 0 -168 -215 -168 -304c0 -50 17 -80 53 -80zM323 472l116 140c22 25 31 31 44 31c17 0 32 -11 32 -23c0 -10 -11 -20 -22 -30l-132 -118h-38z" />
    <glyph glyph-name="acircumflex" unicode="&#xe2;" horiz-adv-x="488" 
d="M86 121c0 139 116 291 236 291c45 0 74 -20 89 -63l14 52l74 -1l-86 -297c-5 -17 -14 -49 -16 -58c0 -6 8 -13 16 -13c9 0 26 9 39 24l39 45l12 -9c-55 -75 -89 -102 -133 -102c-33 0 -46 20 -46 51c0 7 1 15 2 23c-40 -53 -80 -76 -130 -76c-70 0 -110 55 -110 133z
M216 9c93 0 169 208 169 305c0 61 -28 79 -54 79c-98 0 -168 -215 -168 -304c0 -50 17 -80 53 -80zM458 641l65 -169h-27l-67 129l-130 -129h-27l145 169h41z" />
    <glyph glyph-name="atilde" unicode="&#xe3;" horiz-adv-x="488" 
d="M86 121c0 139 116 291 236 291c45 0 74 -20 89 -63l14 52l74 -1l-86 -297c-5 -17 -14 -49 -16 -58c0 -6 8 -13 16 -13c9 0 26 9 39 24l39 45l12 -9c-55 -75 -89 -102 -133 -102c-33 0 -46 20 -46 51c0 7 1 15 2 23c-40 -53 -80 -76 -130 -76c-70 0 -110 55 -110 133z
M216 9c93 0 169 208 169 305c0 61 -28 79 -54 79c-98 0 -168 -215 -168 -304c0 -50 17 -80 53 -80zM471 479c-44 0 -102 57 -135 57c-19 0 -36 -22 -46 -64h-21c15 62 45 99 83 99c40 0 104 -52 135 -52c20 0 35 17 49 59h22c-11 -55 -50 -99 -87 -99z" />
    <glyph glyph-name="adieresis" unicode="&#xe4;" horiz-adv-x="488" 
d="M86 121c0 139 116 291 236 291c45 0 74 -20 89 -63l14 52l74 -1l-86 -297c-5 -17 -14 -49 -16 -58c0 -6 8 -13 16 -13c9 0 26 9 39 24l39 45l12 -9c-55 -75 -89 -102 -133 -102c-33 0 -46 20 -46 51c0 7 1 15 2 23c-40 -53 -80 -76 -130 -76c-70 0 -110 55 -110 133z
M216 9c93 0 169 208 169 305c0 61 -28 79 -54 79c-98 0 -168 -215 -168 -304c0 -50 17 -80 53 -80zM282 507c0 32 35 65 62 65c20 0 32 -16 32 -35c0 -31 -31 -65 -63 -65c-18 0 -31 15 -31 35zM448 506c0 34 33 66 62 66c20 0 32 -16 32 -35c0 -31 -31 -65 -63 -65
c-19 0 -31 15 -31 34z" />
    <glyph glyph-name="aring" unicode="&#xe5;" horiz-adv-x="488" 
d="M86 121c0 139 116 291 236 291c45 0 74 -20 89 -63l14 52l74 -1l-86 -297c-5 -17 -14 -49 -16 -58c0 -6 8 -13 16 -13c9 0 26 9 39 24l39 45l12 -9c-55 -75 -89 -102 -133 -102c-33 0 -46 20 -46 51c0 7 1 15 2 23c-40 -53 -80 -76 -130 -76c-70 0 -110 55 -110 133z
M216 9c93 0 169 208 169 305c0 61 -28 79 -54 79c-98 0 -168 -215 -168 -304c0 -50 17 -80 53 -80zM450 651c44 0 63 -27 63 -61c0 -51 -46 -118 -117 -118c-43 0 -61 27 -61 60c0 52 46 119 115 119zM450 646c-45 0 -82 -77 -82 -127c0 -25 9 -43 30 -43c44 0 81 78 81 128
c0 24 -9 42 -29 42z" />
    <glyph glyph-name="ae" unicode="&#xe6;" horiz-adv-x="648" 
d="M332 114v8c0 25 4 51 12 79l6 18c-75 -16 -167 -34 -195 -127c-3 -11 -5 -22 -5 -32c0 -32 18 -54 47 -54c57 0 115 62 135 108zM151 300c0 46 73 112 204 112c57 0 87 -17 102 -41c37 25 80 41 123 41c62 0 103 -32 103 -79c0 -104 -190 -174 -273 -186
c-2 -16 -3 -33 -3 -40c0 -69 29 -106 86 -106c49 0 89 21 144 77l17 -12c-48 -53 -106 -78 -174 -78c-73 0 -124 31 -143 85c-14 -16 -85 -85 -175 -85c-67 0 -107 27 -107 70c0 67 79 136 295 179c10 25 24 49 41 70c3 14 5 27 5 40c0 31 -13 55 -58 55
c-44 0 -93 -25 -93 -63c0 -12 6 -18 6 -29c0 -17 -20 -40 -59 -40c-26 0 -41 11 -41 30zM412 167c16 3 206 35 206 171c0 40 -23 65 -55 65c-95 0 -139 -160 -151 -236z" />
    <glyph glyph-name="ccedilla" unicode="&#xe7;" horiz-adv-x="366" 
d="M237 -108c0 -18 -17 -90 -121 -90c-27 0 -51 9 -63 15l8 7c17 -10 30 -15 47 -15c35 0 66 46 66 81c0 23 -12 41 -43 41h-17l48 62c-55 15 -79 62 -79 121c0 125 109 298 253 298c70 0 98 -37 98 -74c0 -34 -26 -68 -65 -68c-24 0 -39 11 -39 28c0 32 39 38 39 74
c0 18 -13 30 -31 30c-95 0 -172 -205 -172 -306c0 -53 20 -83 59 -83c40 0 76 26 119 93l33 -5c-58 -81 -107 -113 -177 -113h-9l-30 -40c36 0 76 -20 76 -56z" />
    <glyph glyph-name="egrave" unicode="&#xe8;" horiz-adv-x="370" 
d="M145 167c16 3 206 35 206 171c0 40 -23 65 -55 65c-95 0 -139 -160 -151 -236zM370 78l17 -12c-48 -53 -113 -78 -181 -78c-96 0 -146 53 -146 142c0 142 123 282 253 282c62 0 103 -32 103 -79c0 -104 -190 -174 -273 -186c-2 -16 -3 -33 -3 -40c0 -69 29 -106 86 -106
c49 0 89 21 144 77zM371 472h-39l-132 118c-9 8 -22 20 -22 30c0 13 14 23 32 23c14 0 22 -6 44 -31z" />
    <glyph glyph-name="eacute" unicode="&#xe9;" horiz-adv-x="370" 
d="M145 167c16 3 206 35 206 171c0 40 -23 65 -55 65c-95 0 -139 -160 -151 -236zM370 78l17 -12c-48 -53 -113 -78 -181 -78c-96 0 -146 53 -146 142c0 142 123 282 253 282c62 0 103 -32 103 -79c0 -104 -190 -174 -273 -186c-2 -16 -3 -33 -3 -40c0 -69 29 -106 86 -106
c49 0 89 21 144 77zM270 472l116 140c22 25 31 31 44 31c17 0 32 -11 32 -23c0 -10 -11 -20 -22 -30l-132 -118h-38z" />
    <glyph glyph-name="ecircumflex" unicode="&#xea;" horiz-adv-x="370" 
d="M145 167c16 3 206 35 206 171c0 40 -23 65 -55 65c-95 0 -139 -160 -151 -236zM370 78l17 -12c-48 -53 -113 -78 -181 -78c-96 0 -146 53 -146 142c0 142 123 282 253 282c62 0 103 -32 103 -79c0 -104 -190 -174 -273 -186c-2 -16 -3 -33 -3 -40c0 -69 29 -106 86 -106
c49 0 89 21 144 77zM395 641l65 -169h-27l-67 129l-130 -129h-27l145 169h41z" />
    <glyph glyph-name="edieresis" unicode="&#xeb;" horiz-adv-x="370" 
d="M145 167c16 3 206 35 206 171c0 40 -23 65 -55 65c-95 0 -139 -160 -151 -236zM370 78l17 -12c-48 -53 -113 -78 -181 -78c-96 0 -146 53 -146 142c0 142 123 282 253 282c62 0 103 -32 103 -79c0 -104 -190 -174 -273 -186c-2 -16 -3 -33 -3 -40c0 -69 29 -106 86 -106
c49 0 89 21 144 77zM219 507c0 32 35 65 63 65c19 0 32 -16 32 -35c0 -31 -32 -65 -63 -65c-19 0 -32 15 -32 35zM385 506c0 34 34 66 63 66c19 0 32 -16 32 -35c0 -31 -32 -65 -63 -65c-20 0 -32 15 -32 34z" />
    <glyph glyph-name="igrave" unicode="&#xec;" horiz-adv-x="245" 
d="M116 387l4 15h143l-89 -299c-5 -17 -14 -49 -16 -58c0 -6 8 -13 15 -13c8 0 24 9 37 24l38 45l12 -9c-54 -75 -89 -102 -131 -102c-30 0 -41 18 -41 47c0 19 5 44 13 72l83 278h-68zM328 472h-39l-132 118c-10 8 -22 20 -22 30c0 13 14 23 32 23c14 0 22 -6 44 -31z" />
    <glyph glyph-name="iacute" unicode="&#xed;" horiz-adv-x="245" 
d="M116 387l4 15h143l-89 -299c-5 -17 -14 -49 -16 -58c0 -6 8 -13 15 -13c8 0 24 9 37 24l38 45l12 -9c-54 -75 -89 -102 -131 -102c-30 0 -41 18 -41 47c0 19 5 44 13 72l83 278h-68zM181 472l116 140c22 25 31 31 44 31c17 0 32 -11 32 -23c0 -10 -11 -20 -22 -30
l-132 -118h-38z" />
    <glyph glyph-name="icircumflex" unicode="&#xee;" horiz-adv-x="245" 
d="M116 387l4 15h143l-89 -299c-5 -17 -14 -49 -16 -58c0 -6 8 -13 15 -13c8 0 24 9 37 24l38 45l12 -9c-54 -75 -89 -102 -131 -102c-30 0 -41 18 -41 47c0 19 5 44 13 72l83 278h-68zM316 641l65 -169h-27l-67 129l-130 -129h-27l145 169h41z" />
    <glyph glyph-name="idieresis" unicode="&#xef;" horiz-adv-x="245" 
d="M116 387l4 15h143l-89 -299c-5 -17 -14 -49 -16 -58c0 -6 8 -13 15 -13c8 0 24 9 37 24l38 45l12 -9c-54 -75 -89 -102 -131 -102c-30 0 -41 18 -41 47c0 19 5 44 13 72l83 278h-68zM140 507c0 32 35 65 62 65c20 0 33 -16 33 -35c0 -31 -32 -65 -64 -65
c-18 0 -31 15 -31 35zM306 506c0 34 33 66 62 66c20 0 33 -16 33 -35c0 -31 -32 -65 -64 -65c-19 0 -31 15 -31 34z" />
    <glyph glyph-name="eth" unicode="&#xf0;" horiz-adv-x="426" 
d="M229 -7c115 0 147 240 147 294c0 73 -29 117 -79 117c-105 0 -149 -225 -149 -310c0 -65 28 -101 81 -101zM286 637l-118 -57l-11 12l110 57c-21 17 -32 20 -69 50l31 18c37 -20 47 -28 78 -50l122 58l13 -13l-117 -57c67 -60 132 -147 132 -407v-17
c-2 -110 -80 -243 -229 -243c-92 0 -151 56 -151 144c0 142 120 280 225 280c21 0 52 -7 73 -15c1 13 2 26 2 39c0 56 -14 121 -91 201z" />
    <glyph glyph-name="ntilde" unicode="&#xf1;" horiz-adv-x="500" 
d="M348 109l42 140c5 18 10 44 10 69c0 35 -10 68 -41 68c-87 0 -138 -123 -158 -190l-58 -196h-76l114 385h-63l4 15h139l-19 -63c49 50 96 75 147 75c62 -1 89 -39 89 -95c0 -22 -4 -47 -12 -73l-42 -140c-5 -17 -13 -48 -15 -57c0 -6 7 -14 15 -14c9 0 27 10 41 26l38 44
l13 -10c-56 -76 -91 -103 -136 -103c-33 0 -45 19 -45 49c0 20 5 44 13 70zM459 479c-44 0 -101 57 -135 57c-19 0 -36 -22 -46 -64h-21c15 62 45 99 83 99c41 0 105 -52 135 -52c20 0 35 17 49 59h22c-11 -55 -50 -99 -87 -99z" />
    <glyph glyph-name="ograve" unicode="&#xf2;" horiz-adv-x="414" 
d="M86 126c0 134 121 286 247 286c72 0 117 -58 117 -139c0 -140 -126 -285 -244 -285c-75 0 -120 57 -120 138zM209 -2c102 0 170 246 170 330c0 49 -17 74 -49 74c-59 0 -108 -68 -148 -202c-16 -53 -23 -96 -23 -128c0 -49 17 -74 50 -74zM415 472h-39l-132 118
c-10 8 -22 20 -22 30c0 13 14 23 32 23c14 0 22 -6 44 -31z" />
    <glyph glyph-name="oacute" unicode="&#xf3;" horiz-adv-x="414" 
d="M86 126c0 134 121 286 247 286c72 0 117 -58 117 -139c0 -140 -126 -285 -244 -285c-75 0 -120 57 -120 138zM209 -2c102 0 170 246 170 330c0 49 -17 74 -49 74c-59 0 -108 -68 -148 -202c-16 -53 -23 -96 -23 -128c0 -49 17 -74 50 -74zM275 472l116 140
c22 25 31 31 44 31c17 0 32 -11 32 -23c0 -10 -11 -20 -22 -30l-132 -118h-38z" />
    <glyph glyph-name="ocircumflex" unicode="&#xf4;" horiz-adv-x="414" 
d="M86 126c0 134 121 286 247 286c72 0 117 -58 117 -139c0 -140 -126 -285 -244 -285c-75 0 -120 57 -120 138zM209 -2c102 0 170 246 170 330c0 49 -17 74 -49 74c-59 0 -108 -68 -148 -202c-16 -53 -23 -96 -23 -128c0 -49 17 -74 50 -74zM410 641l65 -169h-27l-67 129
l-130 -129h-27l145 169h41z" />
    <glyph glyph-name="otilde" unicode="&#xf5;" horiz-adv-x="414" 
d="M86 126c0 134 121 286 247 286c72 0 117 -58 117 -139c0 -140 -126 -285 -244 -285c-75 0 -120 57 -120 138zM209 -2c102 0 170 246 170 330c0 49 -17 74 -49 74c-59 0 -108 -68 -148 -202c-16 -53 -23 -96 -23 -128c0 -49 17 -74 50 -74zM422 479c-44 0 -101 57 -135 57
c-19 0 -36 -22 -46 -64h-21c15 62 45 99 83 99c41 0 105 -52 135 -52c20 0 35 17 49 59h22c-11 -55 -50 -99 -87 -99z" />
    <glyph glyph-name="odieresis" unicode="&#xf6;" horiz-adv-x="414" 
d="M86 126c0 134 121 286 247 286c72 0 117 -58 117 -139c0 -140 -126 -285 -244 -285c-75 0 -120 57 -120 138zM209 -2c102 0 170 246 170 330c0 49 -17 74 -49 74c-59 0 -108 -68 -148 -202c-16 -53 -23 -96 -23 -128c0 -49 17 -74 50 -74zM234 507c0 32 34 65 62 65
c19 0 32 -16 32 -35c0 -31 -31 -65 -63 -65c-19 0 -31 15 -31 35zM400 506c0 34 33 66 62 66c19 0 32 -16 32 -35c0 -31 -31 -65 -63 -65c-19 0 -31 15 -31 34z" />
    <glyph glyph-name="divide" unicode="&#xf7;" horiz-adv-x="473" 
d="M81 178v49h431v-49h-431zM294 414c31 0 56 -29 56 -62c0 -35 -25 -63 -57 -63c-30 0 -55 28 -55 63c0 33 25 62 56 62zM295 111c31 0 56 -29 56 -62c0 -35 -25 -63 -57 -63c-30 0 -55 28 -55 63c0 33 25 62 56 62z" />
    <glyph glyph-name="oslash" unicode="&#xf8;" horiz-adv-x="462" 
d="M353 402c-65 0 -118 -68 -158 -202c-11 -38 -18 -71 -21 -99l225 275c-9 17 -25 26 -46 26zM90 133c0 129 125 279 266 279c23 0 44 -4 62 -13l83 101h52l-102 -125c27 -26 42 -64 42 -109c0 -133 -130 -278 -265 -278c-30 0 -56 8 -77 21l-90 -109h-52l112 136
c-20 25 -31 59 -31 97zM410 325l-233 -283c8 -29 26 -44 54 -44c113 0 179 241 179 323v4z" />
    <glyph glyph-name="ugrave" unicode="&#xf9;" horiz-adv-x="512" 
d="M439 100c-5 -17 -13 -48 -15 -57c0 -6 7 -14 15 -14c9 0 25 10 39 26l38 44l13 -10c-56 -76 -89 -103 -134 -103c-33 0 -45 19 -45 49c0 19 5 43 13 70c-56 -84 -96 -116 -160 -116h-5c-54 0 -81 31 -81 71c0 24 6 50 13 75l76 250h-90l2 15h168l-87 -282
c-5 -16 -11 -40 -11 -61c0 -26 10 -48 43 -48c65 0 140 108 179 238l45 153h75zM458 472h-39l-132 118c-10 8 -22 20 -22 30c0 13 14 23 32 23c14 0 22 -6 44 -31z" />
    <glyph glyph-name="uacute" unicode="&#xfa;" horiz-adv-x="512" 
d="M439 100c-5 -17 -13 -48 -15 -57c0 -6 7 -14 15 -14c9 0 25 10 39 26l38 44l13 -10c-56 -76 -89 -103 -134 -103c-33 0 -45 19 -45 49c0 19 5 43 13 70c-56 -84 -96 -116 -160 -116h-5c-54 0 -81 31 -81 71c0 24 6 50 13 75l76 250h-90l2 15h168l-87 -282
c-5 -16 -11 -40 -11 -61c0 -26 10 -48 43 -48c65 0 140 108 179 238l45 153h75zM315 472l116 140c22 25 31 31 44 31c17 0 32 -11 32 -23c0 -10 -11 -20 -22 -30l-132 -118h-38z" />
    <glyph glyph-name="ucircumflex" unicode="&#xfb;" horiz-adv-x="512" 
d="M439 100c-5 -17 -13 -48 -15 -57c0 -6 7 -14 15 -14c9 0 25 10 39 26l38 44l13 -10c-56 -76 -89 -103 -134 -103c-33 0 -45 19 -45 49c0 19 5 43 13 70c-56 -84 -96 -116 -160 -116h-5c-54 0 -81 31 -81 71c0 24 6 50 13 75l76 250h-90l2 15h168l-87 -282
c-5 -16 -11 -40 -11 -61c0 -26 10 -48 43 -48c65 0 140 108 179 238l45 153h75zM450 641l65 -169h-27l-67 129l-130 -129h-27l145 169h41z" />
    <glyph glyph-name="udieresis" unicode="&#xfc;" horiz-adv-x="512" 
d="M274 507c0 32 35 65 62 65c20 0 33 -16 33 -35c0 -31 -32 -65 -64 -65c-18 0 -31 15 -31 35zM440 506c0 34 33 66 62 66c20 0 33 -16 33 -35c0 -31 -32 -65 -64 -65c-19 0 -31 15 -31 34zM439 100c-5 -17 -13 -48 -15 -57c0 -6 7 -14 15 -14c9 0 25 10 39 26l38 44
l13 -10c-56 -76 -89 -103 -134 -103c-33 0 -45 19 -45 49c0 19 5 43 13 70c-56 -84 -96 -116 -160 -116h-5c-54 0 -81 31 -81 71c0 24 6 50 13 75l76 250h-90l2 15h168l-87 -282c-5 -16 -11 -40 -11 -61c0 -26 10 -48 43 -48c65 0 140 108 179 238l45 153h75z" />
    <glyph glyph-name="yacute" unicode="&#xfd;" horiz-adv-x="444" 
d="M289 13c-57 267 -80 357 -104 357c-16 0 -49 -48 -62 -85l-25 15c40 82 78 112 119 112c37 0 62 -36 82 -124l43 -196c63 96 101 184 101 231c0 24 -7 53 -7 59c0 15 17 30 38 30c23 0 36 -14 36 -31c0 -29 -12 -63 -62 -156c-164 -303 -242 -425 -351 -425
c-46 0 -79 23 -79 51c0 19 18 33 41 33c32 0 36 -21 36 -35v-12c0 -18 8 -26 21 -26c25 0 67 38 98 89zM307 472l116 140c22 25 31 31 44 31c17 0 32 -11 32 -23c0 -10 -11 -20 -22 -30l-132 -118h-38z" />
    <glyph glyph-name="thorn" unicode="&#xfe;" horiz-adv-x="499" 
d="M415 730l-138 -432c44 92 116 113 161 113c72 0 116 -69 116 -130c0 -120 -117 -286 -253 -286c-57 0 -70 15 -94 72l-75 -252h78l-4 -15h-201l3 16h57l271 899h-95l6 15h168zM293 10c110 0 187 226 187 289c0 51 -19 95 -60 95c-92 0 -194 -204 -194 -296
c0 -50 24 -88 67 -88z" />
    <glyph glyph-name="ydieresis" unicode="&#xff;" horiz-adv-x="444" 
d="M289 13c-57 267 -80 357 -104 357c-16 0 -49 -48 -62 -85l-25 15c40 82 78 112 119 112c37 0 62 -36 82 -124l43 -196c63 96 101 184 101 231c0 24 -7 53 -7 59c0 15 17 30 38 30c23 0 36 -14 36 -31c0 -29 -12 -63 -62 -156c-164 -303 -242 -425 -351 -425
c-46 0 -79 23 -79 51c0 19 18 33 41 33c32 0 36 -21 36 -35v-12c0 -18 8 -26 21 -26c25 0 67 38 98 89zM265 507c0 32 35 65 62 65c20 0 33 -16 33 -35c0 -31 -32 -65 -64 -65c-18 0 -31 15 -31 35zM431 506c0 34 33 66 62 66c20 0 33 -16 33 -35c0 -31 -32 -65 -64 -65
c-19 0 -31 15 -31 34z" />
    <glyph glyph-name="Amacron" unicode="&#x100;" horiz-adv-x="639" 
d="M553 730l1 -706h79l-7 -24h-268l7 24h95v219h-215l-130 -219h116l-7 -24h-229l7 24h55l446 706h50zM460 585l-191 -309h191v309zM696 797h-300l15 49h300z" />
    <glyph glyph-name="amacron" unicode="&#x101;" horiz-adv-x="488" 
d="M86 121c0 139 116 291 236 291c45 0 74 -20 89 -63l14 52h74l-86 -298c-5 -17 -14 -49 -16 -58c0 -6 8 -13 16 -13c9 0 26 9 39 24l39 45l12 -9c-55 -75 -89 -102 -133 -102c-33 0 -46 20 -46 51c0 7 1 15 2 23c-40 -53 -80 -76 -130 -76c-70 0 -110 55 -110 133zM216 9
c93 0 169 208 169 305c0 61 -28 79 -54 79c-98 0 -168 -215 -168 -304c0 -50 17 -80 53 -80zM532 472h-300l14 48h300z" />
    <glyph glyph-name="Abreve" unicode="&#x102;" horiz-adv-x="639" 
d="M553 730l1 -706h79l-7 -24h-268l7 24h95v219h-215l-130 -219h116l-7 -24h-229l7 24h55l446 706h50zM460 585l-191 -309h191v309zM444 877c0 9 1 21 5 29h41c-2 -7 -3 -14 -3 -21c0 -29 21 -51 63 -51c49 0 82 15 99 66l64 24l-1 -3c-26 -88 -105 -124 -174 -124
c-59 0 -94 35 -94 80z" />
    <glyph glyph-name="abreve" unicode="&#x103;" horiz-adv-x="488" 
d="M86 121c0 139 116 291 236 291c45 0 74 -20 89 -63l14 52h74l-86 -298c-5 -17 -14 -49 -16 -58c0 -6 8 -13 16 -13c9 0 26 9 39 24l39 45l12 -9c-55 -75 -89 -102 -133 -102c-33 0 -46 20 -46 51c0 7 1 15 2 23c-40 -53 -80 -76 -130 -76c-70 0 -110 55 -110 133zM216 9
c93 0 169 208 169 305c0 61 -28 79 -54 79c-98 0 -168 -215 -168 -304c0 -50 17 -80 53 -80zM518 600l59 24v-3c-26 -87 -113 -149 -182 -149c-55 0 -92 24 -92 77c0 14 3 31 8 49v2h36c-3 -13 -5 -24 -5 -34c0 -38 24 -58 65 -58c49 0 94 41 111 92z" />
    <glyph glyph-name="Aogonek" unicode="&#x104;" horiz-adv-x="639" 
d="M460 585l-191 -309h191v309zM553 730l1 -706h79l-7 -24h-70c-33 -22 -59 -77 -59 -111c0 -16 8 -30 19 -30c18 0 39 12 70 39l7 -8c-46 -36 -64 -41 -97 -41c-29 0 -46 17 -46 40c0 24 25 78 77 111h-169l7 24h95v219h-215l-130 -219h116l-7 -24h-229l7 24h55l446 706h50
z" />
    <glyph glyph-name="aogonek" unicode="&#x105;" horiz-adv-x="488" 
d="M216 9c93 0 169 209 169 305c0 61 -28 79 -54 79c-98 0 -168 -215 -168 -304c0 -50 17 -80 53 -80zM86 121c0 139 116 291 236 291c45 0 74 -20 89 -63l14 52h74l-86 -298c-5 -17 -14 -49 -16 -58c0 -6 8 -13 16 -13c9 0 26 9 39 24l39 45l12 -9
c-55 -75 -89 -102 -133 -102c-3 0 -6 0 -9 1c-27 -26 -46 -76 -46 -107c0 -15 5 -26 16 -26c18 0 39 12 70 39l15 -4c-45 -33 -72 -45 -105 -45c-29 0 -46 17 -46 40c0 24 25 77 76 110c-12 9 -17 24 -17 43c0 7 1 15 2 23c-40 -53 -80 -76 -130 -76c-70 0 -110 55 -110 133
z" />
    <glyph glyph-name="Cacute" unicode="&#x106;" horiz-adv-x="594" 
d="M119 212c0 228 204 525 426 525c62 0 121 -11 158 -83l22 76h36l-69 -274h-41c1 20 2 44 2 70c0 89 -16 195 -113 195c-164 0 -256 -285 -281 -371c-25 -87 -39 -157 -39 -211c0 -93 39 -138 116 -138c119 0 201 137 247 236h43l-81 -237h-38l16 55
c-56 -46 -130 -70 -201 -70c-128 0 -203 89 -203 227zM524 797l114 106c24 19 30 20 41 20h3c17 0 32 -11 32 -23c0 -10 -11 -24 -22 -30l-130 -73h-38z" />
    <glyph glyph-name="cacute" unicode="&#x107;" horiz-adv-x="366" 
d="M295 472l116 140c22 25 31 31 44 31c17 0 32 -11 32 -23c0 -10 -11 -20 -22 -30l-132 -118h-38zM330 298c0 32 39 38 39 74c0 18 -13 30 -31 30c-95 0 -172 -205 -172 -306c0 -53 20 -83 59 -83c40 0 76 26 119 93l33 -5c-58 -81 -107 -113 -177 -113
c-82 0 -117 55 -117 126c0 125 109 298 253 298c70 0 98 -37 98 -74c0 -34 -26 -68 -65 -68c-24 0 -39 11 -39 28z" />
    <glyph glyph-name="Ccircumflex" unicode="&#x108;" horiz-adv-x="594" 
d="M119 212c0 228 204 525 426 525c62 0 121 -11 158 -83l22 76h36l-69 -274h-41c1 20 2 44 2 70c0 89 -16 195 -113 195c-164 0 -256 -285 -281 -371c-25 -87 -39 -157 -39 -211c0 -93 39 -138 116 -138c119 0 201 137 247 236h43l-81 -237h-38l16 55
c-56 -46 -130 -70 -201 -70c-128 0 -203 89 -203 227zM604 907l73 -110h-44l-68 69l-111 -69h-44l138 110h56z" />
    <glyph glyph-name="ccircumflex" unicode="&#x109;" horiz-adv-x="366" 
d="M394 641l65 -169h-27l-67 129l-130 -129h-27l145 169h41zM330 298c0 32 39 38 39 74c0 18 -13 30 -31 30c-95 0 -172 -205 -172 -306c0 -53 20 -83 59 -83c40 0 76 26 119 93l33 -5c-58 -81 -107 -113 -177 -113c-82 0 -117 55 -117 126c0 125 109 298 253 298
c70 0 98 -37 98 -74c0 -34 -26 -68 -65 -68c-24 0 -39 11 -39 28z" />
    <glyph glyph-name="Cdotaccent" unicode="&#x10a;" horiz-adv-x="594" 
d="M119 212c0 228 204 525 426 525c62 0 121 -11 158 -83l22 76h36l-69 -274h-41c1 20 2 44 2 70c0 89 -16 195 -113 195c-164 0 -256 -285 -281 -371c-25 -87 -39 -157 -39 -211c0 -93 39 -138 116 -138c119 0 201 137 247 236h43l-81 -237h-38l16 55
c-56 -46 -130 -70 -201 -70c-128 0 -203 89 -203 227zM573 894c24 0 34 -15 34 -33c0 -28 -25 -64 -63 -64c-25 0 -35 15 -35 33c0 28 26 64 64 64z" />
    <glyph glyph-name="cdotaccent" unicode="&#x10b;" horiz-adv-x="366" 
d="M392 569c23 0 33 -15 33 -33c0 -28 -24 -64 -62 -64c-25 0 -36 15 -36 33c0 28 26 64 65 64zM330 298c0 32 39 38 39 74c0 18 -13 30 -31 30c-95 0 -172 -205 -172 -306c0 -53 20 -83 59 -83c40 0 76 26 119 93l33 -5c-58 -81 -107 -113 -177 -113
c-82 0 -117 55 -117 126c0 125 109 298 253 298c70 0 98 -37 98 -74c0 -34 -26 -68 -65 -68c-24 0 -39 11 -39 28z" />
    <glyph glyph-name="Ccaron" unicode="&#x10c;" horiz-adv-x="594" 
d="M119 212c0 228 204 525 426 525c62 0 121 -11 158 -83l22 76h36l-69 -274h-41c1 20 2 44 2 70c0 89 -16 195 -113 195c-164 0 -256 -285 -281 -371c-25 -87 -39 -157 -39 -211c0 -93 39 -138 116 -138c119 0 201 137 247 236h43l-81 -237h-38l16 55
c-56 -46 -130 -70 -201 -70c-128 0 -203 89 -203 227zM514 797l-72 110h44l69 -68l110 68h44l-139 -110h-56z" />
    <glyph glyph-name="ccaron" unicode="&#x10d;" horiz-adv-x="366" 
d="M319 472l-68 163h28l69 -122l136 122h28l-152 -163h-41zM330 298c0 32 39 38 39 74c0 18 -13 30 -31 30c-95 0 -172 -205 -172 -306c0 -53 20 -83 59 -83c40 0 76 26 119 93l33 -5c-58 -81 -107 -113 -177 -113c-82 0 -117 55 -117 126c0 125 109 298 253 298
c70 0 98 -37 98 -74c0 -34 -26 -68 -65 -68c-24 0 -39 11 -39 28z" />
    <glyph glyph-name="Dcaron" unicode="&#x10e;" horiz-adv-x="648" 
d="M756 512c0 -143 -103 -512 -445 -512h-287l7 24h91l200 674h-91l7 24h272c98 0 155 -17 191 -52c37 -36 55 -91 55 -158zM268 24h58c133 0 216 93 288 337c24 83 37 148 37 199c0 96 -46 138 -139 138h-44c-38 0 -47 -6 -66 -69l-159 -537c-7 -23 -11 -38 -11 -49
c0 -17 11 -19 36 -19zM519 797l-72 110h44l69 -68l110 68h44l-139 -110h-56z" />
    <glyph glyph-name="dcaron" unicode="&#x10f;" horiz-adv-x="502" 
d="M589 508l-10 10c65 32 103 71 111 120l-15 -3c-4 0 -8 -1 -11 -1c-27 0 -38 23 -38 42c0 22 23 46 54 46c34 0 58 -30 58 -61c0 -60 -58 -119 -149 -153zM86 121c0 139 116 291 236 291c45 0 74 -20 89 -63l108 366h-84l5 15h158l-185 -627c-5 -17 -14 -49 -16 -58
c0 -6 8 -13 16 -13c9 0 26 9 39 24l39 45l12 -9c-55 -75 -89 -102 -133 -102c-33 0 -46 20 -46 51c0 7 1 15 2 23c-40 -53 -80 -76 -130 -76c-70 0 -110 55 -110 133zM216 9c93 0 169 208 169 305c0 61 -28 79 -54 79c-98 0 -168 -215 -168 -304c0 -50 17 -80 53 -80z" />
    <glyph glyph-name="Dcroat" unicode="&#x110;" horiz-adv-x="653" 
d="M749 509c0 -155 -109 -509 -444 -509h-287l7 24h91l100 337h-91l8 26h91l92 311h-91l7 24h272c98 0 156 -17 191 -52c36 -36 54 -92 54 -161zM316 361l-80 -269c-7 -23 -10 -38 -10 -48c0 -18 11 -20 36 -20h58c134 0 215 92 288 337c24 83 37 149 37 199
c0 96 -45 138 -138 138h-45c-39 0 -48 -6 -67 -69l-71 -242h153l-8 -26h-153z" />
    <glyph glyph-name="dcroat" unicode="&#x111;" horiz-adv-x="502" 
d="M379 -12h-7c-19 0 -36 12 -36 42c0 8 1 16 3 25c0 4 1 9 1 13c-41 -55 -87 -80 -147 -80c-84 0 -140 53 -140 131c0 139 120 281 246 281c56 0 90 -48 104 -86l64 215h-135l9 31h135l46 155h-110l6 15h178l-51 -170h78l-9 -31h-78l-125 -426c-10 -22 -15 -40 -15 -52
s5 -19 15 -19c9 0 26 9 39 24l39 45l12 -9c-48 -81 -95 -104 -122 -104zM216 2c118 0 167 219 167 279c0 55 -35 109 -81 109c-83 0 -172 -169 -172 -281c0 -65 35 -107 86 -107z" />
    <glyph glyph-name="Emacron" unicode="&#x112;" horiz-adv-x="589" 
d="M336 24c126 0 184 59 262 228h42l-92 -252h-525l7 24h91l200 674h-91l7 24h515l-60 -240h-41c7 40 10 73 10 100c0 107 -51 116 -144 116h-44c-43 0 -54 -7 -71 -63l-78 -262h136l38 127h44l-84 -285h-44l41 138h-136l-79 -266c-3 -13 -5 -23 -5 -32c0 -22 14 -31 45 -31
h56zM678 797h-300l15 49h300z" />
    <glyph glyph-name="emacron" unicode="&#x113;" horiz-adv-x="370" 
d="M455 460h-300l14 48h300zM145 167c16 3 206 35 206 171c0 40 -23 65 -55 65c-95 0 -139 -160 -151 -236zM370 78l17 -12c-48 -53 -113 -78 -181 -78c-96 0 -146 53 -146 142c0 142 123 282 253 282c62 0 103 -32 103 -79c0 -104 -190 -174 -273 -186
c-2 -16 -3 -33 -3 -40c0 -69 29 -106 86 -106c49 0 89 21 144 77z" />
    <glyph glyph-name="Ebreve" unicode="&#x114;" horiz-adv-x="589" 
d="M336 24c126 0 184 59 262 228h42l-92 -252h-525l7 24h91l200 674h-91l7 24h515l-60 -240h-41c7 40 10 73 10 100c0 107 -51 116 -144 116h-44c-43 0 -54 -7 -71 -63l-78 -262h136l38 127h44l-84 -285h-44l41 138h-136l-79 -266c-3 -13 -5 -23 -5 -32c0 -22 14 -31 45 -31
h56zM427 877c0 9 1 21 5 29h41c-2 -7 -4 -14 -4 -21c0 -29 22 -51 64 -51c49 0 82 15 99 66l64 24l-1 -3c-26 -88 -105 -124 -174 -124c-59 0 -94 35 -94 80z" />
    <glyph glyph-name="ebreve" unicode="&#x115;" horiz-adv-x="370" 
d="M439 588l59 24v-3c-26 -87 -113 -149 -182 -149c-55 0 -92 24 -92 77c0 14 3 31 8 49v2h36c-3 -13 -5 -24 -5 -34c0 -38 24 -58 65 -58c49 0 94 41 111 92zM145 167c16 3 206 35 206 171c0 40 -23 65 -55 65c-95 0 -139 -160 -151 -236zM370 78l17 -12
c-48 -53 -113 -78 -181 -78c-96 0 -146 53 -146 142c0 142 123 282 253 282c62 0 103 -32 103 -79c0 -104 -190 -174 -273 -186c-2 -16 -3 -33 -3 -40c0 -69 29 -106 86 -106c49 0 89 21 144 77z" />
    <glyph glyph-name="Edotaccent" unicode="&#x116;" horiz-adv-x="589" 
d="M336 24c126 0 184 59 262 228h42l-92 -252h-525l7 24h91l200 674h-91l7 24h515l-60 -240h-41c7 40 10 73 10 100c0 107 -51 116 -144 116h-44c-43 0 -54 -7 -71 -63l-78 -262h136l38 127h44l-84 -285h-44l41 138h-136l-79 -266c-3 -13 -5 -23 -5 -32c0 -22 14 -31 45 -31
h56zM559 894c23 0 33 -15 33 -33c0 -28 -24 -64 -62 -64c-25 0 -36 15 -36 33c0 28 26 64 65 64z" />
    <glyph glyph-name="edotaccent" unicode="&#x117;" horiz-adv-x="370" 
d="M346 569c23 0 33 -15 33 -33c0 -28 -25 -64 -62 -64c-25 0 -36 15 -36 33c0 28 26 64 65 64zM145 167c16 3 206 35 206 171c0 40 -23 65 -55 65c-95 0 -139 -160 -151 -236zM370 78l17 -12c-48 -53 -113 -78 -181 -78c-96 0 -146 53 -146 142c0 142 123 282 253 282
c62 0 103 -32 103 -79c0 -104 -190 -174 -273 -186c-2 -16 -3 -33 -3 -40c0 -69 29 -106 86 -106c49 0 89 21 144 77z" />
    <glyph glyph-name="Eogonek" unicode="&#x118;" horiz-adv-x="589" 
d="M450 -107c0 22 24 73 72 107h-499l7 24h91l200 674h-91l7 24h515l-60 -240h-41c7 40 10 73 10 100c0 107 -51 116 -144 116h-44c-43 0 -54 -7 -71 -63l-78 -262h136l38 127h44l-84 -285h-44l41 138h-136l-79 -266c-3 -13 -5 -23 -5 -32c0 -22 14 -31 45 -31h56
c126 0 184 59 262 228h42l-90 -247h8c-33 -21 -58 -81 -58 -116c0 -15 5 -26 16 -26c18 0 39 12 70 39l15 -4c-45 -33 -72 -45 -105 -45c-28 0 -46 17 -46 40z" />
    <glyph glyph-name="eogonek" unicode="&#x119;" horiz-adv-x="370" 
d="M139 -119c0 22 24 73 72 107h-5c-96 0 -146 53 -146 142c0 142 123 282 253 282c62 0 103 -32 103 -79c0 -104 -190 -174 -273 -186c-2 -16 -3 -33 -3 -40c0 -69 29 -106 86 -106c49 0 89 21 144 77l17 -12c-39 -43 -89 -68 -143 -75c-32 -23 -54 -80 -54 -114
c0 -15 4 -26 16 -26c18 0 39 12 70 39l15 -4c-45 -33 -72 -45 -105 -45c-29 0 -47 17 -47 40zM145 167c16 3 206 35 206 171c0 40 -23 65 -55 65c-95 0 -139 -160 -151 -236z" />
    <glyph glyph-name="Ecaron" unicode="&#x11a;" horiz-adv-x="589" 
d="M336 24c126 0 184 59 262 228h42l-92 -252h-525l7 24h91l200 674h-91l7 24h515l-60 -240h-41c7 40 10 73 10 100c0 107 -51 116 -144 116h-44c-43 0 -54 -7 -71 -63l-78 -262h136l38 127h44l-84 -285h-44l41 138h-136l-79 -266c-3 -13 -5 -23 -5 -32c0 -22 14 -31 45 -31
h56zM500 797l-72 110h44l69 -68l110 68h44l-139 -110h-56z" />
    <glyph glyph-name="ecaron" unicode="&#x11b;" horiz-adv-x="370" 
d="M314 472l-68 163h28l69 -122l136 122h28l-152 -163h-41zM145 167c16 3 206 35 206 171c0 40 -23 65 -55 65c-95 0 -139 -160 -151 -236zM370 78l17 -12c-48 -53 -113 -78 -181 -78c-96 0 -146 53 -146 142c0 142 123 282 253 282c62 0 103 -32 103 -79
c0 -104 -190 -174 -273 -186c-2 -16 -3 -33 -3 -40c0 -69 29 -106 86 -106c49 0 89 21 144 77z" />
    <glyph glyph-name="Gcircumflex" unicode="&#x11c;" horiz-adv-x="654" 
d="M314 4c57 0 153 31 207 214l22 76h-91l7 24h274l-7 -24h-89l-91 -309h-39l-2 98c-75 -68 -133 -95 -204 -95c-93 0 -205 60 -205 221c0 40 7 87 23 140c78 265 278 388 413 388c62 0 126 -35 153 -113l32 108h36l-67 -267h-41c2 24 3 46 3 67c0 126 -42 189 -123 189
c-115 0 -217 -130 -289 -372c-25 -83 -35 -147 -35 -196c0 -121 61 -149 113 -149zM624 907l73 -110h-44l-68 69l-111 -69h-44l138 110h56z" />
    <glyph glyph-name="gcircumflex" unicode="&#x11d;" horiz-adv-x="440" 
d="M428 641l65 -169h-27l-67 129l-130 -129h-27l145 169h41zM92 114c0 130 123 298 250 298c49 0 82 -24 99 -73l52 61h32c-32 -70 -25 -44 -50 -127l-79 -259c-66 -198 -204 -212 -282 -214c-44 0 -73 18 -94 49l11 12c21 -28 43 -40 76 -40h2c77 0 179 71 208 178l15 52
c-45 -46 -76 -63 -123 -63c-74 0 -117 51 -117 126zM346 403c-105 0 -174 -239 -174 -319c0 -50 19 -77 56 -77c61 0 111 65 150 197c15 52 22 91 22 120c0 63 -29 79 -54 79z" />
    <glyph glyph-name="Gbreve" unicode="&#x11e;" horiz-adv-x="654" 
d="M314 4c57 0 153 31 207 214l22 76h-91l7 24h274l-7 -24h-89l-91 -309h-39l-2 98c-75 -68 -133 -95 -204 -95c-93 0 -205 60 -205 221c0 40 7 87 23 140c78 265 278 388 413 388c62 0 126 -35 153 -113l32 108h36l-67 -267h-41c2 24 3 46 3 67c0 126 -42 189 -123 189
c-115 0 -217 -130 -289 -372c-25 -83 -35 -147 -35 -196c0 -121 61 -149 113 -149zM461 877c0 9 2 21 6 29h41c-3 -7 -4 -14 -4 -21c0 -29 21 -51 64 -51c49 0 82 15 99 66l64 24l-1 -3c-26 -88 -105 -124 -174 -124c-59 0 -95 35 -95 80z" />
    <glyph glyph-name="gbreve" unicode="&#x11f;" horiz-adv-x="440" 
d="M482 600l59 24v-3c-26 -87 -113 -149 -182 -149c-55 0 -91 24 -91 77c0 14 2 31 7 49v2h36c-3 -13 -5 -24 -5 -34c0 -38 24 -58 65 -58c49 0 94 41 111 92zM92 114c0 130 123 298 250 298c49 0 82 -24 99 -73l52 61h32c-32 -70 -25 -44 -50 -127l-79 -259
c-66 -198 -204 -212 -282 -214c-44 0 -73 18 -94 49l11 12c21 -28 43 -40 76 -40h2c77 0 179 71 208 178l15 52c-45 -46 -76 -63 -123 -63c-74 0 -117 51 -117 126zM346 403c-105 0 -174 -239 -174 -319c0 -50 19 -77 56 -77c61 0 111 65 150 197c15 52 22 91 22 120
c0 63 -29 79 -54 79z" />
    <glyph glyph-name="Gdotaccent" unicode="&#x120;" horiz-adv-x="654" 
d="M314 4c57 0 153 31 207 214l22 76h-91l7 24h274l-7 -24h-89l-91 -309h-39l-2 98c-75 -68 -133 -95 -204 -95c-93 0 -205 60 -205 221c0 40 7 87 23 140c78 265 278 388 413 388c62 0 126 -35 153 -113l32 108h36l-67 -267h-41c2 24 3 46 3 67c0 126 -42 189 -123 189
c-115 0 -217 -130 -289 -372c-25 -83 -35 -147 -35 -196c0 -121 61 -149 113 -149zM593 894c24 0 34 -15 34 -33c0 -28 -25 -64 -63 -64c-24 0 -35 15 -35 33c0 28 26 64 64 64z" />
    <glyph glyph-name="gdotaccent" unicode="&#x121;" horiz-adv-x="440" 
d="M398 569c23 0 33 -15 33 -33c0 -28 -24 -64 -62 -64c-25 0 -36 15 -36 33c0 28 26 64 65 64zM92 114c0 130 123 298 250 298c49 0 82 -24 99 -73l52 61h32c-32 -70 -25 -44 -50 -127l-79 -259c-66 -198 -204 -212 -282 -214c-44 0 -73 18 -94 49l11 12
c21 -28 43 -40 76 -40h2c77 0 179 71 208 178l15 52c-45 -46 -76 -63 -123 -63c-74 0 -117 51 -117 126zM346 403c-105 0 -174 -239 -174 -319c0 -50 19 -77 56 -77c61 0 111 65 150 197c15 52 22 91 22 120c0 63 -29 79 -54 79z" />
    <glyph glyph-name="Gcommaaccent" unicode="&#x122;" horiz-adv-x="654" 
d="M212 -267l-16 7c95 54 104 100 104 110c0 1 -1 2 -1 2h-2c-2 -1 -9 -1 -12 -1c-23 0 -34 13 -34 27c0 21 22 47 57 47c26 0 36 -17 36 -39c0 -57 -51 -112 -132 -153zM314 4c57 0 153 31 207 214l22 76h-91l7 24h274l-7 -24h-89l-91 -309h-39l-2 98
c-75 -68 -133 -95 -204 -95c-93 0 -205 60 -205 221c0 40 7 87 23 140c78 265 278 388 413 388c62 0 126 -35 153 -113l32 108h36l-67 -267h-41c2 24 3 46 3 67c0 126 -42 189 -123 189c-115 0 -217 -130 -289 -372c-25 -83 -35 -147 -35 -196c0 -121 61 -149 113 -149z" />
    <glyph glyph-name="gcommaaccent" unicode="&#x123;" horiz-adv-x="440" 
d="M465 666l17 -7c-95 -54 -104 -99 -104 -110c0 -1 1 -2 1 -2h2c2 1 9 1 12 1c23 0 34 -13 34 -27c0 -21 -22 -47 -58 -47c-25 0 -35 16 -35 38c0 58 51 113 131 154zM92 114c0 130 123 298 250 298c49 0 82 -24 99 -73l52 61h32c-32 -70 -25 -44 -50 -127l-79 -259
c-66 -198 -204 -212 -282 -214c-44 0 -73 18 -94 49l11 12c21 -28 43 -40 76 -40h2c77 0 179 71 208 178l15 52c-45 -46 -76 -63 -123 -63c-74 0 -117 51 -117 126zM346 403c-105 0 -174 -239 -174 -319c0 -50 19 -77 56 -77c61 0 111 65 150 197c15 52 22 91 22 120
c0 63 -29 79 -54 79z" />
    <glyph glyph-name="Hcircumflex" unicode="&#x124;" horiz-adv-x="688" 
d="M589 358h-279l-99 -334h92l-7 -24h-283l7 24h90l200 674h-90l7 24h283l-7 -24h-92l-91 -307h279l91 307h-88l7 24h280l-7 -24h-91l-200 -674h91l-7 -24h-283l7 24h91zM639 907l73 -110h-44l-68 69l-111 -69h-44l138 110h56z" />
    <glyph glyph-name="hcircumflex" unicode="&#x125;" horiz-adv-x="500" 
d="M449 943l65 -169h-27l-67 129l-130 -129h-27l145 169h41zM209 715l5 15h149l-119 -400c52 57 98 82 149 82c70 0 94 -31 94 -79c0 -25 -7 -54 -16 -85l-42 -144c-5 -17 -13 -48 -15 -57c0 -6 7 -14 15 -14c9 0 27 10 41 26l38 44l13 -10c-56 -76 -91 -103 -136 -103
c-33 0 -45 19 -45 49c0 20 5 44 13 70l42 144c7 22 14 52 14 78c0 31 -11 57 -46 57h-1c-63 0 -135 -119 -155 -185l-60 -203h-76l212 715h-74z" />
    <glyph glyph-name="Hbar" unicode="&#x126;" horiz-adv-x="688" 
d="M589 358h-279l-99 -334h92l-7 -24h-283l7 24h90l150 507h-89l9 31h89l41 136h-90l7 24h283l-7 -24h-92l-41 -136h279l41 136h-88l7 24h280l-7 -24h-91l-41 -136h91l-9 -31h-91l-150 -507h91l-7 -24h-283l7 24h91zM640 531h-279l-41 -140h279z" />
    <glyph glyph-name="hbar" unicode="&#x127;" horiz-adv-x="500" 
d="M227 715l5 15h149l-50 -168h143l-9 -31h-143l-60 -201c52 57 98 82 149 82c70 0 94 -31 94 -79c0 -25 -7 -54 -16 -85l-42 -144c-5 -17 -13 -48 -15 -57c0 -6 7 -14 15 -14c9 0 27 10 41 26l38 44l13 -10c-56 -76 -91 -103 -136 -103c-33 0 -45 19 -45 49
c0 20 5 44 13 70l42 144c7 22 14 52 14 78c0 31 -11 57 -46 57h-1c-63 0 -135 -119 -155 -185l-60 -203h-76l157 531h-81l9 31h82l45 153h-74z" />
    <glyph glyph-name="Itilde" unicode="&#x128;" horiz-adv-x="309" 
d="M412 698l-200 -674h91l-7 -24h-283l7 24h91l200 674h-91l7 24h283l-7 -24h-91zM362 892c48 0 75 -60 105 -60c18 0 44 31 61 72h35c-25 -64 -76 -107 -126 -107c-51 0 -65 59 -100 59c-18 0 -39 -21 -56 -59h-34c28 58 73 95 115 95z" />
    <glyph glyph-name="itilde" unicode="&#x129;" horiz-adv-x="211" 
d="M304 470c-44 0 -102 57 -135 57c-19 0 -36 -22 -46 -64h-21c15 62 45 99 83 99c40 0 104 -52 135 -52c20 0 35 17 49 59h22c-11 -55 -50 -99 -87 -99zM116 387l4 15h143l-89 -299c-5 -17 -14 -49 -16 -58c0 -6 8 -13 15 -13c8 0 24 9 37 24l38 45l12 -9
c-54 -75 -89 -102 -131 -102c-30 0 -41 18 -41 47c0 19 5 44 13 72l83 278h-68z" />
    <glyph glyph-name="Imacron" unicode="&#x12a;" horiz-adv-x="309" 
d="M412 698l-200 -674h91l-7 -24h-283l7 24h91l200 674h-91l7 24h283l-7 -24h-91zM538 797h-300l15 49h300z" />
    <glyph glyph-name="imacron" unicode="&#x12b;" horiz-adv-x="211" 
d="M406 472h-300l14 48h300zM116 387l4 15h143l-89 -299c-5 -17 -14 -49 -16 -58c0 -6 8 -13 15 -13c8 0 24 9 37 24l38 45l12 -9c-54 -75 -89 -102 -131 -102c-30 0 -41 18 -41 47c0 19 5 44 13 72l83 278h-68z" />
    <glyph glyph-name="Ibreve" unicode="&#x12c;" horiz-adv-x="309" 
d="M412 698l-200 -674h91l-7 -24h-283l7 24h91l200 674h-91l7 24h283l-7 -24h-91zM287 877c0 9 1 21 5 29h41c-2 -7 -4 -14 -4 -21c0 -29 22 -51 64 -51c49 0 82 15 99 66l64 24l-1 -3c-26 -88 -105 -124 -174 -124c-59 0 -94 35 -94 80z" />
    <glyph glyph-name="ibreve" unicode="&#x12d;" horiz-adv-x="211" 
d="M354 600l59 24v-3c-26 -87 -113 -149 -182 -149c-55 0 -92 24 -92 77c0 14 3 31 8 49v2h36c-4 -13 -5 -24 -5 -34c0 -38 24 -58 65 -58c49 0 94 41 111 92zM116 387l4 15h143l-89 -299c-5 -17 -14 -49 -16 -58c0 -6 8 -13 15 -13c8 0 24 9 37 24l38 45l12 -9
c-54 -75 -89 -102 -131 -102c-30 0 -41 18 -41 47c0 19 5 44 13 72l83 278h-68z" />
    <glyph glyph-name="Iogonek" unicode="&#x12e;" horiz-adv-x="309" 
d="M61 -113c0 24 27 79 79 112h29c-33 -21 -58 -81 -58 -116c0 -15 5 -26 16 -26c18 0 39 12 70 39l15 -4c-45 -33 -72 -45 -105 -45c-28 0 -46 17 -46 40zM412 698l-200 -674h91l-7 -24h-283l7 24h91l200 674h-91l7 24h283l-7 -24h-91z" />
    <glyph glyph-name="iogonek" unicode="&#x12f;" horiz-adv-x="237" 
d="M279 597c23 0 34 -15 34 -33c0 -28 -25 -64 -63 -64c-25 0 -36 15 -36 33c0 28 27 64 65 64zM40 -113c0 21 23 72 70 106c-16 6 -22 22 -22 44c0 19 5 44 13 72l83 278h-68l4 15h143l-89 -299c-5 -17 -14 -49 -16 -58c0 -6 8 -13 15 -13c8 0 24 9 37 24l38 45l12 -9
c-51 -70 -85 -98 -123 -102c-28 -25 -47 -76 -47 -107c0 -15 5 -26 16 -26c18 0 39 12 70 39l15 -4c-45 -33 -72 -45 -105 -45c-28 0 -46 17 -46 40z" />
    <glyph glyph-name="Idotaccent" unicode="&#x130;" horiz-adv-x="309" 
d="M415 894c23 0 34 -15 34 -33c0 -28 -25 -64 -63 -64c-25 0 -36 15 -36 33c0 28 26 64 65 64zM412 698l-200 -674h91l-7 -24h-283l7 24h91l200 674h-91l7 24h283l-7 -24h-91z" />
    <glyph glyph-name="dotlessi" unicode="&#x131;" horiz-adv-x="245" 
d="M116 387l4 15h143l-89 -299c-5 -17 -14 -49 -16 -58c0 -6 8 -13 15 -13c8 0 24 9 37 24l38 45l12 -9c-54 -75 -89 -102 -131 -102c-30 0 -41 18 -41 47c0 19 5 44 13 72l83 278h-68z" />
    <glyph glyph-name="IJ" unicode="&#x132;" horiz-adv-x="812" 
d="M762 262c-50 -169 -112 -277 -275 -277c-96 0 -132 52 -132 111c0 77 62 167 130 167c36 0 51 -21 51 -45c0 -36 -32 -79 -77 -79c-10 0 -16 1 -29 5h-3c-7 0 -21 -33 -21 -68c0 -37 16 -75 70 -75c95 0 144 123 185 262l129 435h-90l7 24h282l-7 -24h-91zM412 698
l-200 -674h91l-7 -24h-283l7 24h91l200 674h-91l7 24h283l-7 -24h-91z" />
    <glyph glyph-name="ij" unicode="&#x133;" horiz-adv-x="465" 
d="M537 600c23 0 34 -15 34 -33c0 -28 -25 -64 -63 -64c-25 0 -36 15 -36 33c0 28 27 64 65 64zM221 -125c0 -12 -23 -22 -23 -49c0 -9 4 -15 12 -15c49 0 85 78 113 173l119 403h-87l4 15h171l-111 -376c-29 -98 -69 -224 -219 -224c-58 0 -82 23 -82 47s25 49 64 49
c22 0 39 -10 39 -23zM116 387l4 15h143l-89 -299c-5 -17 -14 -49 -16 -58c0 -6 8 -13 15 -13c8 0 24 9 37 24l38 45l12 -9c-54 -75 -89 -102 -131 -102c-30 0 -41 18 -41 47c0 19 5 44 13 72l83 278h-68zM279 597c23 0 34 -15 34 -33c0 -28 -25 -64 -63 -64
c-25 0 -36 15 -36 33c0 28 27 64 65 64z" />
    <glyph glyph-name="Jcircumflex" unicode="&#x134;" horiz-adv-x="473" 
d="M451 262c-50 -169 -112 -277 -275 -277c-96 0 -132 52 -132 111c0 77 62 167 130 167c36 0 51 -21 51 -45c0 -36 -32 -79 -77 -79c-10 0 -16 1 -29 5h-3c-7 0 -21 -33 -21 -68c0 -37 16 -75 70 -75c95 0 144 123 185 262l129 435h-90l7 24h282l-7 -24h-91zM535 907
l73 -110h-44l-68 69l-111 -69h-44l138 110h56z" />
    <glyph glyph-name="jcircumflex" unicode="&#x135;" horiz-adv-x="251" 
d="M341 625l65 -169h-27l-67 129l-130 -129h-27l145 169h41zM5 -127c0 -12 -23 -22 -23 -49c0 -9 4 -15 12 -15c49 0 85 78 113 173l119 403h-87l4 15h171l-111 -376c-29 -98 -69 -224 -219 -224c-58 0 -82 23 -82 47s25 49 64 49c22 0 39 -10 39 -23z" />
    <glyph glyph-name="Kcommaaccent" unicode="&#x136;" horiz-adv-x="671" 
d="M226 -252l-16 7c94 53 103 100 103 110v2h-2c-2 -1 -9 -1 -12 -1c-24 0 -34 12 -34 27c0 21 21 47 57 47c26 0 35 -17 35 -39c0 -57 -50 -112 -131 -153zM288 311l420 387h-136l7 24h266l-7 -23c-50 0 -111 -32 -168 -85l-175 -164l96 -370c9 -49 18 -57 63 -57h19
l-7 -23h-295l7 24h116l-87 360l-136 -131l-68 -229h93l-7 -24h-284l7 24h91l200 674h-91l7 24h284l-7 -24h-93z" />
    <glyph glyph-name="kcommaaccent" unicode="&#x137;" horiz-adv-x="508" 
d="M396 -10c-40 0 -68 24 -84 70l-54 151l-66 -56l-45 -155h-76l212 715h-74l5 15h148l-160 -539l240 194h-114l4 15h225l-4 -15c-60 -6 -106 -29 -170 -81l-51 -47l66 -183c16 -36 33 -42 41 -42c9 0 26 9 39 24l39 45l12 -9c-55 -75 -89 -102 -133 -102zM174 -250l-16 7
c94 54 103 100 103 110v2h-2c-2 -1 -9 -1 -12 -1c-24 0 -35 13 -35 27c0 21 22 47 58 47c25 0 35 -17 35 -39c0 -57 -50 -112 -131 -153z" />
    <glyph glyph-name="kgreenlandic" unicode="&#x138;" horiz-adv-x="489" 
d="M73 0l145 485h-77l4 15h162l-91 -309c76 61 210 153 216 209h138l-4 -15c-60 -6 -106 -29 -170 -81l-51 -47l66 -183c19 -50 34 -55 81 -59l-4 -15h-148l-68 211l-67 -56l-47 -155h-85z" />
    <glyph glyph-name="Lacute" unicode="&#x139;" horiz-adv-x="553" 
d="M308 24c114 0 186 48 265 235h42l-95 -259h-505l7 24h91l200 674h-91l7 24h283l-7 -24h-90l-181 -611c-4 -16 -9 -30 -9 -40c0 -15 10 -23 47 -23h36zM492 797l114 106c23 19 30 20 40 20h4c17 0 32 -11 32 -23c0 -10 -11 -24 -22 -30l-130 -73h-38z" />
    <glyph glyph-name="lacute" unicode="&#x13a;" horiz-adv-x="242" 
d="M258 790l116 140c22 25 31 31 44 31c17 0 32 -11 32 -23c0 -10 -11 -20 -22 -30l-132 -118h-38zM212 715l4 15h147l-186 -627c-5 -17 -13 -49 -15 -58c0 -6 7 -13 15 -13c9 0 26 9 39 24l40 45l12 -9c-55 -75 -89 -102 -133 -102c-32 0 -44 19 -44 49c0 20 5 43 13 70
l180 606h-72z" />
    <glyph glyph-name="Lcommaaccent" unicode="&#x13b;" horiz-adv-x="553" 
d="M167 -252l-16 7c94 53 103 100 103 110v2h-2c-2 -1 -9 -1 -12 -1c-24 0 -34 12 -34 27c0 21 21 47 57 47c25 0 35 -17 35 -39c0 -57 -50 -112 -131 -153zM308 24c114 0 186 48 265 235h42l-95 -259h-505l7 24h91l200 674h-91l7 24h283l-7 -24h-90l-181 -611
c-4 -16 -9 -30 -9 -40c0 -15 10 -23 47 -23h36z" />
    <glyph glyph-name="lcommaaccent" unicode="&#x13c;" horiz-adv-x="242" 
d="M10 -252l-16 7c94 53 103 100 103 110v2h-2c-2 -1 -9 -1 -12 -1c-24 0 -34 12 -34 27c0 21 21 47 57 47c26 0 35 -17 35 -39c0 -57 -50 -112 -131 -153zM212 715l4 15h147l-186 -627c-5 -17 -13 -49 -15 -58c0 -6 7 -13 15 -13c9 0 26 9 39 24l40 45l12 -9
c-55 -75 -89 -102 -133 -102c-32 0 -44 19 -44 49c0 20 5 43 13 70l180 606h-72z" />
    <glyph glyph-name="Lcaron" unicode="&#x13d;" horiz-adv-x="553" 
d="M627 515l-10 10c65 32 103 71 111 120l-15 -3c-4 0 -8 -1 -11 -1c-27 0 -38 23 -38 42c0 22 23 46 54 46c34 0 58 -30 58 -61c0 -60 -58 -119 -149 -153zM308 24c114 0 186 48 265 235h42l-95 -259h-505l7 24h91l200 674h-91l7 24h283l-7 -24h-90l-181 -611
c-4 -16 -9 -30 -9 -40c0 -15 10 -23 47 -23h36z" />
    <glyph glyph-name="lcaron" unicode="&#x13e;" horiz-adv-x="246" 
d="M375 490l-10 10c65 32 103 71 111 120l-15 -3c-4 0 -8 -1 -11 -1c-27 0 -38 23 -38 42c0 22 23 46 54 46c34 0 58 -30 58 -61c0 -60 -58 -119 -149 -153zM212 715l4 15h147l-186 -627c-5 -17 -13 -49 -15 -58c0 -6 7 -13 15 -13c9 0 26 9 39 24l40 45l12 -9
c-55 -75 -89 -102 -133 -102c-32 0 -44 19 -44 49c0 20 5 43 13 70l180 606h-72z" />
    <glyph glyph-name="Ldot" unicode="&#x13f;" horiz-adv-x="553" 
d="M479 469c32 0 58 -28 58 -62c0 -35 -26 -63 -59 -63c-31 0 -59 28 -59 63c0 34 28 62 60 62zM308 24c114 0 186 48 265 235h42l-95 -259h-505l7 24h91l200 674h-91l7 24h283l-7 -24h-90l-181 -611c-4 -16 -9 -30 -9 -40c0 -15 10 -23 47 -23h36z" />
    <glyph glyph-name="ldot" unicode="&#x140;" horiz-adv-x="354" 
d="M383 469c32 0 58 -28 58 -62c0 -35 -26 -63 -59 -63c-31 0 -59 28 -59 63c0 34 28 62 60 62zM212 715l4 15h147l-186 -627c-5 -17 -13 -49 -15 -58c0 -6 7 -13 15 -13c9 0 26 9 39 24l40 45l12 -9c-55 -75 -89 -102 -133 -102c-32 0 -44 19 -44 49c0 20 5 43 13 70
l180 606h-72z" />
    <glyph glyph-name="Lslash" unicode="&#x141;" horiz-adv-x="570" 
d="M323 24c153 0 206 87 268 209h35l-85 -233h-503l7 24h80l70 250l-115 -77l20 43l108 71l112 387h-101l8 24h284l-7 -24h-94l-92 -325l182 118l-21 -43l-178 -118l-59 -199c-12 -49 -13 -51 -13 -70c0 -29 15 -37 58 -37h36z" />
    <glyph glyph-name="lslash" unicode="&#x142;" horiz-adv-x="284" 
d="M237 306l-60 -203c-5 -17 -13 -49 -15 -58c0 -6 7 -13 15 -13c9 0 26 9 39 24l40 45l12 -9c-55 -75 -89 -102 -133 -102c-32 0 -44 19 -44 49c0 20 5 43 13 70l50 167l-84 -29l13 27l78 27l123 414h-72l4 15h147l-119 -400l104 37l-14 -27z" />
    <glyph glyph-name="Nacute" unicode="&#x143;" horiz-adv-x="678" 
d="M401 722l170 -553l157 529h-97l7 24h246l-7 -24c-66 0 -103 -18 -143 -152l-162 -546h-40l-194 611l-174 -587h98l-7 -24h-246l7 24h97l200 674h-98l7 24h179zM554 797l114 106c24 19 30 20 41 20h3c17 0 32 -11 32 -23c0 -10 -11 -24 -22 -30l-130 -73h-38z" />
    <glyph glyph-name="nacute" unicode="&#x144;" horiz-adv-x="500" 
d="M312 472l116 140c22 25 31 31 44 31c17 0 32 -11 32 -23c0 -10 -11 -20 -22 -30l-132 -118h-38zM348 109l42 140c5 18 10 44 10 69c0 35 -10 68 -41 68c-87 0 -138 -123 -158 -190l-58 -196h-76l114 385h-63l4 15h139l-19 -63c49 50 96 75 147 75c62 -1 89 -39 89 -95
c0 -22 -4 -47 -12 -73l-42 -140c-5 -17 -13 -48 -15 -57c0 -6 7 -14 15 -14c9 0 27 10 41 26l38 44l13 -10c-56 -76 -91 -103 -136 -103c-33 0 -45 19 -45 49c0 20 5 44 13 70z" />
    <glyph glyph-name="Ncommaaccent" unicode="&#x145;" horiz-adv-x="678" 
d="M229 -252l-16 7c95 53 104 100 104 110c0 1 -1 2 -1 2h-2c-2 -1 -9 -1 -12 -1c-23 0 -34 12 -34 27c0 21 22 47 57 47c26 0 36 -17 36 -39c0 -57 -51 -112 -132 -153zM401 722l170 -553l157 529h-97l7 24h246l-7 -24c-66 0 -103 -18 -143 -152l-162 -546h-40l-194 611
l-174 -587h98l-7 -24h-246l7 24h97l200 674h-98l7 24h179z" />
    <glyph glyph-name="ncommaaccent" unicode="&#x146;" horiz-adv-x="500" 
d="M133 -262l-16 7c94 54 103 100 103 110v2h-2c-2 -1 -9 -1 -12 -1c-24 0 -35 13 -35 27c0 21 22 47 58 47c25 0 35 -17 35 -39c0 -57 -50 -112 -131 -153zM348 109l42 140c5 18 10 44 10 69c0 35 -10 68 -41 68c-87 0 -138 -123 -158 -190l-58 -196h-76l114 385h-63l4 15
h139l-19 -63c49 50 96 75 147 75c62 -1 89 -39 89 -95c0 -22 -4 -47 -12 -73l-42 -140c-5 -17 -13 -48 -15 -57c0 -6 7 -14 15 -14c9 0 27 10 41 26l38 44l13 -10c-56 -76 -91 -103 -136 -103c-33 0 -45 19 -45 49c0 20 5 44 13 70z" />
    <glyph glyph-name="Ncaron" unicode="&#x147;" horiz-adv-x="678" 
d="M401 722l170 -553l157 529h-97l7 24h246l-7 -24c-66 0 -103 -18 -143 -152l-162 -546h-40l-194 611l-174 -587h98l-7 -24h-246l7 24h97l200 674h-98l7 24h179zM544 797l-72 110h44l69 -68l110 68h44l-139 -110h-56z" />
    <glyph glyph-name="ncaron" unicode="&#x148;" horiz-adv-x="500" 
d="M338 472l-68 163h28l69 -122l136 122h28l-152 -163h-41zM348 109l42 140c5 18 10 44 10 69c0 35 -10 68 -41 68c-87 0 -138 -123 -158 -190l-58 -196h-76l114 385h-63l4 15h139l-19 -63c49 50 96 75 147 75c62 -1 89 -39 89 -95c0 -22 -4 -47 -12 -73l-42 -140
c-5 -17 -13 -48 -15 -57c0 -6 7 -14 15 -14c9 0 27 10 41 26l38 44l13 -10c-56 -76 -91 -103 -136 -103c-33 0 -45 19 -45 49c0 20 5 44 13 70z" />
    <glyph glyph-name="napostrophe" unicode="&#x149;" horiz-adv-x="507" 
d="M171 516l-16 7c93 53 102 98 102 109v3h-1c-2 -1 -10 -1 -13 -1c-23 0 -33 12 -33 27c0 21 21 47 57 47c25 0 35 -16 35 -38c0 -58 -50 -113 -131 -154zM365 109l42 140c5 18 10 44 10 69c0 35 -10 68 -41 68c-87 0 -138 -123 -158 -190l-58 -196h-76l114 385h-63l4 15
h139l-19 -63c49 50 96 75 147 75c62 -1 89 -39 89 -95c0 -22 -4 -47 -12 -73l-42 -140c-5 -17 -13 -48 -15 -57c0 -6 7 -14 15 -14c9 0 27 10 41 26l38 44l13 -10c-56 -76 -91 -103 -136 -103c-33 0 -45 19 -45 49c0 20 5 44 13 70z" />
    <glyph glyph-name="Eng" unicode="&#x14a;" horiz-adv-x="701" 
d="M385 -127c0 -12 -23 -22 -23 -49c0 -9 4 -15 12 -15c43 0 114 70 154 206c0 1 2 3 2 4l-189 592l-174 -587h98l-7 -24h-246l7 24h97l200 674h-98l7 24h179l170 -553l157 529h-97l7 24h246l-7 -24c-66 0 -103 -18 -143 -152l-154 -522c-30 -100 -68 -224 -219 -224
c-58 0 -82 23 -82 47s25 49 64 49c22 0 39 -10 39 -23z" />
    <glyph glyph-name="eng" unicode="&#x14b;" horiz-adv-x="485" 
d="M266 -127c0 -12 -23 -22 -23 -49c0 -9 4 -15 12 -15c48 0 82 72 112 173l78 267c5 16 9 39 9 61c0 39 -12 76 -49 76c-97 0 -149 -123 -169 -190l-58 -196h-85l114 385h-70l4 15h155l-18 -63c53 50 104 75 161 75c71 -1 102 -41 102 -100c0 -21 -4 -44 -11 -68l-65 -222
c-28 -91 -69 -222 -220 -222c-58 0 -82 23 -82 47s25 49 64 49c22 0 39 -10 39 -23z" />
    <glyph glyph-name="Omacron" unicode="&#x14c;" horiz-adv-x="653" 
d="M118 221c0 222 190 516 429 516c126 0 202 -97 202 -237c0 -238 -204 -515 -427 -515c-128 0 -204 96 -204 236zM542 721c-168 0 -253 -252 -284 -358c-15 -51 -40 -142 -40 -220s25 -142 108 -142c169 0 252 256 283 360c15 50 40 141 40 219c0 77 -24 141 -107 141z
M713 797h-300l15 49h300z" />
    <glyph glyph-name="omacron" unicode="&#x14d;" horiz-adv-x="414" 
d="M499 472h-300l14 48h300zM86 126c0 134 121 286 247 286c72 0 117 -58 117 -139c0 -140 -126 -285 -244 -285c-75 0 -120 57 -120 138zM209 -2c102 0 170 246 170 330c0 49 -17 74 -49 74c-59 0 -108 -68 -148 -202c-16 -53 -23 -96 -23 -128c0 -49 17 -74 50 -74z" />
    <glyph glyph-name="Obreve" unicode="&#x14e;" horiz-adv-x="653" 
d="M118 221c0 222 190 516 429 516c126 0 202 -97 202 -237c0 -238 -204 -515 -427 -515c-128 0 -204 96 -204 236zM542 721c-168 0 -253 -252 -284 -358c-15 -51 -40 -142 -40 -220s25 -142 108 -142c169 0 252 256 283 360c15 50 40 141 40 219c0 77 -24 141 -107 141z
M461 877c0 9 1 21 5 29h41c-2 -7 -3 -14 -3 -21c0 -29 21 -51 63 -51c49 0 82 15 99 66l64 24l-1 -3c-26 -88 -105 -124 -174 -124c-59 0 -94 35 -94 80z" />
    <glyph glyph-name="obreve" unicode="&#x14f;" horiz-adv-x="414" 
d="M464 600l59 24v-3c-26 -87 -113 -149 -182 -149c-55 0 -92 24 -92 77c0 14 3 31 8 49v2h36c-3 -13 -5 -24 -5 -34c0 -38 24 -58 65 -58c49 0 94 41 111 92zM86 126c0 134 121 286 247 286c72 0 117 -58 117 -139c0 -140 -126 -285 -244 -285c-75 0 -120 57 -120 138z
M209 -2c102 0 170 246 170 330c0 49 -17 74 -49 74c-59 0 -108 -68 -148 -202c-16 -53 -23 -96 -23 -128c0 -49 17 -74 50 -74z" />
    <glyph glyph-name="Ohungarumlaut" unicode="&#x150;" horiz-adv-x="653" 
d="M118 221c0 222 190 516 429 516c126 0 202 -97 202 -237c0 -238 -204 -515 -427 -515c-128 0 -204 96 -204 236zM542 721c-168 0 -253 -252 -284 -358c-15 -51 -40 -142 -40 -220s25 -142 108 -142c169 0 252 256 283 360c15 50 40 141 40 219c0 77 -24 141 -107 141z
M494 797l46 72c26 38 35 49 56 49c14 0 26 -7 26 -14c0 -13 -1 -25 -16 -37l-84 -68zM600 797l50 78c18 30 31 43 52 43c14 0 26 -7 26 -14c0 -13 -2 -25 -16 -37l-80 -66z" />
    <glyph glyph-name="ohungarumlaut" unicode="&#x151;" horiz-adv-x="414" 
d="M269 472l29 107c14 42 26 59 47 59c14 0 26 -7 26 -14c0 -13 -7 -22 -16 -37l-69 -113zM375 472l29 107c13 42 26 59 47 59c14 0 26 -7 26 -14c0 -13 -9 -25 -16 -37l-68 -113zM86 126c0 134 121 286 247 286c72 0 117 -58 117 -139c0 -140 -126 -285 -244 -285
c-75 0 -120 57 -120 138zM209 -2c102 0 170 246 170 330c0 49 -17 74 -49 74c-59 0 -108 -68 -148 -202c-16 -53 -23 -96 -23 -128c0 -49 17 -74 50 -74z" />
    <glyph glyph-name="OE" unicode="&#x152;" horiz-adv-x="838" 
d="M515 705c-178 0 -292 -361 -292 -515c0 -104 48 -174 122 -174c71 0 94 75 112 136l118 393c7 26 18 53 18 88c0 47 -27 72 -78 72zM351 0c-178 0 -222 126 -222 246c0 149 77 328 214 420c59 40 119 56 221 56h394l-52 -226h-34c4 19 7 58 7 62c1 10 1 20 1 29
c0 78 -30 116 -94 116h-24c-47 0 -56 -10 -77 -84l-72 -243h121l38 124h34l-87 -285h-34l42 141h-123l-67 -228c-13 -48 -14 -55 -14 -69c0 -28 17 -42 53 -42h19c146 0 191 115 247 216l30 -2l-83 -231h-438z" />
    <glyph glyph-name="oe" unicode="&#x153;" horiz-adv-x="661" 
d="M86 126c0 134 121 286 247 286c51 0 89 -29 107 -75c45 45 103 75 163 75c62 0 103 -32 103 -79c0 -104 -190 -174 -273 -186c-2 -16 -3 -33 -3 -40c0 -69 29 -106 86 -106c49 0 89 21 144 77l17 -12c-48 -53 -113 -78 -181 -78c-70 0 -115 28 -135 77
c-45 -47 -101 -77 -155 -77c-75 0 -120 57 -120 138zM435 167c15 3 206 35 206 171c0 40 -23 65 -55 65c-95 0 -140 -160 -151 -236zM209 -2c102 0 170 246 170 330c0 49 -17 74 -49 74c-59 0 -108 -68 -148 -202c-16 -53 -23 -96 -23 -128c0 -49 17 -74 50 -74z" />
    <glyph glyph-name="Racute" unicode="&#x154;" horiz-adv-x="612" 
d="M707 601c0 -37 -21 -200 -244 -237c51 -18 75 -42 75 -109c0 -12 -1 -26 -2 -41l-14 -86c-3 -26 -5 -44 -5 -58c0 -29 7 -34 19 -34c22 0 40 32 65 107h41c-34 -105 -81 -153 -152 -153c-53 0 -76 25 -76 81c0 20 2 43 8 70l13 79c2 20 5 43 5 64c0 42 -14 78 -82 78h-46
l-100 -338h91l-7 -24h-283l7 24h90l200 674h-90l7 24h295c120 0 185 -44 185 -121zM408 383c106 0 151 72 179 166c8 29 13 54 13 74c0 52 -29 75 -87 75h-45c-52 0 -57 -1 -70 -46l-80 -269h90zM521 797l114 106c24 19 30 20 41 20h3c17 0 32 -11 32 -23
c0 -10 -11 -24 -22 -30l-130 -73h-38z" />
    <glyph glyph-name="racute" unicode="&#x155;" horiz-adv-x="357" 
d="M290 472l116 140c22 25 31 31 44 31c17 0 32 -11 32 -23c0 -10 -11 -20 -22 -30l-132 -118h-38zM378 378c-77 -11 -157 -171 -186 -268l-32 -110h-75l114 385h-67l5 15h141l-36 -121c48 77 103 121 151 121c40 0 56 -20 56 -41c0 -27 -26 -58 -64 -58
c-23 0 -35 11 -35 26c0 14 10 33 28 51z" />
    <glyph glyph-name="Rcommaaccent" unicode="&#x156;" horiz-adv-x="612" 
d="M197 -262l-16 7c94 53 103 100 103 110v2h-2c-2 -1 -9 -1 -12 -1c-24 0 -35 12 -35 27c0 21 22 47 58 47c25 0 35 -17 35 -39c0 -57 -50 -112 -131 -153zM707 601c0 -37 -21 -200 -244 -237c51 -18 75 -42 75 -109c0 -12 -1 -26 -2 -41l-14 -86c-3 -26 -5 -44 -5 -58
c0 -29 7 -34 19 -34c22 0 40 32 65 107h41c-34 -105 -81 -153 -152 -153c-53 0 -76 25 -76 81c0 20 2 43 8 70l13 79c2 20 5 43 5 64c0 42 -14 78 -82 78h-46l-100 -338h91l-7 -24h-283l7 24h90l200 674h-90l7 24h295c120 0 185 -44 185 -121zM408 383c106 0 151 72 179 166
c8 29 13 54 13 74c0 52 -29 75 -87 75h-45c-52 0 -57 -1 -70 -46l-80 -269h90z" />
    <glyph glyph-name="rcommaaccent" unicode="&#x157;" horiz-adv-x="357" 
d="M93 -252l-16 7c94 53 103 100 103 110v2h-2c-2 -1 -9 -1 -12 -1c-24 0 -34 12 -34 27c0 21 21 47 57 47c26 0 35 -17 35 -39c0 -57 -50 -112 -131 -153zM378 378c-77 -11 -157 -171 -186 -268l-32 -110h-75l114 385h-67l5 15h141l-36 -121c48 77 103 121 151 121
c40 0 56 -20 56 -41c0 -27 -26 -58 -64 -58c-23 0 -35 11 -35 26c0 14 10 33 28 51z" />
    <glyph glyph-name="Rcaron" unicode="&#x158;" horiz-adv-x="612" 
d="M707 601c0 -37 -21 -200 -244 -237c51 -18 75 -42 75 -109c0 -12 -1 -26 -2 -41l-14 -86c-3 -26 -5 -44 -5 -58c0 -29 7 -34 19 -34c22 0 40 32 65 107h41c-34 -105 -81 -153 -152 -153c-53 0 -76 25 -76 81c0 20 2 43 8 70l13 79c2 20 5 43 5 64c0 42 -14 78 -82 78h-46
l-100 -338h91l-7 -24h-283l7 24h90l200 674h-90l7 24h295c120 0 185 -44 185 -121zM408 383c106 0 151 72 179 166c8 29 13 54 13 74c0 52 -29 75 -87 75h-45c-52 0 -57 -1 -70 -46l-80 -269h90zM511 797l-72 110h44l69 -68l110 68h44l-139 -110h-56z" />
    <glyph glyph-name="rcaron" unicode="&#x159;" horiz-adv-x="357" 
d="M320 457l-68 163h28l69 -122l136 122h28l-152 -163h-41zM378 378c-77 -11 -157 -171 -186 -268l-32 -110h-75l114 385h-67l5 15h141l-36 -121c48 77 103 121 151 121c40 0 56 -20 56 -41c0 -27 -26 -58 -64 -58c-23 0 -35 11 -35 26c0 14 10 33 28 51z" />
    <glyph glyph-name="Sacute" unicode="&#x15a;" horiz-adv-x="534" 
d="M568 273c0 -112 -88 -289 -293 -289c-73 0 -152 38 -171 110l-31 -106h-37l78 273h40c-3 -24 -5 -48 -5 -72c0 -102 35 -189 139 -189c128 0 195 143 195 222c0 78 -65 87 -87 95l-73 25c-87 28 -126 65 -126 127c0 98 89 268 259 268h4c96 0 144 -36 148 -117l30 102h36
l-60 -237h-41c1 14 2 28 2 43c0 89 -25 192 -123 192c-106 0 -165 -121 -165 -192c0 -44 23 -76 73 -93l82 -28c47 -14 126 -34 126 -134zM479 797l114 106c24 19 30 20 41 20h3c17 0 32 -11 32 -23c0 -10 -11 -24 -22 -30l-130 -73h-38z" />
    <glyph glyph-name="sacute" unicode="&#x15b;" horiz-adv-x="338" 
d="M258 472l116 140c22 25 31 31 44 31c17 0 32 -11 32 -23c0 -10 -11 -20 -22 -30l-132 -118h-38zM172 319c0 -93 185 -71 185 -206c0 -74 -69 -125 -170 -125c-88 0 -141 34 -141 88c0 28 18 47 45 47c24 0 42 -14 42 -31c0 -30 -24 -15 -24 -54c0 -26 35 -40 83 -40
c65 0 96 32 96 89c0 110 -179 88 -179 203c0 70 67 122 160 122c75 0 129 -32 129 -79c0 -25 -18 -42 -46 -42c-24 0 -42 12 -42 28c0 22 19 21 19 49c0 22 -27 35 -64 35c-55 0 -93 -33 -93 -84z" />
    <glyph glyph-name="Scircumflex" unicode="&#x15c;" horiz-adv-x="534" 
d="M568 273c0 -112 -88 -289 -293 -289c-73 0 -152 38 -171 110l-31 -106h-37l78 273h40c-3 -24 -5 -48 -5 -72c0 -102 35 -189 139 -189c128 0 195 143 195 222c0 78 -65 87 -87 95l-73 25c-87 28 -126 65 -126 127c0 98 89 268 259 268h4c96 0 144 -36 148 -117l30 102h36
l-60 -237h-41c1 14 2 28 2 43c0 89 -25 192 -123 192c-106 0 -165 -121 -165 -192c0 -44 23 -76 73 -93l82 -28c47 -14 126 -34 126 -134zM559 907l73 -110h-44l-68 69l-111 -69h-44l138 110h56z" />
    <glyph glyph-name="scircumflex" unicode="&#x15d;" horiz-adv-x="338" 
d="M374 641l65 -169h-27l-67 129l-130 -129h-27l145 169h41zM172 319c0 -93 185 -71 185 -206c0 -74 -69 -125 -170 -125c-88 0 -141 34 -141 88c0 28 18 47 45 47c24 0 42 -14 42 -31c0 -30 -24 -15 -24 -54c0 -26 35 -40 83 -40c65 0 96 32 96 89c0 110 -179 88 -179 203
c0 70 67 122 160 122c75 0 129 -32 129 -79c0 -25 -18 -42 -46 -42c-24 0 -42 12 -42 28c0 22 19 21 19 49c0 22 -27 35 -64 35c-55 0 -93 -33 -93 -84z" />
    <glyph glyph-name="Scedilla" unicode="&#x15e;" horiz-adv-x="534" 
d="M452 720c-99 0 -165 -111 -165 -192c0 -44 23 -76 73 -93l82 -28c47 -14 126 -34 126 -134c0 -98 -75 -282 -282 -289l-27 -38c36 0 75 -20 75 -56c0 -18 -16 -90 -120 -90c-27 0 -52 9 -63 15l8 7c17 -10 30 -15 47 -15c35 0 65 46 65 81c0 23 -12 41 -42 41h-17l41 56
c-66 7 -132 44 -149 109l-31 -106h-37l78 273h40c-3 -24 -5 -48 -5 -72c0 -102 35 -189 139 -189c131 0 195 147 195 222c0 78 -65 87 -87 95l-73 25c-87 28 -126 65 -126 127c0 99 90 268 259 268h4c96 0 144 -36 148 -117l30 102h36l-60 -237h-41c1 14 2 28 2 43
c0 89 -25 192 -123 192z" />
    <glyph glyph-name="scedilla" unicode="&#x15f;" horiz-adv-x="338" 
d="M172 319c0 -93 185 -71 185 -206c0 -70 -62 -120 -155 -125l-37 -48c36 0 75 -19 75 -53c0 -18 -17 -87 -120 -87c-27 0 -52 9 -63 15l8 6c17 -9 30 -14 47 -14c35 0 65 44 65 78c0 21 -12 39 -42 39h-17l51 64c-77 5 -123 38 -123 88c0 28 18 47 45 47
c24 0 42 -14 42 -31c0 -30 -24 -15 -24 -54c0 -26 35 -40 83 -40c65 0 96 32 96 89c0 110 -179 88 -179 203c0 70 67 122 160 122c75 0 129 -32 129 -79c0 -25 -18 -42 -46 -42c-24 0 -42 12 -42 28c0 22 19 21 19 49c0 22 -27 35 -64 35c-55 0 -93 -33 -93 -84z" />
    <glyph glyph-name="Scaron" unicode="&#x160;" horiz-adv-x="534" 
d="M568 273c0 -112 -88 -289 -293 -289c-73 0 -152 38 -171 110l-31 -106h-37l78 273h40c-3 -24 -5 -48 -5 -72c0 -102 35 -189 139 -189c128 0 195 143 195 222c0 78 -65 87 -87 95l-73 25c-87 28 -126 65 -126 127c0 98 89 268 259 268h4c96 0 144 -36 148 -117l30 102h36
l-60 -237h-41c1 14 2 28 2 43c0 89 -25 192 -123 192c-106 0 -165 -121 -165 -192c0 -44 23 -76 73 -93l82 -28c47 -14 126 -34 126 -134zM469 797l-72 110h44l69 -68l110 68h44l-139 -110h-56z" />
    <glyph glyph-name="scaron" unicode="&#x161;" horiz-adv-x="338" 
d="M292 472l-68 163h28l69 -122l136 122h28l-152 -163h-41zM172 319c0 -93 185 -71 185 -206c0 -74 -69 -125 -170 -125c-88 0 -141 34 -141 88c0 28 18 47 45 47c24 0 42 -14 42 -31c0 -30 -24 -15 -24 -54c0 -26 35 -40 83 -40c65 0 96 32 96 89c0 110 -179 88 -179 203
c0 70 67 122 160 122c75 0 129 -32 129 -79c0 -25 -18 -42 -46 -42c-24 0 -42 12 -42 28c0 22 19 21 19 49c0 22 -27 35 -64 35c-55 0 -93 -33 -93 -84z" />
    <glyph glyph-name="Tcommaaccent" unicode="&#x162;" horiz-adv-x="586" 
d="M335 -111c0 -18 -17 -90 -121 -90c-27 0 -51 10 -63 16l8 6c17 -10 30 -15 47 -15c35 0 66 46 66 82c0 22 -12 40 -43 40h-17l55 72h-122l7 24h97l185 625c4 12 5 22 5 30c0 16 -8 24 -25 24c-56 0 -129 -44 -213 -244h-41l90 263h512l-64 -263h-42c8 46 13 86 13 121
c0 77 -23 123 -81 123c-25 0 -41 -17 -52 -54l-185 -625h96l-7 -24h-140l-41 -55c36 0 76 -20 76 -56z" />
    <glyph glyph-name="tcommaaccent" unicode="&#x163;" horiz-adv-x="269" 
d="M199 -111c0 -18 -17 -90 -120 -90c-27 0 -52 10 -63 16l8 6c17 -10 30 -15 47 -15c35 0 65 46 65 82c0 22 -12 40 -42 40h-17l48 63c-24 8 -29 27 -29 50c0 26 10 57 17 81l81 256h-87l13 22h82l33 109l107 71l-66 -180h105l-13 -22h-101l-98 -309c-1 -4 -1 -8 -1 -12
c0 -16 11 -25 22 -25h3c8 0 24 9 37 24l38 45l12 -9c-52 -73 -84 -102 -124 -104l-32 -43c36 0 75 -20 75 -56z" />
    <glyph glyph-name="Tcaron" unicode="&#x164;" horiz-adv-x="586" 
d="M414 703c-56 0 -129 -44 -213 -244h-41l90 263h512l-64 -263h-42c8 46 13 86 13 121c0 77 -23 123 -81 123c-25 0 -41 -17 -52 -54l-185 -625h96l-7 -24h-295l7 24h97l185 625c4 12 5 22 5 30c0 16 -8 24 -25 24zM498 797l-72 110h44l69 -68l110 68h44l-139 -110h-56z
" />
    <glyph glyph-name="tcaron" unicode="&#x165;" horiz-adv-x="267" 
d="M169 69c-1 -4 -1 -8 -1 -12c0 -16 11 -25 22 -25h3c8 0 24 9 37 24l38 45l12 -9c-54 -75 -86 -104 -128 -104c-48 0 -56 23 -56 53c0 26 10 57 17 81l81 256h-87l13 22h82l33 109l107 71l-66 -180h105l-13 -22h-101zM368 492l-10 10c65 32 103 71 111 120l-15 -3
c-4 0 -8 -1 -11 -1c-27 0 -38 23 -38 42c0 22 23 46 54 46c34 0 58 -30 58 -61c0 -60 -58 -119 -149 -153z" />
    <glyph glyph-name="Tbar" unicode="&#x166;" horiz-adv-x="586" 
d="M414 703c-56 0 -129 -44 -213 -244h-41l90 263h512l-64 -263h-42c8 46 13 86 13 121c0 77 -23 123 -81 123c-25 0 -41 -17 -52 -54l-74 -250h96l-9 -31h-96l-102 -344h96l-7 -24h-295l7 24h97l102 344h-102l9 31h102l74 250c4 12 5 22 5 30c0 16 -8 24 -25 24z" />
    <glyph glyph-name="tbar" unicode="&#x167;" horiz-adv-x="355" 
d="M322 223h-104l-49 -154c-1 -4 -1 -8 -1 -12c0 -16 11 -25 22 -25h3c8 0 24 9 37 24l38 45l12 -9c-54 -75 -86 -104 -128 -104c-48 0 -56 23 -56 53c0 26 10 57 17 81l32 101h-84l13 22h78l42 133h-87l13 22h82l33 109l107 71l-66 -180h105l-13 -22h-101l-42 -133h110z
" />
    <glyph glyph-name="Utilde" unicode="&#x168;" horiz-adv-x="677" 
d="M243 127c0 -46 22 -119 114 -119c67 0 132 40 181 111c26 38 41 73 67 160l124 419h-96l7 24h247l-7 -24h-98l-126 -425c-33 -112 -102 -288 -328 -288c-158 0 -188 78 -188 141c0 29 6 54 10 67l150 505h-89l7 24h283l-7 -24h-92l-131 -440c-20 -69 -28 -103 -28 -131z
M546 892c48 0 75 -60 105 -60c18 0 44 31 61 72h35c-25 -64 -76 -107 -126 -107c-51 0 -65 59 -100 59c-18 0 -39 -21 -56 -59h-34c28 58 73 95 115 95z" />
    <glyph glyph-name="utilde" unicode="&#x169;" horiz-adv-x="512" 
d="M426 479c-44 0 -101 57 -135 57c-19 0 -36 -22 -46 -64h-21c15 62 45 99 83 99c41 0 105 -52 135 -52c20 0 35 17 49 59h22c-11 -55 -50 -99 -87 -99zM439 100c-5 -17 -13 -48 -15 -57c0 -6 7 -14 15 -14c9 0 25 10 39 26l38 44l13 -10c-56 -76 -89 -103 -134 -103
c-33 0 -45 19 -45 49c0 19 5 43 13 70c-56 -84 -96 -116 -160 -116h-5c-54 0 -81 31 -81 71c0 24 6 50 13 75l76 250h-90l2 15h168l-87 -282c-5 -16 -11 -40 -11 -61c0 -26 10 -48 43 -48c65 0 140 108 179 238l45 153h75z" />
    <glyph glyph-name="Umacron" unicode="&#x16a;" horiz-adv-x="677" 
d="M243 127c0 -46 22 -119 114 -119c67 0 132 40 181 111c26 38 41 73 67 160l124 419h-96l7 24h247l-7 -24h-98l-126 -425c-33 -112 -102 -288 -328 -288c-158 0 -188 78 -188 141c0 29 6 54 10 67l150 505h-89l7 24h283l-7 -24h-92l-131 -440c-20 -69 -28 -103 -28 -131z
M722 797h-300l15 49h300z" />
    <glyph glyph-name="umacron" unicode="&#x16b;" horiz-adv-x="512" 
d="M503 472h-300l14 48h300zM439 100c-5 -17 -13 -48 -15 -57c0 -6 7 -14 15 -14c9 0 25 10 39 26l38 44l13 -10c-56 -76 -89 -103 -134 -103c-33 0 -45 19 -45 49c0 19 5 43 13 70c-56 -84 -96 -116 -160 -116h-5c-54 0 -81 31 -81 71c0 24 6 50 13 75l76 250h-90l2 15h168
l-87 -282c-5 -16 -11 -40 -11 -61c0 -26 10 -48 43 -48c65 0 140 108 179 238l45 153h75z" />
    <glyph glyph-name="Ubreve" unicode="&#x16c;" horiz-adv-x="677" 
d="M243 127c0 -46 22 -119 114 -119c67 0 132 40 181 111c26 38 41 73 67 160l124 419h-96l7 24h247l-7 -24h-98l-126 -425c-33 -112 -102 -288 -328 -288c-158 0 -188 78 -188 141c0 29 6 54 10 67l150 505h-89l7 24h283l-7 -24h-92l-131 -440c-20 -69 -28 -103 -28 -131z
M471 877c0 9 1 21 5 29h41c-2 -7 -4 -14 -4 -21c0 -29 22 -51 64 -51c49 0 82 15 99 66l64 24l-1 -3c-26 -88 -105 -124 -174 -124c-59 0 -94 35 -94 80z" />
    <glyph glyph-name="ubreve" unicode="&#x16d;" horiz-adv-x="512" 
d="M508 600l59 24v-3c-26 -87 -113 -149 -182 -149c-56 0 -92 24 -92 77c0 14 2 31 8 49v2h36c-4 -13 -5 -24 -5 -34c0 -38 24 -58 65 -58c49 0 94 41 111 92zM439 100c-5 -17 -13 -48 -15 -57c0 -6 7 -14 15 -14c9 0 25 10 39 26l38 44l13 -10c-56 -76 -89 -103 -134 -103
c-33 0 -45 19 -45 49c0 19 5 43 13 70c-56 -84 -96 -116 -160 -116h-5c-54 0 -81 31 -81 71c0 24 6 50 13 75l76 250h-90l2 15h168l-87 -282c-5 -16 -11 -40 -11 -61c0 -26 10 -48 43 -48c65 0 140 108 179 238l45 153h75z" />
    <glyph glyph-name="Uring" unicode="&#x16e;" horiz-adv-x="677" 
d="M243 127c0 -46 22 -119 114 -119c67 0 132 40 181 111c26 38 41 73 67 160l124 419h-96l7 24h247l-7 -24h-98l-126 -425c-33 -112 -102 -288 -328 -288c-158 0 -188 78 -188 141c0 29 6 54 10 67l150 505h-89l7 24h283l-7 -24h-92l-131 -440c-20 -69 -28 -103 -28 -131z
M617 947c39 0 67 -14 67 -49c0 -7 -1 -16 -4 -25c-17 -56 -61 -76 -109 -76c-37 0 -65 14 -65 49c0 8 1 17 4 27c16 53 60 74 107 74zM616 941c-28 0 -55 -18 -70 -69c-4 -14 -6 -26 -6 -35c0 -26 14 -35 34 -35c28 0 53 16 69 70c4 14 6 25 6 34c0 25 -14 35 -33 35z" />
    <glyph glyph-name="uring" unicode="&#x16f;" horiz-adv-x="512" 
d="M430 651c44 0 63 -27 63 -61c0 -51 -46 -118 -117 -118c-42 0 -61 27 -61 60c0 52 47 119 115 119zM430 646c-44 0 -82 -77 -82 -127c0 -25 9 -43 30 -43c44 0 81 78 81 128c0 24 -8 42 -29 42zM439 100c-5 -17 -13 -48 -15 -57c0 -6 7 -14 15 -14c9 0 25 10 39 26l38 44
l13 -10c-56 -76 -89 -103 -134 -103c-33 0 -45 19 -45 49c0 19 5 43 13 70c-56 -84 -96 -116 -160 -116h-5c-54 0 -81 31 -81 71c0 24 6 50 13 75l76 250h-90l2 15h168l-87 -282c-5 -16 -11 -40 -11 -61c0 -26 10 -48 43 -48c65 0 140 108 179 238l45 153h75z" />
    <glyph glyph-name="Uhungarumlaut" unicode="&#x170;" horiz-adv-x="677" 
d="M243 127c0 -46 22 -119 114 -119c67 0 132 40 181 111c26 38 41 73 67 160l124 419h-96l7 24h247l-7 -24h-98l-126 -425c-33 -112 -102 -288 -328 -288c-158 0 -188 78 -188 141c0 29 6 54 10 67l150 505h-89l7 24h283l-7 -24h-92l-131 -440c-20 -69 -28 -103 -28 -131z
M504 797l46 72c26 38 35 49 56 49c14 0 26 -7 26 -14c0 -13 -1 -25 -16 -37l-84 -68zM610 797l50 78c18 30 31 43 52 43c14 0 26 -7 26 -14c0 -13 -2 -25 -16 -37l-80 -66z" />
    <glyph glyph-name="uhungarumlaut" unicode="&#x171;" horiz-adv-x="512" 
d="M332 472l29 107c14 42 26 59 47 59c14 0 26 -7 26 -14c0 -13 -7 -22 -16 -37l-69 -113zM438 472l29 107c13 42 26 59 47 59c14 0 26 -7 26 -14c0 -13 -9 -25 -16 -37l-68 -113zM439 100c-5 -17 -13 -48 -15 -57c0 -6 7 -14 15 -14c9 0 25 10 39 26l38 44l13 -10
c-56 -76 -89 -103 -134 -103c-33 0 -45 19 -45 49c0 19 5 43 13 70c-56 -84 -96 -116 -160 -116h-5c-54 0 -81 31 -81 71c0 24 6 50 13 75l76 250h-90l2 15h168l-87 -282c-5 -16 -11 -40 -11 -61c0 -26 10 -48 43 -48c65 0 140 108 179 238l45 153h75z" />
    <glyph glyph-name="Uogonek" unicode="&#x172;" horiz-adv-x="677" 
d="M243 127c0 -46 22 -119 114 -119c67 0 132 40 181 111c26 38 41 73 67 160l124 419h-96l7 24h247l-7 -24h-98l-126 -425c-32 -108 -97 -274 -302 -287c-24 -26 -40 -67 -40 -94c0 -16 8 -30 19 -30c18 0 39 12 70 39l7 -8c-46 -36 -64 -41 -97 -41c-29 0 -47 17 -47 40
c0 20 19 61 55 93c-151 2 -181 79 -181 141c0 29 6 54 10 67l150 505h-89l7 24h283l-7 -24h-92l-131 -440c-20 -69 -28 -103 -28 -131z" />
    <glyph glyph-name="uogonek" unicode="&#x173;" horiz-adv-x="512" 
d="M439 100c-5 -17 -13 -48 -15 -57c0 -6 7 -14 15 -14c9 0 25 10 39 26l38 44l13 -10c-56 -76 -89 -103 -134 -103h-7c-24 -26 -41 -67 -41 -95c0 -16 8 -30 19 -30c18 0 39 12 70 39l7 -9c-46 -35 -64 -40 -97 -40c-29 0 -47 16 -47 40c0 22 23 70 67 103
c-11 8 -16 22 -16 41s5 43 13 70c-56 -84 -96 -116 -160 -116h-5c-54 0 -81 31 -81 71c0 24 6 50 13 75l76 250h-90l2 15h168l-87 -282c-5 -16 -11 -40 -11 -61c0 -26 10 -48 43 -48c65 0 140 108 179 238l45 153h75z" />
    <glyph glyph-name="Wcircumflex" unicode="&#x174;" horiz-adv-x="831" 
d="M353 180l206 392l4 126h-61l7 24h251l-7 -24h-34c-45 0 -55 -38 -56 -75l-13 -443l279 518h-105l7 24h213l-7 -24h-6c-54 0 -100 -74 -123 -116l-322 -597h-37l17 517l-277 -517h-41l13 713h-53l7 24h245l-7 -24h-42c-47 0 -47 -63 -47 -65zM710 907l73 -110h-44l-68 69
l-111 -69h-44l138 110h56z" />
    <glyph glyph-name="wcircumflex" unicode="&#x175;" horiz-adv-x="656" 
d="M529 641l65 -169h-27l-67 129l-130 -129h-27l145 169h41zM477 -12h-3c-72 0 -100 62 -100 133c-55 -83 -92 -133 -166 -133h-3c-64 0 -97 38 -97 84c0 20 5 41 11 62l78 251h-84l7 15h161l-81 -249c-6 -24 -18 -60 -18 -90c0 -31 12 -55 51 -55c78 0 151 180 168 237
l44 142h73l-52 -177c-15 -53 -22 -90 -22 -123c0 -49 22 -79 54 -79c92 0 166 186 166 268c0 59 -45 64 -45 97c0 18 16 33 37 33c30 0 52 -27 52 -59c0 -90 -69 -357 -231 -357z" />
    <glyph glyph-name="Ycircumflex" unicode="&#x176;" horiz-adv-x="618" 
d="M430 699c-39 0 -44 -47 -44 -63c0 -3 0 -6 1 -9l57 -273l260 344h-125l7 24h247l-7 -23h-10c-69 0 -118 -74 -148 -116l-210 -281l-82 -278h97l-7 -24h-296l7 24h98l79 265l-89 409h-59l7 24h276l-7 -23h-52zM604 907l73 -110h-44l-68 69l-111 -69h-44l138 110h56z" />
    <glyph glyph-name="ycircumflex" unicode="&#x177;" horiz-adv-x="444" 
d="M446 641l65 -169h-27l-67 129l-130 -129h-27l145 169h41zM289 13c-57 267 -80 357 -104 357c-16 0 -49 -48 -62 -85l-25 15c40 82 78 112 119 112c37 0 62 -36 82 -124l43 -196c63 96 101 184 101 231c0 24 -7 53 -7 59c0 15 17 30 38 30c23 0 36 -14 36 -31
c0 -29 -12 -63 -62 -156c-164 -303 -242 -425 -351 -425c-46 0 -79 23 -79 51c0 19 18 33 41 33c32 0 36 -21 36 -35v-12c0 -18 8 -26 21 -26c25 0 67 38 98 89z" />
    <glyph glyph-name="Ydieresis" unicode="&#x178;" horiz-adv-x="618" 
d="M430 699c-39 0 -44 -47 -44 -63c0 -3 0 -6 1 -9l57 -273l260 344h-125l7 24h247l-7 -23h-10c-69 0 -118 -74 -148 -116l-210 -281l-82 -278h97l-7 -24h-296l7 24h98l79 265l-89 409h-59l7 24h276l-7 -23h-52zM428 833c0 35 35 65 62 65c20 0 33 -16 33 -35
c0 -36 -37 -66 -64 -66c-18 0 -31 16 -31 36zM594 832c0 36 34 66 62 66c20 0 33 -16 33 -35c0 -36 -37 -66 -64 -66c-19 0 -31 15 -31 35z" />
    <glyph glyph-name="Zacute" unicode="&#x179;" horiz-adv-x="520" 
d="M289 24c121 0 176 89 240 240h45l-93 -264h-456l7 24l545 674h-106c-112 0 -155 -40 -233 -213h-44l88 237h423l-7 -24l-546 -674h137zM475 797l114 106c24 19 30 20 41 20h3c17 0 32 -11 32 -23c0 -10 -11 -24 -22 -30l-130 -73h-38z" />
    <glyph glyph-name="zacute" unicode="&#x17a;" horiz-adv-x="391" 
d="M51 -12c-17 0 -23 4 -23 19c0 170 354 270 355 329l-53 -3h-9c-61 0 -91 29 -131 29c-25 0 -49 -22 -78 -73l-27 6c45 71 93 105 150 105c47 0 106 -45 145 -45c35 0 20 45 51 45c11 0 23 -2 23 -6c-3 -167 -369 -290 -371 -340c16 7 48 7 64 7h6c60 0 112 -35 156 -35
c32 0 55 26 82 83l26 -4c-27 -71 -85 -117 -145 -117c-86 0 -148 55 -182 55c-12 0 -13 -2 -13 -28c0 -17 -13 -27 -26 -27zM256 472l116 140c22 25 31 31 44 31c17 0 32 -11 32 -23c0 -10 -11 -20 -22 -30l-132 -118h-38z" />
    <glyph glyph-name="Zdotaccent" unicode="&#x17b;" horiz-adv-x="520" 
d="M289 24c121 0 176 89 240 240h45l-93 -264h-456l7 24l545 674h-106c-112 0 -155 -40 -233 -213h-44l88 237h423l-7 -24l-546 -674h137zM524 894c24 0 34 -15 34 -33c0 -28 -25 -64 -63 -64c-25 0 -35 15 -35 33c0 28 26 64 64 64z" />
    <glyph glyph-name="zdotaccent" unicode="&#x17c;" horiz-adv-x="391" 
d="M51 -12c-17 0 -23 4 -23 19c0 170 354 270 355 329l-53 -3h-9c-61 0 -91 29 -131 29c-25 0 -49 -22 -78 -73l-27 6c45 71 93 105 150 105c47 0 106 -45 145 -45c35 0 20 45 51 45c11 0 23 -2 23 -6c-3 -167 -369 -290 -371 -340c16 7 48 7 64 7h6c60 0 112 -35 156 -35
c32 0 55 26 82 83l26 -4c-27 -71 -85 -117 -145 -117c-86 0 -148 55 -182 55c-12 0 -13 -2 -13 -28c0 -17 -13 -27 -26 -27zM360 569c24 0 34 -15 34 -33c0 -28 -25 -64 -63 -64c-25 0 -35 15 -35 33c0 28 26 64 64 64z" />
    <glyph glyph-name="Zcaron" unicode="&#x17d;" horiz-adv-x="520" 
d="M289 24c121 0 176 89 240 240h45l-93 -264h-456l7 24l545 674h-106c-112 0 -155 -40 -233 -213h-44l88 237h423l-7 -24l-546 -674h137zM465 797l-72 110h44l69 -68l110 68h44l-139 -110h-56z" />
    <glyph glyph-name="zcaron" unicode="&#x17e;" horiz-adv-x="391" 
d="M51 -12c-17 0 -23 4 -23 19c0 170 354 270 355 329l-53 -3h-9c-61 0 -91 29 -131 29c-25 0 -49 -22 -78 -73l-27 6c45 71 93 105 150 105c47 0 106 -45 145 -45c35 0 20 45 51 45c11 0 23 -2 23 -6c-3 -167 -369 -290 -371 -340c16 7 48 7 64 7h6c60 0 112 -35 156 -35
c32 0 55 26 82 83l26 -4c-27 -71 -85 -117 -145 -117c-86 0 -148 55 -182 55c-12 0 -13 -2 -13 -28c0 -17 -13 -27 -26 -27zM316 472l-68 163h28l69 -122l136 122h28l-152 -163h-41z" />
    <glyph glyph-name="longs" unicode="&#x17f;" horiz-adv-x="270" 
d="M137 383c184 28 58 347 353 347c72 0 100 -26 100 -51c0 -26 -27 -51 -65 -51c-29 0 -38 8 -38 20c0 19 23 47 23 63c0 7 -5 12 -20 12c-35 0 -91 -23 -132 -148l-253 -775h-85l196 583h-79z" />
    <glyph glyph-name="uni018F" unicode="&#x18f;" horiz-adv-x="516" 
d="M485 400c12 53 36 143 36 214c0 62 -18 110 -79 110c-58 -1 -112 -63 -121 -92c-1 -5 -1 -8 0 -11h-50c19 63 95 114 176 114c116 0 160 -93 160 -210c0 -60 -11 -125 -30 -188c-57 -193 -184 -347 -310 -347c-111 0 -172 76 -172 147c0 30 5 59 12 81
c24 82 80 151 146 182h232zM273 352c-41 -49 -91 -176 -91 -265c0 -55 50 -85 87 -85c77 0 139 126 159 194c12 35 41 130 45 156h-200z" />
    <glyph glyph-name="florin" unicode="&#x192;" horiz-adv-x="475" 
d="M316 427l16 54c25 102 85 255 210 255c45 0 72 -22 72 -57c0 -30 -21 -54 -53 -54c-21 0 -37 10 -37 27c0 19 22 30 22 50v5c0 14 -7 22 -15 22c-76 0 -116 -196 -127 -243l-13 -59h118l-6 -21h-119l-64 -270c-33 -134 -52 -190 -90 -247c-40 -58 -88 -89 -140 -89
c-42 0 -69 23 -69 58c0 32 23 53 54 53c21 0 34 -11 34 -27c0 -28 -21 -18 -21 -52c0 -14 6 -23 13 -23c77 0 110 167 139 288l70 309h-104l6 21h104z" />
    <glyph glyph-name="uni01C4" unicode="&#x1c4;" horiz-adv-x="1168" 
d="M756 512c0 -143 -103 -512 -445 -512h-287l7 24h91l200 674h-91l7 24h272c98 0 155 -17 191 -52c37 -36 55 -91 55 -158zM268 24h58c133 0 216 93 288 337c24 83 37 148 37 199c0 96 -46 138 -139 138h-44c-38 0 -47 -6 -66 -69l-159 -537c-7 -23 -11 -38 -11 -49
c0 -17 11 -19 36 -19zM937 24c121 0 176 89 240 240h45l-93 -264h-456l7 24l545 674h-106c-112 0 -155 -40 -233 -213h-44l88 237h423l-7 -24l-546 -674h137zM1113 797l-72 110h44l69 -68l110 68h44l-139 -110h-56z" />
    <glyph glyph-name="uni01C5" unicode="&#x1c5;" horiz-adv-x="1039" 
d="M756 512c0 -143 -103 -512 -445 -512h-287l7 24h91l200 674h-91l7 24h272c98 0 155 -17 191 -52c37 -36 55 -91 55 -158zM268 24h58c133 0 216 93 288 337c24 83 37 148 37 199c0 96 -46 138 -139 138h-44c-38 0 -47 -6 -66 -69l-159 -537c-7 -23 -11 -38 -11 -49
c0 -17 11 -19 36 -19zM699 -12c-17 0 -23 4 -23 19c0 170 354 270 355 329l-53 -3h-9c-61 0 -91 29 -131 29c-25 0 -49 -22 -78 -73l-27 6c45 71 93 105 150 105c47 0 106 -45 145 -45c35 0 20 45 51 45c11 0 23 -2 23 -6c-3 -167 -369 -290 -371 -340c16 7 48 7 64 7h6
c60 0 112 -35 156 -35c32 0 55 26 82 83l26 -4c-27 -71 -85 -117 -145 -117c-86 0 -148 55 -182 55c-12 0 -13 -2 -13 -28c0 -17 -13 -27 -26 -27zM964 472l-68 163h28l69 -122l136 122h28l-152 -163h-41z" />
    <glyph glyph-name="uni01C6" unicode="&#x1c6;" horiz-adv-x="877" 
d="M86 121c0 139 116 291 236 291c45 0 74 -20 89 -63l108 366h-84l5 15h158l-185 -627c-5 -17 -14 -49 -16 -58c0 -6 8 -13 16 -13c9 0 26 9 39 24l39 45l12 -9c-55 -75 -89 -102 -133 -102c-33 0 -46 20 -46 51c0 7 1 15 2 23c-40 -53 -80 -76 -130 -76
c-70 0 -110 55 -110 133zM216 9c93 0 169 208 169 305c0 61 -28 79 -54 79c-98 0 -168 -215 -168 -304c0 -50 17 -80 53 -80zM537 -12c-17 0 -23 4 -23 19c0 170 354 270 355 329l-53 -3h-9c-61 0 -91 29 -131 29c-25 0 -49 -22 -78 -73l-27 6c45 71 93 105 150 105
c47 0 106 -45 145 -45c35 0 20 45 51 45c11 0 23 -2 23 -6c-3 -167 -369 -290 -371 -340c16 7 48 7 64 7h6c60 0 112 -35 156 -35c32 0 55 26 82 83l26 -4c-27 -71 -85 -117 -145 -117c-86 0 -148 55 -182 55c-12 0 -13 -2 -13 -28c0 -17 -13 -27 -26 -27zM802 472l-68 163
h28l69 -122l136 122h28l-152 -163h-41z" />
    <glyph glyph-name="uni01C7" unicode="&#x1c7;" horiz-adv-x="1026" 
d="M308 24c114 0 186 48 265 235h42l-95 -259h-505l7 24h91l200 674h-91l7 24h283l-7 -24h-90l-181 -611c-4 -16 -9 -30 -9 -40c0 -15 10 -23 47 -23h36zM1004 262c-50 -169 -112 -277 -275 -277c-96 0 -132 52 -132 111c0 77 62 167 130 167c36 0 51 -21 51 -45
c0 -36 -32 -79 -77 -79c-10 0 -16 1 -29 5h-3c-7 0 -21 -33 -21 -68c0 -37 16 -75 70 -75c95 0 144 123 185 262l129 435h-90l7 24h282l-7 -24h-91z" />
    <glyph glyph-name="uni01C8" unicode="&#x1c8;" horiz-adv-x="804" 
d="M308 24c114 0 186 48 265 235h42l-95 -259h-505l7 24h91l200 674h-91l7 24h283l-7 -24h-90l-181 -611c-4 -16 -9 -30 -9 -40c0 -15 10 -23 47 -23h36zM874 598c23 0 34 -15 34 -33c0 -28 -25 -64 -63 -64c-25 0 -36 15 -36 33c0 28 27 64 65 64zM558 -127
c0 -12 -23 -22 -23 -49c0 -9 4 -15 12 -15c49 0 85 78 113 173l119 403h-87l4 15h171l-111 -376c-29 -98 -69 -224 -219 -224c-58 0 -82 23 -82 47s25 49 64 49c22 0 39 -10 39 -23z" />
    <glyph glyph-name="uni01C9" unicode="&#x1c9;" horiz-adv-x="507" 
d="M212 715l4 15h147l-186 -627c-5 -17 -13 -49 -15 -58c0 -6 7 -13 15 -13c9 0 26 9 39 24l40 45l12 -9c-55 -75 -89 -102 -133 -102c-32 0 -44 19 -44 49c0 20 5 43 13 70l180 606h-72zM577 598c23 0 34 -15 34 -33c0 -28 -25 -64 -63 -64c-25 0 -36 15 -36 33
c0 28 27 64 65 64zM261 -127c0 -12 -23 -22 -23 -49c0 -9 4 -15 12 -15c49 0 85 78 113 173l119 403h-87l4 15h171l-111 -376c-29 -98 -69 -224 -219 -224c-58 0 -82 23 -82 47s25 49 64 49c22 0 39 -10 39 -23z" />
    <glyph glyph-name="uni01CA" unicode="&#x1ca;" horiz-adv-x="1151" 
d="M401 722l170 -553l157 529h-97l7 24h246l-7 -24c-66 0 -103 -18 -143 -152l-162 -546h-40l-194 611l-174 -587h98l-7 -24h-246l7 24h97l200 674h-98l7 24h179zM1129 262c-50 -169 -112 -277 -275 -277c-96 0 -132 52 -132 111c0 77 62 167 130 167c36 0 51 -21 51 -45
c0 -36 -32 -79 -77 -79c-10 0 -16 1 -29 5h-3c-7 0 -21 -33 -21 -68c0 -37 16 -75 70 -75c95 0 144 123 185 262l129 435h-90l7 24h282l-7 -24h-91z" />
    <glyph glyph-name="uni01CB" unicode="&#x1cb;" horiz-adv-x="929" 
d="M401 722l170 -553l157 529h-97l7 24h246l-7 -24c-66 0 -103 -18 -143 -152l-162 -546h-40l-194 611l-174 -587h98l-7 -24h-246l7 24h97l200 674h-98l7 24h179zM999 598c23 0 34 -15 34 -33c0 -28 -25 -64 -63 -64c-25 0 -36 15 -36 33c0 28 27 64 65 64zM683 -127
c0 -12 -23 -22 -23 -49c0 -9 4 -15 12 -15c49 0 85 78 113 173l119 403h-87l4 15h171l-111 -376c-29 -98 -69 -224 -219 -224c-58 0 -82 23 -82 47s25 49 64 49c22 0 39 -10 39 -23z" />
    <glyph glyph-name="uni01CC" unicode="&#x1cc;" horiz-adv-x="751" 
d="M348 109l42 140c5 18 10 44 10 69c0 35 -10 68 -41 68c-87 0 -138 -123 -158 -190l-58 -196h-76l114 385h-63l4 15h139l-19 -63c49 50 96 75 147 75c62 -1 89 -39 89 -95c0 -22 -4 -47 -12 -73l-42 -140c-5 -17 -13 -48 -15 -57c0 -6 7 -14 15 -14c9 0 27 10 41 26l38 44
l13 -10c-56 -76 -91 -103 -136 -103c-33 0 -45 19 -45 49c0 20 5 44 13 70zM821 598c23 0 34 -15 34 -33c0 -28 -25 -64 -63 -64c-25 0 -36 15 -36 33c0 28 27 64 65 64zM505 -127c0 -12 -23 -22 -23 -49c0 -9 4 -15 12 -15c49 0 85 78 113 173l119 403h-87l4 15h171
l-111 -376c-29 -98 -69 -224 -219 -224c-58 0 -82 23 -82 47s25 49 64 49c22 0 39 -10 39 -23z" />
    <glyph glyph-name="uni01F0" unicode="&#x1f0;" horiz-adv-x="251" 
d="M260 457l-68 163h28l69 -122l136 122h28l-152 -163h-41zM5 -127c0 -12 -23 -22 -23 -49c0 -9 4 -15 12 -15c49 0 85 78 113 173l119 403h-87l4 15h171l-111 -376c-29 -98 -69 -224 -219 -224c-58 0 -82 23 -82 47s25 49 64 49c22 0 39 -10 39 -23z" />
    <glyph glyph-name="uni01F1" unicode="&#x1f1;" horiz-adv-x="1168" 
d="M756 512c0 -143 -103 -512 -445 -512h-287l7 24h91l200 674h-91l7 24h272c98 0 155 -17 191 -52c37 -36 55 -91 55 -158zM268 24h58c133 0 216 93 288 337c24 83 37 148 37 199c0 96 -46 138 -139 138h-44c-38 0 -47 -6 -66 -69l-159 -537c-7 -23 -11 -38 -11 -49
c0 -17 11 -19 36 -19zM937 24c121 0 176 89 240 240h45l-93 -264h-456l7 24l545 674h-106c-112 0 -155 -40 -233 -213h-44l88 237h423l-7 -24l-546 -674h137z" />
    <glyph glyph-name="uni01F2" unicode="&#x1f2;" horiz-adv-x="1039" 
d="M756 512c0 -143 -103 -512 -445 -512h-287l7 24h91l200 674h-91l7 24h272c98 0 155 -17 191 -52c37 -36 55 -91 55 -158zM268 24h58c133 0 216 93 288 337c24 83 37 148 37 199c0 96 -46 138 -139 138h-44c-38 0 -47 -6 -66 -69l-159 -537c-7 -23 -11 -38 -11 -49
c0 -17 11 -19 36 -19zM699 -12c-17 0 -23 4 -23 19c0 170 354 270 355 329l-53 -3h-9c-61 0 -91 29 -131 29c-25 0 -49 -22 -78 -73l-27 6c45 71 93 105 150 105c47 0 106 -45 145 -45c35 0 20 45 51 45c11 0 23 -2 23 -6c-3 -167 -369 -290 -371 -340c16 7 48 7 64 7h6
c60 0 112 -35 156 -35c32 0 55 26 82 83l26 -4c-27 -71 -85 -117 -145 -117c-86 0 -148 55 -182 55c-12 0 -13 -2 -13 -28c0 -17 -13 -27 -26 -27z" />
    <glyph glyph-name="uni01F3" unicode="&#x1f3;" horiz-adv-x="877" 
d="M86 121c0 139 116 291 236 291c45 0 74 -20 89 -63l108 366h-84l5 15h158l-185 -627c-5 -17 -14 -49 -16 -58c0 -6 8 -13 16 -13c9 0 26 9 39 24l39 45l12 -9c-55 -75 -89 -102 -133 -102c-33 0 -46 20 -46 51c0 7 1 15 2 23c-40 -53 -80 -76 -130 -76
c-70 0 -110 55 -110 133zM216 9c93 0 169 208 169 305c0 61 -28 79 -54 79c-98 0 -168 -215 -168 -304c0 -50 17 -80 53 -80zM537 -12c-17 0 -23 4 -23 19c0 170 354 270 355 329l-53 -3h-9c-61 0 -91 29 -131 29c-25 0 -49 -22 -78 -73l-27 6c45 71 93 105 150 105
c47 0 106 -45 145 -45c35 0 20 45 51 45c11 0 23 -2 23 -6c-3 -167 -369 -290 -371 -340c16 7 48 7 64 7h6c60 0 112 -35 156 -35c32 0 55 26 82 83l26 -4c-27 -71 -85 -117 -145 -117c-86 0 -148 55 -182 55c-12 0 -13 -2 -13 -28c0 -17 -13 -27 -26 -27z" />
    <glyph glyph-name="uni01F4" unicode="&#x1f4;" horiz-adv-x="654" 
d="M314 4c57 0 153 31 207 214l22 76h-91l7 24h274l-7 -24h-89l-91 -309h-39l-2 98c-75 -68 -133 -95 -204 -95c-93 0 -205 60 -205 221c0 40 7 87 23 140c78 265 278 388 413 388c62 0 126 -35 153 -113l32 108h36l-67 -267h-41c2 24 3 46 3 67c0 126 -42 189 -123 189
c-115 0 -217 -130 -289 -372c-25 -83 -35 -147 -35 -196c0 -121 61 -149 113 -149zM544 797l114 106c24 19 30 20 41 20h3c17 0 32 -11 32 -23c0 -10 -11 -24 -22 -30l-130 -73h-38z" />
    <glyph glyph-name="uni01F5" unicode="&#x1f5;" horiz-adv-x="440" 
d="M293 472l116 140c22 25 31 31 44 31c17 0 32 -11 32 -23c0 -10 -11 -20 -22 -30l-132 -118h-38zM92 114c0 130 123 298 250 298c49 0 82 -24 99 -73l52 61h32c-32 -70 -25 -44 -50 -127l-79 -259c-66 -198 -204 -212 -282 -214c-44 0 -73 18 -94 49l11 12
c21 -28 43 -40 76 -40h2c77 0 179 71 208 178l15 52c-45 -46 -76 -63 -123 -63c-74 0 -117 51 -117 126zM346 403c-105 0 -174 -239 -174 -319c0 -50 19 -77 56 -77c61 0 111 65 150 197c15 52 22 91 22 120c0 63 -29 79 -54 79z" />
    <glyph glyph-name="AEacute" unicode="&#x1fc;" horiz-adv-x="744" 
d="M528 24c151 0 188 116 246 209h30l-84 -233h-453l6 23l1 1h77l80 264h-175l-167 -264h108l-6 -24h-181l6 24h30l434 674h-137l6 24h540l-52 -226h-34l2 10c2 15 6 54 6 77c0 78 -31 117 -94 117h-24c-47 0 -56 -10 -76 -82l-70 -242h118l38 124h35l-85 -285h-34l39 139
h-118l-86 -285v-6c0 -26 17 -39 55 -39h19zM437 314l99 326c7 29 7 29 7 36c0 12 -4 25 -9 25c-6 0 -16 -7 -30 -29l-226 -358h159zM574 751l114 106c24 19 30 20 40 20h4c16 0 32 -11 32 -23c0 -10 -12 -24 -22 -30l-130 -73h-38z" />
    <glyph glyph-name="aeacute" unicode="&#x1fd;" horiz-adv-x="648" 
d="M332 114v8c0 25 4 51 12 79l6 18c-75 -16 -167 -34 -195 -127c-3 -11 -5 -22 -5 -32c0 -32 18 -54 47 -54c57 0 115 62 135 108zM151 300c0 46 73 112 204 112c57 0 87 -17 102 -41c37 25 80 41 123 41c62 0 103 -32 103 -79c0 -104 -190 -174 -273 -186
c-2 -16 -3 -33 -3 -40c0 -69 29 -106 86 -106c49 0 89 21 144 77l17 -12c-48 -53 -106 -78 -174 -78c-73 0 -124 31 -143 85c-14 -16 -85 -85 -175 -85c-67 0 -107 27 -107 70c0 67 79 136 295 179c10 25 24 49 41 70c3 14 5 27 5 40c0 31 -13 55 -58 55
c-44 0 -93 -25 -93 -63c0 -12 6 -18 6 -29c0 -17 -20 -40 -59 -40c-26 0 -41 11 -41 30zM412 167c16 3 206 35 206 171c0 40 -23 65 -55 65c-95 0 -139 -160 -151 -236zM504 488l116 140c22 25 31 31 44 31c17 0 32 -11 32 -23c0 -10 -11 -20 -22 -30l-132 -118h-38z" />
    <glyph glyph-name="Oslashacute" unicode="&#x1fe;" horiz-adv-x="665" 
d="M351 21c218 0 303 392 303 526c0 23 -2 45 -6 64l-400 -536c21 -36 57 -54 103 -54zM233 103l403 538c-19 50 -57 78 -107 78c-194 0 -304 -410 -304 -538c0 -27 3 -55 8 -78zM134 234c0 260 196 497 392 497c56 0 105 -18 144 -54l53 73h45l-74 -87
c35 -48 52 -105 52 -175c0 -228 -171 -496 -399 -496c-55 0 -101 10 -137 29l-91 -108h-44l113 139c-36 44 -54 107 -54 182zM502 749l114 106c24 19 30 20 42 20h2c18 0 32 -11 32 -23c0 -10 -10 -24 -22 -30l-130 -73h-38z" />
    <glyph glyph-name="oslashacute" unicode="&#x1ff;" horiz-adv-x="462" 
d="M353 402c-65 0 -118 -68 -158 -202c-11 -38 -18 -71 -21 -99l225 275c-9 17 -25 26 -46 26zM90 133c0 129 125 279 266 279c23 0 44 -4 62 -13l83 101h52l-102 -125c27 -26 42 -64 42 -109c0 -133 -130 -278 -265 -278c-30 0 -56 8 -77 21l-90 -109h-52l112 136
c-20 25 -31 59 -31 97zM410 325l-233 -283c8 -29 26 -44 54 -44c113 0 179 241 179 323v4zM357 490l116 140c22 25 31 31 44 31c17 0 32 -11 32 -23c0 -10 -11 -20 -22 -30l-132 -118h-38z" />
    <glyph glyph-name="uni0200" unicode="&#x200;" horiz-adv-x="639" 
d="M553 730l1 -706h79l-7 -24h-268l7 24h95v219h-215l-130 -219h116l-7 -24h-229l7 24h55l446 706h50zM460 585l-191 -309h191v309zM608 797l-17 2l-85 75c-11 13 -16 24 -16 37c0 7 12 14 26 14c21 0 43 -19 61 -59zM502 797l-18 2l-84 75c-12 14 -16 24 -16 37
c0 7 12 14 26 14c21 0 44 -21 61 -59z" />
    <glyph glyph-name="uni0201" unicode="&#x201;" horiz-adv-x="488" 
d="M86 121c0 139 116 291 236 291c45 0 74 -20 89 -63l14 52h74l-86 -298c-5 -17 -14 -49 -16 -58c0 -6 8 -13 16 -13c9 0 26 9 39 24l39 45l12 -9c-55 -75 -89 -102 -133 -102c-33 0 -46 20 -46 51c0 7 1 15 2 23c-40 -53 -80 -76 -130 -76c-70 0 -110 55 -110 133zM216 9
c93 0 169 208 169 305c0 61 -28 79 -54 79c-98 0 -168 -215 -168 -304c0 -50 17 -80 53 -80zM438 472l-17 2l-69 113c-7 12 -16 24 -16 37c0 7 12 14 26 14c21 0 35 -16 47 -59zM332 472l-18 2l-68 113c-7 13 -16 24 -16 37c0 7 12 14 26 14c21 0 35 -17 47 -59z" />
    <glyph glyph-name="uni0202" unicode="&#x202;" horiz-adv-x="639" 
d="M553 730l1 -706h79l-7 -24h-268l7 24h95v219h-215l-130 -219h116l-7 -24h-229l7 24h55l446 706h50zM460 585l-191 -309h191v309zM624 821c2 6 3 12 3 17c0 23 -18 40 -58 40c-52 0 -96 -31 -110 -77h-36l1 2c16 54 85 112 155 112c56 0 99 -18 99 -72
c0 -12 -4 -30 -9 -46z" />
    <glyph glyph-name="uni0203" unicode="&#x203;" horiz-adv-x="472" 
d="M418 496c3 12 4 22 4 30c0 29 -17 42 -55 42c-52 0 -95 -32 -114 -92h-36v2c26 88 89 126 159 126c62 0 95 -34 95 -84c0 -15 -3 -31 -9 -48zM203 4c92 0 142 209 142 280c0 60 -12 108 -58 108c-96 0 -161 -162 -161 -270c0 -65 30 -118 77 -118zM506 111
c-66 -114 -118 -123 -148 -123s-52 18 -52 44c0 14 1 22 3 42c-46 -63 -66 -86 -123 -86c-79 0 -132 66 -132 147c0 118 88 277 218 277c59 0 88 -51 94 -107l29 95h75l-94 -301c-7 -25 -11 -44 -11 -54c0 -21 12 -37 24 -37c24 0 57 38 92 109z" />
    <glyph glyph-name="uni0204" unicode="&#x204;" horiz-adv-x="589" 
d="M336 24c126 0 184 59 262 228h42l-92 -252h-525l7 24h91l200 674h-91l7 24h515l-60 -240h-41c7 40 10 73 10 100c0 107 -51 116 -144 116h-44c-43 0 -54 -7 -71 -63l-78 -262h136l38 127h44l-84 -285h-44l41 138h-136l-79 -266c-3 -13 -5 -23 -5 -32c0 -22 14 -31 45 -31
h56zM591 797l-17 2l-85 75c-11 13 -16 24 -16 37c0 7 12 14 26 14c21 0 43 -19 61 -59zM485 797l-18 2l-84 75c-12 14 -16 24 -16 37c0 7 12 14 26 14c21 0 44 -21 61 -59z" />
    <glyph glyph-name="uni0205" unicode="&#x205;" horiz-adv-x="370" 
d="M390 472l-17 2l-69 113c-7 12 -16 24 -16 37c0 7 12 14 26 14c21 0 35 -16 47 -59zM284 472l-18 2l-68 113c-7 13 -16 24 -16 37c0 7 12 14 26 14c21 0 35 -17 47 -59zM145 167c16 3 206 35 206 171c0 40 -23 65 -55 65c-95 0 -139 -160 -151 -236zM370 78l17 -12
c-48 -53 -113 -78 -181 -78c-96 0 -146 53 -146 142c0 142 123 282 253 282c62 0 103 -32 103 -79c0 -104 -190 -174 -273 -186c-2 -16 -3 -33 -3 -40c0 -69 29 -106 86 -106c49 0 89 21 144 77z" />
    <glyph glyph-name="uni0206" unicode="&#x206;" horiz-adv-x="589" 
d="M336 24c126 0 184 59 262 228h42l-92 -252h-525l7 24h91l200 674h-91l7 24h515l-60 -240h-41c7 40 10 73 10 100c0 107 -51 116 -144 116h-44c-43 0 -54 -7 -71 -63l-78 -262h136l38 127h44l-84 -285h-44l41 138h-136l-79 -266c-3 -13 -5 -23 -5 -32c0 -22 14 -31 45 -31
h56zM607 821c2 6 3 12 3 17c0 23 -18 40 -58 40c-52 0 -96 -31 -110 -77h-36l1 2c16 54 85 112 155 112c56 0 98 -18 98 -72c0 -12 -3 -30 -8 -46z" />
    <glyph glyph-name="uni0207" unicode="&#x207;" horiz-adv-x="370" 
d="M378 496c3 12 5 22 5 30c0 29 -18 42 -56 42c-52 0 -95 -32 -114 -92h-36v2c26 88 89 126 159 126c62 0 95 -34 95 -84c0 -15 -3 -31 -9 -48zM145 167c16 3 206 35 206 171c0 40 -23 65 -55 65c-95 0 -139 -160 -151 -236zM370 78l17 -12c-48 -53 -113 -78 -181 -78
c-96 0 -146 53 -146 142c0 142 123 282 253 282c62 0 103 -32 103 -79c0 -104 -190 -174 -273 -186c-2 -16 -3 -33 -3 -40c0 -69 29 -106 86 -106c49 0 89 21 144 77z" />
    <glyph glyph-name="uni0208" unicode="&#x208;" horiz-adv-x="309" 
d="M412 698l-200 -674h91l-7 -24h-283l7 24h91l200 674h-91l7 24h283l-7 -24h-91zM451 797l-17 2l-85 75c-11 13 -16 24 -16 37c0 7 12 14 26 14c21 0 43 -19 61 -59zM345 797l-18 2l-84 75c-12 14 -16 24 -16 37c0 7 12 14 26 14c21 0 44 -21 61 -59z" />
    <glyph glyph-name="uni0209" unicode="&#x209;" horiz-adv-x="211" 
d="M314 472l-17 2l-69 113c-7 12 -16 24 -16 37c0 7 12 14 26 14c21 0 35 -16 47 -59zM208 472l-18 2l-68 113c-7 13 -16 24 -16 37c0 7 12 14 26 14c21 0 35 -17 47 -59zM116 387l4 15h143l-89 -299c-5 -17 -14 -49 -16 -58c0 -6 8 -13 15 -13c8 0 24 9 37 24l38 45l12 -9
c-54 -75 -89 -102 -131 -102c-30 0 -41 18 -41 47c0 19 5 44 13 72l83 278h-68z" />
    <glyph glyph-name="uni020A" unicode="&#x20a;" horiz-adv-x="309" 
d="M412 698l-200 -674h91l-7 -24h-283l7 24h91l200 674h-91l7 24h283l-7 -24h-91zM467 821c2 6 3 12 3 17c0 23 -18 40 -58 40c-52 0 -96 -31 -110 -77h-36l1 2c16 54 85 112 155 112c56 0 98 -18 98 -72c0 -12 -3 -30 -8 -46z" />
    <glyph glyph-name="uni020B" unicode="&#x20b;" horiz-adv-x="211" 
d="M322 496c3 12 4 22 4 30c0 29 -17 42 -55 42c-52 0 -95 -32 -114 -92h-36v2c26 88 89 126 159 126c62 0 94 -34 94 -84c0 -15 -2 -31 -8 -48zM116 387l4 15h143l-89 -299c-5 -17 -14 -49 -16 -58c0 -6 8 -13 15 -13c8 0 24 9 37 24l38 45l12 -9
c-54 -75 -89 -102 -131 -102c-30 0 -41 18 -41 47c0 19 5 44 13 72l83 278h-68z" />
    <glyph glyph-name="uni020C" unicode="&#x20c;" horiz-adv-x="653" 
d="M118 221c0 222 190 516 429 516c126 0 202 -97 202 -237c0 -238 -204 -515 -427 -515c-128 0 -204 96 -204 236zM542 721c-168 0 -253 -252 -284 -358c-15 -51 -40 -142 -40 -220s25 -142 108 -142c169 0 252 256 283 360c15 50 40 141 40 219c0 77 -24 141 -107 141z
M625 797l-17 2l-85 75c-11 13 -16 24 -16 37c0 7 12 14 26 14c21 0 43 -19 61 -59zM519 797l-18 2l-84 75c-12 14 -16 24 -16 37c0 7 12 14 26 14c21 0 44 -21 61 -59z" />
    <glyph glyph-name="uni020D" unicode="&#x20d;" horiz-adv-x="414" 
d="M396 472l-17 2l-69 113c-7 12 -16 24 -16 37c0 7 12 14 26 14c21 0 35 -16 47 -59zM290 472l-18 2l-68 113c-7 13 -16 24 -16 37c0 7 12 14 26 14c21 0 35 -17 47 -59zM86 126c0 134 121 286 247 286c72 0 117 -58 117 -139c0 -140 -126 -285 -244 -285
c-75 0 -120 57 -120 138zM209 -2c102 0 170 246 170 330c0 49 -17 74 -49 74c-59 0 -108 -68 -148 -202c-16 -53 -23 -96 -23 -128c0 -49 17 -74 50 -74z" />
    <glyph glyph-name="uni020E" unicode="&#x20e;" horiz-adv-x="653" 
d="M118 221c0 222 190 516 429 516c126 0 202 -97 202 -237c0 -238 -204 -515 -427 -515c-128 0 -204 96 -204 236zM542 721c-168 0 -253 -252 -284 -358c-15 -51 -40 -142 -40 -220s25 -142 108 -142c169 0 252 256 283 360c15 50 40 141 40 219c0 77 -24 141 -107 141z
M641 821c2 6 3 12 3 17c0 23 -18 40 -58 40c-52 0 -96 -31 -110 -77h-36l1 2c16 54 85 112 155 112c56 0 99 -18 99 -72c0 -12 -4 -30 -9 -46z" />
    <glyph glyph-name="uni020F" unicode="&#x20f;" horiz-adv-x="414" 
d="M428 496c3 12 5 22 5 30c0 29 -18 42 -56 42c-52 0 -95 -32 -114 -92h-36v2c26 88 89 126 159 126c63 0 95 -34 95 -84c0 -15 -3 -31 -9 -48zM86 126c0 134 121 286 247 286c72 0 117 -58 117 -139c0 -140 -126 -285 -244 -285c-75 0 -120 57 -120 138zM209 -2
c102 0 170 246 170 330c0 49 -17 74 -49 74c-59 0 -108 -68 -148 -202c-16 -53 -23 -96 -23 -128c0 -49 17 -74 50 -74z" />
    <glyph glyph-name="uni0210" unicode="&#x210;" horiz-adv-x="612" 
d="M707 601c0 -37 -21 -200 -244 -237c51 -18 75 -42 75 -109c0 -12 -1 -26 -2 -41l-14 -86c-3 -26 -5 -44 -5 -58c0 -29 7 -34 19 -34c22 0 40 32 65 107h41c-34 -105 -81 -153 -152 -153c-53 0 -76 25 -76 81c0 20 2 43 8 70l13 79c2 20 5 43 5 64c0 42 -14 78 -82 78h-46
l-100 -338h91l-7 -24h-283l7 24h90l200 674h-90l7 24h295c120 0 185 -44 185 -121zM408 383c106 0 151 72 179 166c8 29 13 54 13 74c0 52 -29 75 -87 75h-45c-52 0 -57 -1 -70 -46l-80 -269h90zM602 797l-17 2l-85 75c-11 13 -16 24 -16 37c0 7 12 14 26 14
c21 0 43 -19 61 -59zM496 797l-18 2l-84 75c-12 14 -16 24 -16 37c0 7 12 14 26 14c21 0 44 -21 61 -59z" />
    <glyph glyph-name="uni0211" unicode="&#x211;" horiz-adv-x="357" 
d="M418 472l-17 2l-69 113c-7 12 -16 24 -16 37c0 7 12 14 26 14c21 0 35 -16 47 -59zM312 472l-18 2l-68 113c-7 13 -16 24 -16 37c0 7 12 14 26 14c21 0 35 -17 47 -59zM378 378c-77 -11 -157 -171 -186 -268l-32 -110h-75l114 385h-67l5 15h141l-36 -121
c48 77 103 121 151 121c40 0 56 -20 56 -41c0 -27 -26 -58 -64 -58c-23 0 -35 11 -35 26c0 14 10 33 28 51z" />
    <glyph glyph-name="uni0212" unicode="&#x212;" horiz-adv-x="612" 
d="M707 601c0 -37 -21 -200 -244 -237c51 -18 75 -42 75 -109c0 -12 -1 -26 -2 -41l-14 -86c-3 -26 -5 -44 -5 -58c0 -29 7 -34 19 -34c22 0 40 32 65 107h41c-34 -105 -81 -153 -152 -153c-53 0 -76 25 -76 81c0 20 2 43 8 70l13 79c2 20 5 43 5 64c0 42 -14 78 -82 78h-46
l-100 -338h91l-7 -24h-283l7 24h90l200 674h-90l7 24h295c120 0 185 -44 185 -121zM408 383c106 0 151 72 179 166c8 29 13 54 13 74c0 52 -29 75 -87 75h-45c-52 0 -57 -1 -70 -46l-80 -269h90zM619 821c2 6 3 12 3 17c0 23 -18 40 -58 40c-52 0 -96 -31 -110 -77h-36l1 2
c16 54 85 112 155 112c56 0 98 -18 98 -72c0 -12 -3 -30 -8 -46z" />
    <glyph glyph-name="uni0213" unicode="&#x213;" horiz-adv-x="357" 
d="M399 496c3 12 5 22 5 30c0 29 -18 42 -56 42c-52 0 -95 -32 -114 -92h-36v2c26 88 89 126 159 126c62 0 95 -34 95 -84c0 -15 -3 -31 -9 -48zM378 378c-77 -11 -157 -171 -186 -268l-32 -110h-75l114 385h-67l5 15h141l-36 -121c48 77 103 121 151 121
c40 0 56 -20 56 -41c0 -27 -26 -58 -64 -58c-23 0 -35 11 -35 26c0 14 10 33 28 51z" />
    <glyph glyph-name="uni0214" unicode="&#x214;" horiz-adv-x="677" 
d="M243 127c0 -46 22 -119 114 -119c67 0 132 40 181 111c26 38 41 73 67 160l124 419h-96l7 24h247l-7 -24h-98l-126 -425c-33 -112 -102 -288 -328 -288c-158 0 -188 78 -188 141c0 29 6 54 10 67l150 505h-89l7 24h283l-7 -24h-92l-131 -440c-20 -69 -28 -103 -28 -131z
M635 797l-17 2l-85 75c-11 13 -16 24 -16 37c0 7 12 14 26 14c21 0 43 -19 61 -59zM529 797l-18 2l-84 75c-12 14 -16 24 -16 37c0 7 12 14 26 14c21 0 44 -21 61 -59z" />
    <glyph glyph-name="uni0215" unicode="&#x215;" horiz-adv-x="512" 
d="M438 472l-17 2l-69 113c-7 12 -16 24 -16 37c0 7 12 14 26 14c21 0 35 -16 47 -59zM332 472l-18 2l-68 113c-7 13 -16 24 -16 37c0 7 12 14 26 14c21 0 35 -17 47 -59zM439 100c-5 -17 -13 -48 -15 -57c0 -6 7 -14 15 -14c9 0 25 10 39 26l38 44l13 -10
c-56 -76 -89 -103 -134 -103c-33 0 -45 19 -45 49c0 19 5 43 13 70c-56 -84 -96 -116 -160 -116h-5c-54 0 -81 31 -81 71c0 24 6 50 13 75l76 250h-90l2 15h168l-87 -282c-5 -16 -11 -40 -11 -61c0 -26 10 -48 43 -48c65 0 140 108 179 238l45 153h75z" />
    <glyph glyph-name="uni0216" unicode="&#x216;" horiz-adv-x="677" 
d="M243 127c0 -46 22 -119 114 -119c67 0 132 40 181 111c26 38 41 73 67 160l124 419h-96l7 24h247l-7 -24h-98l-126 -425c-33 -112 -102 -288 -328 -288c-158 0 -188 78 -188 141c0 29 6 54 10 67l150 505h-89l7 24h283l-7 -24h-92l-131 -440c-20 -69 -28 -103 -28 -131z
M651 821c2 6 3 12 3 17c0 23 -18 40 -58 40c-52 0 -96 -31 -110 -77h-36l1 2c16 54 85 112 155 112c56 0 98 -18 98 -72c0 -12 -3 -30 -8 -46z" />
    <glyph glyph-name="uni0217" unicode="&#x217;" horiz-adv-x="512" 
d="M432 496c3 12 5 22 5 30c0 29 -18 42 -56 42c-52 0 -95 -32 -114 -92h-36v2c26 88 89 126 159 126c62 0 95 -34 95 -84c0 -15 -3 -31 -9 -48zM439 100c-5 -17 -13 -48 -15 -57c0 -6 7 -14 15 -14c9 0 25 10 39 26l38 44l13 -10c-56 -76 -89 -103 -134 -103
c-33 0 -45 19 -45 49c0 19 5 43 13 70c-56 -84 -96 -116 -160 -116h-5c-54 0 -81 31 -81 71c0 24 6 50 13 75l76 250h-90l2 15h168l-87 -282c-5 -16 -11 -40 -11 -61c0 -26 10 -48 43 -48c65 0 140 108 179 238l45 153h75z" />
    <glyph glyph-name="Scommaaccent" unicode="&#x218;" horiz-adv-x="534" 
d="M152 -268l-16 7c94 54 103 100 103 110v2h-2c-2 -1 -9 -1 -12 -1c-24 0 -34 13 -34 27c0 21 21 47 57 47c26 0 35 -17 35 -39c0 -57 -50 -112 -131 -153zM568 273c0 -112 -88 -289 -293 -289c-73 0 -152 38 -171 110l-31 -106h-37l78 273h40c-3 -24 -5 -48 -5 -72
c0 -102 35 -189 139 -189c128 0 195 143 195 222c0 78 -65 87 -87 95l-73 25c-87 28 -126 65 -126 127c0 98 89 268 259 268h4c96 0 144 -36 148 -117l30 102h36l-60 -237h-41c1 14 2 28 2 43c0 89 -25 192 -123 192c-106 0 -165 -121 -165 -192c0 -44 23 -76 73 -93l82 -28
c47 -14 126 -34 126 -134z" />
    <glyph glyph-name="scommaaccent" unicode="&#x219;" horiz-adv-x="338" 
d="M163 307c0 -93 194 -59 194 -194c0 -74 -69 -125 -170 -125c-88 0 -141 34 -141 88c0 28 18 47 45 47c24 0 42 -14 42 -31c0 -30 -24 -15 -24 -54c0 -26 35 -40 83 -40c65 0 96 32 96 89c0 110 -188 76 -188 191c0 70 67 122 160 122c75 0 128 -32 128 -79
c0 -25 -18 -42 -46 -42c-24 0 -42 12 -42 28c0 22 19 21 19 49c0 22 -26 35 -63 35c-55 0 -93 -33 -93 -84zM55 -264l-16 7c94 54 103 100 103 110v2h-2c-2 -1 -9 -1 -12 -1c-23 0 -34 13 -34 27c0 21 21 47 57 47c26 0 36 -17 36 -39c0 -57 -51 -112 -132 -153z" />
    <glyph glyph-name="uni021A" unicode="&#x21a;" horiz-adv-x="586" 
d="M180 -252l-16 7c95 54 104 100 104 110c0 1 0 2 -1 2h-2c-2 -1 -9 -1 -12 -1c-23 0 -34 13 -34 27c0 21 22 47 57 47c26 0 36 -17 36 -39c0 -57 -50 -112 -132 -153zM414 703c-56 0 -129 -44 -213 -244h-41l90 263h512l-64 -263h-42c8 46 13 86 13 121
c0 77 -23 123 -81 123c-25 0 -41 -17 -52 -54l-185 -625h96l-7 -24h-295l7 24h97l185 625c4 12 5 22 5 30c0 16 -8 24 -25 24z" />
    <glyph glyph-name="uni021B" unicode="&#x21b;" horiz-adv-x="269" 
d="M169 69c-1 -4 -1 -8 -1 -12c0 -16 11 -25 22 -25h3c8 0 24 9 37 24l38 45l12 -9c-54 -75 -86 -104 -128 -104c-48 0 -56 23 -56 53c0 26 10 57 17 81l81 256h-87l13 22h82l33 109l107 71l-66 -180h105l-13 -22h-101zM15 -264l-16 7c94 54 103 100 103 110v2h-2
c-2 -1 -9 -1 -12 -1c-24 0 -34 13 -34 27c0 21 21 47 57 47c26 0 36 -17 36 -39c0 -57 -51 -112 -132 -153z" />
    <glyph glyph-name="uni021E" unicode="&#x21e;" horiz-adv-x="688" 
d="M589 358h-279l-99 -334h92l-7 -24h-283l7 24h90l200 674h-90l7 24h283l-7 -24h-92l-91 -307h279l91 307h-88l7 24h280l-7 -24h-91l-200 -674h91l-7 -24h-283l7 24h91zM549 797l-72 110h44l69 -68l110 68h44l-139 -110h-56z" />
    <glyph glyph-name="uni021F" unicode="&#x21f;" horiz-adv-x="500" 
d="M209 715l5 15h149l-119 -400c52 57 98 82 149 82c70 0 94 -31 94 -79c0 -25 -7 -54 -16 -85l-42 -144c-5 -17 -13 -48 -15 -57c0 -6 7 -14 15 -14c9 0 27 10 41 26l38 44l13 -10c-56 -76 -91 -103 -136 -103c-33 0 -45 19 -45 49c0 20 5 44 13 70l42 144
c7 22 14 52 14 78c0 31 -11 57 -46 57h-1c-63 0 -135 -119 -155 -185l-60 -203h-76l212 715h-74zM430 797l-68 163h28l69 -122l136 122h28l-152 -163h-41z" />
    <glyph glyph-name="uni0237" unicode="&#x237;" horiz-adv-x="251" 
d="M5 -127c0 -12 -23 -22 -23 -49c0 -9 4 -15 12 -15c49 0 85 78 113 173l119 403h-87l4 15h171l-111 -376c-29 -98 -69 -224 -219 -224c-58 0 -82 23 -82 47s25 49 64 49c22 0 39 -10 39 -23z" />
    <glyph glyph-name="uni0259" unicode="&#x259;" horiz-adv-x="452" 
d="M371 173c13 36 27 83 27 127c0 51 -20 94 -81 94c-59 0 -104 -27 -161 -98l-30 8c57 72 127 108 211 108c104 -1 150 -58 150 -137c0 -24 -4 -49 -12 -76c-38 -127 -149 -211 -262 -211c-85 0 -137 41 -137 117c0 20 4 42 11 66v2h284zM366 158h-154
c-19 -1 -44 -33 -50 -53c-6 -22 -9 -39 -9 -53c0 -41 24 -54 65 -54c58 0 134 113 148 160z" />
    <glyph glyph-name="circumflex" unicode="&#x2c6;" horiz-adv-x="284" 
d="M356 688l65 -169h-27l-67 129l-130 -129h-27l145 169h41z" />
    <glyph glyph-name="caron" unicode="&#x2c7;" horiz-adv-x="284" 
d="M282 520l-68 163h28l69 -122l136 122h28l-152 -163h-41z" />
    <glyph glyph-name="breve" unicode="&#x2d8;" horiz-adv-x="330" 
d="M447 663l59 24v-3c-26 -87 -113 -149 -182 -149c-55 0 -92 24 -92 77c0 14 3 31 8 49v2h36c-4 -13 -5 -24 -5 -34c0 -38 24 -58 65 -58c49 0 94 41 111 92z" />
    <glyph glyph-name="dotaccent" unicode="&#x2d9;" horiz-adv-x="193" 
d="M285 644c23 0 34 -15 34 -33c0 -28 -25 -64 -63 -64c-25 0 -36 15 -36 33c0 28 27 64 65 64z" />
    <glyph glyph-name="ring" unicode="&#x2da;" horiz-adv-x="262" 
d="M341 709c44 0 63 -27 63 -61c0 -51 -47 -118 -117 -118c-43 0 -62 27 -62 60c0 52 47 119 116 119zM341 704c-45 0 -82 -77 -82 -127c0 -25 8 -43 30 -43c44 0 80 78 80 128c0 24 -8 42 -28 42z" />
    <glyph glyph-name="ogonek" unicode="&#x2db;" horiz-adv-x="214" 
d="M13 -112c0 24 27 79 79 112h29c-33 -21 -61 -77 -61 -112c0 -16 8 -30 19 -30c18 0 39 12 70 39l8 -8c-47 -36 -65 -41 -98 -41c-28 0 -46 17 -46 40z" />
    <glyph glyph-name="tilde" unicode="&#x2dc;" horiz-adv-x="284" 
d="M376 551c-44 0 -101 57 -135 57c-19 0 -36 -22 -46 -64h-21c15 62 45 99 83 99c41 0 105 -52 135 -52c20 0 35 17 49 59h22c-11 -55 -50 -99 -87 -99z" />
    <glyph glyph-name="hungarumlaut" unicode="&#x2dd;" horiz-adv-x="282" 
d="M219 535l29 107c14 42 26 59 47 59c14 0 26 -7 26 -14c0 -13 -7 -22 -16 -37l-69 -113zM325 535l29 107c13 42 26 59 47 59c14 0 26 -7 26 -14c0 -13 -9 -25 -16 -37l-68 -113z" />
    <glyph glyph-name="uni030F" unicode="&#x30f;" horiz-adv-x="282" 
d="M426 535l-17 2l-69 113c-7 12 -16 24 -16 37c0 7 12 14 26 14c21 0 35 -16 47 -59zM320 535l-18 2l-68 113c-7 13 -16 24 -16 37c0 7 12 14 26 14c21 0 35 -17 47 -59z" />
    <glyph glyph-name="uni0311" unicode="&#x311;" horiz-adv-x="330" 
d="M409 579c3 12 4 22 4 30c0 29 -17 42 -55 42c-52 0 -95 -32 -114 -92h-36v2c26 88 89 126 159 126c62 0 94 -34 94 -84c0 -15 -3 -31 -8 -48z" />
    <glyph glyph-name="uni0326" unicode="&#x326;" horiz-adv-x="533" 
d="M158 -249l-16 7c94 54 103 100 103 110v2h-2c-2 -1 -9 -1 -12 -1c-24 0 -34 13 -34 27c0 21 21 47 57 47c26 0 36 -17 36 -39c0 -57 -51 -112 -132 -153z" />
    <glyph glyph-name="uni037B" unicode="&#x37b;" horiz-adv-x="382" 
d="M308 400c-55 0 -83 -86 -107 -86c-20 0 -29 13 -29 29c0 4 0 7 1 11c24 37 64 58 134 58c81 0 115 -55 115 -125c0 -141 -120 -299 -255 -299c-70 0 -98 32 -103 113l36 5v-5c0 -63 19 -88 58 -88c109 0 190 217 190 321c0 39 -12 66 -40 66z" />
    <glyph glyph-name="uni037C" unicode="&#x37c;" horiz-adv-x="382" 
d="M239 198c0 44 42 82 75 82c22 0 36 -17 36 -42c0 -42 -40 -83 -74 -83c-22 0 -37 18 -37 43zM328 400h-1c-78 0 -161 -203 -161 -304c0 -53 20 -83 59 -83c40 0 76 26 119 93l33 -5c-58 -81 -107 -113 -177 -113c-82 0 -117 55 -117 126c0 125 109 298 253 298
c70 0 96 -21 96 -58c-9 -21 -30 -40 -54 -40s3 85 -50 86z" />
    <glyph glyph-name="uni037D" unicode="&#x37d;" horiz-adv-x="382" 
d="M279 241c0 -42 -46 -86 -79 -86c-21 0 -35 16 -35 39c0 42 44 86 78 86c21 0 36 -16 36 -39zM308 400c-55 0 -83 -86 -107 -86c-20 0 -29 13 -29 29c0 4 0 7 1 11c24 37 64 58 134 58c81 0 115 -55 115 -125c0 -141 -120 -299 -255 -299c-70 0 -98 32 -103 113l36 5v-5
c0 -63 19 -88 58 -88c109 0 190 217 190 321c0 39 -12 66 -40 66z" />
    <glyph glyph-name="uni037E" unicode="&#x37e;" horiz-adv-x="189" 
d="M55 30c0 28 28 58 63 58c26 0 36 -19 36 -44c0 -38 -20 -119 -147 -190l-17 8c92 59 116 112 116 136c0 1 0 1 -1 1h-2c-2 -1 -10 -1 -13 -1c-26 0 -35 15 -35 32zM133 294c0 42 39 84 73 84c23 0 37 -18 37 -42c0 -35 -33 -83 -75 -83c-22 0 -35 17 -35 41z" />
    <glyph glyph-name="tonos" unicode="&#x384;" horiz-adv-x="223" 
d="M232 536l81 168l59 -1l-98 -168z" />
    <glyph glyph-name="dieresistonos" unicode="&#x385;" horiz-adv-x="329" 
d="M217 578c0 33 32 66 58 66c18 0 29 -15 29 -35c0 -29 -28 -65 -59 -65c-17 0 -28 15 -28 34zM371 578c0 33 32 66 59 66c18 0 29 -15 29 -35c0 -33 -33 -65 -60 -65c-17 0 -28 14 -28 34zM302 569l81 168l59 -1l-98 -168z" />
    <glyph glyph-name="Alphatonos" unicode="&#x386;" horiz-adv-x="639" 
d="M553 730l1 -706h79l-7 -24h-268l7 24h95v219h-215l-130 -219h116l-7 -24h-229l7 24h55l446 706h50zM460 585l-191 -309h191v309zM185 558l81 168l59 -1l-98 -168z" />
    <glyph glyph-name="anoteleia" unicode="&#x387;" horiz-adv-x="226" 
d="M187 309c32 0 58 -28 58 -62c0 -35 -26 -63 -59 -63c-31 0 -59 28 -59 63c0 34 28 62 60 62z" />
    <glyph glyph-name="Epsilontonos" unicode="&#x388;" horiz-adv-x="589" 
d="M336 24c126 0 184 59 262 228h42l-92 -252h-525l7 24h91l200 674h-91l7 24h515l-60 -240h-41c7 40 10 73 10 100c0 107 -51 116 -144 116h-44c-43 0 -54 -7 -71 -63l-78 -262h136l38 127h44l-84 -285h-44l41 138h-136l-79 -266c-3 -13 -5 -23 -5 -32c0 -22 14 -31 45 -31
h56zM43 559l81 168l59 -1l-98 -168z" />
    <glyph glyph-name="Etatonos" unicode="&#x389;" horiz-adv-x="688" 
d="M589 358h-279l-99 -334h92l-7 -24h-283l7 24h90l200 674h-90l7 24h283l-7 -24h-92l-91 -307h279l91 307h-88l7 24h280l-7 -24h-91l-200 -674h91l-7 -24h-283l7 24h91zM53 557l81 168l59 -1l-98 -168z" />
    <glyph glyph-name="Iotatonos" unicode="&#x38a;" horiz-adv-x="309" 
d="M412 698l-200 -674h91l-7 -24h-283l7 24h91l200 674h-91l7 24h283l-7 -24h-91zM48 554l81 168l59 -1l-98 -168z" />
    <glyph glyph-name="Omicrontonos" unicode="&#x38c;" horiz-adv-x="653" 
d="M118 221c0 222 190 516 429 516c126 0 202 -97 202 -237c0 -238 -204 -515 -427 -515c-128 0 -204 96 -204 236zM542 721c-168 0 -253 -252 -284 -358c-15 -51 -40 -142 -40 -220s25 -142 108 -142c169 0 252 256 283 360c15 50 40 141 40 219c0 77 -24 141 -107 141z
M131 555l81 168l59 -1l-98 -168z" />
    <glyph glyph-name="Upsilontonos" unicode="&#x38e;" horiz-adv-x="618" 
d="M430 699c-39 0 -44 -47 -44 -63c0 -3 0 -6 1 -9l57 -273l260 344h-125l7 24h247l-7 -23h-10c-69 0 -118 -74 -148 -116l-210 -281l-82 -278h97l-7 -24h-296l7 24h98l79 265l-89 409h-59l7 24h276l-7 -23h-52zM46 554l81 168l59 -1l-98 -168z" />
    <glyph glyph-name="Omegatonos" unicode="&#x38f;" horiz-adv-x="850" 
d="M815 544c0 -212 -190 -395 -289 -475h63c33 0 75 10 151 179h39l-98 -248h-223v19c65 83 198 252 241 397c18 59 25 108 25 148c0 102 -52 143 -118 143c-98 0 -200 -77 -264 -294c-14 -47 -35 -75 -35 -167v-10c2 -82 19 -155 33 -217l-13 -19h-223l58 252h39
c-6 -41 -8 -73 -8 -98c0 -77 24 -85 49 -85h57c-33 42 -81 109 -81 209c0 187 181 460 400 460c122 0 197 -71 197 -194zM182 550l81 168l59 -1l-98 -168z" />
    <glyph glyph-name="iotadieresistonos" unicode="&#x390;" horiz-adv-x="225" 
d="M202 129l-8 -26c-5 -17 -13 -48 -15 -57c0 -6 7 -13 15 -13c9 0 26 9 40 25l38 44l13 -10c-55 -75 -90 -102 -134 -102c-32 0 -44 19 -44 48c0 20 5 44 13 71l56 188c5 17 13 48 15 57c0 6 -7 14 -15 14c-9 0 -26 -10 -39 -25l-39 -45l-12 10c55 75 89 102 133 102
c32 0 44 -19 44 -49c0 -19 -5 -44 -13 -70l-44 -149c-1 -4 -3 -9 -4 -13zM160 505c0 33 33 67 58 67c17 0 27 -15 27 -34c0 -34 -32 -66 -58 -66c-16 0 -27 14 -27 33zM308 505c0 33 32 67 58 67c17 0 27 -15 27 -34c0 -34 -32 -66 -58 -66c-16 0 -27 14 -27 33zM242 497
l80 168l57 -1l-96 -168z" />
    <glyph glyph-name="Alpha" unicode="&#x391;" horiz-adv-x="639" 
d="M553 730l1 -706h79l-7 -24h-268l7 24h95v219h-215l-130 -219h116l-7 -24h-229l7 24h55l446 706h50zM460 585l-191 -309h191v309z" />
    <glyph glyph-name="Beta" unicode="&#x392;" horiz-adv-x="589" 
d="M634 253c0 -101 -82 -253 -304 -253h-309l7 24h91l200 674h-91l7 24h307c90 0 165 -29 165 -119c0 -140 -142 -209 -196 -225c84 -19 123 -60 123 -125zM326 384h73c106 0 159 44 192 156c10 33 15 60 15 82c0 54 -31 76 -99 76h-34c-43 0 -58 -11 -73 -63zM320 363
l-78 -263c-8 -27 -12 -45 -12 -56c0 -18 11 -20 35 -20h36c119 0 172 31 213 169c11 37 16 66 16 88c0 70 -49 82 -138 82h-72z" />
    <glyph glyph-name="Gamma" unicode="&#x393;" horiz-adv-x="542" 
d="M403 635l-179 -611h98l-7 -24h-275l6 24h85l198 674h-85l7 24h473l-59 -240h-39c8 45 12 82 12 111c0 85 -37 108 -132 108h-35c-40 0 -52 -10 -68 -66z" />
    <glyph glyph-name="Delta" unicode="&#x394;" horiz-adv-x="610" 
d="M579 0h-525l7 25l448 700l40 11l38 -711zM492 47l-28 542l-346 -542h374z" />
    <glyph glyph-name="Epsilon" unicode="&#x395;" horiz-adv-x="589" 
d="M336 24c126 0 184 59 262 228h42l-92 -252h-525l7 24h91l200 674h-91l7 24h515l-60 -240h-41c7 40 10 73 10 100c0 107 -51 116 -144 116h-44c-43 0 -54 -7 -71 -63l-78 -262h136l38 127h44l-84 -285h-44l41 138h-136l-79 -266c-3 -13 -5 -23 -5 -32c0 -22 14 -31 45 -31
h56z" />
    <glyph glyph-name="Zeta" unicode="&#x396;" horiz-adv-x="520" 
d="M289 24c121 0 176 89 240 240h45l-93 -264h-456l7 24l545 674h-106c-112 0 -155 -40 -233 -213h-44l88 237h423l-7 -24l-546 -674h137z" />
    <glyph glyph-name="Eta" unicode="&#x397;" horiz-adv-x="688" 
d="M589 358h-279l-99 -334h92l-7 -24h-283l7 24h90l200 674h-90l7 24h283l-7 -24h-92l-91 -307h279l91 307h-88l7 24h280l-7 -24h-91l-200 -674h91l-7 -24h-283l7 24h91z" />
    <glyph glyph-name="Theta" unicode="&#x398;" horiz-adv-x="630" 
d="M128 213c0 222 185 524 411 524c115 0 182 -92 182 -228c0 -239 -198 -524 -408 -524c-117 0 -185 92 -185 228zM533 721c-156 0 -241 -252 -272 -358c-15 -53 -41 -147 -41 -227c0 -74 22 -135 98 -135c157 0 239 256 270 360c15 52 42 147 42 227c0 73 -23 133 -97 133
zM366 341c0 42 42 81 77 81c24 0 39 -18 39 -42c0 -39 -36 -83 -76 -83c-24 0 -40 18 -40 44z" />
    <glyph glyph-name="Iota" unicode="&#x399;" horiz-adv-x="309" 
d="M412 698l-200 -674h91l-7 -24h-283l7 24h91l200 674h-91l7 24h283l-7 -24h-91z" />
    <glyph glyph-name="Kappa" unicode="&#x39a;" horiz-adv-x="671" 
d="M288 311l420 387h-136l7 24h266l-7 -23c-50 0 -111 -32 -168 -85l-175 -164l96 -370c9 -49 18 -57 63 -57h19l-7 -23h-295l7 24h116l-87 360l-136 -131l-68 -229h93l-7 -24h-284l7 24h91l200 674h-91l7 24h284l-7 -24h-93z" />
    <glyph glyph-name="Lambda" unicode="&#x39b;" horiz-adv-x="633" 
d="M462 24v561l-325 -561h108l-7 -24h-213l7 24h51l427 706h45l-1 -706h65l-7 -24h-249l7 24h92z" />
    <glyph glyph-name="Mu" unicode="&#x39c;" horiz-adv-x="783" 
d="M454 722l-3 -554l318 554h217l-7 -24h-91l-200 -674h91l-7 -24h-284l7 24h92l196 661l-388 -685h-37l4 685l-196 -661h99l-7 -24h-248l7 24h98l200 674h-91l7 24h223z" />
    <glyph glyph-name="Nu" unicode="&#x39d;" horiz-adv-x="678" 
d="M401 722l170 -553l157 529h-97l7 24h246l-7 -24c-66 0 -103 -18 -143 -152l-162 -546h-40l-194 611l-174 -587h98l-7 -24h-246l7 24h97l200 674h-98l7 24h179z" />
    <glyph glyph-name="Xi" unicode="&#x39e;" horiz-adv-x="635" 
d="M524 698c-108 0 -148 -14 -234 -216h-38l81 240h434l-61 -240h-38c7 44 11 79 11 107c0 100 -47 109 -131 109h-24zM398 353l-40 -138h-41l84 285h41l-38 -127h85l38 127h41l-85 -285h-41l41 138h-85zM110 0l59 252h39c-6 -40 -9 -74 -9 -103c0 -91 33 -125 122 -125h45
c117 0 172 59 248 228h39l-90 -252h-453z" />
    <glyph glyph-name="Omicron" unicode="&#x39f;" horiz-adv-x="653" 
d="M118 221c0 222 190 516 429 516c126 0 202 -97 202 -237c0 -238 -204 -515 -427 -515c-128 0 -204 96 -204 236zM542 721c-168 0 -253 -252 -284 -358c-15 -51 -40 -142 -40 -220s25 -142 108 -142c169 0 252 256 283 360c15 50 40 141 40 219c0 77 -24 141 -107 141z
" />
    <glyph glyph-name="Pi" unicode="&#x3a0;" horiz-adv-x="696" 
d="M884 722l-7 -24h-85l-199 -674h84l-7 -24h-263l7 24h85l199 674h-263l-199 -674h84l-7 -24h-263l7 24h85l199 674h-84l7 24h620z" />
    <glyph glyph-name="Rho" unicode="&#x3a1;" horiz-adv-x="563" 
d="M529 722c147 0 185 -65 185 -130c0 -73 -47 -177 -155 -229c-40 -19 -82 -28 -160 -28h-92l-92 -311h98l-7 -24h-290l7 24h91l200 674h-91l7 24h299zM313 356h99c87 0 145 56 180 172c10 35 16 65 16 88c0 57 -31 82 -91 82h-54c-44 0 -49 -2 -67 -63z" />
    <glyph glyph-name="Sigma" unicode="&#x3a3;" horiz-adv-x="825" 
d="M91 58l304 312l-115 328l7 24h479l-61 -240h-38c7 44 11 78 11 106c0 101 -47 110 -132 110h-213l132 -374l-286 -299l186 -1h1c116 0 170 60 246 228h40l-91 -252h-488z" />
    <glyph glyph-name="Tau" unicode="&#x3a4;" horiz-adv-x="586" 
d="M414 703c-56 0 -129 -44 -213 -244h-41l90 263h512l-64 -263h-42c8 46 13 86 13 121c0 77 -23 123 -81 123c-25 0 -41 -17 -52 -54l-185 -625h96l-7 -24h-295l7 24h97l185 625c4 12 5 22 5 30c0 16 -8 24 -25 24z" />
    <glyph glyph-name="Upsilon" unicode="&#x3a5;" horiz-adv-x="618" 
d="M430 699c-39 0 -44 -47 -44 -63c0 -3 0 -6 1 -9l57 -273l260 344h-125l7 24h247l-7 -23h-10c-69 0 -118 -74 -148 -116l-210 -281l-82 -278h97l-7 -24h-296l7 24h98l79 265l-89 409h-59l7 24h276l-7 -23h-52z" />
    <glyph glyph-name="Phi" unicode="&#x3a6;" horiz-adv-x="769" 
d="M489 193l-50 -169h91l-7 -24h-283l7 24h91l50 169c-40 -34 -81 -48 -133 -48c-95 0 -135 59 -135 133c0 124 114 291 272 291c45 0 78 -14 97 -35l49 164h-91l7 24h283l-7 -24h-91l-49 -164c31 21 74 35 119 35c99 0 141 -65 141 -145c0 -123 -102 -279 -256 -279
c-52 0 -85 14 -105 48zM580 499l-72 -243c7 -61 30 -86 73 -86c68 0 131 73 165 189c12 42 19 80 19 110c0 56 -21 90 -64 90h-1c-53 -1 -113 -41 -120 -60zM479 499v5c0 21 -35 55 -82 55h-2c-65 -1 -130 -80 -166 -200c-11 -38 -17 -71 -17 -98c0 -58 24 -91 70 -91
c43 0 82 25 125 86z" />
    <glyph glyph-name="Chi" unicode="&#x3a7;" horiz-adv-x="622" 
d="M369 24c42 1 67 17 67 57c0 5 -1 11 -2 16l-56 225l-252 -298h130l-7 -24h-246l7 24h5c43 0 83 27 135 87l207 241l-94 346h-53l7 24h266l-7 -23h-35c-29 0 -39 -7 -45 -27c-1 -5 -2 -16 1 -26l46 -215l214 267h-104l7 24h238l-7 -23h-16c-44 0 -83 -19 -150 -100
l-164 -197l86 -378h79l-7 -24h-283l7 24h26z" />
    <glyph glyph-name="Psi" unicode="&#x3a8;" horiz-adv-x="728" 
d="M499 315l-89 -300h70l-4 -15h-214l4 15h66l89 301c-69 12 -127 55 -127 113c0 8 1 17 4 26l75 254h-67l5 15h147l-76 -256c-3 -9 -4 -19 -4 -29c0 -38 21 -74 53 -90l105 354l78 1l-105 -355c51 20 101 72 115 119l75 256h147l-4 -15h-67l-75 -254
c-21 -72 -113 -127 -201 -140z" />
    <glyph glyph-name="Omega" unicode="&#x3a9;" horiz-adv-x="850" 
d="M815 544c0 -212 -190 -395 -289 -475h63c33 0 75 10 151 179h39l-98 -248h-223v19c65 83 198 252 241 397c18 59 25 108 25 148c0 102 -52 143 -118 143c-98 0 -200 -77 -264 -294c-14 -47 -35 -75 -35 -167v-10c2 -82 19 -155 33 -217l-13 -19h-223l58 252h39
c-6 -41 -8 -73 -8 -98c0 -77 24 -85 49 -85h57c-33 42 -81 109 -81 209c0 187 181 460 400 460c122 0 197 -71 197 -194z" />
    <glyph glyph-name="Iotadieresis" unicode="&#x3aa;" horiz-adv-x="286" 
d="M397 698l-199 -674h84l-7 -24h-263l7 24h85l199 674h-84l7 24h263l-7 -24h-85zM273 831c0 33 33 66 59 66c18 0 29 -15 29 -35c0 -33 -33 -65 -60 -65c-17 0 -28 15 -28 34zM428 831c0 32 31 66 58 66c18 0 29 -15 29 -35c0 -29 -28 -65 -59 -65c-17 0 -28 14 -28 34z
" />
    <glyph glyph-name="Upsilondieresis" unicode="&#x3ab;" horiz-adv-x="574" 
d="M414 699c-36 0 -42 -46 -42 -63c0 -3 0 -6 1 -9l46 -286l250 357h-116l7 24h230l-7 -23h-10c-64 0 -111 -74 -140 -116l-200 -281l-83 -278h91l-8 -24h-275l7 24h91l79 265l-74 409h-55l7 24h257l-7 -23h-49zM417 831c0 33 33 66 59 66c18 0 29 -15 29 -35
c0 -33 -33 -65 -60 -65c-17 0 -28 15 -28 34zM572 831c0 32 31 66 58 66c18 0 29 -15 29 -35c0 -29 -28 -65 -59 -65c-17 0 -28 14 -28 34z" />
    <glyph glyph-name="alphatonos" unicode="&#x3ac;" horiz-adv-x="450" 
d="M86 121c0 139 116 291 236 291c44 0 95 -19 95 -95v-7l46 89l71 1c-116 -161 -143 -246 -148 -385h66l-5 -15h-124c-1 6 -2 12 -2 20c0 13 2 29 5 44c-40 -53 -80 -76 -130 -76c-70 0 -110 55 -110 133zM216 9c93 0 169 208 169 305c0 61 -28 79 -54 79
c-98 0 -168 -215 -168 -304c0 -50 17 -80 53 -80zM339 473l81 168l57 -1l-97 -168z" />
    <glyph glyph-name="epsilontonos" unicode="&#x3ad;" horiz-adv-x="367" 
d="M331 297c0 32 38 39 38 75c0 18 -13 30 -31 30c-75 0 -120 -91 -120 -142c0 -27 13 -44 43 -44h52l-11 -37h-49c-43 0 -72 -28 -87 -74c0 -1 -1 -1 -1 -2c-2 -8 -4 -16 -4 -23c0 -33 27 -47 58 -47c58 0 94 18 144 75l9 -8c-34 -43 -83 -111 -172 -111
c-68 0 -115 32 -115 82c0 9 1 18 4 27c0 1 1 1 1 2c14 48 49 80 99 97c-21 14 -36 27 -36 56c0 102 112 159 181 159h2c61 0 99 -31 99 -73c0 -41 -32 -69 -66 -69c-24 0 -38 11 -38 27zM297 473l81 168l57 -1l-96 -168z" />
    <glyph glyph-name="etatonos" unicode="&#x3ae;" horiz-adv-x="478" 
d="M274 -200l133 449c5 18 10 43 10 67c0 37 -10 70 -42 70c-87 0 -138 -123 -158 -190l-58 -196h-75l87 297c5 17 14 48 16 57c0 6 -8 14 -16 14c-9 0 -26 -10 -39 -25l-39 -45l-13 10c55 75 90 102 134 102c33 0 47 -20 47 -52c0 -6 -1 -13 -2 -21c49 50 96 75 147 75
c62 -1 89 -39 89 -95c0 -22 -4 -47 -12 -73l-132 -444h-77zM311 473l81 168l57 -1l-96 -168z" />
    <glyph glyph-name="iotatonos" unicode="&#x3af;" horiz-adv-x="235" 
d="M203 129l-8 -26c-5 -17 -13 -48 -15 -57c0 -6 7 -13 15 -13c9 0 27 9 41 25l38 44l13 -10c-55 -75 -91 -102 -135 -102c-32 0 -44 19 -44 48c0 20 5 44 13 71l56 188c5 17 13 48 15 57c0 6 -7 14 -15 14c-9 0 -27 -10 -40 -25l-39 -45l-12 10c55 75 90 102 134 102
c32 0 44 -19 44 -49c0 -19 -5 -44 -13 -70l-44 -149c-1 -4 -3 -9 -4 -13zM220 473l80 168l57 -1l-97 -168z" />
    <glyph glyph-name="upsilondieresistonos" unicode="&#x3b0;" horiz-adv-x="401" 
d="M433 204c-8 -27 -52 -94 -86 -134c-52 -57 -95 -82 -147 -82c-69 0 -96 27 -96 74c0 17 4 36 10 58l78 265h-64l4 15h141l-79 -267c-8 -26 -14 -51 -14 -71c0 -27 11 -46 46 -46c42 0 114 34 160 188l54 181h-77l5 15h123zM231 505c0 33 32 67 57 67c17 0 28 -15 28 -35
c0 -33 -31 -65 -58 -65c-16 0 -27 14 -27 33zM379 505c0 33 32 67 58 67c17 0 27 -15 27 -34c0 -34 -32 -66 -58 -66c-16 0 -27 14 -27 33zM313 497l80 168l57 -1l-96 -168z" />
    <glyph glyph-name="alpha" unicode="&#x3b1;" horiz-adv-x="459" 
d="M83 121c0 139 116 291 236 291c44 0 95 -19 95 -95v-7l46 89l71 1c-116 -161 -143 -246 -148 -385h66l-5 -15h-124c-1 6 -2 12 -2 20c0 13 2 29 5 44c-40 -53 -80 -76 -130 -76c-70 0 -110 55 -110 133zM213 9c93 0 169 208 169 305c0 61 -28 79 -54 79
c-98 0 -168 -215 -168 -304c0 -50 17 -80 53 -80z" />
    <glyph glyph-name="beta" unicode="&#x3b2;" horiz-adv-x="513" 
d="M327 358c0 19 21 49 37 61c13 0 14 -19 44 -19c23 0 102 121 102 224c0 51 -17 91 -55 91c-53 0 -108 -71 -129 -141l-140 -475c19 -39 46 -91 91 -91c66 0 125 88 156 188v3c6 18 8 37 8 56c0 36 -9 70 -27 97c-4 6 -9 8 -21 8c-24 -11 -40 -15 -50 -15
c-12 0 -16 5 -16 13zM535 256c0 -88 -90 -269 -247 -269c-52 0 -84 13 -120 53l-67 -225h72l-4 -15h-211l5 15h64l222 749c28 95 121 166 218 166c79 0 127 -57 127 -127c0 -85 -75 -172 -157 -214c41 -2 98 -55 98 -133z" />
    <glyph glyph-name="gamma" unicode="&#x3b3;" horiz-adv-x="449" 
d="M93 237c18 57 52 175 147 175c43 0 78 -52 78 -159c0 -43 -5 -93 -18 -153l176 285h-70l4 15h157l-3 -10h-7c-28 0 -47 -19 -84 -76l-159 -248l-74 -251h67l-4 -15h-207l5 15h64l71 239c2 12 15 91 15 162c0 62 -10 118 -45 118c-37 0 -71 -40 -93 -97h-20z" />
    <glyph glyph-name="delta" unicode="&#x3b4;" horiz-adv-x="421" 
d="M330 402c-58 0 -108 -68 -148 -202c-16 -53 -24 -97 -24 -130c0 -47 17 -72 50 -72c55 0 108 69 146 197c0 2 1 3 1 5c14 48 19 86 19 115c0 64 -25 87 -44 87zM434 719c-69 0 -150 -91 -150 -175c0 -42 18 -83 55 -108c28 -20 112 -44 112 -154c0 -23 -4 -51 -13 -83
c0 -2 -1 -3 -1 -5c-34 -115 -139 -206 -232 -206c-75 0 -120 57 -120 137c0 133 114 261 217 288c-35 24 -63 69 -63 125c0 91 77 196 221 196c34 0 57 -17 57 -41c0 -21 -20 -53 -61 -53c-20 0 -35 9 -35 21c0 15 17 27 17 50c0 5 -1 8 -4 8z" />
    <glyph glyph-name="epsilon" unicode="&#x3b5;" horiz-adv-x="354" 
d="M313 297c0 32 38 39 38 75c0 18 -13 30 -31 30c-75 0 -120 -91 -120 -142c0 -27 13 -44 43 -44h52l-11 -37h-49c-43 0 -72 -28 -87 -74c0 -1 -1 -1 -1 -2c-2 -8 -4 -16 -4 -23c0 -33 27 -47 58 -47c58 0 94 18 144 75l9 -8c-34 -43 -83 -111 -172 -111
c-68 0 -115 32 -115 82c0 9 1 18 4 27c0 1 1 1 1 2c14 48 49 80 99 97c-21 14 -36 27 -36 56c0 102 112 159 181 159h2c61 0 99 -31 99 -73c0 -41 -32 -69 -66 -69c-24 0 -38 11 -38 27z" />
    <glyph glyph-name="zeta" unicode="&#x3b6;" horiz-adv-x="383" 
d="M108 180c0 81 87 275 233 408c-30 11 -44 26 -44 49c0 52 54 101 101 101l-1 -14c-41 -12 -40 -44 -45 -53c-2 -5 -2 -10 -2 -14c0 -19 12 -31 35 -32c73 57 118 80 151 80c21 0 32 -8 32 -21c0 -23 -45 -91 -163 -96c-77 -58 -228 -300 -228 -407c0 -71 43 -120 66 -135
c25 -15 80 -47 80 -108c0 -95 -110 -138 -189 -138c-34 0 -57 17 -57 41c0 21 21 53 62 53c20 0 35 -9 35 -21c0 -15 -17 -27 -17 -50c0 -5 1 -8 4 -8c48 1 97 53 108 89v1c2 8 3 15 3 22c0 33 -25 59 -52 78c-30 18 -112 76 -112 175z" />
    <glyph glyph-name="eta" unicode="&#x3b7;" horiz-adv-x="508" 
d="M327 -200l133 449c5 18 10 43 10 67c0 37 -10 70 -42 70c-87 0 -138 -123 -158 -190l-58 -196h-75l87 297c5 17 14 48 16 57c0 6 -8 14 -16 14c-9 0 -26 -10 -39 -25l-39 -45l-13 10c55 75 90 102 134 102c33 0 47 -20 47 -52c0 -6 -1 -13 -2 -21c49 50 96 75 147 75
c62 -1 89 -39 89 -95c0 -22 -4 -47 -12 -73l-132 -444h-77z" />
    <glyph glyph-name="theta" unicode="&#x3b8;" horiz-adv-x="502" 
d="M119 176c0 238 185 528 337 528c72 0 116 -69 116 -182c0 -52 -10 -114 -30 -183c-62 -208 -198 -351 -305 -351c-72 0 -118 73 -118 188zM242 369h219c29 102 40 173 40 222c0 83 -31 102 -54 102c-36 0 -123 -50 -205 -324zM195 118c0 -67 11 -118 48 -118
c68 0 144 136 203 321h-217c-27 -100 -34 -160 -34 -203z" />
    <glyph glyph-name="iota" unicode="&#x3b9;" horiz-adv-x="311" 
d="M231 129l-8 -26c-5 -17 -13 -48 -15 -57c0 -6 7 -13 15 -13c9 0 27 9 41 25l38 44l13 -10c-55 -75 -91 -102 -135 -102c-32 0 -44 19 -44 48c0 20 5 44 13 71l56 188c5 17 13 48 15 57c0 6 -7 14 -15 14c-9 0 -27 -10 -40 -25l-39 -45l-12 10c55 75 90 102 134 102
c32 0 44 -19 44 -49c0 -19 -5 -44 -13 -70l-44 -149c-1 -4 -3 -9 -4 -13z" />
    <glyph glyph-name="kappa" unicode="&#x3ba;" horiz-adv-x="533" 
d="M268 194l221 191h-103l5 15h202l-4 -15c-54 -6 -96 -29 -156 -81l-47 -47l63 -215c2 -5 2 -14 9 -14s22 8 33 20l44 50l10 -10c-52 -72 -86 -98 -127 -98c-20 0 -39 4 -44 21l-56 200l-61 -56l-46 -155h-76l88 297c5 17 13 48 15 57c0 6 -7 14 -15 14
c-9 0 -27 -10 -40 -25l-38 -45l-13 10c55 75 90 102 134 102c32 0 44 -19 44 -49c0 -19 -34 -141 -42 -167z" />
    <glyph glyph-name="lambda" unicode="&#x3bb;" horiz-adv-x="581" 
d="M244 668c0 37 47 65 89 65c95 0 88 -188 98 -390c11 -132 22 -281 60 -281c47 0 71 42 93 83h19c-21 -61 -73 -162 -147 -162c-33 0 -53 28 -55 79c0 22 -10 146 -10 208c0 11 0 21 1 27l-174 -271c-17 -25 -40 -39 -66 -39c-41 0 -59 27 -69 99l16 9l13 -48
c4 -13 16 -21 24 -21c7 0 13 10 17 16l229 346l-8 165c-8 70 -1 165 -24 165c-17 0 -19 -53 -19 -53c-4 -15 -27 -26 -50 -26s-37 12 -37 29z" />
    <glyph glyph-name="mu" unicode="&#x3bc;" horiz-adv-x="554" 
d="M399 88c-52 -66 -94 -94 -142 -94c-38 0 -61 18 -72 55c-14 -47 -32 -190 -37 -207c-11 -36 -34 -61 -57 -61c-17 0 -27 13 -27 33c0 40 64 154 78 200l83 283c5 17 13 48 15 57c0 6 -7 14 -15 14c-9 0 -26 -10 -39 -25l-39 -45l-13 10c55 75 90 102 134 102
c32 0 44 -19 44 -49c0 -19 -5 -44 -13 -70l-38 -130c-8 -26 -18 -61 -18 -90c0 -27 9 -47 39 -47c24 0 109 36 137 130l67 226h-72l6 20h146l-88 -297c-5 -17 -14 -49 -16 -58c0 -6 7 -13 15 -13s26 8 39 23l40 46l12 -10c-54 -74 -90 -101 -133 -101c-31 0 -43 19 -43 49
c0 14 3 31 7 49z" />
    <glyph glyph-name="nu" unicode="&#x3bd;" horiz-adv-x="495" 
d="M494 399l89 1l-5 -15h-5c-28 0 -61 -30 -78 -84c0 -1 -1 -3 -1 -5c-21 -70 -109 -232 -216 -308h-28l-25 373c0 6 -4 14 -11 14c-6 0 -23 -6 -31 -15l-47 -54l-8 9c49 69 88 95 125 95c21 0 33 -9 44 -34l3 -44l10 -278c74 72 135 180 153 241c1 2 0 4 1 6z" />
    <glyph glyph-name="xi" unicode="&#x3be;" horiz-adv-x="367" 
d="M323 297c0 32 39 39 39 75c0 18 -13 30 -31 30c-69 0 -172 -175 -172 -306c0 -52 20 -83 59 -83c50 -1 67 -29 67 -64c0 -100 -109 -149 -190 -149c-34 0 -57 17 -57 41c0 21 21 53 62 53c21 0 35 -9 35 -21c0 -15 -18 -27 -18 -48c0 -7 2 -10 5 -10c48 1 97 53 108 89v1
c0 1 1 1 1 2c3 9 5 20 5 30c0 26 -11 51 -43 51c-74 0 -117 48 -117 125c0 105 75 243 187 286c-20 9 -37 46 -37 82c0 19 6 67 62 115c-30 11 -44 26 -44 49c0 54 58 101 102 101l-4 -14c-19 -6 -33 -13 -43 -53c-1 -5 -2 -10 -2 -14c0 -19 13 -31 36 -32
c73 57 117 80 150 80c21 0 33 -8 33 -21c0 -34 -70 -96 -171 -100c-41 -28 -68 -57 -77 -88c-2 -10 -3 -20 -3 -30c0 -27 8 -53 25 -66c12 3 25 4 38 4c61 0 99 -31 99 -73c0 -41 -32 -69 -66 -69c-24 0 -38 11 -38 27z" />
    <glyph glyph-name="omicron" unicode="&#x3bf;" horiz-adv-x="414" 
d="M86 126c0 134 121 286 247 286c72 0 117 -58 117 -139c0 -140 -126 -285 -244 -285c-75 0 -120 57 -120 138zM209 -2c102 0 170 246 170 330c0 49 -17 74 -49 74c-59 0 -108 -68 -148 -202c-16 -53 -23 -96 -23 -128c0 -49 17 -74 50 -74z" />
    <glyph glyph-name="pi" unicode="&#x3c0;" horiz-adv-x="554" 
d="M458 142c-1 -4 -2 -7 -3 -11l-39 -131h-77l101 340h-135l-7 -23c-68 -230 -123 -294 -142 -312c-19 -8 -44 -16 -59 -17v17c94 93 141 229 172 332c-59 0 -89 -19 -130 -46l-7 8c37 35 89 101 181 101h240c43 1 79 44 102 72l10 -8l-87 -124h-61z" />
    <glyph glyph-name="rho" unicode="&#x3c1;" horiz-adv-x="428" 
d="M472 283c0 -132 -120 -295 -240 -295c-47 0 -73 21 -83 71l-76 -259h-75l120 406c50 166 154 206 244 206c69 0 110 -53 110 -129zM228 7c94 0 167 226 167 314c0 46 -17 72 -50 72c-57 0 -171 -163 -171 -299c0 -52 18 -87 54 -87z" />
    <glyph glyph-name="sigma1" unicode="&#x3c2;" horiz-adv-x="358" 
d="M134 -129c0 -14 -18 -26 -18 -48c0 -6 2 -10 6 -10c48 1 97 53 108 89v1c0 1 1 1 1 2c2 10 4 20 4 31c0 26 -11 50 -42 50c-74 0 -117 49 -117 126c0 129 111 298 252 298c61 0 99 -31 99 -72s-32 -70 -66 -70c-24 0 -39 11 -39 28c0 32 39 38 39 75c0 17 -12 29 -30 29
c-93 0 -172 -202 -172 -305c0 -53 19 -83 59 -84c49 0 66 -28 66 -64c0 -100 -108 -149 -189 -149c-35 0 -57 17 -57 41c0 22 20 53 62 53c20 0 34 -8 34 -21z" />
    <glyph glyph-name="sigma" unicode="&#x3c3;" horiz-adv-x="417" 
d="M207 -6c102 0 170 246 170 330c0 49 -17 74 -49 74c-59 0 -108 -68 -148 -202c-16 -53 -23 -96 -23 -128c0 -49 17 -74 50 -74zM84 122c0 134 121 286 247 286c19 0 35 -4 50 -11h117l-6 -21h-81c24 -25 38 -62 38 -106c0 -139 -126 -286 -245 -286
c-75 0 -120 57 -120 138z" />
    <glyph glyph-name="tau" unicode="&#x3c4;" horiz-adv-x="280" 
d="M210 129l-8 -26c-5 -17 -13 -48 -15 -57c0 -6 8 -13 16 -13c9 0 26 9 40 25l38 44l13 -10c-55 -75 -91 -102 -135 -102c-32 0 -44 19 -44 48c0 20 5 44 13 71l81 276h-72l4 15h233l-4 -15h-84l-72 -243c-1 -4 -3 -9 -4 -13z" />
    <glyph glyph-name="upsilon" unicode="&#x3c5;" horiz-adv-x="478" 
d="M490 204c-54 -177 -168 -215 -233 -216c-69 0 -96 27 -96 74c0 17 4 36 10 58l52 177c5 17 13 48 15 57c0 6 -7 13 -15 13c-9 0 -27 -9 -41 -25l-38 -44l-13 10c55 75 91 102 135 102c33 0 45 -20 45 -50c0 -19 -5 -43 -13 -69l-47 -158c-8 -26 -14 -51 -14 -71
c0 -27 11 -46 46 -46c42 0 115 34 161 188l54 181h-78l5 15h123z" />
    <glyph glyph-name="phi" unicode="&#x3c6;" horiz-adv-x="424" 
d="M84 122c0 120 101 269 226 285l56 189h41l-56 -190c61 -10 97 -64 97 -137c0 -132 -111 -267 -222 -283l-56 -190h-41l56 189c-63 8 -101 63 -101 137zM306 395c-94 -29 -149 -257 -149 -327c0 -39 11 -63 32 -71zM230 -2c89 32 146 251 146 326c0 38 -10 61 -29 70z" />
    <glyph glyph-name="chi" unicode="&#x3c7;" horiz-adv-x="545" 
d="M589 327c-23 0 -37 17 -52 17c-9 0 -14 -10 -23 -24l-179 -207l11 -113c12 -88 24 -119 62 -119c47 0 72 42 94 83h19c-21 -61 -73 -162 -147 -162c-54 0 -57 77 -76 266l-194 -241h117l-8 -24h-221l7 24h5c39 0 75 28 124 87l166 200l-20 191c-7 25 -23 36 -43 36
c-30 0 -64 -30 -85 -84h-22c38 100 88 155 137 155c40 0 51 -37 56 -91l14 -162l174 212c28 34 47 40 74 40c30 0 50 -18 50 -45c-1 -22 -18 -39 -40 -39z" />
    <glyph glyph-name="psi" unicode="&#x3c8;" horiz-adv-x="543" 
d="M341 -9l-52 -176h67l-4 -15h-206l4 15h64l53 177c-58 13 -100 52 -100 106c0 10 2 21 5 33l49 166c5 17 13 48 15 57c0 6 -7 13 -15 13c-9 0 -26 -9 -40 -25l-39 -44l-13 10c55 75 91 102 135 102c33 0 45 -20 45 -50c0 -19 -5 -43 -13 -69l-44 -147
c-4 -14 -6 -29 -6 -43c0 -32 10 -60 31 -75l104 353l75 1l-104 -354c41 21 70 72 84 118l76 256h141l-4 -15h-65l-75 -254c-21 -71 -89 -127 -168 -140z" />
    <glyph glyph-name="omega" unicode="&#x3c9;" horiz-adv-x="656" 
d="M456 278c0 -69 -47 -131 -76 -179c5 -59 25 -88 63 -88c105 0 174 206 174 303c0 54 -19 86 -56 86l8 10c67 0 121 -58 121 -147c0 -112 -95 -277 -237 -277c-60 0 -90 24 -104 82c-48 -58 -93 -82 -153 -82c-75 0 -117 48 -117 125c0 131 113 299 253 299l2 -10
c-95 0 -172 -205 -172 -306c0 -53 20 -83 59 -83c40 0 75 21 118 88v21c0 146 58 200 88 200c18 0 29 -14 29 -42z" />
    <glyph glyph-name="iotadieresis" unicode="&#x3ca;" horiz-adv-x="311" 
d="M180 507c0 32 34 65 62 65c19 0 32 -16 32 -35c0 -31 -31 -65 -63 -65c-19 0 -31 15 -31 35zM346 506c0 34 33 66 62 66c19 0 32 -16 32 -35c0 -31 -31 -65 -63 -65c-19 0 -31 15 -31 34zM231 129l-8 -26c-5 -17 -13 -48 -15 -57c0 -6 7 -13 15 -13c9 0 27 9 41 25l38 44
l13 -10c-55 -75 -91 -102 -135 -102c-32 0 -44 19 -44 48c0 20 5 44 13 71l56 188c5 17 13 48 15 57c0 6 -7 14 -15 14c-9 0 -27 -10 -40 -25l-39 -45l-12 10c55 75 90 102 134 102c32 0 44 -19 44 -49c0 -19 -5 -44 -13 -70l-44 -149c-1 -4 -3 -9 -4 -13z" />
    <glyph glyph-name="upsilondieresis" unicode="&#x3cb;" horiz-adv-x="478" 
d="M259 507c0 32 35 65 62 65c20 0 32 -16 32 -35c0 -31 -31 -65 -63 -65c-18 0 -31 15 -31 35zM425 506c0 34 33 66 62 66c20 0 32 -16 32 -35c0 -31 -31 -65 -63 -65c-19 0 -31 15 -31 34zM490 204c-54 -177 -168 -215 -233 -216c-69 0 -96 27 -96 74c0 17 4 36 10 58
l52 177c5 17 13 48 15 57c0 6 -7 13 -15 13c-9 0 -27 -9 -41 -25l-38 -44l-13 10c55 75 91 102 135 102c33 0 45 -20 45 -50c0 -19 -5 -43 -13 -69l-47 -158c-8 -26 -14 -51 -14 -71c0 -27 11 -46 46 -46c42 0 115 34 161 188l54 181h-78l5 15h123z" />
    <glyph glyph-name="omicrontonos" unicode="&#x3cc;" horiz-adv-x="414" 
d="M304 473l81 168l59 -1l-98 -168zM86 126c0 134 121 286 247 286c72 0 117 -58 117 -139c0 -140 -126 -285 -244 -285c-75 0 -120 57 -120 138zM209 -2c102 0 170 246 170 330c0 49 -17 74 -49 74c-59 0 -108 -68 -148 -202c-16 -53 -23 -96 -23 -128c0 -49 17 -74 50 -74
z" />
    <glyph glyph-name="upsilontonos" unicode="&#x3cd;" horiz-adv-x="478" 
d="M330 473l81 168l59 -1l-98 -168zM490 204c-54 -177 -168 -215 -233 -216c-69 0 -96 27 -96 74c0 17 4 36 10 58l52 177c5 17 13 48 15 57c0 6 -7 13 -15 13c-9 0 -27 -9 -41 -25l-38 -44l-13 10c55 75 91 102 135 102c33 0 45 -20 45 -50c0 -19 -5 -43 -13 -69l-47 -158
c-8 -26 -14 -51 -14 -71c0 -27 11 -46 46 -46c42 0 115 34 161 188l54 181h-78l5 15h123z" />
    <glyph glyph-name="omegatonos" unicode="&#x3ce;" horiz-adv-x="656" 
d="M424 473l81 168l59 -1l-98 -168zM456 278c0 -69 -47 -131 -76 -179c5 -59 25 -88 63 -88c105 0 174 206 174 303c0 54 -19 86 -56 86l8 10c67 0 121 -58 121 -147c0 -112 -95 -277 -237 -277c-60 0 -90 24 -104 82c-48 -58 -93 -82 -153 -82c-75 0 -117 48 -117 125
c0 131 113 299 253 299l2 -10c-95 0 -172 -205 -172 -306c0 -53 20 -83 59 -83c40 0 75 21 118 88v21c0 146 58 200 88 200c18 0 29 -14 29 -42z" />
    <glyph glyph-name="uni03CF" unicode="&#x3cf;" horiz-adv-x="619" 
d="M391 -185c50 1 93 64 93 105c0 25 -9 57 -17 104l-74 360l-129 -131l-67 -229h86l-7 -24h-264l7 24h85l199 674h-84l7 24h264l-7 -24h-87l-114 -387l398 387h-127l7 24h248l-7 -23c-46 0 -104 -32 -158 -85l-166 -164l81 -370c6 -43 12 -82 12 -113c0 -13 -1 -24 -4 -34
c0 -1 -1 -2 -1 -3c-19 -54 -120 -130 -201 -130c-36 0 -60 17 -60 41c0 20 20 53 63 53c22 0 37 -9 37 -21s-18 -30 -18 -50c0 -5 2 -8 5 -8z" />
    <glyph glyph-name="uni03D0" unicode="&#x3d0;" horiz-adv-x="488" 
d="M526 271c0 -139 -140 -284 -281 -284h-1c-104 1 -139 98 -139 196c0 40 6 81 16 115c111 375 278 436 356 437h3c73 0 108 -32 108 -88c0 -82 -74 -195 -164 -241c61 -17 102 -65 102 -135zM420 196c7 25 11 50 11 73c0 64 -28 113 -92 113c-43 0 -99 -20 -144 -34
c-9 -22 -20 -66 -20 -120c0 -116 49 -218 94 -218c60 0 123 90 150 183c0 1 1 2 1 3zM205 376c50 16 250 70 296 213c0 1 1 2 1 3c5 15 7 32 7 48c0 41 -15 80 -45 80h-1c-126 -2 -232 -258 -258 -344z" />
    <glyph glyph-name="theta1" unicode="&#x3d1;" horiz-adv-x="491" 
d="M416 699c-43 0 -83 -47 -83 -109c0 -64 44 -128 117 -163c8 41 23 113 23 173c0 55 -13 99 -57 99zM436 735c77 0 102 -97 102 -157c0 -41 -8 -94 -26 -176c7 -2 44 -16 61 -23l-19 -72c-16 8 -35 19 -58 32l-31 -107c0 -1 -1 -2 -1 -3c-38 -129 -153 -241 -264 -241
c-69 0 -96 27 -96 74c0 17 4 36 10 58l52 177c5 17 13 48 15 57c0 6 -7 13 -15 13c-9 0 -27 -9 -41 -25l-38 -44l-13 10c55 75 91 102 135 102c33 0 45 -20 45 -50c0 -19 -5 -43 -13 -69l-47 -158c-8 -26 -14 -51 -14 -71c0 -27 11 -46 46 -46c42 0 115 34 161 188l49 167
c-91 49 -138 119 -138 193c0 93 69 171 138 171z" />
    <glyph glyph-name="Upsilon1" unicode="&#x3d2;" horiz-adv-x="545" 
d="M628 662c0 3 2 28 28 52c-131 0 -273 -228 -302 -325l-111 -374h80l-4 -15h-224l5 15h65l161 550c6 21 9 39 9 54c0 43 -19 63 -34 63c-31 0 -66 -48 -88 -102h-23c38 100 107 155 157 155c32 0 73 -27 73 -94c0 -18 -4 -40 -11 -65l-5 -18c59 106 162 178 268 178
c38 0 59 -17 59 -41c0 -35 -34 -58 -67 -58c-22 0 -36 10 -36 25z" />
    <glyph glyph-name="uni03D3" unicode="&#x3d3;" horiz-adv-x="546" 
d="M629 662c0 4 3 28 28 52c-131 0 -272 -228 -301 -325l-111 -374h80l-5 -15h-223l5 15h65l161 550c6 21 9 39 9 54c0 43 -19 63 -34 63c-31 0 -66 -48 -88 -102h-23c38 100 106 155 156 155c32 0 73 -28 73 -95c0 -18 -3 -39 -10 -64l-5 -18c59 106 162 178 268 178
c38 0 58 -16 58 -41c0 -28 -25 -58 -66 -58c-22 0 -37 10 -37 25zM51 570l81 168l59 -1l-98 -168z" />
    <glyph glyph-name="uni03D4" unicode="&#x3d4;" horiz-adv-x="545" 
d="M628 662c0 3 2 28 28 52c-131 0 -273 -228 -302 -325l-111 -374h80l-4 -15h-224l5 15h65l161 550c6 21 9 39 9 54c0 43 -19 63 -34 63c-31 0 -66 -48 -88 -102h-23c38 100 107 155 157 155c32 0 73 -27 73 -94c0 -18 -4 -40 -11 -65l-5 -18c59 106 162 178 268 178
c38 0 59 -17 59 -41c0 -35 -34 -58 -67 -58c-22 0 -36 10 -36 25zM402 832c0 32 34 65 59 65c18 0 29 -15 29 -35c0 -29 -28 -65 -59 -65c-17 0 -29 15 -29 35zM557 831c0 32 31 66 58 66c18 0 29 -15 29 -35c0 -29 -28 -65 -59 -65c-17 0 -28 14 -28 34z" />
    <glyph glyph-name="phi1" unicode="&#x3d5;" horiz-adv-x="450" 
d="M498 260c0 -126 -122 -257 -254 -271l-57 -189h-40l55 189c-82 8 -132 67 -132 146c0 112 99 249 239 274l-3 -14c-98 -38 -153 -220 -153 -302c0 -53 19 -85 53 -93l122 412h41c75 0 129 -68 129 -152zM247 1c101 25 166 197 166 299c0 61 -21 99 -48 99z" />
    <glyph glyph-name="omega1" unicode="&#x3d6;" horiz-adv-x="652" 
d="M235 382h-65l24 30h548l-24 -30h-69c27 -26 45 -66 45 -117c0 -112 -95 -277 -237 -277c-60 0 -90 24 -104 82c-48 -58 -93 -82 -153 -82c-75 0 -117 48 -117 125c0 97 62 215 152 269zM460 280c0 -69 -47 -131 -76 -179c5 -59 25 -88 63 -88c105 0 174 206 174 303
c0 29 -5 51 -16 66h-319c-69 -54 -120 -204 -120 -286c0 -53 20 -83 59 -83c40 0 75 21 118 88v21c0 146 58 200 88 200c18 0 29 -14 29 -42z" />
    <glyph glyph-name="uni03D7" unicode="&#x3d7;" horiz-adv-x="475" 
d="M291 -184c50 1 115 63 115 126c0 61 -73 51 -73 134c0 19 4 42 13 72l27 92l-304 -254h-47l91 75l61 209c1 4 3 7 4 11l4 15c5 17 13 49 15 58c0 6 -7 13 -15 13c-9 0 -27 -10 -41 -26l-38 -44l-13 10c55 76 91 103 136 103c33 0 45 -19 45 -49c0 -20 -5 -44 -13 -70
l-42 -143l302 252h46l-88 -73l-55 -185v-2c-7 -25 -10 -46 -10 -63c0 -66 42 -85 42 -136c0 -10 -1 -20 -5 -33v-1c-19 -63 -106 -106 -184 -106c-34 0 -56 17 -56 40c0 21 19 54 61 54c21 0 35 -9 35 -21c0 -15 -17 -27 -17 -50c0 -5 1 -8 4 -8z" />
    <glyph glyph-name="uni03D8" unicode="&#x3d8;" horiz-adv-x="605" 
d="M519 724c-156 0 -221 -189 -245 -269c-10 -34 -26 -93 -26 -147c0 -65 23 -124 109 -124c157 0 221 192 244 270c10 34 26 92 26 146c0 65 -23 124 -108 124zM151 367c0 161 156 369 373 369c124 0 200 -80 200 -195c0 -161 -144 -343 -330 -367l-48 -159h70l-4 -15h-214
l4 15h66l48 159c-103 14 -165 89 -165 193z" />
    <glyph glyph-name="uni03D9" unicode="&#x3d9;" horiz-adv-x="413" 
d="M86 126c0 135 123 286 247 286c72 0 117 -58 117 -138c0 -115 -92 -253 -208 -281l-52 -178h67l-5 -15h-205l4 15h64l53 178c-52 16 -82 67 -82 133zM208 -2c102 0 171 247 171 331c0 48 -17 73 -49 73c-58 0 -108 -68 -148 -202c-16 -53 -24 -97 -24 -130
c0 -47 17 -72 50 -72z" />
    <glyph glyph-name="uni03DA" unicode="&#x3da;" horiz-adv-x="429" 
d="M168 440c0 107 108 277 253 280h142c44 1 82 44 105 72l10 -8l-94 -122h-163c-60 0 -97 -32 -133 -152c-13 -44 -19 -77 -19 -103c0 -43 16 -67 44 -88c43 -32 87 -61 87 -103c0 -6 -1 -12 -3 -18l-54 -183h70l-4 -15h-214l4 15h66l54 183c0 1 1 1 1 2c2 7 3 14 3 22
c0 29 -14 59 -36 72c-21 17 -119 43 -119 146z" />
    <glyph glyph-name="uni03DB" unicode="&#x3db;" horiz-adv-x="392" 
d="M83 114c0 129 112 297 250 300h137c43 1 80 44 103 72l9 -8l-79 -94h-158c-107 0 -179 -186 -179 -288c0 -52 20 -82 59 -83c50 -1 68 -29 68 -65c0 -100 -111 -148 -191 -148c-34 0 -57 17 -57 41c0 21 21 53 62 53c21 0 35 -9 35 -21c0 -15 -18 -27 -18 -48
c0 -6 2 -10 5 -10c48 1 97 53 108 89v1c0 1 1 1 1 2c3 9 5 20 5 30c0 26 -11 51 -43 51c-74 0 -117 48 -117 126z" />
    <glyph glyph-name="uni03DC" unicode="&#x3dc;" horiz-adv-x="515" 
d="M699 722l-60 -240h-39c8 46 12 83 12 112c0 84 -36 107 -131 107h-36c-40 0 -50 -10 -67 -66l-78 -262h126l43 143h41l-94 -315h-41l46 152h-127l-97 -329h97l-7 -24h-275l7 24h85l199 674h-84l7 24h473z" />
    <glyph glyph-name="uni03DD" unicode="&#x3dd;" horiz-adv-x="283" 
d="M449 652c0 21 25 28 25 56c0 10 -6 15 -17 15c-31 0 -86 -22 -123 -148l-52 -175h88l-5 -17h-88l-173 -583h-140l5 15h64l220 743c20 69 67 172 204 172c55 0 86 -18 86 -49c0 -32 -26 -53 -58 -53c-22 0 -36 10 -36 24z" />
    <glyph glyph-name="uni03DE" unicode="&#x3de;" horiz-adv-x="381" 
d="M127 161l67 224h-66l4 15h214l-4 -15h-70l-55 -184l152 39l-66 -225h69l-4 -15h-214l5 15h66l54 185z" />
    <glyph glyph-name="uni03DF" unicode="&#x3df;" horiz-adv-x="518" 
d="M371 736c56 0 77 -51 77 -116c0 -40 -8 -86 -21 -128c-36 -123 -229 -350 -299 -438l397 358h68c-100 -180 -226 -363 -246 -430c-16 -54 -22 -91 -22 -117c0 -54 28 -57 56 -57h12c16 0 28 9 47 27l5 -20c-33 -42 -74 -65 -104 -65c-65 0 -98 33 -98 94
c0 142 160 326 257 504l-401 -362h-85s298 357 335 482c19 63 26 107 26 139c0 59 -27 71 -56 71c-16 0 -29 -9 -48 -27l-5 20c33 42 75 65 105 65z" />
    <glyph glyph-name="uni03E4" unicode="&#x3e4;" horiz-adv-x="522" 
d="M433 698c-115 0 -177 -174 -177 -259c0 -56 27 -83 84 -83h93l108 366h179l-8 -24h-84l-200 -674h85l-7 -24h-270l7 24h91l92 311h-85c-73 0 -106 9 -132 28c-33 24 -50 59 -50 105c0 73 56 254 282 254z" />
    <glyph glyph-name="uni03E5" unicode="&#x3e5;" horiz-adv-x="456" 
d="M301 393c-99 0 -161 -223 -161 -310c0 -48 16 -76 49 -76c56 0 118 83 147 181l63 212h139l-5 -16h-64l-168 -569h64l-5 -15h-210l4 15h72l72 244c-40 -50 -77 -71 -124 -71c-71 0 -111 57 -111 136c0 158 137 288 244 288z" />
    <glyph glyph-name="uni03E6" unicode="&#x3e6;" horiz-adv-x="553" 
d="M175 -198l319 539c10 15 21 42 21 70c0 35 -16 65 -55 65h-1c-114 0 -226 -207 -246 -273l-56 -188h68l-5 -15h-212l5 15h65l207 700h-76l5 15h155l-119 -400c34 52 118 170 241 170c73 0 112 -35 112 -84c0 -32 -16 -59 -29 -80l-318 -534h-81z" />
    <glyph glyph-name="uni03E7" unicode="&#x3e7;" horiz-adv-x="452" 
d="M234 377c-25 0 -75 -29 -75 -75c0 -33 26 -64 66 -64c24 0 49 3 95 23c-10 29 -36 116 -86 116zM428 150c0 -92 -68 -162 -148 -162c-74 0 -116 73 -149 75c-28 0 -82 -45 -99 -69c5 18 52 108 120 108c63 0 95 -94 137 -94h1c37 0 74 67 74 101c0 42 -26 117 -26 117
c-56 -22 -85 -26 -116 -26c-55 0 -89 46 -89 93c0 54 54 120 135 120c78 0 86 -51 122 -116c57 27 93 62 109 113c1 1 2 1 3 1c2 0 6 -1 9 -1c2 0 2 0 3 1c-23 -63 -65 -120 -110 -149c13 -37 24 -73 24 -112z" />
    <glyph glyph-name="uni03E8" unicode="&#x3e8;" horiz-adv-x="499" 
d="M210 485c0 89 105 219 238 219c84 0 134 -51 134 -127c0 -18 -3 -38 -9 -59v-2c-42 -141 -171 -213 -383 -442c-59 -66 -69 -115 -69 -144c0 -88 95 -127 117 -130c-47 4 -171 42 -171 147c0 58 39 121 82 171c219 244 295 256 340 402c0 1 1 3 1 4c8 26 11 50 11 72
c0 58 -26 97 -71 97c-87 0 -144 -109 -144 -139c0 -31 36 -32 36 -61c0 -24 -24 -61 -67 -61c-29 0 -45 20 -45 53z" />
    <glyph glyph-name="uni03E9" unicode="&#x3e9;" horiz-adv-x="485" 
d="M483 287c0 -231 -331 -267 -331 -397c0 -33 23 -59 57 -59c23 0 52 12 84 43c-42 -52 -88 -73 -126 -73c-49 0 -86 34 -86 82c0 9 1 19 4 29c40 134 259 151 307 313c9 31 14 60 14 86c0 54 -22 90 -69 90c-84 0 -140 -109 -140 -139c0 -31 34 -32 34 -61
c0 -27 -26 -61 -65 -61c-27 0 -43 20 -43 53c0 87 102 219 232 219c80 0 128 -50 128 -125z" />
    <glyph glyph-name="uni03EA" unicode="&#x3ea;" horiz-adv-x="578" 
d="M349 24c31 1 63 12 63 59c0 5 0 9 -1 14l-47 225l-241 -298h226zM430 699c-15 0 -44 -1 -44 -41c0 -4 1 -8 2 -12l38 -215l205 267h-97l7 24h221l-6 -23h-15c-41 0 -78 -19 -142 -100l-156 -197l72 -378h73l-7 -24h-573l7 24h5c40 0 78 27 127 87l198 241l-81 346h-49
l7 24h247l-6 -23h-33z" />
    <glyph glyph-name="uni03EB" unicode="&#x3eb;" horiz-adv-x="415" 
d="M227 15c32 0 47 13 47 42c0 6 -1 11 -3 17l-26 84l-150 -143h132zM314 389h-12c-8 0 -41 -1 -41 -48c0 -3 0 -6 1 -8l28 -95l141 147h-86l5 15h162l-5 -15h-9c-19 0 -39 -9 -65 -36l-131 -139l69 -195h44l-4 -15h-400l3 9h4c22 0 50 19 83 50l130 125l-68 201h-34l5 15
h184z" />
    <glyph glyph-name="uni03EC" unicode="&#x3ec;" horiz-adv-x="574" 
d="M374 23c34 0 43 40 43 63c0 3 0 6 -1 9l-46 286l-250 -357h116l-7 -24h-230l7 23h9c64 0 112 74 141 116l200 281l82 278h-90l7 24h276l-8 -24h-91l-78 -265l74 -409h55l-7 -24h-257l7 23h48z" />
    <glyph glyph-name="uni03ED" unicode="&#x3ed;" horiz-adv-x="414" 
d="M450 273c0 -140 -126 -285 -244 -285c-68 0 -117 31 -117 125c0 57 23 140 26 146c68 231 170 359 207 403l54 60h149c42 1 78 44 101 72l9 -8l-85 -124h-188c-77 -98 -128 -222 -151 -295c38 28 81 45 122 45c72 0 117 -58 117 -139zM209 -2c102 0 170 246 170 330
c0 49 -17 74 -49 74c-59 0 -108 -68 -148 -202c-16 -53 -23 -96 -23 -128c0 -49 17 -74 50 -74z" />
    <glyph glyph-name="uni03EE" unicode="&#x3ee;" horiz-adv-x="360" 
d="M252 400l88 298h-84l7 24h263l-7 -24h-85l-88 -298h115l-14 -48h-115l-97 -328h84l-7 -24h-263l7 24h85l97 328h-116l15 48h115z" />
    <glyph glyph-name="uni03EF" unicode="&#x3ef;" horiz-adv-x="349" 
d="M277 715l4 15h147l-98 -330h120l-14 -48h-120l-104 -352h-75l104 352h-119l15 48h118l94 315h-72z" />
    <glyph glyph-name="uni03F0" unicode="&#x3f0;" horiz-adv-x="476" 
d="M113 61l61 209c1 4 3 7 4 11l4 15c5 17 13 49 15 58c0 6 -7 13 -15 13c-9 0 -27 -10 -41 -26l-38 -44l-13 10c55 76 91 103 136 103c33 0 45 -19 45 -49c0 -20 -5 -44 -13 -70l-42 -143l302 252h47l-88 -73l-55 -185c-1 -4 -3 -7 -4 -11l-8 -27c-5 -17 -12 -49 -14 -58
c0 -6 7 -13 15 -13c9 0 26 10 40 26l38 44l13 -10c-55 -76 -90 -103 -135 -103c-33 0 -45 19 -45 49c0 20 5 44 13 70l39 131l-305 -254h-47z" />
    <glyph glyph-name="uni03F1" unicode="&#x3f1;" horiz-adv-x="414" 
d="M128 16c-2 -9 -26 -29 -26 -97c0 -54 24 -94 68 -94c40 0 76 26 119 93l32 -5c-58 -81 -106 -113 -176 -113c-81 0 -111 83 -111 138c0 45 31 101 54 128c-2 11 -3 25 -3 40c0 184 140 306 248 306c72 0 117 -58 117 -139c0 -141 -128 -285 -245 -285
c-31 0 -57 10 -77 28zM209 -2c102 0 170 246 170 330c0 49 -17 74 -49 74c-59 0 -108 -68 -148 -202c-16 -53 -23 -96 -23 -128c0 -49 17 -74 50 -74z" />
    <glyph glyph-name="uni03F2" unicode="&#x3f2;" horiz-adv-x="366" 
d="M330 298c0 32 39 38 39 74c0 18 -13 30 -31 30c-95 0 -172 -205 -172 -306c0 -53 20 -83 59 -83c40 0 76 26 119 93l33 -5c-58 -81 -107 -113 -177 -113c-75 0 -117 48 -117 125c0 131 113 299 253 299c61 0 98 -31 98 -72s-31 -70 -65 -70c-24 0 -39 11 -39 28z" />
    <glyph glyph-name="uni03F3" unicode="&#x3f3;" horiz-adv-x="225" 
d="M-28 -191c44 0 96 78 124 173l93 315c5 17 13 49 15 58c0 6 -7 13 -15 13c-9 0 -26 -9 -39 -24l-40 -45l-12 9c55 75 89 102 133 102c32 0 44 -19 44 -49c0 -20 -5 -43 -13 -70l-79 -267c-29 -98 -79 -224 -213 -224zM257 534c0 28 27 64 59 64c18 0 30 -14 30 -34
c0 -33 -31 -63 -58 -63c-19 0 -31 13 -31 33z" />
    <glyph glyph-name="uni03F4" unicode="&#x3f4;" horiz-adv-x="605" 
d="M561 321h-327c-14 -53 -30 -123 -30 -184c0 -75 23 -136 99 -136c140 0 220 202 258 320zM576 369c15 53 39 142 39 218c0 74 -23 134 -97 134c-153 0 -237 -243 -270 -352h328zM113 213c0 222 185 524 411 524c115 0 182 -92 182 -228c0 -239 -198 -524 -408 -524
c-117 0 -185 92 -185 228z" />
    <glyph glyph-name="uni03F5" unicode="&#x3f5;" horiz-adv-x="366" 
d="M330 298c0 32 39 38 39 74c0 18 -13 30 -31 30c-57 0 -116 -76 -152 -192h137l-5 -15h-137c-11 -38 -16 -71 -16 -98c0 -53 20 -84 60 -84s76 26 119 93l33 -5c-58 -81 -107 -113 -177 -113c-75 0 -117 48 -117 125c0 131 113 299 253 299c61 0 98 -31 98 -72
s-31 -70 -65 -70c-24 0 -39 11 -39 28z" />
    <glyph glyph-name="uni03F6" unicode="&#x3f6;" horiz-adv-x="379" 
d="M242 319c0 -30 -30 -49 -62 -49c-24 0 -39 13 -39 33c0 47 68 109 159 109c81 0 129 -55 129 -138c0 -122 -98 -286 -245 -286c-73 0 -104 32 -115 113l37 5c4 -67 25 -93 67 -93c62 0 120 70 155 182h-141l5 15h141c11 40 17 75 17 104c0 55 -20 88 -59 88
c-26 0 -57 -26 -57 -55c0 -12 8 -16 8 -28z" />
    <glyph glyph-name="uni03F7" unicode="&#x3f7;" horiz-adv-x="519" 
d="M408 567c173 0 217 -70 217 -137c0 -17 -3 -34 -8 -50c-23 -78 -98 -196 -330 -196h-42l-29 -98c-5 -18 -8 -31 -8 -40c0 -20 15 -23 56 -23h19l-7 -23h-265l7 23h18c60 0 70 6 87 64l163 550c5 17 8 29 8 38c0 21 -15 24 -57 24h-19l7 23h265l-7 -23h-19
c-60 0 -69 -7 -85 -62l-21 -70h50zM515 382c10 34 14 61 14 82c0 82 -62 86 -121 86h-17c-35 0 -39 -5 -58 -70l-82 -277h33c135 0 191 43 231 179z" />
    <glyph glyph-name="uni03F8" unicode="&#x3f8;" horiz-adv-x="420" 
d="M454 274c0 -138 -123 -286 -230 -286c-45 0 -69 20 -79 67l-71 -240h67l-4 -15h-202l5 15h59l266 899h-59l5 16h134l-116 -390c41 49 78 70 124 70c65 0 101 -61 101 -136zM218 7c81 0 160 206 160 311c0 44 -13 73 -43 73c-81 0 -165 -187 -165 -302
c0 -49 16 -82 48 -82z" />
    <glyph glyph-name="uni03F9" unicode="&#x3f9;" 
d="M110 203c0 236 203 534 407 534c58 0 112 -11 145 -83l22 76h34l-70 -274h-38c2 23 4 51 4 82c0 86 -16 183 -103 183c-153 0 -243 -285 -268 -371c-27 -91 -40 -163 -40 -218c0 -88 34 -131 104 -131c111 0 190 137 235 236h40l-80 -237h-36l17 55
c-53 -46 -124 -70 -190 -70c-116 0 -183 86 -183 218z" />
    <glyph glyph-name="uni03FC" unicode="&#x3fc;" horiz-adv-x="456" 
d="M249 7c94 0 167 226 167 314c0 46 -17 72 -50 72c-57 0 -171 -163 -171 -299c0 -52 18 -87 54 -87zM493 283c0 -132 -120 -295 -240 -295c-47 0 -72 21 -82 71l-37 -124h72l-4 -15h-72l-32 -105h72l-4 -15h-211l5 15h64l31 105h-63l4 15h63l80 271
c50 166 154 206 244 206c69 0 110 -53 110 -129z" />
    <glyph glyph-name="uni03FD" unicode="&#x3fd;" 
d="M639 499c0 -243 -191 -514 -399 -514c-66 0 -123 24 -148 70l-16 -55h-36l60 237h40c-4 -27 -7 -57 -7 -86c0 -77 21 -150 102 -150c113 0 202 113 272 349c13 46 43 151 43 237c0 74 -22 134 -92 134c-117 0 -211 -178 -256 -265h-38l93 274h33l-23 -76
c75 72 136 83 194 83c129 0 178 -114 178 -238z" />
    <glyph glyph-name="uni03FE" unicode="&#x3fe;" 
d="M351 341c0 42 42 81 77 81c24 0 39 -18 39 -42c0 -39 -36 -83 -76 -83c-24 0 -40 18 -40 44zM110 203c0 236 203 534 407 534c58 0 112 -11 145 -83l22 76h34l-70 -274h-38c2 23 4 51 4 82c0 86 -16 183 -103 183c-153 0 -243 -285 -268 -371c-27 -91 -40 -163 -40 -218
c0 -88 34 -131 104 -131c111 0 190 137 235 236h40l-80 -237h-36l17 55c-53 -46 -124 -70 -190 -70c-116 0 -183 86 -183 218z" />
    <glyph glyph-name="uni03FF" unicode="&#x3ff;" 
d="M284 341c0 42 43 81 78 81c24 0 38 -18 38 -42c0 -42 -40 -83 -76 -83c-24 0 -40 18 -40 44zM639 499c0 -243 -191 -514 -399 -514c-66 0 -123 24 -148 70l-16 -55h-36l60 237h40c-4 -27 -7 -57 -7 -86c0 -77 21 -150 102 -150c113 0 202 113 272 349
c13 46 43 151 43 237c0 74 -22 134 -92 134c-117 0 -211 -178 -256 -265h-38l93 274h33l-23 -76c75 72 136 83 194 83c129 0 178 -114 178 -238z" />
    <glyph glyph-name="uni0400" unicode="&#x400;" horiz-adv-x="589" 
d="M336 24c126 0 184 59 262 228h42l-92 -252h-525l7 24h91l200 674h-91l7 24h515l-60 -240h-41c7 40 10 73 10 100c0 107 -51 116 -144 116h-44c-43 0 -54 -7 -71 -63l-78 -262h136l38 127h44l-84 -285h-44l41 138h-136l-79 -266c-3 -13 -5 -23 -5 -32c0 -22 14 -31 45 -31
h56zM566 797h-39l-126 73c-10 6 -22 20 -22 30c0 13 14 23 32 23h4c11 0 17 -1 40 -21z" />
    </font>
</defs>
</svg>
