<?xml version="1.0" standalone="no"?>
<!DOCTYPE svg PUBLIC "-//W3C//DTD SVG 1.1//EN" "http://www.w3.org/Graphics/SVG/1.1/DTD/svg11.dtd" >
<svg>
<metadata>
Created by FontForge 20090914 at Fri Feb 24 12:14:03 2012
 By root
Grandesign Neue Roman &#194;&#169; rda_dsgn. 2007. All Rights Reserved
</metadata>
<defs>
<font id="GrandesignNeueRoman-Bold" horiz-adv-x="1136" >
  <font-face 
    font-family="Grandesign Neue Roman"
    font-weight="700"
    font-stretch="normal"
    units-per-em="2048"
    panose-1="2 0 8 0 0 0 0 0 0 0"
    ascent="1638"
    descent="-410"
    x-height="1001"
    cap-height="1380"
    bbox="-81 -512 2155 1854"
    underline-thickness="150"
    underline-position="-142"
    unicode-range="U+0020-U+F002"
  />
<missing-glyph horiz-adv-x="1024" 
d="M128 0v1854h768v-1854h-768zM256 128h512v1598h-512v-1598z" />
    <glyph glyph-name=".notdef" horiz-adv-x="1024" 
d="M128 0v1854h768v-1854h-768zM256 128h512v1598h-512v-1598z" />
    <glyph glyph-name=".null" horiz-adv-x="0" 
 />
    <glyph glyph-name="nonmarkingreturn" horiz-adv-x="413" 
 />
    <glyph glyph-name="space" unicode=" " horiz-adv-x="413" 
 />
    <glyph glyph-name="space" unicode="&#xa0;" horiz-adv-x="413" 
 />
    <glyph glyph-name="exclam" unicode="!" horiz-adv-x="548" 
d="M391 453h-235l-46 925h326zM274 -23h-2q-81 0 -131.5 52.5t-50.5 134.5t51 134t133 52q81 0 132 -52.5t51 -133.5q0 -83 -50.5 -135t-132.5 -52z" />
    <glyph glyph-name="quotedbl" unicode="&#x22;" horiz-adv-x="813" 
d="M71 1417h276l-47 -555h-182zM464 1417h277l-47 -555h-183z" />
    <glyph glyph-name="numbersign" unicode="#" horiz-adv-x="1126" 
d="M456 555h186l33 229h-186zM372 0h-184l53 367h-166v188h199l32 229h-174v191h203l51 356h183l-52 -356h187l53 356h182l-53 -356h164v-191h-193l-32 -229h170v-188h-201l-51 -367h-185l52 367h-187z" />
    <glyph glyph-name="dollar" unicode="$" 
d="M661 -178h-201v194q-209 9 -348 88l61 240q168 -90 340 -90q197 0 197 127q0 105 -217 178q-369 124 -369 375q0 148 102 246q92 90 244 118v195h201v-180q168 -6 297 -68l-59 -231q-158 69 -295 69q-176 0 -176 -114q0 -88 245 -176q164 -59 242 -134q100 -97 100 -249
q0 -153 -108 -257q-99 -95 -256 -122v-209z" />
    <glyph glyph-name="percent" unicode="%" horiz-adv-x="1802" 
d="M428 1354h2q170 0 266 -115q90 -108 90 -281q0 -177 -94 -296q-103 -130 -275 -130q-166 0 -267 121q-95 113 -95 283q0 176 97 293q103 125 276 125zM424 1184h-2q-132 0 -134 -242q-1 -88 26 -152q36 -88 112 -88q131 0 131 242q0 240 -133 240zM600 -23h-168l766 1375
h166zM1386 801h2q169 0 266 -115q91 -108 91 -280q0 -202 -111 -318q-101 -106 -258 -106q-167 0 -268 119q-95 111 -95 282q0 177 96 294q103 124 277 124zM1384 631h-2q-132 0 -133 -240q-1 -239 135 -239q131 0 131 239q0 240 -131 240z" />
    <glyph glyph-name="ampersand" unicode="&#x26;" horiz-adv-x="1388" 
d="M1376 0h-363l-90 98q-153 -121 -379 -121q-236 0 -366 123q-115 108 -115 269q0 260 262 395v8q-104 117 -104 266q0 145 102 248q116 117 311 117q157 0 261 -82q114 -89 114 -242q0 -217 -272 -354l-2 -8l231 -258q84 131 117 336h278q-59 -336 -229 -525zM587 203h2
q115 0 189 69q-78 76 -312 338q-108 -78 -108 -190q0 -96 66 -156.5t163 -60.5zM626 1208h-2q-56 0 -91 -44q-32 -40 -32 -97q0 -96 94 -199q152 103 152 203q0 52 -31 92q-35 45 -90 45z" />
    <glyph glyph-name="quotesingle" unicode="'" horiz-adv-x="419" 
d="M71 1417h276l-47 -555h-182z" />
    <glyph glyph-name="parenleft" unicode="(" horiz-adv-x="643" 
d="M356 1415h217q-207 -338 -207 -829q0 -477 207 -824h-217q-235 340 -234 826q0 487 234 827z" />
    <glyph glyph-name="parenright" unicode=")" horiz-adv-x="643" 
d="M288 -238h-217q207 342 207 828q0 483 -207 825h217q234 -338 234 -825q0 -484 -234 -828z" />
    <glyph glyph-name="asterisk" unicode="*" horiz-adv-x="929" 
d="M581 1403l180 -103l-221 -260l2 -6l326 66v-207l-328 55l-2 -4l223 -254l-182 -104l-117 315h-4l-118 -315l-177 104l220 260l-322 -57v207l317 -64l2 4l-217 260l183 103l114 -313h4z" />
    <glyph glyph-name="plus" unicode="+" horiz-adv-x="1220" 
d="M509 1090h201v-447h428v-192h-428v-451h-201v451h-428v192h428v447z" />
    <glyph glyph-name="comma" unicode="," horiz-adv-x="532" 
d="M211 -225l-207 -19q102 291 147 582l318 20q-111 -346 -258 -583z" />
    <glyph glyph-name="hyphen" unicode="-" horiz-adv-x="659" 
d="M61 641h537v-207h-537v207z" />
    <glyph glyph-name="hyphen" unicode="&#xad;" horiz-adv-x="659" 
d="M61 641h537v-207h-537v207z" />
    <glyph glyph-name="period" unicode="." horiz-adv-x="532" 
d="M284 -23h-2q-80 0 -130 54t-50 135q0 84 50.5 137t133.5 53t133 -53t50 -137t-51 -136.5t-134 -52.5z" />
    <glyph glyph-name="slash" unicode="/" horiz-adv-x="677" 
d="M239 -82h-207l438 1485h207z" />
    <glyph glyph-name="zero" unicode="0" 
d="M569 1024q213 0 359 -156q143 -152 143 -366t-143 -368q-147 -157 -359 -157q-214 0 -360 157q-144 153 -144 368t145 368.5t359 153.5zM567 788q-91 0 -145 -102q-44 -84 -44 -184q0 -101 44 -185q53 -104 145 -104q93 0 147 103q43 84 43 186q0 101 -44 184
q-53 102 -146 102z" />
    <glyph glyph-name="one" unicode="1" 
d="M483 0v725h-4l-254 -121l-51 234l352 166h258v-1004h-301z" />
    <glyph glyph-name="two" unicode="2" 
d="M1032 0h-946v188l334 218q270 179 270 233q0 139 -196 139q-146 0 -279 -80l-63 226q157 100 411 100q176 0 299 -76q146 -90 146 -256t-115 -274q-63 -59 -254 -162h393v-256z" />
    <glyph glyph-name="three" unicode="3" 
d="M77 -258l63 233q152 -79 310 -79q98 0 163 38q80 47 80 138q0 99 -89 150q-73 42 -179 42h-127v223h121q88 0 154 33q84 41 84 121q0 139 -197 139q-145 0 -279 -80l-63 224q158 100 412 100q177 0 298 -76q144 -89 144 -256q0 -223 -244 -307v-4q127 -23 206 -110
q83 -90 83 -216q0 -204 -178 -314q-151 -93 -367 -93q-248 0 -395 94z" />
    <glyph glyph-name="four" unicode="4" 
d="M932 -330h-295v320h-590v200l504 814h381v-781h159v-233h-159v-320zM338 223h299v293q0 84 10 248l-8 2q-30 -71 -123 -248z" />
    <glyph glyph-name="five" unicode="5" 
d="M975 1004v-259h-516l-29 -200q37 4 86 4q213 0 350 -96q162 -113 162 -336q0 -221 -180 -352q-161 -117 -391 -117q-224 0 -371 76l55 235q135 -68 301 -68q107 0 181 48q86 56 86 157q0 221 -375 221q-86 0 -180 -12l88 699h733z" />
    <glyph glyph-name="six" unicode="6" 
d="M935 1350v-240q-48 2 -120 -4q-369 -31 -435 -320h7q106 107 282 107q187 0 301 -125q111 -120 111 -309q0 -209 -141 -345.5t-351 -136.5q-251 0 -394 168q-134 159 -134 414q0 375 236 592q194 178 514 197q72 4 124 2zM585 207h2q88 0 137 76q42 66 42 159
q0 96 -50 160q-55 70 -149 70q-129 0 -184 -119q-15 -32 -13 -78q4 -112 52 -183q58 -85 163 -85z" />
    <glyph glyph-name="seven" unicode="7" 
d="M100 1004h940v-197l-549 -1137h-330l549 1075h-610v259z" />
    <glyph glyph-name="eight" unicode="8" 
d="M577 1354h2q217 0 338 -111q102 -94 102 -231q0 -197 -192 -293v-6q244 -95 244 -332q0 -199 -162 -309q-142 -95 -350 -95q-194 0 -332 86q-162 102 -162 285q0 230 238 334v6q-193 98 -193 291q0 180 148 284q131 91 319 91zM571 193h2q77 0 129.5 44.5t52.5 120.5
q0 162 -209 220q-160 -46 -162 -199q-1 -79 53.5 -132.5t133.5 -53.5zM571 1143h-2q-72 0 -117 -41.5t-45 -112.5q0 -123 188 -180q59 16 97.5 63t38.5 107q0 75 -42.5 119.5t-117.5 44.5z" />
    <glyph glyph-name="nine" unicode="9" 
d="M184 -346v242q46 -5 135 0q157 10 262 81q130 88 168 248l-6 2q-94 -96 -268 -96q-181 0 -297.5 116.5t-116.5 297.5q0 207 149 345q145 134 353 134q244 0 379 -167q125 -154 125 -404q0 -363 -189 -571q-193 -212 -553 -228q-87 -4 -141 0zM555 797h-2q-89 0 -139 -74
q-43 -65 -42 -158q1 -92 48 -150q51 -63 141 -63q139 0 178 99q10 24 10 65q1 117 -45 195q-51 86 -149 86z" />
    <glyph glyph-name="colon" unicode=":" horiz-adv-x="532" 
d="M284 639h-2q-79 0 -129.5 53t-50.5 133q0 83 51 136t133 53q81 0 131.5 -53.5t51.5 -135.5q1 -81 -51.5 -133.5t-133.5 -52.5zM282 -23h-2q-79 0 -129.5 53.5t-50.5 133.5q0 83 51 135.5t133 52.5q81 0 131.5 -53t51.5 -135t-51 -134.5t-134 -52.5z" />
    <glyph glyph-name="semicolon" unicode=";" horiz-adv-x="532" 
d="M209 -225l-205 -19q102 291 150 582l313 20q-111 -346 -258 -583zM297 639h-2q-80 0 -130 52.5t-50 133.5q0 82 50.5 135.5t131.5 53.5q83 0 132.5 -52.5t49.5 -136.5q0 -82 -50.5 -134t-131.5 -52z" />
    <glyph glyph-name="semicolon" unicode="&#x37e;" horiz-adv-x="532" 
d="M209 -225l-205 -19q102 291 150 582l313 20q-111 -346 -258 -583zM297 639h-2q-80 0 -130 52.5t-50 133.5q0 82 50.5 135.5t131.5 53.5q83 0 132.5 -52.5t49.5 -136.5q0 -82 -50.5 -134t-131.5 -52z" />
    <glyph glyph-name="less" unicode="&#x3c;" horiz-adv-x="1220" 
d="M118 457v176l983 457v-218l-743 -325v-4l743 -326v-217z" />
    <glyph glyph-name="equal" unicode="=" horiz-adv-x="1220" 
d="M1138 666h-1057v190h1057v-190zM1138 242h-1057v190h1057v-190z" />
    <glyph glyph-name="greater" unicode="&#x3e;" horiz-adv-x="1220" 
d="M1101 639v-188l-983 -451v217l760 326v4l-760 325v218z" />
    <glyph glyph-name="question" unicode="?" horiz-adv-x="911" 
d="M555 449h-273l-2 53q-6 168 121 319q119 142 119 215q0 122 -150 123q-111 1 -202 -61l-70 223q143 84 342 84q168 0 273 -75q120 -85 120 -245q0 -104 -57 -198q-28 -47 -117 -146q-104 -116 -104 -256v-36zM411 -23h-2q-81 0 -130.5 52.5t-49.5 134.5t50.5 134
t131.5 52q82 0 133 -52t52 -134t-51 -134.5t-134 -52.5z" />
    <glyph glyph-name="at" unicode="@" horiz-adv-x="1576" 
d="M907 702l28 195q-30 8 -63 8q-108 0 -178 -94q-64 -86 -64 -197q0 -127 103 -127q57 0 109.5 65.5t64.5 149.5zM1081 168l37 -117q-164 -74 -375 -74q-267 0 -449 173q-190 181 -190 473q0 333 217 556.5t549 223.5q266 0 440 -162q178 -166 178 -430q0 -198 -93 -333
q-107 -154 -296 -154q-159 0 -176 157h-4q-98 -157 -264 -157q-111 0 -173 80q-56 72 -56 186q0 205 136.5 341t342.5 136q153 0 243 -51l-61 -379q-8 -50 -8 -86q0 -90 59 -92q75 -2 133 84q66 99 66 262q0 205 -127 336q-133 137 -363 137q-262 0 -428 -189
q-159 -181 -159 -448q0 -245 140.5 -391t383.5 -146q170 0 297 64z" />
    <glyph glyph-name="A" unicode="A" horiz-adv-x="1343" 
d="M851 354h-395l-98 -354h-324l422 1380h409l429 -1380h-336zM501 588h305l-86 293l-70 266h-4q-16 -76 -63 -266z" />
    <glyph glyph-name="B" unicode="B" horiz-adv-x="1236" 
d="M135 6v1356q154 29 403 29q266 0 408 -78q166 -91 166 -271q0 -211 -227 -294v-5q126 -33 199 -121q75 -91 75 -219q0 -178 -143 -292q-157 -125 -543 -125q-199 0 -338 20zM444 1155v-321h103q252 0 252 170q0 159 -222 159q-86 0 -133 -8zM444 610v-389q35 -4 121 -4
q266 0 266 199q0 194 -280 194h-107z" />
    <glyph glyph-name="C" unicode="C" horiz-adv-x="1218" 
d="M1101 283l47 -244q-121 -62 -354 -62q-348 0 -541 199q-182 187 -182 494q0 334 211 534q208 197 543 197q227 0 340 -60l-64 -247q-119 51 -262 51q-208 0 -324 -123.5t-116 -333.5t116.5 -330t325.5 -120q154 0 260 45z" />
    <glyph glyph-name="D" unicode="D" horiz-adv-x="1425" 
d="M135 6v1356q184 29 422 29q373 0 565 -144q234 -176 234 -524q0 -737 -867 -737q-207 0 -354 20zM448 1139v-903q23 -6 109 -7q220 -1 340 117q127 125 127 367q0 212 -111.5 325t-322.5 113q-88 0 -142 -12z" />
    <glyph glyph-name="E" unicode="E" horiz-adv-x="1093" 
d="M956 838v-254h-508v-328h568v-256h-881v1380h852v-256h-539v-286h508z" />
    <glyph glyph-name="F" unicode="F" horiz-adv-x="1079" 
d="M135 0v1380h844v-256h-531v-315h496v-254h-496v-555h-313z" />
    <glyph glyph-name="G" unicode="G" horiz-adv-x="1396" 
d="M1288 791v-728q-226 -77 -461 -77q-345 0 -544 169q-212 180 -212 519q0 340 228 536q215 185 561 185q243 0 383 -68l-66 -250q-135 60 -322 60q-211 0 -332 -117q-124 -120 -124 -330q0 -204 115.5 -328t318.5 -124q110 0 154 20v289h-213v244h514z" />
    <glyph glyph-name="H" unicode="H" horiz-adv-x="1411" 
d="M135 1380h313v-532h514v532h312v-1380h-312v575h-514v-575h-313v1380z" />
    <glyph glyph-name="I" unicode="I" horiz-adv-x="583" 
d="M135 1380h313v-1380h-313v1380z" />
    <glyph glyph-name="J" unicode="J" horiz-adv-x="841" 
d="M406 512v868h311v-872q0 -531 -492 -531q-133 0 -227 33l35 252q78 -24 160 -24q122 0 173 78q40 64 40 196z" />
    <glyph glyph-name="K" unicode="K" horiz-adv-x="1257" 
d="M135 0v1380h309v-610h6q50 87 95 152l313 458h383l-457 -587l481 -793h-364l-338 596l-119 -145v-451h-309z" />
    <glyph glyph-name="L" unicode="L" horiz-adv-x="1046" 
d="M135 0v1380h313v-1118h549v-262h-862z" />
    <glyph glyph-name="M" unicode="M" horiz-adv-x="1732" 
d="M1323 0l-21 528q-12 302 -12 568h-6q-59 -231 -154 -535l-168 -538h-244l-147 534q-77 281 -125 539h-4l-25 -572l-24 -524h-289l88 1380h416l135 -460q64 -219 117 -494h6q85 351 131 496l147 458h408l76 -1380h-305z" />
    <glyph glyph-name="N" unicode="N" horiz-adv-x="1413" 
d="M422 0h-287v1380h365l286 -506q121 -214 226 -473h6q-27 252 -27 576v403h287v-1380h-328l-295 532q-144 259 -239 488l-7 -2q13 -258 13 -602v-416z" />
    <glyph glyph-name="O" unicode="O" horiz-adv-x="1468" 
d="M722 -23h-2q-298 0 -477 205q-172 197 -172 498q0 311 178 513q187 210 494 210q303 0 485 -207q170 -194 170 -491q0 -323 -174 -521q-183 -207 -502 -207zM733 225h2q170 0 259 157q72 128 72 312q0 180 -75 307q-90 154 -258 154q-170 0 -260 -156q-74 -128 -74 -311
q0 -181 75 -309q90 -154 259 -154z" />
    <glyph glyph-name="P" unicode="P" horiz-adv-x="1189" 
d="M135 0v1362q174 29 422 29q246 0 391 -90q178 -110 178 -340q0 -209 -127 -328q-155 -146 -448 -146q-60 0 -107 7v-494h-309zM444 1145v-410q37 -8 105 -8q116 0 188 53q80 60 80 172q0 203 -244 203q-84 0 -129 -10z" />
    <glyph glyph-name="Q" unicode="Q" horiz-adv-x="1468" 
d="M1404 4l-90 -242q-230 66 -545 195q-39 16 -96 20q-253 18 -418 189q-184 191 -184 512q0 313 178 515q187 210 496 210q300 0 480 -200q173 -193 173 -496q0 -198 -76 -359q-88 -185 -252 -258v-8q115 -33 334 -78zM735 225h2q170 0 259 158q72 128 72 311
q0 178 -75 306q-90 155 -256 155q-169 0 -261 -156q-75 -129 -75 -311t74 -309q90 -154 260 -154z" />
    <glyph glyph-name="R" unicode="R" horiz-adv-x="1214" 
d="M135 0v1362q176 29 416 29q573 0 573 -398q0 -115 -67.5 -208.5t-176.5 -131.5v-6q131 -54 185 -257t112 -390h-319q-39 72 -96 322q-26 116 -66 162q-51 59 -158 59h-94v-543h-309zM444 1149v-381h123q104 0 171 46q77 54 77 153q0 191 -229 192q-99 1 -142 -10z" />
    <glyph glyph-name="S" unicode="S" horiz-adv-x="1105" 
d="M81 63l63 259q162 -86 347 -86q219 0 219 149q0 76 -83 129q-45 29 -149 66q-379 133 -379 407q0 203 166 316q145 98 357 98q202 0 352 -68l-70 -252q-137 66 -288 66q-77 0 -132 -28q-69 -35 -69 -105q0 -62 61 -105q51 -36 195 -90q358 -134 358 -411
q0 -185 -137 -302q-151 -129 -420 -129q-237 0 -391 86z" />
    <glyph glyph-name="T" unicode="T" horiz-adv-x="1122" 
d="M401 0v1118h-371v262h1061v-262h-377v-1118h-313z" />
    <glyph glyph-name="U" unicode="U" horiz-adv-x="1396" 
d="M133 1380h313v-794q0 -359 250 -359q254 0 254 359v794h311v-774q0 -315 -151 -475q-146 -154 -424 -154q-553 0 -553 633v770z" />
    <glyph glyph-name="V" unicode="V" horiz-adv-x="1302" 
d="M825 0h-365l-442 1380h342l168 -583q82 -285 123 -494h6q43 215 125 488l176 589h332z" />
    <glyph glyph-name="W" unicode="W" horiz-adv-x="1818" 
d="M700 0h-342l-328 1380h334l104 -569q45 -245 82 -481h4q28 186 90 485l117 565h332l111 -581q38 -196 73 -463h4q36 260 80 479l113 565h317l-356 -1380h-338l-117 594q-42 213 -65 426h-4q-34 -219 -80 -426z" />
    <glyph glyph-name="X" unicode="X" horiz-adv-x="1255" 
d="M1222 0h-361l-247 498h-4q-31 -83 -107 -248l-115 -250h-356l399 698l-385 682h359l121 -252q57 -118 104 -229h4q57 148 94 229l117 252h356l-389 -673z" />
    <glyph glyph-name="Y" unicode="Y" horiz-adv-x="1234" 
d="M766 0h-312v565l-436 815h356l142 -331q37 -86 106 -265h4q40 110 105 265l139 331h350l-454 -805v-575z" />
    <glyph glyph-name="Z" unicode="Z" horiz-adv-x="1181" 
d="M47 0v168l657 954h-596v258h1002v-180l-643 -942h653v-258h-1073z" />
    <glyph glyph-name="bracketleft" unicode="[" horiz-adv-x="643" 
d="M559 -229h-420v1634h420v-172h-195v-1290h195v-172z" />
    <glyph glyph-name="backslash" unicode="\" horiz-adv-x="700" 
d="M667 -82h-207l-436 1485h207z" />
    <glyph glyph-name="bracketright" unicode="]" horiz-adv-x="643" 
d="M86 1405h418v-1634h-418v172h195v1290h-195v172z" />
    <glyph glyph-name="asciicircum" unicode="^" horiz-adv-x="1220" 
d="M1135 362h-224l-299 730h-6l-301 -730h-219l430 969h188z" />
    <glyph glyph-name="underscore" unicode="_" horiz-adv-x="1024" 
d="M0 -154h1024v-102h-1024v102z" />
    <glyph glyph-name="grave" unicode="`" horiz-adv-x="614" 
d="M8 1434h287l176 -312h-211z" />
    <glyph glyph-name="a" unicode="a" horiz-adv-x="1138" 
d="M1138 0h-163v0h-281l-18 100h-7q-100 -123 -286 -123q-147 0 -239 93q-85 88 -85 214q0 191 161 290q152 94 427 94v13q0 130 -183 129q-152 0 -277 -74l-57 199q157 90 389 90q439 0 439 -433v0v-280q0 -79 56 -103q34 -15 124 -15v-194zM656 364v110q-290 2 -290 -158
q0 -120 123 -120q56 0 101 33t60 82q6 19 6 53z" />
    <glyph glyph-name="b" unicode="b" horiz-adv-x="1224" 
d="M1142 675q15 -75 15 -150q0 -231 -127 -379q-144 -169 -412 -169q-179 0 -289 73t-136 207q-14 73 -14 184v703q-1 77 -57 101q-33 14 -122 14v194h491v-571h4q91 143 276 143q147 0 251 -108q91 -96 120 -242zM680 785q-81 0 -134 -75q-55 -78 -56 -206l-1 -82
q0 -64 11 -112q26 -110 135 -110q101 0 163 104q55 93 55 222q0 99 -36 170q-47 89 -137 89z" />
    <glyph glyph-name="c" unicode="c" horiz-adv-x="923" 
d="M839 254l37 -229q-100 -48 -279 -48q-241 0 -384 136q-146 139 -146 379q0 248 164 393q157 139 409 139q134 0 238 -39l-49 -231q-72 30 -174 30q-124 0 -196.5 -77.5t-72.5 -202.5q0 -127 74.5 -204t200.5 -77q98 0 178 31z" />
    <glyph glyph-name="d" unicode="d" horiz-adv-x="1209" 
d="M1209 0h-448l-13 147h-4q-79 -170 -279 -170q-133 0 -238 98q-111 104 -146 280q-14 71 -14 141q0 226 133 373q141 156 379 156q72 0 139 -25v0v142q0 78 -56 103q-34 14 -123 14v195h491v-1065v-91q4 -69 59 -91q33 -13 120 -13v-194zM718 496v269q-50 35 -117 35
q-107 0 -171 -92q-61 -86 -61 -213q0 -46 9 -91q37 -189 175 -189q69 0 115 69q50 76 50 212z" />
    <glyph glyph-name="e" unicode="e" horiz-adv-x="1081" 
d="M1009 401h-645q6 -98 100 -149q76 -41 183 -41q149 0 276 41l41 -211q-156 -64 -362 -64q-246 0 -388 132q-147 136 -147 380q0 211 123 363q139 172 383 172q226 0 344 -156q102 -134 102 -344q0 -75 -10 -123zM362 614h369q0 73 -35 129q-47 74 -142 74q-83 0 -135 -62
q-48 -56 -57 -141z" />
    <glyph glyph-name="f" unicode="f" horiz-adv-x="698" 
d="M472 0h-313v772h-131v229h131v39q0 218 127 336q109 101 277 101q90 0 165 -21l-12 -239q-47 14 -100 14q-146 0 -146 -178v-52h201v-229h-199v-772z" />
    <glyph glyph-name="g" unicode="g" horiz-adv-x="1132" 
d="M186 -362l24 223q105 -54 275 -54q240 0 246 265l2 86h-4q-87 -150 -259 -150q-148 0 -258 108q-101 100 -131 251q-14 71 -14 133q0 224 137 368q151 158 420 158q203 0 385 -70l6 -827q2 -288 -100 -416q-114 -141 -391 -141q-215 0 -338 66zM722 512v270
q-43 17 -108 17q-116 0 -182 -98q-58 -85 -58 -207q0 -98 39 -170q48 -88 137 -88q90 0 136 99q36 76 36 177z" />
    <glyph glyph-name="h" unicode="h" horiz-adv-x="1256" 
d="M1130 0h-311v550q0 223 -161 223q-113 0 -157 -110q-10 -26 -10 -69v-594h-312v1142q0 78 -56 103q-33 14 -123 14v195h491v-573h4q49 67 122 104q79 40 162 40q158 0 251 -107q100 -116 100 -333v-585z" />
    <glyph glyph-name="i" unicode="i" horiz-adv-x="615" 
d="M510 1299q1 -72 -47 -118q-49 -49 -128 -49h-2q-77 0 -126 49q-47 46 -47 118t48.5 119t126.5 47q79 0 127 -47t48 -119zM491 0h-312v691q0 78 -56 102q-33 15 -123 15v194h491v-1002z" />
    <glyph glyph-name="j" unicode="j" horiz-adv-x="601" 
d="M496 1298q0 -72 -48 -118q-49 -49 -128 -49h-2q-78 0 -126 49q-47 46 -47 118t49 119t127 47t126 -47t49 -119zM477 119q0 -309 -141 -439q-131 -122 -387 -122v0l-30 243q131 11 184 66q62 64 62 327v495q0 78 -56 103q-33 14 -123 14v195h491v-882z" />
    <glyph glyph-name="k" unicode="k" horiz-adv-x="1165" 
d="M1195 0h-383l-242 412l-79 -100v-312h-312v1142q0 78 -56 103q-33 14 -123 14v195h491v-875h4q39 71 72 121l203 302h374l-360 -407z" />
    <glyph glyph-name="l" unicode="l" horiz-adv-x="617" 
d="M491 0h-312v1142q0 78 -56 103q-33 14 -123 14v195h491v-1454z" />
    <glyph glyph-name="m" unicode="m" horiz-adv-x="1815" 
d="M1692 0h-303v545q0 229 -147 229q-106 0 -144 -109q-11 -32 -11 -79v-586h-303v562q0 212 -144 212q-104 0 -146 -112q-12 -31 -12 -79v-583h-303v694q0 76 -56 99q-34 15 -123 15v194h434l13 -135h7q105 158 302 158q204 0 275 -172h4q55 77 130 122q83 50 190 50
q151 0 240 -105q97 -115 97 -330v-590zM179 699z" />
    <glyph glyph-name="n" unicode="n" horiz-adv-x="1256" 
d="M1130 0h-311v556q0 217 -159 217q-79 0 -126 -60q-43 -55 -43 -135v-578h-312v694q0 76 -56 99q-34 15 -123 15v194h441l15 -139h6q101 162 310 162q161 0 256 -105q102 -114 102 -327v-593zM179 699z" />
    <glyph glyph-name="o" unicode="o" horiz-adv-x="1179" 
d="M587 -23h-2q-223 0 -368 138q-150 143 -150 379q0 242 146 386t389 144q229 0 370.5 -141.5t141.5 -370.5q0 -261 -164 -406q-145 -129 -363 -129zM589 201h2q104 0 157 104q42 83 42 197q0 116 -41 197q-53 104 -158 104q-102 0 -157 -96q-48 -84 -48 -205
q0 -117 42 -198q54 -103 161 -103z" />
    <glyph glyph-name="p" unicode="p" horiz-adv-x="1226" 
d="M1143 637q15 -77 15 -152q0 -221 -120 -364q-128 -152 -343 -152q-121 0 -195 42h-4l2 -418h-319l1 1009q0 81 -1 96q-2 72 -58 95q-34 14 -121 14v194h442l14 -140h4q86 155 285 155q156 0 265 -113q101 -103 133 -266zM839 614q-33 163 -162 163q-85 0 -137 -86
q-53 -89 -49 -234l6 -217q61 -47 143 -47q94 0 153 98q55 91 55 222q0 51 -9 101z" />
    <glyph glyph-name="q" unicode="q" horiz-adv-x="1217" 
d="M1217 -406h-491v531h-4q-70 -148 -258 -148q-138 0 -244 104.5t-139 274.5q-14 69 -14 138q0 225 133 368q151 162 430 162q186 0 413 -59l-4 -1082q7 -63 61 -83q33 -12 117 -12v-194zM726 506l-2 271q-45 21 -119 21q-109 0 -174 -97q-60 -89 -60 -218q0 -46 8 -90
q35 -178 161 -178q80 0 133.5 79.5t52.5 211.5z" />
    <glyph glyph-name="r" unicode="r" horiz-adv-x="834" 
d="M795 726q-44 9 -85 9q-180 0 -213 -159q-6 -27 -6 -69v-507h-312v692q0 77 -56 101q-34 15 -123 15v194h438l12 -185h8q36 102 118 159q71 49 152 49q40 0 67 -6v-293zM179 705z" />
    <glyph glyph-name="s" unicode="s" horiz-adv-x="888" 
d="M67 49l55 223q121 -75 269 -75q133 0 133 84q0 47 -53 77q-21 12 -95 37q-284 95 -284 301q0 159 128 249q113 79 279 79t283 -57l-56 -215q-106 57 -217 57q-118 0 -118 -82q0 -60 161 -115q272 -92 273 -309q1 -143 -109 -231q-119 -95 -325 -95q-193 0 -324 72z" />
    <glyph glyph-name="t" unicode="t" horiz-adv-x="751" 
d="M167 1190l305 84v-273h224v-229h-224v-362q0 -177 123 -177q55 0 92 9l2 -236q-73 -29 -202 -29q-320 0 -320 385v410h-133v229h133v189z" />
    <glyph glyph-name="u" unicode="u" horiz-adv-x="1306" 
d="M1306 0h-442l-14 142h-6q-104 -165 -313 -165q-161 0 -252 102q-100 113 -100 334v278q0 78 -56 102q-33 15 -123 15v194h491v-538q0 -235 157 -235q111 0 155 110q12 28 12 66v597h311v-693q0 -76 57 -100q33 -15 123 -15v-194zM1126 309z" />
    <glyph glyph-name="v" unicode="v" horiz-adv-x="1085" 
d="M18 1001h338l135 -464q32 -109 57 -244h7q25 135 55 244l129 464h328l-373 -1001h-311z" />
    <glyph glyph-name="w" unicode="w" horiz-adv-x="1554" 
d="M22 1001h317l80 -409q37 -188 58 -330h4q20 123 73 328l107 411h246l100 -399q47 -186 74 -340h4q20 173 57 342l86 397h303l-305 -1001h-293l-94 352q-32 118 -63 312h-4q-27 -174 -66 -312l-100 -352h-293z" />
    <glyph glyph-name="x" unicode="x" horiz-adv-x="1062" 
d="M14 1001h348l99 -165q5 -8 82 -150h4q53 111 77 154l89 161h337l-329 -477l334 -524h-353l-100 180q-41 74 -78 154h-6q-30 -67 -76 -154l-94 -180h-342l340 512z" />
    <glyph glyph-name="y" unicode="y" horiz-adv-x="1071" 
d="M12 1001h346l150 -491q12 -40 49 -186h6l45 186l123 491h334l-234 -659q-179 -505 -352 -657q-135 -119 -301 -138l-66 265q176 29 265 178q16 27 16 45q0 16 -14 51z" />
    <glyph glyph-name="z" unicode="z" horiz-adv-x="960" 
d="M45 0v178l315 395q52 66 160 179v4h-440v245h819v-186l-301 -379q-85 -107 -164 -184v-4h481v-248h-870z" />
    <glyph glyph-name="braceleft" unicode="{" horiz-adv-x="643" 
d="M61 510v158q156 4 156 139q0 54 -11.5 160.5t-11.5 160.5q0 277 311 277h72v-174h-37q-125 0 -125 -146q0 -44 10.5 -129t10.5 -127q2 -200 -174 -237v-4q176 -37 174 -240q0 -42 -10.5 -128t-10.5 -130q0 -147 125 -147h37v-172h-74q-309 0 -309 278q0 54 11.5 161
t11.5 161q0 133 -156 139z" />
    <glyph glyph-name="bar" unicode="|" horiz-adv-x="579" 
d="M180 1536h217v-2048h-217v2048z" />
    <glyph glyph-name="braceright" unicode="}" horiz-adv-x="643" 
d="M581 668v-158q-156 -6 -156 -139q0 -54 12.5 -161t12.5 -161q0 -278 -311 -278h-74v172h37q125 0 125 147q0 45 -10 129q-10 88 -11 129q-3 203 176 240v4q-179 37 -176 237q1 41 11 128q10 84 10 128q0 146 -125 146h-37v174h72q313 0 313 -277q0 -54 -12.5 -160.5
t-12.5 -160.5q0 -135 156 -139z" />
    <glyph glyph-name="asciitilde" unicode="~" horiz-adv-x="1220" 
d="M282 393h-195q-4 383 285 383q108 0 286 -98q146 -80 195 -80q78 0 84 166h195q16 -387 -273 -387q-116 0 -287 98q-150 86 -194 86q-86 0 -96 -168z" />
    <glyph glyph-name="exclamdown" unicode="&#xa1;" horiz-adv-x="548" 
d="M438 -391h-326l46 926h235zM274 1012h2q82 0 132 -52.5t49 -134.5q-1 -83 -50.5 -134.5t-132.5 -51.5q-81 0 -131.5 52t-50.5 134t50.5 134.5t131.5 52.5z" />
    <glyph glyph-name="cent" unicode="&#xa2;" 
d="M771 -25h-200v201q-198 30 -308 161.5t-110 332.5q0 196 113 335t305 177v196h203v-186q104 -4 194 -41l-49 -229q-74 36 -182 36q-124 0 -194.5 -75.5t-70.5 -200.5q0 -134 78 -207q71 -67 189 -67q108 0 202 34l37 -223q-84 -39 -207 -47v-197z" />
    <glyph glyph-name="sterling" unicode="&#xa3;" 
d="M1038 0h-934v166q93 40 156 115q73 86 73 186q0 51 -6 82h-200v211h163q-16 92 -16 166q0 199 134 316q127 112 329 112q151 0 241 -49l-51 -236q-67 37 -172 37q-190 0 -190 -193q0 -65 18 -153h281v-211h-254q4 -178 -119 -291v-4h547v-254z" />
    <glyph glyph-name="currency" unicode="&#xa4;" 
d="M566 1126h2q142 0 238 -71l158 170l135 -140l-178 -159q65 -111 65 -238q0 -147 -69 -248l172 -166l-133 -135l-152 178q-94 -79 -240 -79q-147 0 -237 77l-148 -176l-133 135l170 162q-74 105 -74 246q0 133 72 244l-178 157l137 144l158 -176q94 75 235 75zM566 918h-2
q-89 0 -140 -75q-46 -66 -46 -159t46 -162q53 -78 142 -78q74 0 129 60q62 67 62 182q0 92 -48 158q-54 74 -143 74z" />
    <glyph glyph-name="yen" unicode="&#xa5;" 
d="M704 0h-292v328h-318v145h318v131h-318v146h244l-334 581h334l143 -327q30 -68 86 -224h4q22 63 88 226l146 325h327l-350 -581h244v-146h-322v-131h322v-145h-322v-328z" />
    <glyph glyph-name="brokenbar" unicode="&#xa6;" horiz-adv-x="579" 
d="M180 358h217v-716h-217v716zM180 1382h217v-716h-217v716z" />
    <glyph glyph-name="section" unicode="&#xa7;" horiz-adv-x="1148" 
d="M334 702v-2q0 -96 178 -157q94 -32 242 -88q59 37 59 106q0 96 -141 148l-265 100q-73 -39 -73 -107zM950 1337l-49 -188q-119 57 -268 57q-185 0 -185 -98q0 -78 219 -143q194 -58 279 -125q111 -87 111 -234q0 -153 -150 -250q90 -69 90 -188q0 -171 -153 -258
q-123 -70 -299 -70q-240 0 -383 90l59 189q143 -86 309 -86q187 0 187 106q0 49 -49 82q-56 37 -168 72q-198 62 -285 125q-123 90 -123 227q0 165 170 250q-82 66 -82 186q0 164 149 249q121 69 298 69q188 0 323 -62z" />
    <glyph glyph-name="dieresis" unicode="&#xa8;" horiz-adv-x="614" 
d="M101 1118h-2q-58 0 -98.5 40.5t-40.5 98.5q0 61 40 101.5t101 40.5q60 0 97.5 -40.5t37.5 -101.5q0 -58 -38.5 -98.5t-96.5 -40.5zM517 1118h-2q-57 0 -97 41t-40 98q0 62 39.5 102t101.5 40q60 0 97.5 -41t37.5 -101q0 -58 -39.5 -98.5t-97.5 -40.5z" />
    <glyph glyph-name="copyright" unicode="&#xa9;" horiz-adv-x="1386" 
d="M696 1327h2q262 0 442 -184t180 -447q0 -265 -180 -450t-444 -185q-266 0 -448.5 184.5t-182.5 450.5q0 264 183.5 447.5t447.5 183.5zM696 1210h-2q-210 0 -354 -154q-140 -150 -140 -362q0 -213 142 -364t354 -152q211 -1 354 153q139 150 139 363q0 212 -140 362
q-143 154 -353 154zM970 1008l-31 -111q-79 47 -196 47q-119 0 -185.5 -67.5t-66.5 -186.5q0 -112 70 -184t182 -72q127 0 205 51l30 -106q-98 -66 -254 -66q-169 0 -273.5 101.5t-104.5 269.5q0 166 116 275q114 106 281 106q175 0 227 -57z" />
    <glyph glyph-name="ordfeminine" unicode="&#xaa;" horiz-adv-x="774" 
d="M698 545h-193l-14 67h-4q-80 -77 -203 -77q-93 0 -153 53q-64 56 -64 147q0 134 144 194q104 44 259 44v14q0 78 -124 78q-107 0 -189 -51l-41 131q113 65 270 65q302 0 302 -286v-219q0 -103 10 -160zM479 780v72q-203 2 -203 -100q0 -36 27 -57t63 -21q74 0 102 61
q11 24 11 45z" />
    <glyph glyph-name="guillemotleft" unicode="&#xab;" horiz-adv-x="952" 
d="M508 907l-244 -391l244 -391h-217l-238 391l238 391h217zM905 907l-244 -391l244 -391h-217l-238 391l238 391h217z" />
    <glyph glyph-name="logicalnot" unicode="&#xac;" horiz-adv-x="1220" 
d="M81 864h1057v-647h-199v457h-858v190z" />
    <glyph glyph-name="registered" unicode="&#xae;" horiz-adv-x="1044" 
d="M524 1401h2q192 0 323.5 -133.5t131.5 -325.5q0 -193 -132 -328t-325 -135t-327 135t-134 328q0 192 134.5 325.5t326.5 133.5zM524 1309h-2q-150 0 -250 -108.5t-100 -260.5q0 -151 101 -260t251 -109q151 0 253 110q99 107 99 259t-99 259q-102 110 -253 110zM444 885
v-211h-109v512q93 14 164 14q221 0 221 -151q0 -95 -98 -119v-4q71 -15 84 -125q11 -92 27 -127h-113q-16 24 -23.5 87t-19.5 85q-21 39 -86 39h-47zM444 1114v-145h49q115 0 115 73q0 74 -105 74q-43 0 -59 -2z" />
    <glyph glyph-name="macron" unicode="&#xaf;" horiz-adv-x="614" 
d="M51 1352h514v-160h-514v160z" />
    <glyph glyph-name="degree" unicode="&#xb0;" horiz-adv-x="729" 
d="M366 1403h2q130 0 220 -84t90 -213q0 -130 -91.5 -216.5t-222.5 -86.5t-218 83q-90 84 -91 214t89.5 216.5t221.5 86.5zM368 1262h-2q-64 0 -104.5 -48.5t-40.5 -113.5t41.5 -110.5t105.5 -45.5q66 0 107 47q39 44 39 111q0 68 -40 114t-106 46z" />
    <glyph glyph-name="plusminus" unicode="&#xb1;" horiz-adv-x="1220" 
d="M509 1186h201v-355h428v-190h-428v-360h-201v360h-428v190h428v355zM81 190h1057v-190h-1057v190z" />
    <glyph glyph-name="uni00B2" unicode="&#xb2;" horiz-adv-x="770" 
d="M69 545v114l127 115q149 135 176 166q62 71 62 129q0 98 -119 98q-96 0 -176 -57l-64 156q123 88 299 88q129 0 214 -58q97 -67 97 -190q0 -96 -71 -186q-54 -68 -162 -154l-49 -39v-4h297v-178h-631z" />
    <glyph glyph-name="uni00B3" unicode="&#xb3;" horiz-adv-x="763" 
d="M137 1141l-45 147q110 66 286 66q116 0 195 -43q100 -54 100 -160q0 -131 -168 -180v-4q83 -11 138 -57q61 -53 61 -132q0 -127 -128 -192q-101 -51 -241 -51q-176 0 -276 57l47 160q96 -54 201 -54q53 0 93 20q52 25 52 73q0 102 -176 102h-61v139h57q158 0 158 86
q0 72 -109 72q-96 0 -184 -49z" />
    <glyph glyph-name="acute" unicode="&#xb4;" horiz-adv-x="614" 
d="M329 1434h287l-250 -312h-213z" />
    <glyph glyph-name="mu" unicode="&#xb5;" horiz-adv-x="1193" 
d="M1068 1001v-679q0 -164 8 -322h-270l-14 145h-6q-91 -161 -254 -161q-103 0 -150 63h-6l23 -453h-279v1407h313v-534q0 -234 158 -234q62 0 107.5 42t56.5 104v622h313z" />
    <glyph glyph-name="paragraph" unicode="&#xb6;" horiz-adv-x="1110" 
d="M618 -96h-197v637h-14q-108 0 -213 92q-128 113 -131 291q-3 194 117 313q154 152 489 152q199 0 293 -23v-1462h-199v1292h-145v-1292z" />
    <glyph glyph-name="periodcentered" unicode="&#xb7;" horiz-adv-x="532" 
d="M284 -23h-2q-80 0 -130 54t-50 135q0 84 50.5 137t133.5 53t133 -53t50 -137t-51 -136.5t-134 -52.5z" />
    <glyph glyph-name="periodcentered" unicode="&#x2219;" horiz-adv-x="532" 
d="M284 -23h-2q-80 0 -130 54t-50 135q0 84 50.5 137t133.5 53t133 -53t50 -137t-51 -136.5t-134 -52.5z" />
    <glyph glyph-name="cedilla" unicode="&#xb8;" horiz-adv-x="614" 
d="M248 8h168l-56 -98q62 -8 103 -46q45 -42 45 -102q0 -180 -248 -180q-100 0 -166 41l41 117q57 -35 113 -35q72 0 71 53q-1 64 -157 74z" />
    <glyph glyph-name="uni00B9" unicode="&#xb9;" horiz-adv-x="751" 
d="M544 545h-239v604h-2l-164 -72l-31 168l229 98h207v-798z" />
    <glyph glyph-name="ordmasculine" unicode="&#xba;" horiz-adv-x="790" 
d="M397 1210h2q156 0 250 -94q90 -90 90 -237q0 -155 -96.5 -249.5t-251.5 -94.5q-148 0 -246 92t-98 239q0 154 98 249t252 95zM395 1059h-2q-63 0 -96 -68q-27 -54 -27 -123q0 -68 29 -119q35 -63 98 -63q65 0 99 65q26 51 26 123q0 67 -33 123q-37 62 -94 62z" />
    <glyph glyph-name="guillemotright" unicode="&#xbb;" horiz-adv-x="952" 
d="M291 516l-244 391h213l240 -391l-240 -391h-213zM684 516l-246 391h215l240 -391l-240 -391h-215z" />
    <glyph glyph-name="onequarter" unicode="&#xbc;" horiz-adv-x="1701" 
d="M509 545h-239v604h-2l-164 -72l-33 168l229 98h209v-798zM524 -23h-170l755 1377h168zM1521 0h-221v184h-402v129l349 494h274v-471h109v-152h-109v-184zM1300 336v151q0 5 8 152h-6l-74 -133l-115 -166l7 -4h180z" />
    <glyph glyph-name="onehalf" unicode="&#xbd;" horiz-adv-x="1701" 
d="M485 545h-239v604h-4l-162 -72l-33 168l229 98h209v-798zM475 -23h-170l756 1377h168zM993 0v115l125 114l178 166q62 71 62 129q0 99 -121 99q-94 0 -176 -58l-64 156q123 88 299 88q131 0 215 -57q97 -66 97 -191q0 -98 -70 -186q-51 -64 -164 -154l-49 -39v-4h299
v-178h-631z" />
    <glyph glyph-name="threequarters" unicode="&#xbe;" horiz-adv-x="1701" 
d="M131 1141l-45 147q110 66 286 66q117 0 197 -43q100 -53 100 -160q0 -131 -168 -180v-4q83 -11 138 -57q61 -53 61 -132q0 -127 -129 -192q-102 -51 -242 -51q-176 0 -274 57l45 160q98 -54 201 -54q54 0 95 20q52 25 52 73q0 55 -66 82q-48 20 -112 20h-61v139h57
q158 0 158 86q0 72 -107 72q-96 0 -186 -49zM590 -23h-170l753 1377h170zM1540 0h-221v184h-400v129l348 494h273v-471h108v-152h-108v-184zM1319 336v151q0 5 8 152h-4l-74 -133l-115 -166l4 -4h181z" />
    <glyph glyph-name="questiondown" unicode="&#xbf;" horiz-adv-x="911" 
d="M508 1012h2q81 0 130.5 -52.5t49.5 -134.5q0 -83 -50 -134.5t-132 -51.5t-133 52t-51 134t51 134.5t133 52.5zM367 543h272l2 -54q6 -170 -119 -319q-121 -144 -121 -215q0 -122 150 -123q111 -1 205 62l67 -224q-143 -84 -342 -84q-166 0 -273 75q-120 86 -120 245
q0 100 59 198q29 48 117 146q112 125 105 256z" />
    <glyph glyph-name="Agrave" unicode="&#xc0;" horiz-adv-x="1343" 
d="M851 354h-395l-98 -354h-324l422 1380h409l429 -1380h-336zM501 588h305l-86 293l-70 266h-4q-16 -76 -63 -266zM300 1712h324l178 -254h-244z" />
    <glyph glyph-name="Aacute" unicode="&#xc1;" horiz-adv-x="1343" 
d="M851 354h-395l-98 -354h-324l422 1380h409l429 -1380h-336zM501 588h305l-86 293l-70 266h-4q-16 -76 -63 -266zM714 1712h324l-256 -258h-246z" />
    <glyph glyph-name="Acircumflex" unicode="&#xc2;" horiz-adv-x="1343" 
d="M851 354h-395l-98 -354h-324l422 1380h409l429 -1380h-336zM501 588h305l-86 293l-70 266h-4q-16 -76 -63 -266zM566 1712h222l211 -258h-217l-103 135h-4l-100 -135h-215z" />
    <glyph glyph-name="Atilde" unicode="&#xc3;" horiz-adv-x="1343" 
d="M851 354h-395l-98 -354h-324l422 1380h409l429 -1380h-336zM501 588h305l-86 293l-70 266h-4q-16 -76 -63 -266zM532 1464h-144q-8 254 158 254q56 0 130.5 -40t90.5 -40q47 0 58 88h139q6 -249 -162 -249q-58 0 -133.5 37.5t-87.5 37.5q-43 0 -49 -88z" />
    <glyph glyph-name="Adieresis" unicode="&#xc4;" horiz-adv-x="1343" 
d="M851 354h-395l-98 -354h-324l422 1380h409l429 -1380h-336zM501 588h305l-86 293l-70 266h-4q-16 -76 -63 -266zM470 1460h-2q-56 0 -96.5 40.5t-40.5 96.5q0 60 39.5 100t99.5 40q59 0 96 -40t37 -100q0 -57 -38 -97t-95 -40zM886 1460h-2q-56 0 -96.5 40.5t-40.5 96.5
q0 60 39.5 100t99.5 40q59 0 97 -40.5t38 -99.5q0 -57 -39 -97t-96 -40z" />
    <glyph glyph-name="Aring" unicode="&#xc5;" horiz-adv-x="1343" 
d="M858 354h-397l-96 -354h-322l422 1389q-60 43 -60 137q0 105 85 164q74 53 184 53q115 0 186 -49q82 -56 82 -166q0 -101 -72 -144l430 -1384h-335zM672 1638h-2q-101 0 -101 -108q0 -46 28.5 -76.5t74.5 -30.5q106 0 106 109q0 106 -106 106zM504 588h307l-88 303
q-13 44 -68 256h-4q-14 -72 -59 -252z" />
    <glyph glyph-name="AE" unicode="&#xc6;" horiz-adv-x="1777" 
d="M326 0h-322l590 1380h1050v-256h-567l37 -293h522v-253h-481l41 -322h524v-256h-792l-50 377h-401zM569 627h275l-66 534h-6q-18 -58 -70 -203z" />
    <glyph glyph-name="Ccedilla" unicode="&#xc7;" horiz-adv-x="1222" 
d="M1101 283l51 -244q-118 -59 -352 -59l-39 -70q62 -8 104 -47q44 -42 44 -103q0 -176 -248 -176q-101 0 -166 39l41 117q59 -35 113 -35q71 0 71 53q0 62 -157 74l79 158q-277 43 -428 231q-143 178 -143 449q0 334 211 534q208 197 543 197q227 0 340 -60l-64 -247
q-119 51 -262 51q-208 0 -324 -123.5t-116 -333.5t116.5 -330t325.5 -120q154 0 260 45z" />
    <glyph glyph-name="Egrave" unicode="&#xc8;" horiz-adv-x="1093" 
d="M956 838v-254h-508v-328h568v-256h-881v1380h852v-256h-539v-286h508zM227 1712h324l178 -254h-246z" />
    <glyph glyph-name="Eacute" unicode="&#xc9;" horiz-adv-x="1093" 
d="M956 838v-254h-508v-328h568v-256h-881v1380h852v-256h-539v-286h508zM602 1712h324l-256 -258h-246z" />
    <glyph glyph-name="Ecircumflex" unicode="&#xca;" horiz-adv-x="1093" 
d="M956 838v-254h-508v-328h568v-256h-881v1380h852v-256h-539v-286h508zM461 1712h221l211 -258h-217l-103 135h-4l-102 -135h-213z" />
    <glyph glyph-name="Edieresis" unicode="&#xcb;" horiz-adv-x="1093" 
d="M956 838v-254h-508v-328h568v-256h-881v1380h852v-256h-539v-286h508zM354 1460h-2q-56 0 -97.5 40.5t-41.5 96.5q0 60 40.5 100t100.5 40q59 0 96 -40.5t37 -99.5q0 -56 -39 -96.5t-94 -40.5zM768 1460h-2q-57 0 -96 40t-39 97q0 60 39.5 100t99.5 40q59 0 97 -40.5
t38 -99.5q0 -58 -39.5 -97.5t-97.5 -39.5z" />
    <glyph glyph-name="Igrave" unicode="&#xcc;" horiz-adv-x="583" 
d="M136 1380h313v-1380h-313v1380zM-61 1712h324l178 -254h-246z" />
    <glyph glyph-name="Iacute" unicode="&#xcd;" horiz-adv-x="583" 
d="M135 1380h313v-1380h-313v1380zM325 1712h324l-258 -258h-246z" />
    <glyph glyph-name="Icircumflex" unicode="&#xce;" horiz-adv-x="583" 
d="M136 1380h313v-1380h-313v1380zM183 1712h221l209 -258h-215l-102 135h-5l-102 -135h-215z" />
    <glyph glyph-name="Idieresis" unicode="&#xcf;" horiz-adv-x="583" 
d="M135 1380h314v-1380h-314v1380zM86 1460h-2q-56 0 -96.5 40.5t-40.5 96.5q0 60 40.5 100t100.5 40q58 0 95.5 -40.5t37.5 -99.5q0 -57 -39 -97t-96 -40zM502 1460h-2q-56 0 -95.5 40.5t-39.5 96.5q0 60 38.5 100t98.5 40t97.5 -40t37.5 -100q0 -57 -39 -97t-96 -40z" />
    <glyph glyph-name="Eth" unicode="&#xd0;" horiz-adv-x="1441" 
d="M6 582v243h145v541q185 29 422 29q797 0 797 -670q0 -745 -864 -745q-207 0 -355 20v582h-145zM737 825v-243h-274v-353q28 -4 108 -4q469 0 469 490q0 440 -436 440q-84 0 -141 -12v-318h274z" />
    <glyph glyph-name="Ntilde" unicode="&#xd1;" horiz-adv-x="1413" 
d="M422 0h-287v1380h365l286 -506q121 -214 226 -473h6q-27 252 -27 576v403h287v-1380h-328l-295 532q-144 259 -239 488l-7 -2q13 -258 13 -602v-416zM563 1464h-143q-9 254 157 254q57 0 131 -40t91 -40q47 0 57 88h139q6 -249 -162 -249q-57 0 -132.5 37.5t-88.5 37.5
q-43 0 -49 -88z" />
    <glyph glyph-name="Ograve" unicode="&#xd2;" horiz-adv-x="1468" 
d="M722 -23h-2q-298 0 -477 205q-172 197 -172 498q0 311 178 513q187 210 494 210q303 0 485 -207q170 -194 170 -491q0 -323 -174 -521q-183 -207 -502 -207zM733 225h2q170 0 259 157q72 128 72 312q0 180 -75 307q-90 154 -258 154q-170 0 -260 -156q-74 -128 -74 -311
q0 -181 75 -309q90 -154 259 -154zM376 1712h324l178 -254h-246z" />
    <glyph glyph-name="Oacute" unicode="&#xd3;" horiz-adv-x="1468" 
d="M722 -23h-2q-298 0 -477 205q-172 197 -172 498q0 311 178 513q187 210 494 210q303 0 485 -207q170 -194 170 -491q0 -323 -174 -521q-183 -207 -502 -207zM733 225h2q170 0 259 157q72 128 72 312q0 180 -75 307q-90 154 -258 154q-170 0 -260 -156q-74 -128 -74 -311
q0 -181 75 -309q90 -154 259 -154zM782 1712h323l-256 -258h-246z" />
    <glyph glyph-name="Ocircumflex" unicode="&#xd4;" horiz-adv-x="1468" 
d="M722 -23h-2q-298 0 -477 205q-172 197 -172 498q0 311 178 513q187 210 494 210q303 0 485 -207q170 -194 170 -491q0 -323 -174 -521q-183 -207 -502 -207zM733 225h2q170 0 259 157q72 128 72 312q0 180 -75 307q-90 154 -258 154q-170 0 -260 -156q-74 -128 -74 -311
q0 -181 75 -309q90 -154 259 -154zM624 1712h221l209 -258h-217l-100 135h-4l-103 -135h-215z" />
    <glyph glyph-name="Otilde" unicode="&#xd5;" horiz-adv-x="1468" 
d="M722 -23h-2q-298 0 -477 205q-172 197 -172 498q0 311 178 513q187 210 494 210q303 0 485 -207q170 -194 170 -491q0 -323 -174 -521q-183 -207 -502 -207zM733 225h2q170 0 259 157q72 128 72 312q0 180 -75 307q-90 154 -258 154q-170 0 -260 -156q-74 -128 -74 -311
q0 -181 75 -309q90 -154 259 -154zM589 1464h-141q-8 254 158 254q56 0 130 -40t91 -40q47 0 55 88h139q8 -249 -162 -249q-56 0 -130.5 37.5t-90.5 37.5q-41 0 -49 -88z" />
    <glyph glyph-name="Odieresis" unicode="&#xd6;" horiz-adv-x="1468" 
d="M722 -23h-2q-298 0 -477 205q-172 197 -172 498q0 311 178 513q187 210 494 210q303 0 485 -207q170 -194 170 -491q0 -323 -174 -521q-183 -207 -502 -207zM733 225h2q170 0 259 157q72 128 72 312q0 180 -75 307q-90 154 -258 154q-170 0 -260 -156q-74 -128 -74 -311
q0 -181 75 -309q90 -154 259 -154zM528 1460h-2q-57 0 -97.5 40t-40.5 97q0 60 40 100t100 40q59 0 96 -40.5t37 -99.5q0 -57 -38.5 -97t-94.5 -40zM943 1460h-2q-56 0 -96.5 40.5t-40.5 96.5q0 60 39.5 100t99.5 40q59 0 97.5 -40.5t38.5 -99.5q0 -58 -39 -97.5t-97 -39.5z
" />
    <glyph glyph-name="multiply" unicode="&#xd7;" horiz-adv-x="1220" 
d="M81 940l133 137l395 -403l396 403l133 -137l-393 -401l393 -402l-135 -137l-394 401l-393 -401l-135 137l393 402z" />
    <glyph glyph-name="Oslash" unicode="&#xd8;" horiz-adv-x="1468" 
d="M315 -135l-168 131l114 174q-190 199 -190 518q0 304 179 505q187 210 487 210q170 0 305 -72l112 166l179 -119l-117 -172q182 -194 182 -508t-172 -512q-182 -209 -491 -209q-162 0 -295 70zM440 438l456 672q-69 49 -159 49q-179 0 -274 -151q-79 -128 -79 -318
q0 -131 54 -252h2zM1034 930l-451 -662q61 -47 152 -47q178 0 272 154q78 129 78 319q0 123 -45 234z" />
    <glyph glyph-name="Ugrave" unicode="&#xd9;" horiz-adv-x="1396" 
d="M133 1380h313v-794q0 -359 250 -359q254 0 254 359v794h311v-774q0 -315 -151 -475q-146 -154 -424 -154q-553 0 -553 633v770zM352 1712h324l178 -254h-246z" />
    <glyph glyph-name="Uacute" unicode="&#xda;" horiz-adv-x="1396" 
d="M133 1380h313v-794q0 -359 250 -359q254 0 254 359v794h311v-774q0 -315 -151 -475q-146 -154 -424 -154q-553 0 -553 633v770zM741 1712h324l-258 -258h-244z" />
    <glyph glyph-name="Ucircumflex" unicode="&#xdb;" horiz-adv-x="1396" 
d="M133 1380h313v-794q0 -359 250 -359q254 0 254 359v794h311v-774q0 -315 -151 -475q-146 -154 -424 -154q-553 0 -553 633v770zM608 1712h221l211 -258h-217l-102 135h-4l-101 -135h-215z" />
    <glyph glyph-name="Udieresis" unicode="&#xdc;" horiz-adv-x="1396" 
d="M133 1380h313v-794q0 -359 250 -359q254 0 254 359v794h311v-774q0 -315 -151 -475q-146 -154 -424 -154q-553 0 -553 633v770zM504 1460h-2q-57 0 -97.5 40t-40.5 97q0 60 40 100t100 40q59 0 96 -40.5t37 -99.5q0 -57 -38.5 -97t-94.5 -40zM919 1460h-2
q-56 0 -96.5 40.5t-40.5 96.5q0 60 39.5 100t99.5 40q59 0 97.5 -40.5t38.5 -99.5q0 -58 -39 -97.5t-97 -39.5z" />
    <glyph glyph-name="Yacute" unicode="&#xdd;" horiz-adv-x="1234" 
d="M766 0h-312v565l-436 815h356l142 -331q37 -86 106 -265h4q40 110 105 265l139 331h350l-454 -805v-575zM682 1712h323l-256 -258h-246z" />
    <glyph glyph-name="Thorn" unicode="&#xde;" horiz-adv-x="1187" 
d="M135 0v1380h309v-247q70 6 168 6q220 0 355 -92q157 -106 157 -316q0 -237 -156 -359q-141 -110 -384 -110q-70 0 -140 8v-270h-309zM444 893v-379q47 -10 127 -10q246 0 246 203q0 196 -238 196q-92 0 -135 -10z" />
    <glyph glyph-name="germandbls" unicode="&#xdf;" horiz-adv-x="1228" 
d="M435 0h-311v883q0 276 124 428q135 166 402 166q183 0 306 -96q135 -105 135 -283q0 -105 -49 -168q-117 -58 -117 -142q0 -63 69 -137q82 -88 107 -129q55 -90 55 -192q0 -173 -122 -267q-111 -86 -289 -86q-140 0 -220 33l39 230q60 -29 142 -29q137 0 137 106
q0 55 -70 136l-108 125q-54 82 -54 170q0 167 166 253q15 35 15 72q0 73 -44 119.5t-116 46.5q-197 0 -197 -330v-909z" />
    <glyph glyph-name="agrave" unicode="&#xe0;" horiz-adv-x="1081" 
d="M960 592v-348q0 -162 14 -244h-280l-19 100h-6q-100 -123 -286 -123q-146 0 -238 95q-86 88 -86 213q0 214 200 311q149 72 388 72v14q0 129 -182 129q-152 0 -277 -76l-57 201q157 88 389 88q440 0 440 -432zM657 365v108q-291 2 -291 -158q0 -118 123 -118q55 0 101 31
t61 83q6 20 6 54zM204 1434h287l176 -312h-211z" />
    <glyph glyph-name="aacute" unicode="&#xe1;" horiz-adv-x="1081" 
d="M960 592v-348q0 -162 14 -244h-280l-19 100h-6q-100 -123 -286 -123q-146 0 -238 95q-86 88 -86 213q0 214 200 311q149 72 388 72v14q0 129 -182 129q-152 0 -277 -76l-57 201q157 88 389 88q440 0 440 -432zM657 365v108q-291 2 -291 -158q0 -118 123 -118q55 0 101 31
t61 83q6 20 6 54zM575 1434h287l-250 -312h-213z" />
    <glyph glyph-name="acircumflex" unicode="&#xe2;" horiz-adv-x="1081" 
d="M960 592v-348q0 -162 14 -244h-280l-19 100h-6q-100 -123 -286 -123q-146 0 -238 95q-86 88 -86 213q0 214 200 311q149 72 388 72v14q0 129 -182 129q-152 0 -277 -76l-57 201q157 88 389 88q440 0 440 -432zM657 365v108q-291 2 -291 -158q0 -118 123 -118q55 0 101 31
t61 83q6 20 6 54zM434 1434h196l203 -312h-196l-103 176h-4l-102 -176h-195z" />
    <glyph glyph-name="atilde" unicode="&#xe3;" horiz-adv-x="1081" 
d="M960 592v-348q0 -162 14 -244h-280l-19 100h-6q-100 -123 -286 -123q-146 0 -238 95q-86 88 -86 213q0 214 200 311q149 72 388 72v14q0 129 -182 129q-152 0 -277 -76l-57 201q157 88 389 88q440 0 440 -432zM657 365v108q-291 2 -291 -158q0 -118 123 -118q55 0 101 31
t61 83q6 20 6 54zM376 1139h-139q-4 256 158 256q57 0 135 -43q70 -39 88 -39q47 0 55 90h136q4 -250 -160 -250q-64 0 -144 45q-59 33 -79 33q-43 0 -50 -92z" />
    <glyph glyph-name="adieresis" unicode="&#xe4;" horiz-adv-x="1081" 
d="M960 592v-348q0 -162 14 -244h-280l-19 100h-6q-100 -123 -286 -123q-146 0 -238 95q-86 88 -86 213q0 214 200 311q149 72 388 72v14q0 129 -182 129q-152 0 -277 -76l-57 201q157 88 389 88q440 0 440 -432zM657 365v108q-291 2 -291 -158q0 -118 123 -118q55 0 101 31
t61 83q6 20 6 54zM333 1118h-2q-58 0 -98.5 40.5t-40.5 98.5q0 61 40 101.5t101 40.5q60 0 98 -40.5t38 -101.5q0 -58 -39 -98.5t-97 -40.5zM749 1118h-2q-57 0 -97 41t-40 98q0 62 39.5 102t101.5 40q60 0 97.5 -40.5t37.5 -101.5q0 -59 -39 -99t-98 -40z" />
    <glyph glyph-name="aring" unicode="&#xe5;" horiz-adv-x="1081" 
d="M960 592v-348q0 -162 14 -244h-280l-19 100h-6q-100 -123 -286 -123q-146 0 -238 95q-86 88 -86 213q0 214 200 311q149 72 388 72v14q0 129 -182 129q-152 0 -277 -76l-57 201q157 88 389 88q440 0 440 -432zM657 365v108q-291 2 -291 -158q0 -118 123 -118q55 0 101 31
t61 83q6 20 6 54zM544 1505h2q101 0 163 -51q67 -55 67 -154q0 -94 -71 -148q-64 -50 -161 -50t-163 49q-72 55 -72 149q0 98 70 154q65 51 165 51zM544 1403h-2q-90 0 -90 -103q0 -39 25.5 -67.5t64.5 -28.5q97 0 97 99q0 42 -26.5 71t-68.5 29z" />
    <glyph glyph-name="ae" unicode="&#xe6;" horiz-adv-x="1644" 
d="M1577 416h-635q4 -103 88 -159q74 -48 182 -48q150 0 281 53l43 -209q-146 -76 -369 -76q-277 0 -381 179h-8q-129 -179 -373 -179q-147 0 -244 82q-102 88 -102 232q0 204 207 299q153 69 385 69v29q0 39 -35 72q-51 49 -156 49q-143 0 -268 -76l-61 197q172 94 354 94
q238 0 330 -162h6q123 162 342 162q206 0 321 -158q99 -136 99 -340q0 -8 -6 -110zM659 365v104q-295 2 -295 -156q0 -116 129 -116q112 0 158 104q8 18 8 64zM940 625h356q2 69 -31 123q-45 73 -139 73q-89 0 -141 -69q-43 -57 -45 -127z" />
    <glyph glyph-name="ccedilla" unicode="&#xe7;" horiz-adv-x="923" 
d="M839 256l43 -231q-100 -41 -250 -45l-39 -70q62 -8 103 -46q45 -42 45 -102q0 -180 -248 -180q-100 0 -164 41l41 117q57 -35 111 -35q74 0 73 53q-1 64 -159 74l80 158q-195 34 -303 171q-105 133 -105 333q0 247 165 392q157 138 408 138q134 0 238 -39l-49 -233
q-70 32 -174 32q-124 0 -196.5 -77.5t-72.5 -202.5q0 -127 74.5 -204t200.5 -77q98 0 178 33z" />
    <glyph glyph-name="egrave" unicode="&#xe8;" horiz-adv-x="1081" 
d="M1009 401h-645q6 -98 100 -149q76 -41 183 -41q149 0 276 41l41 -211q-156 -64 -362 -64q-246 0 -388 132q-147 136 -147 380q0 211 123 363q139 172 383 172q226 0 344 -156q102 -134 102 -344q0 -75 -10 -123zM362 614h369q0 73 -35 129q-47 74 -142 74q-83 0 -135 -62
q-48 -56 -57 -141zM245 1434h287l176 -312h-211z" />
    <glyph glyph-name="eacute" unicode="&#xe9;" horiz-adv-x="1081" 
d="M1009 401h-645q6 -98 100 -149q76 -41 183 -41q149 0 276 41l41 -211q-156 -64 -362 -64q-246 0 -388 132q-147 136 -147 380q0 211 123 363q139 172 383 172q226 0 344 -156q102 -134 102 -344q0 -75 -10 -123zM362 614h369q0 73 -35 129q-47 74 -142 74q-83 0 -135 -62
q-48 -56 -57 -141zM616 1434h287l-250 -312h-213z" />
    <glyph glyph-name="ecircumflex" unicode="&#xea;" horiz-adv-x="1081" 
d="M1009 401h-645q6 -98 100 -149q76 -41 183 -41q149 0 276 41l41 -211q-156 -64 -362 -64q-246 0 -388 132q-147 136 -147 380q0 211 123 363q139 172 383 172q226 0 344 -156q102 -134 102 -344q0 -75 -10 -123zM362 614h369q0 73 -35 129q-47 74 -142 74q-83 0 -135 -62
q-48 -56 -57 -141zM464 1434h197l203 -312h-197l-102 176h-4l-103 -176h-194z" />
    <glyph glyph-name="edieresis" unicode="&#xeb;" horiz-adv-x="1081" 
d="M1009 401h-645q6 -98 100 -149q76 -41 183 -41q149 0 276 41l41 -211q-156 -64 -362 -64q-246 0 -388 132q-147 136 -147 380q0 211 123 363q139 172 383 172q226 0 344 -156q102 -134 102 -344q0 -75 -10 -123zM362 614h369q0 73 -35 129q-47 74 -142 74q-83 0 -135 -62
q-48 -56 -57 -141zM368 1118h-2q-58 0 -98.5 40.5t-40.5 98.5q0 61 40 101.5t101 40.5q60 0 97.5 -41t37.5 -101q0 -58 -39 -98.5t-96 -40.5zM784 1118h-2q-58 0 -97.5 40.5t-39.5 98.5q0 62 39.5 102t101.5 40q60 0 97.5 -41t37.5 -101q0 -58 -39.5 -98.5t-97.5 -40.5z" />
    <glyph glyph-name="igrave" unicode="&#xec;" horiz-adv-x="561" 
d="M439 0h-312v1001h312v-1001zM-59 1434h287l176 -312h-211z" />
    <glyph glyph-name="iacute" unicode="&#xed;" horiz-adv-x="561" 
d="M435 0h-311v1001h311v-1001zM327 1434h286l-249 -312h-213z" />
    <glyph glyph-name="icircumflex" unicode="&#xee;" horiz-adv-x="561" 
d="M435 0h-312v1001h312v-1001zM183 1434h196l203 -312h-197l-102 176h-4l-102 -176h-195z" />
    <glyph glyph-name="idieresis" unicode="&#xef;" horiz-adv-x="561" 
d="M435 0h-312v1001h312v-1001zM74 1118h-2q-58 0 -98.5 40.5t-40.5 98.5q0 61 40 101.5t101 40.5q60 0 97.5 -40.5t37.5 -101.5q0 -58 -38.5 -98.5t-96.5 -40.5zM490 1118h-2q-57 0 -97 41t-40 98q0 62 39.5 102t101.5 40q60 0 97.5 -41t37.5 -101q0 -58 -39.5 -98.5
t-97.5 -40.5z" />
    <glyph glyph-name="eth" unicode="&#xf0;" horiz-adv-x="1175" 
d="M587 201h2q106 0 158 100q39 77 39 195q0 284 -195 284q-105 0 -160 -100q-43 -78 -43 -193q0 -111 43 -189q54 -97 156 -97zM221 979l-56 123l215 96q-75 49 -192 98l135 174q164 -57 324 -161l282 121l62 -121l-217 -92q335 -267 335 -691q0 -267 -161 -415
q-145 -134 -361 -134q-223 0 -368 138q-150 143 -150 370q0 209 133 344.5t342 139.5q84 2 146 -39l4 4q-80 106 -179 172z" />
    <glyph glyph-name="ntilde" unicode="&#xf1;" horiz-adv-x="1200" 
d="M124 0v682q0 149 -8 319h270l15 -137h6q100 160 309 160q182 0 275 -128q83 -112 83 -302v-594h-311v555q0 219 -158 219q-79 0 -126 -60q-44 -55 -44 -136v-578h-311zM458 1139h-139q-4 256 157 256q59 0 136 -43q70 -39 88 -39q47 0 55 90h135q4 -250 -160 -250
q-63 0 -143 45q-59 33 -80 33q-43 0 -49 -92z" />
    <glyph glyph-name="ograve" unicode="&#xf2;" horiz-adv-x="1179" 
d="M587 -23h-2q-223 0 -368 138q-150 143 -150 379q0 242 146 386t389 144q229 0 370.5 -141.5t141.5 -370.5q0 -261 -164 -406q-145 -129 -363 -129zM589 201h2q104 0 157 104q42 83 42 197q0 116 -41 197q-53 104 -158 104q-102 0 -157 -96q-48 -84 -48 -205
q0 -117 42 -198q54 -103 161 -103zM270 1434h286l177 -312h-211z" />
    <glyph glyph-name="oacute" unicode="&#xf3;" horiz-adv-x="1179" 
d="M587 -23h-2q-223 0 -368 138q-150 143 -150 379q0 242 146 386t389 144q229 0 370.5 -141.5t141.5 -370.5q0 -261 -164 -406q-145 -129 -363 -129zM589 201h2q104 0 157 104q42 83 42 197q0 116 -41 197q-53 104 -158 104q-102 0 -157 -96q-48 -84 -48 -205
q0 -117 42 -198q54 -103 161 -103zM628 1434h287l-250 -312h-213z" />
    <glyph glyph-name="ocircumflex" unicode="&#xf4;" horiz-adv-x="1179" 
d="M587 -23h-2q-223 0 -368 138q-150 143 -150 379q0 242 146 386t389 144q229 0 370.5 -141.5t141.5 -370.5q0 -261 -164 -406q-145 -129 -363 -129zM589 201h2q104 0 157 104q42 83 42 197q0 116 -41 197q-53 104 -158 104q-102 0 -157 -96q-48 -84 -48 -205
q0 -117 42 -198q54 -103 161 -103zM491 1434h197l202 -312h-196l-103 176h-4l-102 -176h-195z" />
    <glyph glyph-name="otilde" unicode="&#xf5;" horiz-adv-x="1179" 
d="M587 -23h-2q-223 0 -368 138q-150 143 -150 379q0 242 146 386t389 144q229 0 370.5 -141.5t141.5 -370.5q0 -261 -164 -406q-145 -129 -363 -129zM589 201h2q104 0 157 104q42 83 42 197q0 116 -41 197q-53 104 -158 104q-102 0 -157 -96q-48 -84 -48 -205
q0 -117 42 -198q54 -103 161 -103zM444 1139h-139q-4 256 157 256q58 0 135 -43q70 -39 88 -39q48 0 56 90h135q4 -250 -160 -250q-63 0 -143 45q-59 33 -80 33q-43 0 -49 -92z" />
    <glyph glyph-name="odieresis" unicode="&#xf6;" horiz-adv-x="1179" 
d="M587 -23h-2q-223 0 -368 138q-150 143 -150 379q0 242 146 386t389 144q229 0 370.5 -141.5t141.5 -370.5q0 -261 -164 -406q-145 -129 -363 -129zM589 201h2q104 0 157 104q42 83 42 197q0 116 -41 197q-53 104 -158 104q-102 0 -157 -96q-48 -84 -48 -205
q0 -117 42 -198q54 -103 161 -103zM382 1118h-2q-58 0 -98.5 40.5t-40.5 98.5q0 61 40 101.5t101 40.5q60 0 98 -40.5t38 -101.5q0 -58 -39 -98.5t-97 -40.5zM798 1118h-2q-57 0 -97 41t-40 98q0 62 39.5 102t101.5 40q60 0 97.5 -40.5t37.5 -101.5q0 -59 -39 -99t-98 -40z
" />
    <glyph glyph-name="divide" unicode="&#xf7;" horiz-adv-x="1220" 
d="M609 756h-2q-65 0 -106 42t-41 107q0 68 40.5 111t108.5 43q69 0 109.5 -42.5t40.5 -111.5q0 -67 -41.5 -108t-108.5 -41zM1136 451h-1057v192h1057v-192zM607 35h-2q-66 0 -106.5 42.5t-40.5 108.5q0 68 40.5 110t108.5 42q69 0 109.5 -41.5t40.5 -110.5
q0 -68 -41 -109.5t-109 -41.5z" />
    <glyph glyph-name="oslash" unicode="&#xf8;" horiz-adv-x="1179" 
d="M589 1024h2q138 0 242 -53l96 141l109 -76l-92 -137q168 -143 168 -395q0 -253 -164 -398q-145 -129 -359 -129q-137 0 -237 54l-101 -146l-102 82l90 133q-174 142 -174 400q0 235 143.5 379.5t378.5 144.5zM409 340l293 426q-47 37 -111 37q-113 0 -173 -99
q-50 -82 -50 -202q0 -99 37 -160zM778 653l-291 -415q39 -37 104 -37q115 0 174 94q50 79 50 201q0 90 -31 155z" />
    <glyph glyph-name="ugrave" unicode="&#xf9;" horiz-adv-x="1193" 
d="M1068 1001v-679q0 -164 8 -322h-270l-14 141h-6q-105 -164 -314 -164q-184 0 -274 131q-78 113 -78 306v587h313v-538q0 -234 156 -234q113 0 156 109q10 25 10 68v595h313zM261 1434h287l176 -312h-211z" />
    <glyph glyph-name="uacute" unicode="&#xfa;" horiz-adv-x="1193" 
d="M1068 1001v-679q0 -164 8 -322h-270l-14 141h-6q-105 -164 -314 -164q-184 0 -274 131q-78 113 -78 306v587h313v-538q0 -234 156 -234q113 0 156 109q10 25 10 68v595h313zM644 1434h287l-250 -312h-213z" />
    <glyph glyph-name="ucircumflex" unicode="&#xfb;" horiz-adv-x="1193" 
d="M1068 1001v-679q0 -164 8 -322h-270l-14 141h-6q-105 -164 -314 -164q-184 0 -274 131q-78 113 -78 306v587h313v-538q0 -234 156 -234q113 0 156 109q10 25 10 68v595h313zM499 1434h196l203 -312h-196l-103 176h-4l-102 -176h-195z" />
    <glyph glyph-name="udieresis" unicode="&#xfc;" horiz-adv-x="1193" 
d="M1068 1001v-679q0 -164 8 -322h-270l-14 141h-6q-105 -164 -314 -164q-184 0 -274 131q-78 113 -78 306v587h313v-538q0 -234 156 -234q113 0 156 109q10 25 10 68v595h313zM396 1118h-2q-58 0 -98.5 40.5t-40.5 98.5q0 61 40 101.5t101 40.5q60 0 98 -40.5t38 -101.5
q0 -58 -39 -98.5t-97 -40.5zM812 1118h-2q-57 0 -97 41t-40 98q0 62 39.5 102t101.5 40q60 0 97.5 -40.5t37.5 -101.5q0 -59 -39 -99t-98 -40z" />
    <glyph glyph-name="yacute" unicode="&#xfd;" horiz-adv-x="1071" 
d="M12 1001h346l150 -491q12 -40 49 -186h6l45 186l123 491h334l-234 -659q-179 -505 -352 -657q-135 -119 -301 -138l-66 265q176 29 265 178q16 27 16 45q0 16 -14 51zM608 1434h287l-250 -312h-213z" />
    <glyph glyph-name="thorn" unicode="&#xfe;" horiz-adv-x="1224" 
d="M124 1386h311v-507h4q96 142 299 145q198 3 314 -162q102 -145 102 -352q0 -258 -147 -406q-127 -127 -303 -127q-179 0 -265 117h-4v-500h-311v1792zM435 582v-172q0 -56 29 -97q53 -96 162 -96t166 94q47 79 47 195q0 109 -47 184q-56 90 -158 90q-125 0 -178 -114
q-21 -45 -21 -84z" />
    <glyph glyph-name="ydieresis" unicode="&#xff;" horiz-adv-x="1071" 
d="M12 1001h346l150 -491q12 -40 49 -186h6l45 186l123 491h334l-234 -659q-179 -505 -352 -657q-135 -119 -301 -138l-66 265q176 29 265 178q16 27 16 45q0 16 -14 51zM352 1118h-2q-58 0 -98.5 40.5t-40.5 98.5q0 61 40 101.5t101 40.5q60 0 97.5 -41t37.5 -101
q0 -58 -39 -98.5t-96 -40.5zM768 1118h-2q-58 0 -98 40.5t-40 98.5q0 62 40 102t102 40q60 0 97.5 -41t37.5 -101q0 -58 -39.5 -98.5t-97.5 -40.5z" />
    <glyph glyph-name="dotlessi" unicode="&#x131;" horiz-adv-x="561" 
d="M435 0h-311v1001h311v-1001z" />
    <glyph glyph-name="circumflex" unicode="&#x2c6;" horiz-adv-x="614" 
d="M209 1434h196l203 -312h-197l-102 176h-4l-102 -176h-195z" />
    <glyph glyph-name="caron" unicode="&#x2c7;" horiz-adv-x="614" 
d="M412 1122h-209l-203 312h199l106 -181h4l105 181h200z" />
    <glyph glyph-name="uni02C9" unicode="&#x2c9;" horiz-adv-x="614" 
d="M51 1352h514v-160h-514v160z" />
    <glyph glyph-name="breve" unicode="&#x2d8;" horiz-adv-x="614" 
d="M40 1409h150q16 -121 114 -121q111 0 119 121h149q-2 -125 -72.5 -193.5t-195.5 -68.5q-258 0 -264 262z" />
    <glyph glyph-name="dotaccent" unicode="&#x2d9;" horiz-adv-x="614" 
d="M249 1118h-2q-57 0 -98 41t-41 98q0 61 40 101.5t101 40.5q60 0 97.5 -40.5t37.5 -101.5q0 -58 -38.5 -98.5t-96.5 -40.5z" />
    <glyph glyph-name="ring" unicode="&#x2da;" horiz-adv-x="819" 
d="M412 1505h2q100 0 162 -51q67 -56 67 -154q0 -93 -70 -148q-65 -50 -161 -50q-98 0 -163 49q-73 55 -73 149q0 98 70 154q65 51 166 51zM412 1403h-3q-90 0 -90 -103q0 -39 26 -67.5t64 -28.5q97 0 97 99q0 42 -26 71t-68 29z" />
    <glyph glyph-name="ogonek" unicode="&#x2db;" horiz-adv-x="614" 
d="M317 0h151q-65 -33 -120 -86q-70 -67 -70 -123q0 -80 82 -80q47 0 100 23l21 -113q-72 -35 -172 -35q-84 0 -136 40q-57 45 -57 126t70 156q60 65 131 92z" />
    <glyph glyph-name="tilde" unicode="&#x2dc;" horiz-adv-x="614" 
d="M161 1139h-139q-4 256 158 256q57 0 135 -43q70 -39 88 -39q47 0 55 90h135q5 -250 -159 -250q-64 0 -144 45q-59 33 -80 33q-43 0 -49 -92z" />
    <glyph glyph-name="hungarumlaut" unicode="&#x2dd;" horiz-adv-x="614" 
d="M127 1434h244l-201 -304h-172zM479 1434h244l-201 -304h-172z" />
    <glyph glyph-name="endash" unicode="&#x2013;" horiz-adv-x="1024" 
d="M61 616h901v-192h-901v192z" />
    <glyph glyph-name="emdash" unicode="&#x2014;" horiz-adv-x="2048" 
d="M61 616h1925v-192h-1925v192z" />
    <glyph glyph-name="quoteleft" unicode="&#x2018;" horiz-adv-x="532" 
d="M346 866l-291 -20q98 313 246 555l188 16q-102 -284 -143 -551z" />
    <glyph glyph-name="quoteright" unicode="&#x2019;" horiz-adv-x="532" 
d="M194 1399l293 18q-100 -313 -246 -553l-188 -18q100 284 141 553z" />
    <glyph glyph-name="quotesinglbase" unicode="&#x201a;" horiz-adv-x="532" 
d="M220 -197l-188 -16q102 285 143 551l291 20q-98 -313 -246 -555z" />
    <glyph glyph-name="quotedblleft" unicode="&#x201c;" horiz-adv-x="929" 
d="M344 866l-291 -20q98 313 246 555l188 16q-102 -284 -143 -551zM743 866l-291 -20q101 313 246 555l189 16q-101 -284 -144 -551z" />
    <glyph glyph-name="quotedblright" unicode="&#x201d;" horiz-adv-x="929" 
d="M194 1399l291 18q-100 -313 -246 -553l-188 -18q100 284 143 553zM594 1399l291 18q-99 -313 -246 -553l-189 -18q103 284 144 553z" />
    <glyph glyph-name="quotedblbase" unicode="&#x201e;" horiz-adv-x="937" 
d="M218 -197l-188 -16q102 285 143 551l291 20q-98 -313 -246 -555zM620 -197l-189 -16q101 285 144 551l291 20q-101 -313 -246 -555z" />
    <glyph glyph-name="dagger" unicode="&#x2020;" horiz-adv-x="1073" 
d="M395 1380h282l-26 -411l350 24v-241l-350 26l26 -880h-282l26 880l-352 -26v241l352 -24z" />
    <glyph glyph-name="daggerdbl" unicode="&#x2021;" horiz-adv-x="1073" 
d="M397 1380h278l-22 -379l348 23v-240l-348 25v-324l348 25v-242l-348 25l22 -395h-278l20 395l-348 -25v242l348 -25v324l-348 -25v240l348 -23z" />
    <glyph glyph-name="bullet" unicode="&#x2022;" horiz-adv-x="692" 
d="M345 434h-2q-113 0 -188 77.5t-76 190.5t76 191t190 78t190 -78t77 -191t-77 -190.5t-190 -77.5z" />
    <glyph glyph-name="ellipsis" unicode="&#x2026;" horiz-adv-x="2048" 
d="M339 -23h-2q-81 0 -130.5 53.5t-49.5 135.5q0 84 50.5 137t133.5 53t133 -53t50 -137q0 -83 -51.5 -136t-133.5 -53zM1021 -23h-2q-81 0 -131.5 53.5t-50.5 135.5q0 83 51 136.5t133 53.5q84 0 134.5 -52.5t50.5 -137.5q0 -83 -51.5 -136t-133.5 -53zM1703 -23h-2
q-81 0 -131.5 53.5t-50.5 135.5q0 83 51 136.5t133 53.5q83 0 133.5 -53t51.5 -137q1 -82 -51 -135.5t-134 -53.5z" />
    <glyph glyph-name="guilsinglleft" unicode="&#x2039;" horiz-adv-x="552" 
d="M508 907l-244 -391l244 -391h-217l-238 391l238 391h217z" />
    <glyph glyph-name="guilsinglright" unicode="&#x203a;" horiz-adv-x="552" 
d="M291 516l-246 391h215l240 -391l-240 -391h-215z" />
    <glyph glyph-name="fraction" unicode="&#x2044;" horiz-adv-x="868" 
d="M142 -23h-170l758 1377h168z" />
    <glyph glyph-name="fraction" unicode="&#x2215;" horiz-adv-x="868" 
d="M142 -23h-170l758 1377h168z" />
    <glyph glyph-name="franc" unicode="&#x20a3;" horiz-adv-x="1108" 
d="M187 454v689q0 222 -109 222h-48v69h943l111 -248h-112q-59 179 -133 179h-254q-108 0 -108 -222v-367h357q56 0 56 52v68h98v-358h-98v71q0 50 -56 50h-357v-205h186v-120h-186v-43q0 -222 108 -222h91v-69h-646v69h48q109 0 109 222v43h-157v120h157z" />
    <glyph glyph-name="lira" unicode="&#x20a4;" horiz-adv-x="1108" 
d="M644 1368h-4q-110 0 -173 -93q-57 -83 -57 -228q0 -21 1 -42q0 -75 26 -173h373v-80h-348q14 -43 33 -90h349v-80h-317q16 -54 16 -110q0 -170 -146 -362h393q94 0 154 133h92l-111 -253h-801l1 54q177 226 177 422q0 59 -16 116h-180v80h149l-1 1h1q-20 47 -35 89h-148
v80h120q-29 95 -29 154q0 220 131.5 349t342.5 129h7q99 0 205 -16q132 -17 132 -41v-193h-69q-3 51 -81 103q-78 51 -187 51z" />
    <glyph glyph-name="peseta" unicode="&#x20a7;" horiz-adv-x="2216" 
d="M510 1365v-647q0 -104 62 -155q50 -42 90 -42h5q27 4 73 60.5t72 169.5q21 91 21 187q0 23 -1 47q-7 122 -45.5 223.5t-82.5 129t-77 27.5h-117zM1557 -5q-44 -9 -98 -9q-157 0 -218.5 64t-61.5 172v678h-102q-8 -89 -42 -175q-45 -110 -141 -183.5t-215 -73.5
q-124 0 -169 68v-245q0 -222 89 -222h108v-69h-619v69h90q71 0 71 222v852q0 222 -71 222h-90v69h597q112 0 207 -72t141 -183q44 -108 46 -220h31q168 0 208 349h107v-349h276q55 17 125 18h2q82 0 171.5 -16.5t89.5 -35.5v-162h-67q-25 80 -70.5 113.5t-131.5 33.5
q-42 0 -77.5 -28t-35.5 -97q0 -114 222 -218q133 -59 179.5 -121.5t46.5 -143.5q0 -128 -101.5 -221t-256.5 -93q-52 0 -119 15q-37 -3 -52 -54l-52 1zM1425 898v-676q0 -90 32 -120q23 -23 71 -28l-74 198h89q82 -216 248 -216q69 0 119 44t50 135q0 108 -247 225
q-111 57 -155 116.5t-44 133.5q0 110 80 188h-169z" />
    <glyph glyph-name="Euro" unicode="&#x20ac;" horiz-adv-x="1108" 
d="M90 853q19 109 68 217q80 176 238 280t333 104q94 0 142.5 -21t57.5 -21q21 0 21 44h84l89 -298h-89q-56 133 -152 178.5t-197 45.5q-150 -9 -257 -202q-79 -142 -100 -327h571l-17 -80h-561q-1 -30 -1 -60h546l-17 -80h-526q18 -208 131 -383q133 -209 290 -209h2
q130 2 221.5 72t93.5 185h81v-146q0 -56 -94.5 -117t-301.5 -64q-196 0 -353.5 105.5t-235.5 279.5q-62 136 -75 277h-126l17 80h105q0 30 2 60h-90l17 80h83z" />
    <glyph glyph-name="afii61352" unicode="&#x2116;" horiz-adv-x="2271" 
 />
    <glyph glyph-name="trademark" unicode="&#x2122;" horiz-adv-x="1775" 
d="M32 1380h653v-163h-229v-652h-199v652h-225v163zM1685 565h-195l-18 389q0 10 -6 277h-4q-34 -138 -78 -277l-117 -374h-154l-104 381l-66 270h-4q0 -78 -6 -273l-20 -393h-181l56 815h272l90 -317q2 -6 58 -234h4q17 67 65 236l98 315h256z" />
    <glyph glyph-name="partialdiff" unicode="&#x2202;" horiz-adv-x="1108" 
d="M336 458q14 -124 62.5 -231.5t107.5 -154.5q51 -41 86 -41h6q39 3 89 59t74 171q16 75 16 154q0 43 -5 86q-14 124 -63 233t-108 155q-53 40 -90 40h-4q-34 -2 -84 -57.5t-76 -171.5q-16 -86 -16 -161q0 -43 5 -81zM1036 480q0 -124 -56 -241t-172.5 -190t-253.5 -73
t-253.5 73t-172.5 190t-56 241t57.5 241.5t174.5 190t250 72.5q157 0 200 -58q-72 185 -212 316.5t-334 146.5v70q397 0 612.5 -290t215.5 -689z" />
    <glyph glyph-name="Delta" unicode="&#x2206;" horiz-adv-x="1235" 
d="M599 1470l577 -1470h-1170zM153 102h728l-359 915z" />
    <glyph glyph-name="product" unicode="&#x220f;" horiz-adv-x="1673" 
d="M644 1365q-98 0 -98 -223v-1268q0 -223 99 -223h100v-71h-648v71h100q99 0 99 223v1268q0 223 -99 223h-100v69h1507v-69h-101q-98 0 -98 -223v-1268q0 -223 99 -223h100v-70h-648v70h100q99 0 99 223v1268q0 223 -99 223h-412z" />
    <glyph glyph-name="summation" unicode="&#x2211;" horiz-adv-x="1285" 
d="M1061 639l-767 -990h686q94 0 153 131h93l-111 -200h-1003v69q75 0 116 53l613 790l-613 818q-41 54 -116 54v70h1003l111 -201h-93q-59 131 -153 131h-466z" />
    <glyph glyph-name="minus" unicode="&#x2212;" horiz-adv-x="1220" 
d="M81 643h1057v-192h-1057v192z" />
    <glyph glyph-name="radical" unicode="&#x221a;" horiz-adv-x="1108" 
d="M347 -26l-185 431l142 48l77 -171l648 1377h166v-80h-93z" />
    <glyph glyph-name="infinity" unicode="&#x221e;" horiz-adv-x="1108" 
d="M469 758q-11 66 -75 95q-49 22 -93 22q-13 0 -26 -2q-56 -11 -103.5 -45t-66.5 -74q-18 -36 -18 -63v-6q1 -30 24.5 -64t75.5 -51q34 -12 70 -12q19 0 38 3q55 12 100 43.5t74 153.5zM515 683q8 -60 96 -116q72 -46 135 -46q13 0 26 2q71 13 131.5 53t87.5 91
q25 47 25 84v5q-2 40 -34.5 82.5t-97.5 63.5q-43 13 -88 13q-24 0 -48 -4q-77 -10 -141 -61t-92 -167zM489 862q7 23 22 62q40 95 109 144.5t139 49.5q71 0 139 -48.5t110 -145t42 -207.5q0 -110 -42 -207t-110 -145.5t-139 -48.5q-70 0 -139 49t-109 145q-15 39 -22 63
q-2 -11 -12 -33q-32 -81 -85 -122t-108 -41q-53 0 -107.5 41.5t-86.5 124t-32 174.5q0 91 32 174t86.5 124.5t107.5 41.5q55 0 108 -41t85 -120q11 -25 12 -34z" />
    <glyph glyph-name="integral" unicode="&#x222b;" horiz-adv-x="678" 
d="M45 -286q-97 0 -97 35v165h71q1 -55 25 -70.5t75 -15.5q67 0 88.5 157t29.5 312l70 733l8 62q26 234 138 432t269 198q98 0 98 -35v-165h-72q-1 55 -25.5 70.5t-74.5 15.5q-56 0 -89.5 -150.5t-37.5 -361.5l-73 -766q-20 -226 -134 -421t-269 -195z" />
    <glyph glyph-name="approxequal" unicode="&#x2248;" horiz-adv-x="1108" 
d="M998 1103v-233q-63 -73 -125 -99.5t-123 -26.5q-63 0 -200 48.5t-193 48.5q-47 0 -100.5 -26.5t-146.5 -133.5v233q64 73 126 100.5t121 27.5q67 0 204 -49.5t189 -49.5q48 0 101.5 26.5t146.5 133.5zM998 755v-233q-63 -73 -125 -99.5t-123 -26.5q-63 0 -200 48.5
t-193 48.5q-47 0 -100.5 -26.5t-146.5 -133.5v233q64 73 126 100.5t121 27.5q67 0 204 -49.5t189 -49.5q48 0 101.5 26.5t146.5 133.5z" />
    <glyph glyph-name="lessequal" unicode="&#x2264;" horiz-adv-x="1108" 
d="M1028 1066l-637 -350l637 -347v-206l-948 521v65l948 524v-207zM80 1v160h948v-160h-948z" />
    <glyph glyph-name="greaterequal" unicode="&#x2265;" horiz-adv-x="1108" 
d="M80 1272l948 -524v-65l-948 -521v206l637 347l-637 350v207zM80 1v160h948v-160h-948z" />
    <glyph glyph-name="uniF001" unicode="&#xf001;" horiz-adv-x="1204" 
d="M472 0h-313v772h-131v229h131v43q0 201 148 320q141 113 376 113q195 0 295 -62l-59 -235q-94 51 -227 51q-222 0 -222 -195v-35h609v-1001h-312v772h-295v-772z" />
    <glyph glyph-name="uniF001" unicode="&#xfb01;" horiz-adv-x="1204" 
d="M472 0h-313v772h-131v229h131v43q0 201 148 320q141 113 376 113q195 0 295 -62l-59 -235q-94 51 -227 51q-222 0 -222 -195v-35h609v-1001h-312v772h-295v-772z" />
    <glyph glyph-name="uniF002" unicode="&#xf002;" horiz-adv-x="1204" 
d="M835 0h-313v772h-131v229h131v46q0 193 154 317q140 113 381 113q229 0 385 -84v-1393h-312v1225q-37 20 -118 20q-179 0 -179 -203v-41h181v-229h-179v-772z" />
    <glyph glyph-name="uniF002" unicode="&#xfb02;" horiz-adv-x="1204" 
d="M835 0h-313v772h-131v229h131v46q0 193 154 317q140 113 381 113q229 0 385 -84v-1393h-312v1225q-37 20 -118 20q-179 0 -179 -203v-41h181v-229h-179v-772z" />
  </font>
</defs>
</svg>
