<?xml version="1.0" standalone="no"?>
<!DOCTYPE svg PUBLIC "-//W3C//DTD SVG 1.1//EN" "http://www.w3.org/Graphics/SVG/1.1/DTD/svg11.dtd" >
<svg>
<metadata>
Created by FontForge 20090914 at Fri Feb 24 06:23:22 2012
 By root
Copyright (c) Yanone, 2004. All rights reserved.
</metadata>
<defs>
<font id="YanoneKaffeesatz-Regular" horiz-adv-x="418" >
  <font-face 
    font-family="Yanone Kaffeesatz"
    font-weight="400"
    font-stretch="normal"
    units-per-em="1000"
    panose-1="2 0 0 0 0 0 0 0 0 0"
    ascent="800"
    descent="-200"
    x-height="500"
    cap-height="700"
    bbox="-102 -222 946 988"
    underline-thickness="50"
    underline-position="-75"
    unicode-range="U+0020-U+FB04"
  />
<missing-glyph horiz-adv-x="237" 
 />
    <glyph glyph-name="fi" unicode="fi" horiz-adv-x="402" 
d="M79 431h-69c0 64 0 69 21 69h48v61c0 158 95 173 181 173c67 0 114 -17 114 -30c0 -25 -3 -45 -8 -59c-27 14 -56 22 -98 22c-60 0 -108 -7 -108 -94v-73h70c0 -64 -1 -69 -17 -69h-53v-414s0 -17 -16 -17h-65v431zM357 500v-483c0 -17 0 -17 -82 -17v463
c0 37 16 37 82 37z" />
    <glyph glyph-name="fl" unicode="fl" horiz-adv-x="412" 
d="M79 431h-69c0 64 0 69 21 69h48v61c0 158 95 173 157 173c51 0 98 -14 130 -34v-683s0 -17 -16 -17h-65v660c-15 5 -32 7 -44 7c-34 0 -81 -4 -81 -94v-73h80c0 -64 -1 -69 -17 -69h-63v-414s0 -17 -17 -17h-64v431z" />
    <glyph glyph-name="ff" unicode="ff" horiz-adv-x="456" 
d="M284 431h-122v-414s0 -17 -16 -17h-65v431h-69c0 64 0 69 22 69h47v61c0 158 99 173 157 173c43 0 72 -15 94 -34c33 29 79 34 120 34c77 0 93 -15 93 -31c0 -22 -4 -34 -9 -48c-25 10 -49 12 -71 12c-53 0 -100 -7 -100 -94v-73h90c0 -64 -2 -69 -18 -69h-72v-414
s0 -17 -16 -17h-65v431zM243 500h41v61c0 38 5 68 14 91c-15 11 -34 15 -59 15c-26 0 -77 -7 -77 -94v-73h75h6z" />
    <glyph glyph-name="ffi" unicode="ffi" horiz-adv-x="606" 
d="M281 431h-121v-414s0 -17 -17 -17h-64v431h-69c0 64 0 69 21 69h48v61c0 158 98 173 157 173c43 0 72 -15 94 -34c34 29 83 34 131 34c65 0 115 -15 115 -29c0 -22 -3 -46 -8 -60c-32 16 -60 22 -106 22c-52 0 -100 -7 -100 -94v-73h69c0 -64 -1 -69 -17 -69h-52v-414
s0 -17 -16 -17h-65v431zM559 500v-483c0 -17 -1 -17 -83 -17v463c0 37 17 37 83 37zM160 573v-73h75h6h40v61c0 38 5 68 15 91c-16 11 -35 15 -60 15c-26 0 -76 -7 -76 -94z" />
    <glyph glyph-name="ffl" unicode="ffl" horiz-adv-x="616" 
d="M281 431h-121v-414s0 -17 -17 -17h-64v431h-69c0 64 0 69 21 69h48v61c0 158 98 173 157 173c42 0 72 -15 93 -34c33 29 77 34 109 34c62 0 107 -19 132 -34v-683c0 -17 0 -17 -82 -17v660c-11 4 -24 7 -44 7c-38 0 -82 -7 -82 -94v-73h69c0 -64 -1 -69 -17 -69h-52v-414
s0 -17 -16 -17h-65v431zM241 500h40v61c0 38 5 68 15 91c-16 11 -35 15 -60 15c-26 0 -76 -7 -76 -94v-73h75h6z" />
    <glyph glyph-name=".notdef" horiz-adv-x="237" 
 />
    <glyph glyph-name=".notdef" horiz-adv-x="237" 
 />
    <glyph glyph-name="space" unicode=" " horiz-adv-x="237" 
 />
    <glyph glyph-name="exclam" unicode="!" horiz-adv-x="195" 
d="M59 214l-14 468c-1 23 17 24 111 24l-16 -454c-2 -36 -20 -38 -81 -38zM42 48c0 31 20 58 55 58c41 0 56 -23 56 -58c0 -31 -21 -57 -56 -57c-42 0 -55 22 -55 57z" />
    <glyph glyph-name="quotedbl" unicode="&#x22;" horiz-adv-x="264" 
d="M90 586c-1 -1 -45 -3 -45 -3c-1 9 -22 193 -11 199c10 7 58 4 77 1c0 -54 -14 -191 -21 -197zM213 586c-1 -1 -45 -3 -45 -3c-1 9 -22 193 -11 199c10 7 58 4 77 1c0 -54 -14 -191 -21 -197z" />
    <glyph glyph-name="numbersign" unicode="#" 
d="M27 190h55l-4 -83c51 0 71 0 72 17l3 66h96l-4 -83c50 0 70 0 71 17l3 66h55c16 0 16 14 16 64h-67l5 106h46c16 0 16 14 16 64h-58l4 80c-50 0 -70 0 -71 -17l-3 -63h-96l4 80c-50 0 -71 0 -72 -17l-3 -63h-51c-17 0 -17 -13 -17 -64h64l-5 -106h-42
c-17 0 -17 -13 -17 -64zM157 254l5 106h96l-5 -106h-96z" />
    <glyph glyph-name="dollar" unicode="$" 
d="M163 -130v116c-77 4 -111 29 -111 44c0 9 9 49 22 65c20 -16 54 -29 106 -29c63 0 93 31 93 85c0 38 -14 62 -55 105l-112 121c-36 39 -53 75 -53 111c0 71 46 116 127 127v89c0 28 26 32 74 32v-120c75 -5 103 -26 103 -35c0 -12 -5 -39 -20 -57c-13 9 -52 21 -98 21
c-59 0 -97 -14 -97 -56c0 -28 14 -49 43 -80l121 -128c40 -40 57 -79 57 -131c0 -77 -30 -143 -126 -160v-88c0 -27 -24 -32 -74 -32z" />
    <glyph glyph-name="percent" unicode="%" horiz-adv-x="707" 
d="M53 530c0 126 52 183 141 183c90 0 133 -40 133 -182c0 -129 -49 -187 -139 -187c-88 0 -135 29 -135 186zM381 176c0 126 52 183 141 183c90 0 133 -40 133 -182c0 -129 -49 -187 -139 -187c-88 0 -135 29 -135 186zM164 -28c0 0 414 696 414 709c0 20 -46 35 -46 35
c0 2 -418 -689 -418 -713c0 -17 50 -31 50 -31zM457 172c0 -102 21 -121 61 -121c35 0 62 28 62 123c0 99 -18 120 -58 120c-39 0 -65 -26 -65 -122zM131 528c0 -102 21 -121 59 -121c36 0 62 28 62 123c0 99 -18 120 -58 120c-38 0 -63 -26 -63 -122z" />
    <glyph glyph-name="ampersand" unicode="&#x26;" horiz-adv-x="502" 
d="M228 706c-106 0 -167 -47 -167 -138c0 -54 32 -131 78 -210c-59 -38 -113 -104 -113 -188c0 -93 39 -180 186 -180c68 0 116 26 148 63c36 -40 64 -64 74 -64c19 0 50 32 54 65c-20 9 -50 37 -84 74c20 56 25 115 25 153c0 94 -21 129 -35 155l49 -1c37 0 42 16 42 36
c0 14 -2 28 -2 30c-24 2 -48 3 -78 3c-23 0 -79 -1 -115 -8c33 -40 60 -100 60 -205c0 -22 -1 -55 -8 -90c-96 123 -196 285 -196 357c0 67 41 76 91 76c45 0 82 -8 120 -35c12 15 20 41 20 60c0 24 -61 47 -149 47zM174 299c42 -66 90 -131 133 -184
c-21 -29 -53 -48 -100 -48c-74 0 -97 50 -97 101c0 62 26 103 64 131z" />
    <glyph glyph-name="quoteright" unicode="&#x2019;" horiz-adv-x="175" 
d="M36 740c0 -22 6 -39 23 -49c-2 -28 -4 -57 -25 -96c4 -17 17 -23 32 -23c19 0 75 88 75 161c0 41 -19 59 -55 59c-29 0 -50 -22 -50 -52z" />
    <glyph glyph-name="parenleft" unicode="(" horiz-adv-x="292" 
d="M148 328c0 211 63 349 123 428c-9 39 -19 52 -45 52c-15 0 -161 -150 -161 -483c0 -359 143 -516 161 -516c28 0 38 24 45 61c-52 59 -124 227 -123 458z" />
    <glyph glyph-name="parenright" unicode=")" horiz-adv-x="292" 
d="M144 328c0 197 -57 349 -123 428c9 39 19 52 45 52c15 0 162 -142 162 -483c0 -338 -144 -516 -162 -516c-27 0 -38 24 -45 61c55 71 124 220 123 458z" />
    <glyph glyph-name="asterisk" unicode="*" horiz-adv-x="470" 
d="M66 300l121 123c12 12 24 10 37 -8l-88 -156c-18 -27 -56 13 -70 41zM327 245l-78 159c-6 13 -4 20 22 30l116 -135c19 -23 -29 -49 -60 -54zM282 495l148 80c26 -21 34 -75 9 -82l-159 -38c-17 23 -13 32 2 40zM69 569l130 -82c2 -24 -9 -33 -24 -28l-159 44
c-1 49 34 75 53 66zM278 677l-20 -158c-3 -15 -8 -22 -37 -15l-22 163c-3 30 49 24 79 10z" />
    <glyph glyph-name="plus" unicode="+" 
d="M34 246h140v-139c50 0 71 0 71 17v122h123c16 0 16 21 16 71h-139v140c-51 0 -71 0 -71 -16v-124h-123c-17 0 -17 -20 -17 -71z" />
    <glyph glyph-name="comma" unicode="," horiz-adv-x="183" 
d="M43 55c0 -22 6 -39 23 -49c-2 -29 -5 -47 -28 -86c4 -17 17 -23 32 -23c18 0 79 77 79 150c0 41 -20 60 -55 60c-30 0 -51 -23 -51 -52z" />
    <glyph glyph-name="hyphen" unicode="-" horiz-adv-x="278" 
d="M225 246h-188c0 51 0 71 17 71h187c0 -50 0 -71 -16 -71z" />
    <glyph glyph-name="hyphen" unicode="&#xad;" horiz-adv-x="278" 
d="M225 246h-188c0 51 0 71 17 71h187c0 -50 0 -71 -16 -71z" />
    <glyph glyph-name="period" unicode="." horiz-adv-x="183" 
d="M37 48c0 31 20 58 56 58c41 0 56 -23 56 -58c0 -31 -21 -57 -56 -57c-42 0 -56 22 -56 57z" />
    <glyph glyph-name="slash" unicode="/" horiz-adv-x="335" 
d="M325 765l-225 -765c-5 -19 -10 -20 -90 -20l225 763c6 20 9 22 90 22z" />
    <glyph glyph-name="zero" unicode="0" 
d="M29 296c0 198 53 304 182 304s178 -93 178 -280c0 -217 -44 -336 -183 -336c-138 0 -177 114 -177 312zM116 290c0 -165 23 -232 92 -232c68 0 96 83 96 263c0 136 -20 207 -89 207c-76 0 -99 -89 -99 -238z" />
    <glyph glyph-name="one" unicode="1" 
d="M69 498c0 0 81 17 114 18l-11 -439c-61 0 -144 -4 -144 -20c0 -17 1 -41 2 -57h343c16 0 16 25 16 80c0 0 -27 -3 -58 -3h-74l13 518c-3 3 -15 5 -23 5c-34 0 -190 -34 -190 -49c0 -20 5 -39 12 -53z" />
    <glyph glyph-name="two" unicode="2" 
d="M59 487v1c33 19 94 34 146 34c56 0 77 -27 77 -69c0 -111 -141 -210 -229 -357c-18 -32 -24 -43 -24 -71c0 -5 1 -17 3 -25h340c16 0 16 23 16 84c0 0 -64 -7 -118 -7h-134c97 151 238 248 238 387c0 87 -33 136 -148 136c-97 0 -177 -29 -177 -53c0 -14 1 -38 10 -60z
" />
    <glyph glyph-name="three" unicode="3" 
d="M246 301c72 -7 131 -50 131 -149c0 -166 -96 -252 -226 -252c-74 0 -107 23 -107 49c0 29 7 46 11 60c23 -20 57 -31 98 -31c88 0 137 72 137 172c0 86 -77 103 -159 103l-2 52c85 40 133 97 133 152c0 30 -9 65 -72 65c-54 0 -102 -14 -137 -35v-1c-10 20 -11 46 -11 60
c0 26 67 54 173 54s139 -55 139 -119c0 -81 -53 -140 -108 -180z" />
    <glyph glyph-name="four" unicode="4" 
d="M316 206l3 388c-10 6 -26 12 -46 12c-14 0 -25 -5 -37 -14c-76 -65 -208 -341 -208 -390c0 -23 6 -52 26 -72h181v-130c81 0 81 0 81 26v104h51c19 0 26 24 27 50c0 21 -4 29 -4 29s-35 -3 -74 -3zM235 206h-137c22 90 99 232 148 288z" />
    <glyph glyph-name="five" unicode="5" 
d="M377 600h-306l-29 -295c18 5 55 13 96 13c94 0 155 -26 155 -141c0 -102 -43 -201 -153 -201c-43 0 -74 10 -97 31c-7 -20 -9 -36 -9 -66c0 -14 34 -41 114 -41c159 0 231 116 231 294c0 173 -118 193 -196 192c-33 0 -52 -4 -58 -5l15 150s162 -4 194 -4
c38 0 43 12 43 73z" />
    <glyph glyph-name="six" unicode="6" 
d="M265 623c-89 0 -149 -71 -156 -256c30 48 73 72 137 72c85 0 145 -55 145 -194c0 -171 -65 -259 -190 -259c-154 0 -170 129 -170 322c0 298 98 392 227 392c56 0 109 -8 109 -34c0 -16 -2 -37 -8 -56c-25 9 -57 13 -94 13zM222 364c-43 0 -81 -24 -113 -74v-6
c-3 -156 29 -225 96 -225c69 0 106 76 106 169c0 88 -31 136 -89 136z" />
    <glyph glyph-name="seven" unicode="7" 
d="M404 600h-360c0 -37 5 -73 23 -73c104 0 188 1 226 4c-78 -123 -186 -385 -213 -597c0 -19 22 -22 83 -22c27 227 119 449 241 688z" />
    <glyph glyph-name="eight" unicode="8" 
d="M209 706c92 0 178 -33 178 -162c0 -87 -54 -138 -108 -175c19 -15 38 -30 53 -46c38 -39 59 -82 59 -141c0 -105 -57 -191 -174 -191c-133 0 -186 87 -186 193c0 86 50 154 114 192c-25 17 -49 34 -65 53c-27 26 -42 65 -42 105c0 116 79 172 171 172zM268 285
c-17 17 -37 32 -58 47c-57 -30 -103 -78 -103 -144c0 -72 40 -118 105 -118c61 0 100 43 100 114c0 54 -21 80 -44 101zM220 629c-54 0 -100 -27 -100 -90c0 -35 13 -60 39 -81c13 -14 35 -30 60 -47c51 33 93 75 93 130c0 62 -45 88 -92 88z" />
    <glyph glyph-name="nine" unicode="9" 
d="M128 -26c129 0 171 105 180 253c-31 -46 -71 -70 -135 -70c-83 0 -146 70 -146 201c0 171 65 251 190 251c143 0 169 -79 172 -312c-2 -272 -78 -401 -251 -401c-49 0 -90 9 -90 33c0 16 4 41 8 55c23 -7 47 -10 72 -10zM197 232c42 0 81 22 114 72v6
c0 149 -13 227 -93 227c-68 0 -111 -56 -111 -169c0 -88 35 -136 90 -136z" />
    <glyph glyph-name="colon" unicode=":" horiz-adv-x="183" 
d="M37 386c0 31 21 58 56 58c41 0 56 -24 56 -58c0 -32 -21 -57 -56 -57c-42 0 -56 21 -56 57zM37 48c0 31 21 58 56 58c41 0 56 -23 56 -58c0 -31 -21 -57 -56 -57c-42 0 -56 22 -56 57z" />
    <glyph glyph-name="semicolon" unicode=";" horiz-adv-x="183" 
d="M39 55c0 -22 6 -39 23 -49c-2 -29 -6 -47 -28 -86c4 -17 17 -23 32 -23c18 0 78 77 78 150c0 41 -19 60 -55 60c-29 0 -50 -23 -50 -52zM35 386c0 31 21 58 56 58c41 0 56 -24 56 -58c0 -32 -21 -57 -56 -57c-42 0 -56 21 -56 57z" />
    <glyph glyph-name="semicolon" unicode="&#x37e;" horiz-adv-x="183" 
d="M39 55c0 -22 6 -39 23 -49c-2 -29 -6 -47 -28 -86c4 -17 17 -23 32 -23c18 0 78 77 78 150c0 41 -19 60 -55 60c-29 0 -50 -23 -50 -52zM35 386c0 31 21 58 56 58c41 0 56 -24 56 -58c0 -32 -21 -57 -56 -57c-42 0 -56 21 -56 57z" />
    <glyph glyph-name="equal" unicode="=" 
d="M34 339h334c16 0 16 21 16 71h-333c-17 0 -17 -20 -17 -71zM34 153h334c16 0 16 21 16 71h-333c-17 0 -17 -20 -17 -71z" />
    <glyph glyph-name="question" unicode="?" horiz-adv-x="295" 
d="M144 710c-58 0 -125 -19 -125 -43s5 -44 12 -64c12 8 39 25 83 25c43 0 82 -15 82 -77c0 -75 -57 -119 -100 -199c-39 -71 -3 -143 -3 -143c24 -4 64 -3 73 8c10 12 -21 65 6 114c37 66 111 119 111 240c0 93 -55 139 -139 139zM74 48c0 31 21 58 56 58
c41 0 56 -23 56 -58c0 -31 -21 -57 -56 -57c-42 0 -56 22 -56 57z" />
    <glyph glyph-name="at" unicode="@" horiz-adv-x="738" 
d="M609 338c0 -199 -48 -266 -86 -266c-11 0 -22 2 -32 6c2 24 4 57 5 99l5 201c2 89 -37 116 -110 116c-69 0 -108 -15 -127 -26c-5 -5 -8 -11 -9 -20c0 -8 1 -32 9 -47c31 17 59 25 100 25c39 0 62 -13 60 -58c0 -26 -2 -61 -2 -61c-16 9 -39 11 -58 11
c-66 0 -125 -34 -127 -163c-1 -136 54 -155 125 -154c57 0 94 12 109 24c15 -13 35 -23 61 -23c56 0 161 31 161 357c0 239 -104 323 -299 323c-208 0 -347 -121 -347 -418c0 -409 144 -449 328 -449c154 0 248 34 248 64c0 19 -9 41 -22 58c-59 -24 -128 -43 -232 -43
c-156 0 -239 59 -239 359c0 274 91 357 262 357c165 0 217 -70 217 -272zM422 258l-4 -143c-1 -40 -24 -53 -50 -53c-36 0 -54 18 -54 90c1 87 31 109 73 109c15 0 28 -2 35 -3z" />
    <glyph glyph-name="A" unicode="A" horiz-adv-x="437" 
d="M348 0l-44 178h-171l-39 -164c-3 -11 -6 -16 -38 -16c-11 0 -32 1 -51 3l178 688c2 10 19 14 31 14c14 0 29 -1 38 -3l179 -685c3 -11 -3 -17 -35 -17c-12 0 -28 0 -48 2zM186 394l-35 -142h135l-34 142c-16 66 -29 121 -33 169c-4 -48 -18 -102 -33 -169z" />
    <glyph glyph-name="B" unicode="B" horiz-adv-x="376" 
d="M43 0v681c0 12 6 19 27 19h99c80 0 168 -27 168 -143c0 -105 -38 -149 -65 -164c-6 -3 -13 -6 -31 -9c12 0 21 -1 29 -3c16 -4 89 -21 89 -143c0 -168 -86 -238 -190 -238h-126zM126 343v-270s37 -2 45 -2c50 0 93 46 93 164c0 99 -38 109 -92 109c-9 0 -46 -1 -46 -1z
M126 626v-211s39 -1 49 -1c38 0 73 36 73 124c0 72 -36 90 -74 90c-9 0 -48 -2 -48 -2z" />
    <glyph glyph-name="C" unicode="C" horiz-adv-x="339" 
d="M228 715c74 0 94 -32 94 -48c0 -26 -5 -43 -13 -56c-10 9 -34 25 -62 25c-66 0 -130 -47 -130 -310c0 -204 41 -251 103 -251c35 0 72 15 89 31c6 -13 12 -33 12 -59c0 -23 -50 -62 -110 -62c-99 0 -180 24 -180 336c0 342 108 394 197 394z" />
    <glyph glyph-name="D" unicode="D" horiz-adv-x="393" 
d="M71 700h97c131 0 196 -71 196 -306c0 -301 -72 -394 -195 -394h-125v681c0 12 5 19 27 19zM271 394c0 185 -33 231 -100 231h-46v-547l45 -1c52 0 101 40 101 317z" />
    <glyph glyph-name="E" unicode="E" horiz-adv-x="320" 
d="M126 73h171c0 -68 0 -73 -16 -73h-237v684s1 16 17 16h240c0 -65 0 -73 -16 -73h-159v-209h150c0 -61 0 -75 -15 -75h-135v-270z" />
    <glyph glyph-name="F" unicode="F" horiz-adv-x="312" 
d="M110 0h-66v684s1 16 17 16h240c0 -65 0 -70 -16 -70h-159v-212h150c0 -61 0 -74 -15 -74h-135v-327s1 -17 -16 -17z" />
    <glyph glyph-name="G" unicode="G" horiz-adv-x="385" 
d="M241 712c67 0 107 -25 107 -45c0 -21 -5 -41 -11 -56c-17 14 -46 24 -79 24c-102 0 -144 -72 -144 -295c0 -238 38 -276 103 -276c36 0 58 17 58 25v253h-73v52s0 17 19 17h131l-1 -382c-20 -19 -67 -44 -136 -44c-134 0 -188 68 -188 349c0 317 82 378 214 378z" />
    <glyph glyph-name="H" unicode="H" horiz-adv-x="409" 
d="M284 0v341h-159v-324c0 -17 1 -17 -81 -17v684c0 16 -1 16 81 16v-285h159v269c0 16 -1 16 81 16v-683c0 -17 1 -17 -81 -17z" />
    <glyph glyph-name="I" unicode="I" horiz-adv-x="168" 
d="M43 0c0 0 1 171 1 350c0 153 -1 313 -1 313c0 37 1 37 82 37c0 0 -1 -198 -1 -350c0 -179 1 -333 1 -333c0 -17 -1 -17 -82 -17z" />
    <glyph glyph-name="J" unicode="J" horiz-adv-x="306" 
d="M180 663v-464c0 -101 -6 -143 -65 -143c-32 0 -63 14 -82 33c-5 -10 -13 -25 -13 -53c0 -22 24 -52 110 -52c111 0 133 75 133 174v542c-83 0 -83 0 -83 -37z" />
    <glyph glyph-name="K" unicode="K" horiz-adv-x="393" 
d="M42 0v684c0 16 0 16 83 16v-298l159 293c17 4 46 4 59 4c23 0 33 -6 25 -22l-159 -275c130 -113 158 -384 158 -384c1 -15 -5 -20 -24 -20c-29 0 -48 1 -66 2c0 73 -33 237 -116 322c-11 11 -23 18 -36 23v-328c0 -17 0 -17 -83 -17z" />
    <glyph glyph-name="L" unicode="L" horiz-adv-x="317" 
d="M125 76v624c-80 0 -82 0 -82 -23v-677h238c16 0 16 17 16 17v59h-172z" />
    <glyph glyph-name="M" unicode="M" horiz-adv-x="489" 
d="M43 0v684s0 16 17 16h59l95 -302c12 -39 30 -104 32 -111c1 4 17 71 29 108l88 289c3 9 6 16 16 16h66v-683c0 -17 0 -17 -83 -17l3 274c1 67 14 220 17 259c-21 -76 -55 -196 -63 -219l-53 -152c-2 -7 -7 -8 -11 -8h-35l-52 160c-8 22 -43 148 -64 225
c0 0 17 -185 18 -260l2 -262c0 -17 -5 -17 -81 -17z" />
    <glyph glyph-name="N" unicode="N" horiz-adv-x="444" 
d="M323 0l-114 275c-18 45 -70 205 -95 283c6 -65 11 -256 11 -299v-242c0 -17 1 -17 -82 -17v684s0 16 17 16h62l112 -270c20 -52 71 -207 95 -282v3c-7 60 -9 250 -9 297v236c0 16 -2 16 81 16v-683s0 -17 -17 -17h-61z" />
    <glyph glyph-name="O" unicode="O" horiz-adv-x="422" 
d="M27 354c0 266 59 361 189 361c129 0 180 -88 180 -358c0 -275 -57 -372 -189 -372c-129 0 -180 81 -180 369zM118 334c0 -186 22 -265 93 -265c72 0 97 82 97 286c0 200 -20 277 -93 277c-69 0 -97 -82 -97 -298z" />
    <glyph glyph-name="P" unicode="P" horiz-adv-x="360" 
d="M66 700h93c126 0 184 -59 184 -198c0 -164 -84 -218 -183 -218h-35v-267c0 -17 1 -17 -82 -17v684s0 16 17 16h3h3zM253 512c0 71 -20 117 -79 117c-27 0 -43 -1 -49 -2v-266c7 0 35 -2 43 -2c56 0 85 41 85 153z" />
    <glyph glyph-name="Q" unicode="Q" horiz-adv-x="430" 
d="M30 354c0 266 60 361 189 361c130 0 180 -88 180 -358c0 -221 -37 -327 -119 -360c9 -46 20 -70 49 -70c18 0 46 5 66 17c8 -12 12 -33 12 -48c0 -27 -56 -37 -98 -37c-80 0 -109 70 -123 127c-112 11 -156 99 -156 368zM121 334c0 -186 22 -265 93 -265
c72 0 97 82 97 286c0 200 -20 277 -92 277c-70 0 -98 -82 -98 -298z" />
    <glyph glyph-name="R" unicode="R" horiz-adv-x="373" 
d="M66 700h42h3h48c126 0 184 -59 184 -198c0 -106 -36 -167 -87 -196c31 -41 84 -130 94 -287c0 -16 -3 -21 -37 -21c-13 0 -34 1 -52 2c-11 170 -58 253 -83 285c-6 -1 -12 -1 -18 -1h-35v-267c0 -17 1 -17 -82 -17v684s0 16 17 16h3h3zM253 512c0 71 -20 117 -79 117
c-27 0 -43 -1 -49 -2v-266c7 0 35 -2 43 -2c56 0 85 41 85 153z" />
    <glyph glyph-name="S" unicode="S" horiz-adv-x="358" 
d="M191 715c102 0 138 -29 138 -41c0 -15 -5 -35 -20 -56c-13 11 -52 25 -98 25c-59 0 -97 -25 -97 -71c0 -33 16 -61 46 -97l120 -148c40 -47 55 -92 55 -152c0 -103 -40 -190 -179 -190c-91 0 -131 34 -131 51c0 11 9 48 22 67c20 -19 54 -35 106 -35c63 0 94 41 94 104
c0 44 -14 77 -56 126l-112 140c-36 45 -53 86 -53 128c0 94 60 149 165 149z" />
    <glyph glyph-name="T" unicode="T" horiz-adv-x="373" 
d="M348 624h-123v-608c0 -16 1 -16 -81 -16v624h-136v60c0 16 17 16 17 16h340v-59c0 -17 -17 -17 -17 -17z" />
    <glyph glyph-name="U" unicode="U" horiz-adv-x="437" 
d="M127 227v473c-84 0 -84 0 -84 -17v-465c0 -107 0 -233 180 -233c79 0 145 14 170 31v684c-83 0 -82 0 -82 -17v-605c-17 -9 -48 -18 -88 -18c-97 0 -96 90 -96 167z" />
    <glyph glyph-name="V" unicode="V" horiz-adv-x="420" 
d="M7 676c0 0 100 -467 139 -630c8 -34 22 -59 48 -59c31 0 46 2 68 5c7 0 154 708 154 708h-71c-15 0 -18 -8 -21 -24l-74 -367c-17 -89 -30 -160 -36 -224c-6 64 -22 134 -39 224l-84 391h-66c-22 0 -22 -7 -18 -24z" />
    <glyph glyph-name="W" unicode="W" horiz-adv-x="655" 
d="M7 676c0 0 84 -460 119 -626c7 -36 20 -61 41 -61c34 0 50 1 75 3l56 282c9 52 21 156 28 225c8 -69 20 -173 31 -226l50 -229c7 -35 21 -57 45 -57c31 0 38 1 67 5c7 0 131 708 131 708h-69c-15 0 -18 -8 -21 -24l-64 -367c-14 -90 -22 -155 -28 -219
c-7 64 -17 129 -33 219l-70 358h-19h-4h-35h-1c-15 0 -17 -8 -20 -25l-62 -333c-15 -90 -22 -155 -28 -219c-6 64 -17 129 -33 219l-72 391h-67c-19 0 -20 -8 -17 -24z" />
    <glyph glyph-name="X" unicode="X" horiz-adv-x="424" 
d="M397 700l-129 -331l143 -355c5 -9 2 -14 -8 -14h-89l-54 135c-21 53 -41 111 -53 146c-12 -35 -32 -91 -55 -146l-54 -124c-5 -9 -9 -11 -18 -11h-71l152 362l-125 324c-5 14 0 14 96 14l41 -113c20 -57 38 -116 48 -150c10 33 28 92 50 150l38 100c4 13 3 13 88 13z" />
    <glyph glyph-name="Y" unicode="Y" horiz-adv-x="364" 
d="M144 0v284l-138 403c-4 13 -2 13 92 13l39 -137c20 -64 46 -160 48 -190c3 30 29 126 50 190l37 122c5 15 5 15 88 15l-135 -411v-272c0 -17 1 -17 -81 -17z" />
    <glyph glyph-name="Z" unicode="Z" horiz-adv-x="385" 
d="M44 683v-59s19 3 44 3h186l-252 -559c-4 -14 -5 -25 -5 -38c0 -19 11 -30 11 -30h312c16 0 17 17 17 17v62s-22 -6 -59 -6h-193l255 564c5 11 7 23 7 35c0 18 -9 28 -9 28h-297c-16 0 -17 -17 -17 -17z" />
    <glyph glyph-name="bracketleft" unicode="[" horiz-adv-x="385" 
d="M376 821h-192c-62 0 -63 -4 -63 -25v-996h227c23 0 27 1 27 76h-172v870h146c26 0 27 9 27 75z" />
    <glyph glyph-name="backslash" unicode="\" horiz-adv-x="330" 
d="M92 765l226 -775c6 -19 -1 -20 -81 -20l-225 773c-7 20 -1 22 80 22z" />
    <glyph glyph-name="bracketright" unicode="]" horiz-adv-x="385" 
d="M9 -200h193c61 0 62 4 62 25v997h-227c-23 0 -27 -1 -27 -76h172v-871h-146c-26 0 -27 -9 -27 -75z" />
    <glyph glyph-name="underscore" unicode="_" horiz-adv-x="377" 
d="M347 -71h-333c0 50 0 71 16 71h334c0 -51 0 -71 -17 -71z" />
    <glyph glyph-name="quoteleft" unicode="&#x2018;" horiz-adv-x="175" 
d="M139 627c0 22 -6 39 -23 49c2 29 4 57 25 96c-5 17 -17 23 -32 23c-19 0 -75 -88 -75 -161c0 -40 19 -59 54 -59c30 0 51 23 51 52z" />
    <glyph glyph-name="a" unicode="a" horiz-adv-x="354" 
d="M30 465c0 -7 1 -35 11 -52c31 14 96 23 141 23c31 0 53 -12 53 -59v-84c-20 10 -51 13 -76 13c-64 0 -130 -25 -130 -164c0 -152 70 -158 143 -157c65 0 112 16 139 33c0 0 6 142 6 317v58c0 90 -38 122 -103 122c-93 0 -160 -13 -175 -24c-7 -5 -9 -15 -9 -26zM235 236
c0 -72 -3 -167 -3 -167c-9 -10 -34 -16 -54 -16c-39 0 -64 4 -64 90c0 88 34 102 74 102c14 0 34 -2 47 -9z" />
    <glyph glyph-name="b" unicode="b" horiz-adv-x="383" 
d="M47 15v682c0 38 14 38 81 38v-256c26 24 61 36 102 36c85 -1 127 -50 127 -202c0 -289 -110 -328 -191 -328c-55 0 -95 9 -119 30zM128 417v-347c9 -7 24 -13 47 -13c35 0 91 35 91 238c0 129 -22 150 -71 150c-22 0 -47 -7 -67 -28z" />
    <glyph glyph-name="c" unicode="c" horiz-adv-x="313" 
d="M294 480c0 -13 -3 -38 -9 -55c-17 9 -39 18 -67 18c-50 0 -102 -26 -102 -204c0 -161 28 -182 90 -182c27 0 59 11 78 23c5 -18 8 -38 8 -50c0 -20 -46 -46 -95 -46c-112 0 -166 26 -166 255c0 244 97 276 180 276c41 0 83 -20 83 -35z" />
    <glyph glyph-name="d" unicode="d" horiz-adv-x="386" 
d="M257 698v-203c-17 12 -40 20 -71 20c-86 0 -154 -85 -154 -283c0 -217 68 -247 163 -247c62 0 109 10 143 30v720c-66 0 -81 0 -81 -37zM257 431v-358c-16 -11 -37 -15 -59 -15c-47 0 -75 22 -75 183c0 164 44 203 88 203c21 0 33 -3 46 -13z" />
    <glyph glyph-name="e" unicode="e" horiz-adv-x="361" 
d="M208 515c84 0 127 -57 127 -164c0 -45 -3 -96 -11 -132c-69 -14 -161 -16 -209 -16c3 -121 31 -139 85 -139c48 0 88 12 122 31c5 -15 7 -50 7 -72c0 -14 -63 -38 -138 -38c-93 0 -160 35 -160 239c0 260 88 291 177 291zM199 444c-41 0 -78 -36 -84 -175
c39 -1 101 1 136 11c4 18 5 43 5 62c-1 72 -14 102 -57 102z" />
    <glyph glyph-name="f" unicode="f" horiz-adv-x="255" 
d="M81 431h-69c0 64 0 69 22 69h47v61c0 158 92 173 168 173c77 0 93 -15 93 -31c0 -22 -3 -34 -9 -48c-24 10 -49 12 -71 12c-52 0 -100 -7 -100 -94v-73h90c0 -64 -1 -69 -17 -69h-73v-414s0 -17 -16 -17h-65v431z" />
    <glyph glyph-name="g" unicode="g" horiz-adv-x="393" 
d="M375 507h-120c-17 5 -37 8 -50 8c-98 0 -166 -55 -166 -188c0 -64 15 -119 61 -149c-29 -24 -62 -65 -63 -91s22 -44 60 -55c-42 -28 -75 -68 -75 -116c0 -52 26 -114 161 -114c133 0 191 78 191 164c0 79 -60 108 -124 117c-75 10 -126 13 -126 30c0 14 13 31 26 45
c13 -3 28 -4 45 -4c116 0 162 69 162 175c0 50 -15 88 -39 113c14 -3 26 -5 37 -5c17 0 28 10 28 32c0 18 -4 31 -8 38zM202 455c48 0 73 -31 73 -104c0 -87 -23 -135 -76 -135c-62 0 -74 45 -74 117c0 88 34 122 77 122zM106 -65c0 32 24 65 53 86c6 -1 12 -2 19 -2
c88 -6 114 -19 114 -64c0 -35 -31 -77 -102 -77c-68 0 -84 25 -84 57z" />
    <glyph glyph-name="h" unicode="h" horiz-adv-x="380" 
d="M45 698v-698c81 0 81 0 81 17v395c24 20 53 27 78 27c46 0 54 -24 54 -138v-301c88 0 84 0 84 17v294c0 175 -19 203 -105 203c-38 0 -80 -12 -111 -39v260c-67 0 -81 0 -81 -37z" />
    <glyph glyph-name="i" unicode="i" horiz-adv-x="175" 
d="M129 500v-483c0 -17 -1 -17 -83 -17v463c0 37 17 37 83 37zM45 672c0 36 14 60 46 60c31 0 41 -16 41 -58c-1 -41 -16 -65 -46 -65c-26 1 -42 16 -41 63z" />
    <glyph glyph-name="j" unicode="j" horiz-adv-x="184" 
d="M135 500v-524c0 -87 -18 -157 -124 -157c-81 0 -113 17 -113 42c0 16 3 39 12 51c22 -14 53 -20 88 -20c51 0 56 28 56 97v474c0 37 15 37 81 37zM51 672c0 36 15 60 46 60s41 -16 41 -58c0 -41 -16 -65 -46 -65c-26 1 -41 16 -41 63z" />
    <glyph glyph-name="k" unicode="k" horiz-adv-x="381" 
d="M46 698v-698c83 0 82 0 82 17v197s26 14 44 18c38 8 75 -29 87 -109c6 -34 6 -75 1 -123c90 0 90 0 92 16c4 30 4 59 2 84c-8 92 -51 148 -99 169c27 20 83 77 83 154c0 42 -19 92 -83 92c-45 0 -88 -11 -127 -45v265c-67 0 -82 0 -82 -37zM248 408
c0 -64 -51 -108 -120 -136v121c27 45 57 57 85 57c25 0 35 -16 35 -42z" />
    <glyph glyph-name="l" unicode="l" horiz-adv-x="173" 
d="M127 17v718c-65 0 -81 0 -81 -37v-698c82 0 81 0 81 17z" />
    <glyph glyph-name="m" unicode="m" horiz-adv-x="563" 
d="M46 482v-482c83 0 81 0 81 17v408c23 14 46 19 68 19c49 0 49 -32 49 -109v-335h44c17 0 26 1 31 3c1 0 2 0 2 1c3 1 3 4 4 6v7v264v32v107c22 17 43 23 64 23c49 0 52 -26 52 -108v-335c84 0 81 0 81 17v314c0 138 -7 184 -123 184c-35 0 -80 -11 -114 -31
c-19 20 -47 31 -88 31c-55 0 -107 -12 -151 -33z" />
    <glyph glyph-name="n" unicode="n" horiz-adv-x="382" 
d="M45 482v-482c83 0 81 0 81 17v408c22 14 53 19 75 19c53 0 59 -30 59 -109v-335c85 0 84 0 84 17v314c0 138 -13 184 -134 184c-54 0 -126 -15 -165 -33z" />
    <glyph glyph-name="o" unicode="o" horiz-adv-x="369" 
d="M24 250c0 183 61 264 165 264c105 0 156 -58 156 -261c0 -186 -57 -270 -162 -270s-159 42 -159 267zM112 248c0 -165 25 -196 71 -196c43 0 74 44 74 200c0 159 -23 192 -70 192c-44 0 -75 -40 -75 -196z" />
    <glyph glyph-name="p" unicode="p" horiz-adv-x="383" 
d="M46 476v-642c0 -28 5 -34 33 -34c19 0 35 2 48 6v207c15 -16 40 -30 77 -30c58 0 151 50 151 319c0 164 -64 214 -163 214c-54 0 -105 -15 -146 -40zM127 90v333c17 13 37 21 58 21c54 0 80 -25 80 -151c0 -205 -55 -235 -87 -236c-20 0 -39 9 -51 33z" />
    <glyph glyph-name="q" unicode="q" horiz-adv-x="390" 
d="M343 484v-649c0 -31 -7 -34 -48 -35c-12 0 -23 1 -34 3v220c-19 -29 -51 -44 -95 -44c-63 0 -135 43 -135 239c0 215 92 297 204 297c49 0 78 -10 108 -31zM261 107v323c-10 9 -23 14 -46 14c-58 0 -92 -67 -92 -227c0 -139 38 -160 70 -161c29 0 56 16 68 51z" />
    <glyph glyph-name="r" unicode="r" horiz-adv-x="263" 
d="M45 470v-470c83 0 82 0 82 17l1 393c19 19 44 27 66 27c19 0 33 -4 48 -12c7 17 9 39 9 53c0 25 -19 37 -70 37c-49 0 -90 -12 -136 -45z" />
    <glyph glyph-name="s" unicode="s" horiz-adv-x="345" 
d="M183 514c110 0 137 -32 137 -51c0 -13 -9 -34 -18 -46c-30 18 -60 27 -98 27c-47 0 -80 -16 -80 -48c0 -17 8 -32 35 -58l99 -90c43 -42 59 -74 59 -122c0 -91 -63 -141 -165 -141c-71 0 -122 17 -122 42c0 15 5 38 15 55c29 -17 60 -24 99 -24c53 0 81 21 81 65
c0 23 -10 48 -40 74l-101 96c-39 37 -55 72 -55 107c0 73 53 114 154 114z" />
    <glyph glyph-name="t" unicode="t" horiz-adv-x="291" 
d="M87 142v288h-69c0 62 1 70 18 70h51v152c0 28 15 28 81 28v-180h102c0 -63 0 -70 -16 -70h-86v-297c0 -43 0 -79 36 -79c28 0 37 6 58 15c3 -11 6 -33 6 -53c0 -24 -47 -32 -86 -32c-95 0 -95 68 -95 158z" />
    <glyph glyph-name="u" unicode="u" horiz-adv-x="390" 
d="M343 17v483c-83 0 -81 0 -81 -16v-409c-21 -14 -49 -19 -71 -19c-53 0 -63 30 -63 109v335c-84 0 -84 0 -84 -16v-315c0 -123 18 -184 150 -184c54 0 111 11 149 32z" />
    <glyph glyph-name="v" unicode="v" horiz-adv-x="344" 
d="M18 475l102 -434c7 -29 17 -50 36 -50c13 0 42 1 57 4l115 505c-82 0 -83 0 -86 -18l-26 -141c-21 -105 -38 -241 -38 -241h-2s-18 136 -39 240l-32 160c-89 0 -92 0 -87 -25z" />
    <glyph glyph-name="w" unicode="w" horiz-adv-x="540" 
d="M15 483c0 0 68 -321 97 -444c7 -28 17 -49 35 -49c26 0 61 3 61 3l25 116c17 74 29 168 36 231c7 -63 20 -156 38 -230l16 -68c5 -24 28 -52 43 -52c34 0 52 3 52 3c4 0 108 507 108 507c-84 0 -84 0 -87 -18l-26 -145c-21 -122 -33 -214 -34 -223c-1 7 -14 74 -32 162
l-39 211h-23h-2h-9h-2h-11c-21 0 -24 -4 -27 -18l-32 -191c-19 -101 -33 -165 -33 -165s-12 94 -35 224l-30 163c-84 0 -91 0 -89 -17z" />
    <glyph glyph-name="x" unicode="x" horiz-adv-x="410" 
d="M386 500l-128 -234l133 -247c9 -20 8 -19 -90 -19l-37 66c-23 42 -51 101 -65 133c-14 -31 -41 -90 -63 -134l-28 -49c-7 -16 -18 -16 -93 -16l141 260l-121 227c-7 13 -6 13 85 13l37 -68c19 -38 43 -90 53 -114c10 23 34 75 55 114l30 54c7 14 8 14 91 14z" />
    <glyph glyph-name="y" unicode="y" horiz-adv-x="356" 
d="M24 478l120 -494c-15 -82 -39 -103 -67 -103c-26 0 -53 7 -67 16c-7 -11 -12 -32 -12 -47c0 -21 23 -38 91 -38c64 0 98 34 128 161l123 527c-83 0 -83 0 -88 -24l-45 -213c-15 -82 -23 -166 -23 -166s-9 85 -26 165l-55 238c-85 0 -85 0 -79 -22z" />
    <glyph glyph-name="z" unicode="z" horiz-adv-x="334" 
d="M305 500h-263c-16 0 -16 -19 -16 -72c0 0 39 3 93 3h102l-194 -360c-5 -11 -6 -19 -6 -30c0 -28 13 -41 13 -41h259c13 0 18 16 19 50c0 9 -1 26 -3 34c0 0 -42 -9 -105 -9h-88l187 361c10 17 11 30 11 38c0 18 -9 26 -9 26z" />
    <glyph glyph-name="bar" unicode="|" horiz-adv-x="323" 
d="M203 815v-995c0 -20 -3 -20 -82 -20v993c0 21 1 22 82 22z" />
    <glyph glyph-name="exclamdown" unicode="&#xa1;" horiz-adv-x="195" 
d="M142 292l13 -468c1 -22 -17 -24 -111 -24l16 455c2 35 20 37 82 37zM159 458c0 -31 -21 -58 -56 -58c-41 0 -56 24 -56 58c0 32 21 57 56 57c42 0 56 -21 56 -57z" />
    <glyph glyph-name="cent" unicode="&#xa2;" 
d="M286 625v-113c32 -6 59 -20 59 -33c0 -4 -1 -38 -9 -58c-17 10 -39 18 -67 18c-50 0 -105 -24 -105 -208c0 -154 30 -173 93 -173c27 0 59 11 78 23c5 -15 8 -39 8 -51c0 -18 -37 -42 -80 -46v-85c0 -28 -24 -32 -74 -32v120c-67 13 -106 61 -106 241
c0 195 61 261 129 280v85c0 28 26 32 74 32z" />
    <glyph glyph-name="fraction" unicode="&#x2044;" horiz-adv-x="511" 
d="M76 -28c0 0 414 696 414 709c0 20 -46 35 -46 35c0 2 -418 -689 -418 -713c0 -17 50 -31 50 -31z" />
    <glyph glyph-name="fraction" unicode="&#x2215;" horiz-adv-x="511" 
d="M76 -28c0 0 414 696 414 709c0 20 -46 35 -46 35c0 2 -418 -689 -418 -713c0 -17 50 -31 50 -31z" />
    <glyph glyph-name="yen" unicode="&#xa5;" 
d="M168 0v176h-130c0 49 4 68 32 68h98v40l-20 57h-110c0 49 4 68 32 68h55l-95 278c-4 13 -2 13 92 13l39 -137c20 -64 46 -160 48 -190c3 30 29 126 50 190l37 122c5 15 5 15 88 15l-95 -291h90c0 -49 -4 -68 -32 -68h-80l-18 -56v-41h130c0 -49 -4 -68 -32 -68h-98v-159
c0 -17 2 -17 -81 -17z" />
    <glyph glyph-name="quotesingle" unicode="'" horiz-adv-x="141" 
d="M90 586c-1 -1 -45 -3 -45 -3c-1 9 -22 193 -11 199c10 7 58 4 77 1c0 -54 -14 -191 -21 -197z" />
    <glyph glyph-name="quotedblleft" unicode="&#x201c;" horiz-adv-x="325" 
d="M290 627c0 22 -7 39 -24 49c2 29 4 57 25 96c-4 17 -17 23 -32 23c-18 0 -75 -88 -75 -161c0 -40 20 -59 55 -59c29 0 51 23 51 52zM139 627c0 22 -6 39 -23 49c2 29 4 57 25 96c-5 17 -17 23 -32 23c-19 0 -75 -88 -75 -161c0 -40 19 -59 54 -59c30 0 51 23 51 52z" />
    <glyph glyph-name="guillemotleft" unicode="&#xab;" horiz-adv-x="416" 
d="M18 252c0 35 145 248 145 248c32 0 49 -41 49 -41c0 -38 -118 -207 -118 -207s120 -167 120 -205c0 0 -17 -47 -48 -47c0 0 -148 216 -148 252zM190 251c0 33 144 226 144 226c30 0 47 -38 47 -38c0 -36 -114 -188 -114 -188s117 -146 117 -182c0 0 -18 -44 -47 -44
c0 0 -147 191 -147 226z" />
    <glyph glyph-name="guilsinglleft" unicode="&#x2039;" horiz-adv-x="247" 
d="M18 250c0 34 145 250 145 250c32 0 49 -41 49 -41c0 -38 -118 -209 -118 -209s120 -165 120 -203c0 0 -17 -47 -48 -47c0 0 -148 214 -148 250z" />
    <glyph glyph-name="guilsinglright" unicode="&#x203a;" horiz-adv-x="247" 
d="M229 250c0 34 -146 250 -146 250s-48 -13 -48 -41c0 -38 117 -209 117 -209s-120 -166 -120 -203c0 -34 49 -47 49 -47s148 214 148 250z" />
    <glyph glyph-name="endash" unicode="&#x2013;" horiz-adv-x="424" 
d="M371 246h-334c0 51 0 71 17 71h333c0 -50 0 -71 -16 -71z" />
    <glyph glyph-name="periodcentered" unicode="&#xb7;" horiz-adv-x="221" 
d="M53 269c0 31 21 58 56 58c41 0 56 -24 56 -58c0 -32 -21 -57 -56 -57c-42 0 -56 21 -56 57z" />
    <glyph glyph-name="periodcentered" unicode="&#x2219;" horiz-adv-x="221" 
d="M53 269c0 31 21 58 56 58c41 0 56 -24 56 -58c0 -32 -21 -57 -56 -57c-42 0 -56 21 -56 57z" />
    <glyph glyph-name="bullet" unicode="&#x2022;" horiz-adv-x="223" 
d="M41 284c0 41 27 77 74 77c54 0 74 -31 74 -77c0 -42 -28 -76 -74 -76c-55 0 -74 29 -74 76z" />
    <glyph glyph-name="quotesinglbase" unicode="&#x201a;" horiz-adv-x="171" 
d="M36 54c0 -22 6 -39 23 -49c-2 -29 -4 -58 -25 -96c4 -17 17 -23 32 -23c19 0 75 87 75 161c0 40 -19 59 -55 59c-29 0 -50 -23 -50 -52z" />
    <glyph glyph-name="quotedblbase" unicode="&#x201e;" horiz-adv-x="322" 
d="M186 54c0 -22 6 -39 23 -49c-2 -29 -4 -58 -24 -96c4 -17 17 -23 31 -23c19 0 76 87 76 161c0 40 -20 59 -55 59c-30 0 -51 -23 -51 -52zM36 54c0 -22 6 -39 23 -49c-2 -29 -4 -58 -25 -96c4 -17 17 -23 32 -23c19 0 75 87 75 161c0 40 -19 59 -55 59
c-29 0 -50 -23 -50 -52z" />
    <glyph glyph-name="quotedblright" unicode="&#x201d;" horiz-adv-x="325" 
d="M186 740c0 -22 6 -39 23 -49c-2 -28 -4 -57 -24 -96c4 -17 17 -23 31 -23c19 0 76 88 76 161c0 41 -20 59 -55 59c-30 0 -51 -22 -51 -52zM36 740c0 -22 6 -39 23 -49c-2 -28 -4 -57 -25 -96c4 -17 17 -23 32 -23c19 0 75 88 75 161c0 41 -19 59 -55 59
c-29 0 -50 -22 -50 -52z" />
    <glyph glyph-name="guillemotright" unicode="&#xbb;" horiz-adv-x="414" 
d="M396 252c0 35 -145 248 -145 248s-49 -13 -49 -41c0 -38 118 -207 118 -207s-120 -168 -120 -205c0 -34 49 -47 49 -47s147 216 147 252zM224 250c0 34 -145 230 -145 230s-44 -13 -44 -41c0 -38 119 -189 113 -189c0 0 -116 -144 -116 -181c0 -34 44 -47 44 -47
s148 192 148 228z" />
    <glyph glyph-name="ellipsis" unicode="&#x2026;" horiz-adv-x="522" 
d="M35 48c0 31 20 58 56 58c41 0 56 -23 56 -58c0 -31 -21 -57 -56 -57c-42 0 -56 22 -56 57zM205 48c0 31 20 58 56 58c41 0 56 -23 56 -58c0 -31 -21 -57 -56 -57c-42 0 -56 22 -56 57zM375 48c0 31 20 58 56 58c41 0 56 -23 56 -58c0 -31 -21 -57 -56 -57
c-42 0 -56 22 -56 57z" />
    <glyph glyph-name="perthousand" unicode="&#x2030;" horiz-adv-x="979" 
d="M671 174c0 126 52 183 142 183c89 0 133 -40 133 -182c0 -129 -49 -187 -139 -187c-89 0 -136 29 -136 186zM373 174c0 126 52 183 141 183c90 0 133 -40 133 -182c0 -129 -49 -187 -139 -187c-89 0 -135 29 -135 186zM53 530c0 126 52 183 141 183
c90 0 133 -40 133 -182c0 -129 -49 -187 -139 -187c-88 0 -135 29 -135 186zM153 -28c0 0 414 696 414 709c0 20 -46 35 -46 35c0 2 -418 -689 -418 -713c0 -17 50 -31 50 -31zM451 172c0 -102 20 -121 59 -121c36 0 62 28 62 123c0 99 -18 120 -58 120
c-38 0 -63 -26 -63 -122zM749 172c0 -102 21 -121 60 -121c35 0 61 28 61 123c0 99 -18 120 -58 120c-38 0 -63 -26 -63 -122zM131 528c0 -102 21 -121 59 -121c36 0 62 28 62 123c0 99 -18 120 -58 120c-38 0 -63 -26 -63 -122z" />
    <glyph glyph-name="questiondown" unicode="&#xbf;" horiz-adv-x="306" 
d="M153 -195c59 0 125 19 125 42c0 24 -4 44 -12 65c-11 -8 -39 -25 -83 -25c-43 0 -81 15 -81 76c0 75 56 120 99 200c39 71 3 143 3 143c-23 3 -63 3 -73 -8c-10 -12 22 -65 -6 -114c-37 -67 -111 -119 -111 -240c0 -93 55 -139 139 -139zM223 466c0 -31 -20 -58 -56 -58
c-41 0 -56 24 -56 58c0 32 21 57 56 57c42 0 56 -21 56 -57z" />
    <glyph glyph-name="grave" unicode="`" horiz-adv-x="241" 
d="M174 604c19 0 32 45 32 45c-23 31 -126 118 -134 118c-19 0 -34 -37 -38 -61c16 -19 133 -102 140 -102z" />
    <glyph glyph-name="acute" unicode="&#xb4;" horiz-adv-x="269" 
d="M79 565c-19 0 -32 45 -32 45c46 52 126 118 134 118c19 0 34 -37 38 -61c-16 -19 -106 -83 -140 -102z" />
    <glyph glyph-name="circumflex" unicode="&#x2c6;" horiz-adv-x="396" 
d="M185 728l-113 -123c9 -14 26 -24 54 -24c18 0 75 77 75 77c13 -25 65 -78 65 -78c29 0 58 9 58 24c0 16 -97 115 -97 115c-8 8 -17 12 -25 12c-7 0 -13 -1 -17 -3z" />
    <glyph glyph-name="tilde" unicode="&#x2dc;" horiz-adv-x="480" 
d="M80 635c0 0 18 -41 40 -41c13 0 24 39 59 39c36 0 33 -48 87 -48c60 0 103 61 108 71c0 0 -12 45 -29 45c-15 0 -17 -38 -65 -38c-40 0 -43 47 -87 47c-35 0 -79 -19 -113 -75z" />
    <glyph glyph-name="dotaccent" unicode="&#x2d9;" horiz-adv-x="197" 
d="M57 672c0 36 14 60 46 60c31 0 41 -16 41 -58c-1 -41 -16 -65 -46 -65c-26 1 -42 16 -41 63z" />
    <glyph glyph-name="dieresis" unicode="&#xa8;" horiz-adv-x="327" 
d="M39 652c0 27 18 51 49 51c36 0 50 -21 50 -51c0 -28 -19 -51 -50 -51c-36 0 -49 19 -49 51zM182 652c0 27 18 51 49 51c36 0 49 -21 49 -51c0 -28 -18 -51 -49 -51c-37 0 -49 19 -49 51z" />
    <glyph glyph-name="ring" unicode="&#x2da;" horiz-adv-x="386" 
d="M94 748c0 59 47 108 106 108c58 0 107 -49 107 -108s-49 -106 -107 -106c-59 0 -106 47 -106 106zM141 748c0 -33 26 -60 60 -60s61 27 61 60c0 34 -27 62 -61 62s-60 -28 -60 -62z" />
    <glyph glyph-name="cedilla" unicode="&#xb8;" horiz-adv-x="149" 
d="M57 2h46l-12 -60h17c24 0 49 -18 49 -64c0 -52 -34 -84 -80 -84c-31 0 -56 12 -56 12s6 35 13 41c6 7 23 -10 44 -10c22 0 32 12 32 34c0 25 -11 33 -30 33c-26 0 -42 -5 -42 -5z" />
    <glyph glyph-name="caron" unicode="&#x2c7;" horiz-adv-x="314" 
d="M167 586c-20 0 -110 90 -124 111c7 22 24 51 38 51c18 0 89 -85 89 -85c36 52 75 83 75 83c20 -11 33 -24 33 -36c0 -20 -95 -124 -111 -124z" />
    <glyph glyph-name="emdash" unicode="&#x2014;" horiz-adv-x="700" 
d="M678 246h-672c0 51 0 71 17 71h671c0 -50 0 -71 -16 -71z" />
    <glyph glyph-name="AE" unicode="&#xc6;" horiz-adv-x="615" 
d="M420 73h171c0 -68 0 -73 -16 -73h-236v178h-165l-68 -164c-4 -11 -6 -16 -38 -16c-10 0 -32 1 -51 3l293 685c5 9 20 14 32 14h253c0 -65 0 -73 -15 -73h-160v-209h151c0 -61 0 -75 -16 -75h-135v-270zM264 391l-59 -139h134v356c-18 -61 -45 -139 -75 -217z" />
    <glyph glyph-name="Oslash" unicode="&#xd8;" horiz-adv-x="463" 
d="M87 -16c-16 0 -47 8 -50 25c-2 5 22 63 35 94c-18 57 -25 138 -25 251c0 266 59 361 189 361c52 0 91 -15 119 -49c10 25 18 47 22 53c0 0 47 -5 51 -25c1 -9 -21 -74 -34 -111c15 -55 22 -129 22 -226c0 -275 -57 -372 -189 -372c-52 0 -92 13 -120 48
c-9 -23 -18 -45 -20 -49zM138 334c0 -65 1 -116 7 -156l149 422c-14 22 -33 32 -59 32c-69 0 -97 -82 -97 -298zM328 355c0 66 -3 119 -8 160l-150 -420c13 -18 30 -26 54 -26c65 0 104 47 104 286z" />
    <glyph glyph-name="OE" unicode="&#x152;" horiz-adv-x="591" 
d="M396 73h171c0 -68 0 -73 -15 -73h-224v40c-29 -35 -69 -50 -121 -50c-129 0 -180 79 -180 363c0 263 59 356 189 356c48 0 85 -12 112 -41v16s1 16 17 16h226c0 -65 0 -73 -15 -73h-160v-209h151c0 -61 0 -75 -15 -75h-136v-270zM118 334c0 -186 22 -265 93 -265
c72 0 93 82 93 286c0 200 -16 277 -89 277c-69 0 -97 -82 -97 -298z" />
    <glyph glyph-name="ae" unicode="&#xe6;" horiz-adv-x="582" 
d="M31 464c0 -7 1 -32 11 -49c32 18 75 27 125 27c40 0 68 -12 68 -59v-77c-20 10 -51 13 -76 13c-64 0 -130 -31 -130 -170c0 -152 70 -165 143 -164c64 0 103 13 131 30c25 -22 57 -29 97 -29c75 0 138 23 138 37c0 22 -2 57 -7 72c-33 -19 -73 -31 -122 -31
c-57 0 -85 21 -85 160c41 -8 117 -17 209 -5c8 36 11 87 11 132c0 107 -43 164 -127 164c-48 0 -92 -9 -122 -57c-13 41 -44 57 -98 57c-87 0 -137 -15 -155 -27c-5 -4 -11 -14 -11 -24zM235 250v-182c-8 -10 -37 -15 -57 -15c-39 0 -64 10 -64 96c0 89 34 109 74 109
c14 0 33 -3 47 -8zM460 280c-45 -7 -99 2 -134 10c8 121 43 154 82 154c44 0 56 -30 57 -102c0 -19 -1 -44 -5 -62z" />
    <glyph glyph-name="dotlessi" unicode="&#x131;" horiz-adv-x="175" 
d="M129 500v-483c0 -17 -1 -17 -83 -17v463c0 37 17 37 83 37z" />
    <glyph glyph-name="oslash" unicode="&#xf8;" horiz-adv-x="412" 
d="M62 -26c-16 3 -45 16 -45 34c0 5 28 55 45 83c-10 38 -15 90 -15 159c0 183 62 264 166 264c48 0 85 -13 110 -45c15 25 29 47 34 53c0 0 46 -13 46 -33c0 -8 -27 -58 -47 -94c8 -37 13 -83 13 -142c0 -186 -57 -270 -162 -270c-50 0 -88 10 -115 43
c-13 -23 -28 -47 -30 -52zM281 252c0 29 -1 54 -3 75l-129 -227c12 -38 32 -48 58 -48c43 0 74 44 74 200zM136 248c0 -27 0 -50 2 -70l127 226c-11 31 -30 40 -54 40c-45 0 -75 -40 -75 -196z" />
    <glyph glyph-name="oe" unicode="&#x153;" horiz-adv-x="599" 
d="M27 250c0 183 61 264 165 264c54 0 94 -16 120 -59c34 51 82 60 131 60c84 0 127 -57 127 -164c0 -45 -3 -96 -11 -132c-69 -14 -161 -16 -209 -16c3 -121 31 -139 85 -139c48 0 88 12 122 31c5 -15 7 -50 7 -72c0 -14 -63 -38 -138 -38c-52 0 -96 11 -125 56
c-27 -39 -66 -58 -115 -58c-105 0 -159 42 -159 267zM115 248c0 -165 25 -196 71 -196c43 0 74 44 74 200c0 159 -23 192 -70 192c-44 0 -75 -40 -75 -196zM434 444c-41 0 -78 -36 -84 -175c39 -1 101 1 136 11c4 18 5 43 5 62c-1 72 -14 102 -57 102z" />
    <glyph glyph-name="germandbls" unicode="&#xdf;" horiz-adv-x="465" 
d="M50 69l-3 481c0 109 64 147 161 147c146 0 201 -66 201 -136c0 -91 -109 -93 -109 -158s156 -121 156 -264c0 -95 -57 -153 -150 -153c-79 0 -119 25 -119 45c0 28 12 45 21 55c9 -9 37 -27 80 -27c46 0 77 26 77 79c0 100 -154 159 -154 261c0 90 111 101 111 161
c0 35 -35 67 -108 67c-65 0 -85 -34 -85 -123l3 -465c0 -38 -8 -54 -48 -54c-32 0 -45 12 -45 12s11 26 11 72z" />
    <glyph glyph-name="trademark" unicode="&#x2122;" horiz-adv-x="503" 
d="M254 382v309s0 9 10 9h28l44 -126c6 -19 19 -55 19 -55s10 36 16 53l40 119c1 4 2 9 9 9h32v-309c0 -9 0 -9 -42 -9l1 111c1 29 6 92 8 116c-10 -32 -22 -71 -25 -80l-27 -74c-2 -3 -4 -4 -6 -4h-21l-28 78l-26 82c0 -7 8 -85 9 -117v-103c0 -9 -2 -9 -41 -9zM219 661
h-66v-270c0 -9 1 -9 -41 -9v279h-82v30c0 9 9 9 9 9h190v-30c0 -9 -10 -9 -10 -9z" />
    <glyph glyph-name="divide" unicode="&#xf7;" 
d="M34 246h334c16 0 16 21 16 71h-333c-17 0 -17 -20 -17 -71zM158 132c0 27 18 51 49 51c37 0 51 -21 51 -51c0 -29 -19 -52 -51 -52c-36 0 -49 20 -49 52zM158 427c0 28 18 52 49 52c37 0 51 -22 51 -52c0 -28 -19 -51 -51 -51c-36 0 -49 20 -49 51z" />
    <glyph glyph-name="registered" unicode="&#xae;" horiz-adv-x="472" 
d="M36 541c0 151 76 219 206 219c131 0 194 -56 194 -217c0 -143 -71 -223 -202 -223s-198 58 -198 221zM97 541c0 -123 49 -162 135 -162c79 0 142 45 142 165c0 112 -44 161 -133 161c-85 0 -144 -42 -144 -164zM186 670h41c56 0 81 -27 81 -73c0 -33 -14 -55 -34 -68
c14 -13 36 -43 41 -103c0 -7 -2 -10 -16 -10c-5 0 -18 0 -25 1c-5 63 -23 89 -35 100h-11h-14v-92c0 -8 -4 -8 -38 -8v248s0 5 7 5h1h2zM268 600c0 22 -9 37 -36 37h-18v-86h16c24 0 38 14 38 49z" />
    <glyph glyph-name="minus" unicode="&#x2212;" 
d="M34 246h334c16 0 16 21 16 71h-333c-17 0 -17 -20 -17 -71z" />
    <glyph glyph-name="multiply" unicode="&#xd7;" 
d="M71 381l89 -99l-89 -99c36 -35 50 -50 62 -39l75 84l76 -84c11 -11 26 4 62 39l-89 99l89 99c-36 35 -51 50 -62 38l-76 -84l-75 84c-12 12 -26 -3 -62 -38z" />
    <glyph glyph-name="copyright" unicode="&#xa9;" horiz-adv-x="472" 
d="M36 541c0 151 76 219 206 219c131 0 194 -56 194 -217c0 -143 -71 -223 -202 -223s-198 58 -198 221zM97 541c0 -123 49 -162 135 -162c79 0 142 45 142 165c0 112 -44 161 -133 161c-85 0 -144 -42 -144 -164zM294 652c0 -6 -4 -25 -6 -32c-10 3 -20 7 -34 7
c-23 0 -50 -8 -50 -97c0 -67 15 -72 44 -72c12 0 28 5 38 9c4 -8 7 -25 7 -29c0 -10 -25 -21 -50 -21c-58 0 -86 12 -86 114c0 122 51 137 92 137c21 0 45 -9 45 -16z" />
    <glyph glyph-name="Aacute" unicode="&#xc1;" horiz-adv-x="433" 
d="M346 0l-44 178h-171l-39 -164c-3 -11 -6 -16 -38 -16c-11 0 -32 1 -51 3l178 688c2 10 19 14 31 14c14 0 29 -1 38 -3l179 -685c3 -11 -3 -17 -35 -17c-12 0 -28 0 -48 2zM184 394l-35 -142h135l-34 142c-16 66 -29 121 -33 169c-4 -48 -18 -102 -33 -169zM195 765
c-19 0 -32 45 -32 45c46 52 126 118 134 118c19 0 34 -37 38 -61c-16 -19 -106 -83 -140 -102z" />
    <glyph glyph-name="Acircumflex" unicode="&#xc2;" horiz-adv-x="433" 
d="M346 0l-44 178h-171l-39 -164c-3 -11 -6 -16 -38 -16c-11 0 -32 1 -51 3l178 688c2 10 19 14 31 14c14 0 29 -1 38 -3l179 -685c3 -11 -3 -17 -35 -17c-12 0 -28 0 -48 2zM184 394l-35 -142h135l-34 142c-16 66 -29 121 -33 169c-4 -48 -18 -102 -33 -169zM204 928
l-113 -123c9 -14 26 -24 54 -24c18 0 75 77 75 77c13 -25 65 -78 65 -78c29 0 58 9 58 24c0 16 -97 115 -97 115c-8 8 -17 12 -25 12c-7 0 -13 -1 -17 -3z" />
    <glyph glyph-name="Adieresis" unicode="&#xc4;" horiz-adv-x="433" 
d="M346 0l-44 178h-171l-39 -164c-3 -11 -6 -16 -38 -16c-11 0 -32 1 -51 3l178 688c2 10 19 14 31 14c14 0 29 -1 38 -3l179 -685c3 -11 -3 -17 -35 -17c-12 0 -28 0 -48 2zM184 394l-35 -142h135l-34 142c-16 66 -29 121 -33 169c-4 -48 -18 -102 -33 -169zM95 852
c0 27 18 51 49 51c36 0 50 -21 50 -51c0 -28 -19 -51 -50 -51c-36 0 -49 19 -49 51zM238 852c0 27 18 51 49 51c36 0 49 -21 49 -51c0 -28 -18 -51 -49 -51c-37 0 -49 19 -49 51z" />
    <glyph glyph-name="Agrave" unicode="&#xc0;" horiz-adv-x="433" 
d="M346 0l-44 178h-171l-39 -164c-3 -11 -6 -16 -38 -16c-11 0 -32 1 -51 3l178 688c2 10 19 14 31 14c14 0 29 -1 38 -3l179 -685c3 -11 -3 -17 -35 -17c-12 0 -28 0 -48 2zM184 394l-35 -142h135l-34 142c-16 66 -29 121 -33 169c-4 -48 -18 -102 -33 -169zM233 804
c19 0 32 45 32 45c-23 31 -126 118 -134 118c-19 0 -34 -37 -38 -61c16 -19 133 -102 140 -102z" />
    <glyph glyph-name="Aring" unicode="&#xc5;" horiz-adv-x="433" 
d="M346 0l-44 178h-171l-39 -164c-3 -11 -6 -16 -38 -16c-11 0 -32 1 -51 3l178 688c2 10 19 14 31 14c14 0 29 -1 38 -3l179 -685c3 -11 -3 -17 -35 -17c-12 0 -28 0 -48 2zM184 394l-35 -142h135l-34 142c-16 66 -29 121 -33 169c-4 -48 -18 -102 -33 -169zM110 880
c0 59 47 108 106 108c58 0 107 -49 107 -108s-49 -106 -107 -106c-59 0 -106 47 -106 106zM157 880c0 -33 26 -60 60 -60s61 27 61 60c0 34 -27 62 -61 62s-60 -28 -60 -62z" />
    <glyph glyph-name="Atilde" unicode="&#xc3;" horiz-adv-x="433" 
d="M346 0l-44 178h-171l-39 -164c-3 -11 -6 -16 -38 -16c-11 0 -32 1 -51 3l178 688c2 10 19 14 31 14c14 0 29 -1 38 -3l179 -685c3 -11 -3 -17 -35 -17c-12 0 -28 0 -48 2zM184 394l-35 -142h135l-34 142c-16 66 -29 121 -33 169c-4 -48 -18 -102 -33 -169zM69 835
c0 0 18 -41 40 -41c13 0 24 39 59 39c36 0 33 -48 87 -48c60 0 103 61 108 71c0 0 -12 45 -29 45c-15 0 -17 -38 -65 -38c-40 0 -43 47 -87 47c-35 0 -79 -19 -113 -75z" />
    <glyph glyph-name="Ccedilla" unicode="&#xc7;" horiz-adv-x="339" 
d="M229 715c74 0 94 -32 94 -48c0 -26 -5 -43 -13 -56c-10 9 -34 25 -62 25c-66 0 -130 -47 -130 -310c0 -204 41 -251 103 -251c35 0 72 15 89 31c6 -13 12 -33 12 -59c0 -23 -50 -62 -110 -62c-99 0 -180 24 -180 336c0 342 108 394 197 394zM176 2h46l-12 -60h17
c24 0 49 -18 49 -64c0 -52 -34 -84 -80 -84c-31 0 -56 12 -56 12s6 35 13 41c6 7 23 -10 44 -10c22 0 32 12 32 34c0 25 -11 33 -30 33c-26 0 -42 -5 -42 -5z" />
    <glyph glyph-name="Eacute" unicode="&#xc9;" horiz-adv-x="323" 
d="M126 73h171c0 -68 0 -73 -16 -73h-237v684s1 16 17 16h240c0 -65 0 -73 -16 -73h-159v-209h150c0 -61 0 -75 -15 -75h-135v-270zM171 765c-19 0 -32 45 -32 45c46 52 126 118 134 118c19 0 34 -37 38 -61c-16 -19 -106 -83 -140 -102z" />
    <glyph glyph-name="Ecircumflex" unicode="&#xca;" horiz-adv-x="323" 
d="M126 73h171c0 -68 0 -73 -16 -73h-237v684s1 16 17 16h240c0 -65 0 -73 -16 -73h-159v-209h150c0 -61 0 -75 -15 -75h-135v-270zM149 928l-113 -123c9 -14 26 -24 54 -24c18 0 75 77 75 77c13 -25 65 -78 65 -78c29 0 58 9 58 24c0 16 -97 115 -97 115
c-8 8 -17 12 -25 12c-7 0 -13 -1 -17 -3z" />
    <glyph glyph-name="Edieresis" unicode="&#xcb;" horiz-adv-x="323" 
d="M126 73h171c0 -68 0 -73 -16 -73h-237v684s1 16 17 16h240c0 -65 0 -73 -16 -73h-159v-209h150c0 -61 0 -75 -15 -75h-135v-270zM55 852c0 27 18 51 49 51c36 0 50 -21 50 -51c0 -28 -19 -51 -50 -51c-36 0 -49 19 -49 51zM198 852c0 27 18 51 49 51c36 0 49 -21 49 -51
c0 -28 -18 -51 -49 -51c-37 0 -49 19 -49 51z" />
    <glyph glyph-name="Egrave" unicode="&#xc8;" horiz-adv-x="323" 
d="M126 73h171c0 -68 0 -73 -16 -73h-237v684s1 16 17 16h240c0 -65 0 -73 -16 -73h-159v-209h150c0 -61 0 -75 -15 -75h-135v-270zM216 804c19 0 32 45 32 45c-23 31 -126 118 -134 118c-19 0 -34 -37 -38 -61c16 -19 133 -102 140 -102z" />
    <glyph glyph-name="Iacute" unicode="&#xcd;" horiz-adv-x="168" 
d="M43 0c0 0 1 171 1 350c0 153 -1 313 -1 313c0 37 1 37 82 37c0 0 -1 -198 -1 -350c0 -179 1 -333 1 -333c0 -17 -1 -17 -82 -17zM57 765c-19 0 -32 45 -32 45c46 52 126 118 134 118c19 0 34 -37 38 -61c-16 -19 -106 -83 -140 -102z" />
    <glyph glyph-name="Icircumflex" unicode="&#xce;" horiz-adv-x="168" 
d="M43 0c0 0 1 171 1 350c0 153 -1 313 -1 313c0 37 1 37 82 37c0 0 -1 -198 -1 -350c0 -179 1 -333 1 -333c0 -17 -1 -17 -82 -17zM71 928l-113 -123c9 -14 26 -24 54 -24c18 0 75 77 75 77c13 -25 65 -78 65 -78c29 0 58 9 58 24c0 16 -97 115 -97 115c-8 8 -17 12 -25 12
c-7 0 -13 -1 -17 -3z" />
    <glyph glyph-name="Idieresis" unicode="&#xcf;" horiz-adv-x="168" 
d="M43 0c0 0 1 171 1 350c0 153 -1 313 -1 313c0 37 1 37 82 37c0 0 -1 -198 -1 -350c0 -179 1 -333 1 -333c0 -17 -1 -17 -82 -17zM-36 852c0 27 18 51 49 51c36 0 50 -21 50 -51c0 -28 -19 -51 -50 -51c-36 0 -49 19 -49 51zM107 852c0 27 18 51 49 51c36 0 49 -21 49 -51
c0 -28 -18 -51 -49 -51c-37 0 -49 19 -49 51z" />
    <glyph glyph-name="Igrave" unicode="&#xcc;" horiz-adv-x="168" 
d="M43 0c0 0 1 171 1 350c0 153 -1 313 -1 313c0 37 1 37 82 37c0 0 -1 -198 -1 -350c0 -179 1 -333 1 -333c0 -17 -1 -17 -82 -17zM111 804c19 0 32 45 32 45c-23 31 -126 118 -134 118c-19 0 -34 -37 -38 -61c16 -19 133 -102 140 -102z" />
    <glyph glyph-name="Ntilde" unicode="&#xd1;" horiz-adv-x="444" 
d="M323 0l-114 275c-18 45 -70 205 -95 283c6 -65 11 -256 11 -299v-242c0 -17 1 -17 -82 -17v684s0 16 17 16h62l112 -270c20 -52 71 -207 95 -282v3c-7 60 -9 250 -9 297v236c0 16 -2 16 81 16v-683s0 -17 -17 -17h-61zM75 835c0 0 18 -41 40 -41c13 0 24 39 59 39
c36 0 33 -48 87 -48c60 0 103 61 108 71c0 0 -12 45 -29 45c-15 0 -17 -38 -65 -38c-40 0 -43 47 -87 47c-35 0 -79 -19 -113 -75z" />
    <glyph glyph-name="Oacute" unicode="&#xd3;" horiz-adv-x="422" 
d="M27 354c0 266 59 361 189 361c129 0 180 -88 180 -358c0 -275 -57 -372 -189 -372c-129 0 -180 81 -180 369zM118 334c0 -186 22 -265 93 -265c72 0 97 82 97 286c0 200 -20 277 -93 277c-69 0 -97 -82 -97 -298zM187 765c-19 0 -32 45 -32 45c46 52 126 118 134 118
c19 0 34 -37 38 -61c-16 -19 -106 -83 -140 -102z" />
    <glyph glyph-name="Ocircumflex" unicode="&#xd4;" horiz-adv-x="422" 
d="M27 354c0 266 59 361 189 361c129 0 180 -88 180 -358c0 -275 -57 -372 -189 -372c-129 0 -180 81 -180 369zM118 334c0 -186 22 -265 93 -265c72 0 97 82 97 286c0 200 -20 277 -93 277c-69 0 -97 -82 -97 -298zM198 928l-113 -123c9 -14 26 -24 54 -24
c18 0 75 77 75 77c13 -25 65 -78 65 -78c29 0 58 9 58 24c0 16 -97 115 -97 115c-8 8 -17 12 -25 12c-7 0 -13 -1 -17 -3z" />
    <glyph glyph-name="Odieresis" unicode="&#xd6;" horiz-adv-x="422" 
d="M27 354c0 266 59 361 189 361c129 0 180 -88 180 -358c0 -275 -57 -372 -189 -372c-129 0 -180 81 -180 369zM118 334c0 -186 22 -265 93 -265c72 0 97 82 97 286c0 200 -20 277 -93 277c-69 0 -97 -82 -97 -298zM90 852c0 27 18 51 49 51c36 0 50 -21 50 -51
c0 -28 -19 -51 -50 -51c-36 0 -49 19 -49 51zM233 852c0 27 18 51 49 51c36 0 49 -21 49 -51c0 -28 -18 -51 -49 -51c-37 0 -49 19 -49 51z" />
    <glyph glyph-name="Ograve" unicode="&#xd2;" horiz-adv-x="422" 
d="M27 354c0 266 59 361 189 361c129 0 180 -88 180 -358c0 -275 -57 -372 -189 -372c-129 0 -180 81 -180 369zM118 334c0 -186 22 -265 93 -265c72 0 97 82 97 286c0 200 -20 277 -93 277c-69 0 -97 -82 -97 -298zM242 804c19 0 32 45 32 45c-23 31 -126 118 -134 118
c-19 0 -34 -37 -38 -61c16 -19 133 -102 140 -102z" />
    <glyph glyph-name="Otilde" unicode="&#xd5;" horiz-adv-x="422" 
d="M27 354c0 266 59 361 189 361c129 0 180 -88 180 -358c0 -275 -57 -372 -189 -372c-129 0 -180 81 -180 369zM118 334c0 -186 22 -265 93 -265c72 0 97 82 97 286c0 200 -20 277 -93 277c-69 0 -97 -82 -97 -298zM64 835c0 0 18 -41 40 -41c13 0 24 39 59 39
c36 0 33 -48 87 -48c60 0 103 61 108 71c0 0 -12 45 -29 45c-15 0 -17 -38 -65 -38c-40 0 -43 47 -87 47c-35 0 -79 -19 -113 -75z" />
    <glyph glyph-name="Scaron" unicode="&#x160;" horiz-adv-x="358" 
d="M191 715c102 0 138 -29 138 -41c0 -15 -5 -35 -20 -56c-13 11 -52 25 -98 25c-59 0 -97 -25 -97 -71c0 -33 16 -61 46 -97l120 -148c40 -47 55 -92 55 -152c0 -103 -40 -190 -179 -190c-91 0 -131 34 -131 51c0 11 9 48 22 67c20 -19 54 -35 106 -35c63 0 94 41 94 104
c0 44 -14 77 -56 126l-112 140c-36 45 -53 86 -53 128c0 94 60 149 165 149zM185 786c-20 0 -110 90 -124 111c7 22 24 51 38 51c18 0 89 -85 89 -85c36 52 75 83 75 83c20 -11 33 -24 33 -36c0 -20 -95 -124 -111 -124z" />
    <glyph glyph-name="Uacute" unicode="&#xda;" horiz-adv-x="437" 
d="M127 227v473c-84 0 -84 0 -84 -17v-465c0 -107 0 -233 180 -233c79 0 145 14 170 31v684c-83 0 -82 0 -82 -17v-605c-17 -9 -48 -18 -88 -18c-97 0 -96 90 -96 167zM194 765c-19 0 -32 45 -32 45c46 52 126 118 134 118c19 0 34 -37 38 -61c-16 -19 -106 -83 -140 -102z
" />
    <glyph glyph-name="Ucircumflex" unicode="&#xdb;" horiz-adv-x="437" 
d="M127 227v473c-84 0 -84 0 -84 -17v-465c0 -107 0 -233 180 -233c79 0 145 14 170 31v684c-83 0 -82 0 -82 -17v-605c-17 -9 -48 -18 -88 -18c-97 0 -96 90 -96 167zM205 928l-113 -123c9 -14 26 -24 54 -24c18 0 75 77 75 77c13 -25 65 -78 65 -78c29 0 58 9 58 24
c0 16 -97 115 -97 115c-8 8 -17 12 -25 12c-7 0 -13 -1 -17 -3z" />
    <glyph glyph-name="Udieresis" unicode="&#xdc;" horiz-adv-x="437" 
d="M127 227v473c-84 0 -84 0 -84 -17v-465c0 -107 0 -233 180 -233c79 0 145 14 170 31v684c-83 0 -82 0 -82 -17v-605c-17 -9 -48 -18 -88 -18c-97 0 -96 90 -96 167zM97 852c0 27 18 51 49 51c36 0 50 -21 50 -51c0 -28 -19 -51 -50 -51c-36 0 -49 19 -49 51zM240 852
c0 27 18 51 49 51c36 0 49 -21 49 -51c0 -28 -18 -51 -49 -51c-37 0 -49 19 -49 51z" />
    <glyph glyph-name="Ugrave" unicode="&#xd9;" horiz-adv-x="437" 
d="M127 227v473c-84 0 -84 0 -84 -17v-465c0 -107 0 -233 180 -233c79 0 145 14 170 31v684c-83 0 -82 0 -82 -17v-605c-17 -9 -48 -18 -88 -18c-97 0 -96 90 -96 167zM242 804c19 0 32 45 32 45c-23 31 -126 118 -134 118c-19 0 -34 -37 -38 -61c16 -19 133 -102 140 -102z
" />
    <glyph glyph-name="Yacute" unicode="&#xdd;" horiz-adv-x="364" 
d="M144 0v284l-138 403c-4 13 -2 13 92 13l39 -137c20 -64 46 -160 48 -190c3 30 29 126 50 190l37 122c5 15 5 15 88 15l-135 -411v-272c0 -17 1 -17 -81 -17zM168 765c-19 0 -32 45 -32 45c46 52 126 118 134 118c19 0 34 -37 38 -61c-16 -19 -106 -83 -140 -102z" />
    <glyph glyph-name="Ydieresis" unicode="&#x178;" horiz-adv-x="364" 
d="M144 0v284l-138 403c-4 13 -2 13 92 13l39 -137c20 -64 46 -160 48 -190c3 30 29 126 50 190l37 122c5 15 5 15 88 15l-135 -411v-272c0 -17 1 -17 -81 -17zM61 852c0 27 18 51 49 51c36 0 50 -21 50 -51c0 -28 -19 -51 -50 -51c-36 0 -49 19 -49 51zM204 852
c0 27 18 51 49 51c36 0 49 -21 49 -51c0 -28 -18 -51 -49 -51c-37 0 -49 19 -49 51z" />
    <glyph glyph-name="Zcaron" unicode="&#x17d;" horiz-adv-x="385" 
d="M44 683v-59s19 3 44 3h186l-252 -559c-4 -14 -5 -25 -5 -38c0 -19 11 -30 11 -30h312c16 0 17 17 17 17v62s-22 -6 -59 -6h-193l255 564c5 11 7 23 7 35c0 18 -9 28 -9 28h-297c-16 0 -17 -17 -17 -17zM199 786c-20 0 -110 90 -124 111c7 22 24 51 38 51
c18 0 89 -85 89 -85c36 52 75 83 75 83c20 -11 33 -24 33 -36c0 -20 -95 -124 -111 -124z" />
    <glyph glyph-name="aacute" unicode="&#xe1;" horiz-adv-x="354" 
d="M30 465c0 -7 1 -35 11 -52c31 14 96 23 141 23c31 0 53 -12 53 -59v-84c-20 10 -51 13 -76 13c-64 0 -130 -25 -130 -164c0 -152 70 -158 143 -157c65 0 112 16 139 33c0 0 6 142 6 317v58c0 90 -38 122 -103 122c-93 0 -160 -13 -175 -24c-7 -5 -9 -15 -9 -26zM235 236
c0 -72 -3 -167 -3 -167c-9 -10 -34 -16 -54 -16c-39 0 -64 4 -64 90c0 88 34 102 74 102c14 0 34 -2 47 -9zM149 599c-19 0 -32 45 -32 45c46 52 126 118 134 118c19 0 34 -37 38 -61c-16 -19 -106 -83 -140 -102z" />
    <glyph glyph-name="acircumflex" unicode="&#xe2;" horiz-adv-x="354" 
d="M30 465c0 -7 1 -35 11 -52c31 14 96 23 141 23c31 0 53 -12 53 -59v-84c-20 10 -51 13 -76 13c-64 0 -130 -25 -130 -164c0 -152 70 -158 143 -157c65 0 112 16 139 33c0 0 6 142 6 317v58c0 90 -38 122 -103 122c-93 0 -160 -13 -175 -24c-7 -5 -9 -15 -9 -26zM235 236
c0 -72 -3 -167 -3 -167c-9 -10 -34 -16 -54 -16c-39 0 -64 4 -64 90c0 88 34 102 74 102c14 0 34 -2 47 -9zM161 758l-113 -123c9 -14 26 -24 54 -24c18 0 75 77 75 77c13 -25 65 -78 65 -78c29 0 58 9 58 24c0 16 -97 115 -97 115c-8 8 -17 12 -25 12c-7 0 -13 -1 -17 -3z
" />
    <glyph glyph-name="adieresis" unicode="&#xe4;" horiz-adv-x="354" 
d="M30 465c0 -7 1 -35 11 -52c31 14 96 23 141 23c31 0 53 -12 53 -59v-84c-20 10 -51 13 -76 13c-64 0 -130 -25 -130 -164c0 -152 70 -158 143 -157c65 0 112 16 139 33c0 0 6 142 6 317v58c0 90 -38 122 -103 122c-93 0 -160 -13 -175 -24c-7 -5 -9 -15 -9 -26zM235 236
c0 -72 -3 -167 -3 -167c-9 -10 -34 -16 -54 -16c-39 0 -64 4 -64 90c0 88 34 102 74 102c14 0 34 -2 47 -9zM52 652c0 27 18 51 49 51c36 0 50 -21 50 -51c0 -28 -19 -51 -50 -51c-36 0 -49 19 -49 51zM195 652c0 27 18 51 49 51c36 0 49 -21 49 -51c0 -28 -18 -51 -49 -51
c-37 0 -49 19 -49 51z" />
    <glyph glyph-name="agrave" unicode="&#xe0;" horiz-adv-x="354" 
d="M30 465c0 -7 1 -35 11 -52c31 14 96 23 141 23c31 0 53 -12 53 -59v-84c-20 10 -51 13 -76 13c-64 0 -130 -25 -130 -164c0 -152 70 -158 143 -157c65 0 112 16 139 33c0 0 6 142 6 317v58c0 90 -38 122 -103 122c-93 0 -160 -13 -175 -24c-7 -5 -9 -15 -9 -26zM235 236
c0 -72 -3 -167 -3 -167c-9 -10 -34 -16 -54 -16c-39 0 -64 4 -64 90c0 88 34 102 74 102c14 0 34 -2 47 -9zM210 604c19 0 32 45 32 45c-23 31 -126 118 -134 118c-19 0 -34 -37 -38 -61c16 -19 133 -102 140 -102z" />
    <glyph glyph-name="aring" unicode="&#xe5;" horiz-adv-x="354" 
d="M30 465c0 -7 1 -35 11 -52c31 14 96 23 141 23c31 0 53 -12 53 -59v-84c-20 10 -51 13 -76 13c-64 0 -130 -25 -130 -164c0 -152 70 -158 143 -157c65 0 112 16 139 33c0 0 6 142 6 317v58c0 90 -38 122 -103 122c-93 0 -160 -13 -175 -24c-7 -5 -9 -15 -9 -26zM235 236
c0 -72 -3 -167 -3 -167c-9 -10 -34 -16 -54 -16c-39 0 -64 4 -64 90c0 88 34 102 74 102c14 0 34 -2 47 -9zM69 704c0 59 47 108 106 108c58 0 107 -49 107 -108s-49 -106 -107 -106c-59 0 -106 47 -106 106zM116 704c0 -33 26 -60 60 -60s61 27 61 60c0 34 -27 62 -61 62
s-60 -28 -60 -62z" />
    <glyph glyph-name="atilde" unicode="&#xe3;" horiz-adv-x="358" 
d="M34 465c0 -7 1 -35 11 -52c31 14 96 23 141 23c31 0 53 -12 53 -59v-84c-20 10 -51 13 -76 13c-64 0 -130 -25 -130 -164c0 -152 70 -158 143 -157c65 0 112 16 139 33c0 0 6 142 6 317v58c0 90 -38 122 -103 122c-93 0 -160 -13 -175 -24c-7 -5 -9 -15 -9 -26zM239 236
c0 -72 -3 -167 -3 -167c-9 -10 -34 -16 -54 -16c-39 0 -64 4 -64 90c0 88 34 102 74 102c14 0 34 -2 47 -9zM30 649c0 0 18 -41 40 -41c13 0 24 39 59 39c36 0 33 -48 87 -48c60 0 103 61 108 71c0 0 -12 45 -29 45c-15 0 -17 -38 -65 -38c-40 0 -43 47 -87 47
c-35 0 -79 -19 -113 -75z" />
    <glyph glyph-name="ccedilla" unicode="&#xe7;" horiz-adv-x="324" 
d="M300 480c0 -13 -3 -38 -9 -55c-17 9 -39 18 -67 18c-50 0 -102 -26 -102 -204c0 -161 28 -182 90 -182c27 0 59 11 78 23c5 -18 8 -38 8 -50c0 -20 -46 -46 -95 -46c-112 0 -166 26 -166 255c0 244 97 276 180 276c41 0 83 -20 83 -35zM163 2h46l-12 -60h17
c24 0 49 -18 49 -64c0 -52 -34 -84 -80 -84c-31 0 -56 12 -56 12s6 35 13 41c6 7 23 -10 44 -10c22 0 32 12 32 34c0 25 -11 33 -30 33c-26 0 -42 -5 -42 -5z" />
    <glyph glyph-name="eacute" unicode="&#xe9;" horiz-adv-x="357" 
d="M208 515c84 0 127 -57 127 -164c0 -45 -3 -96 -11 -132c-69 -14 -161 -16 -209 -16c3 -121 31 -139 85 -139c48 0 88 12 122 31c5 -15 7 -50 7 -72c0 -14 -63 -38 -138 -38c-93 0 -160 35 -160 239c0 260 88 291 177 291zM199 444c-41 0 -78 -36 -84 -175
c39 -1 101 1 136 11c4 18 5 43 5 62c-1 72 -14 102 -57 102zM157 572c-19 0 -32 45 -32 45c46 52 126 118 134 118c19 0 34 -37 38 -61c-16 -19 -106 -83 -140 -102z" />
    <glyph glyph-name="ecircumflex" unicode="&#xea;" horiz-adv-x="357" 
d="M208 515c84 0 127 -57 127 -164c0 -45 -3 -96 -11 -132c-69 -14 -161 -16 -209 -16c3 -121 31 -139 85 -139c48 0 88 12 122 31c5 -15 7 -50 7 -72c0 -14 -63 -38 -138 -38c-93 0 -160 35 -160 239c0 260 88 291 177 291zM199 444c-41 0 -78 -36 -84 -175
c39 -1 101 1 136 11c4 18 5 43 5 62c-1 72 -14 102 -57 102zM176 728l-113 -123c9 -14 26 -24 54 -24c18 0 75 77 75 77c13 -25 65 -78 65 -78c29 0 58 9 58 24c0 16 -97 115 -97 115c-8 8 -17 12 -25 12c-7 0 -13 -1 -17 -3z" />
    <glyph glyph-name="edieresis" unicode="&#xeb;" horiz-adv-x="357" 
d="M208 515c84 0 127 -57 127 -164c0 -45 -3 -96 -11 -132c-69 -14 -161 -16 -209 -16c3 -121 31 -139 85 -139c48 0 88 12 122 31c5 -15 7 -50 7 -72c0 -14 -63 -38 -138 -38c-93 0 -160 35 -160 239c0 260 88 291 177 291zM199 444c-41 0 -78 -36 -84 -175
c39 -1 101 1 136 11c4 18 5 43 5 62c-1 72 -14 102 -57 102zM72 652c0 27 18 51 49 51c36 0 50 -21 50 -51c0 -28 -19 -51 -50 -51c-36 0 -49 19 -49 51zM215 652c0 27 18 51 49 51c36 0 49 -21 49 -51c0 -28 -18 -51 -49 -51c-37 0 -49 19 -49 51z" />
    <glyph glyph-name="egrave" unicode="&#xe8;" horiz-adv-x="357" 
d="M208 515c84 0 127 -57 127 -164c0 -45 -3 -96 -11 -132c-69 -14 -161 -16 -209 -16c3 -121 31 -139 85 -139c48 0 88 12 122 31c5 -15 7 -50 7 -72c0 -14 -63 -38 -138 -38c-93 0 -160 35 -160 239c0 260 88 291 177 291zM199 444c-41 0 -78 -36 -84 -175
c39 -1 101 1 136 11c4 18 5 43 5 62c-1 72 -14 102 -57 102zM233 604c19 0 32 45 32 45c-23 31 -126 118 -134 118c-19 0 -34 -37 -38 -61c16 -19 133 -102 140 -102z" />
    <glyph glyph-name="iacute" unicode="&#xed;" horiz-adv-x="175" 
d="M129 500v-483c0 -17 -1 -17 -83 -17v463c0 37 17 37 83 37zM54 565c-19 0 -32 45 -32 45c46 52 126 118 134 118c19 0 34 -37 38 -61c-16 -19 -106 -83 -140 -102z" />
    <glyph glyph-name="icircumflex" unicode="&#xee;" horiz-adv-x="175" 
d="M129 500v-483c0 -17 -1 -17 -83 -17v463c0 37 17 37 83 37zM76 728l-113 -123c9 -14 26 -24 54 -24c18 0 75 77 75 77c13 -25 65 -78 65 -78c29 0 58 9 58 24c0 16 -97 115 -97 115c-8 8 -17 12 -25 12c-7 0 -13 -1 -17 -3z" />
    <glyph glyph-name="idieresis" unicode="&#xef;" horiz-adv-x="175" 
d="M129 500v-483c0 -17 -1 -17 -83 -17v463c0 37 17 37 83 37zM-32 659c0 27 18 51 49 51c36 0 50 -21 50 -51c0 -28 -19 -51 -50 -51c-36 0 -49 19 -49 51zM111 659c0 27 18 51 49 51c36 0 49 -21 49 -51c0 -28 -18 -51 -49 -51c-37 0 -49 19 -49 51z" />
    <glyph glyph-name="igrave" unicode="&#xec;" horiz-adv-x="175" 
d="M129 500v-483c0 -17 -1 -17 -83 -17v463c0 37 17 37 83 37zM106 567c19 0 32 45 32 45c-23 31 -126 118 -134 118c-19 0 -34 -37 -38 -61c16 -19 133 -102 140 -102z" />
    <glyph glyph-name="ntilde" unicode="&#xf1;" horiz-adv-x="382" 
d="M45 482v-482c83 0 81 0 81 17v408c22 14 53 19 75 19c53 0 59 -30 59 -109v-335c85 0 84 0 84 17v314c0 138 -13 184 -134 184c-54 0 -126 -15 -165 -33zM44 642c0 0 18 -41 40 -41c13 0 24 39 59 39c36 0 33 -48 87 -48c60 0 103 61 108 71c0 0 -12 45 -29 45
c-15 0 -17 -38 -65 -38c-40 0 -43 47 -87 47c-35 0 -79 -19 -113 -75z" />
    <glyph glyph-name="oacute" unicode="&#xf3;" horiz-adv-x="381" 
d="M30 250c0 183 61 264 165 264c105 0 156 -58 156 -261c0 -186 -57 -270 -162 -270s-159 42 -159 267zM118 248c0 -165 25 -196 71 -196c43 0 74 44 74 200c0 159 -23 192 -70 192c-44 0 -75 -40 -75 -196zM163 565c-19 0 -32 45 -32 45c46 52 126 118 134 118
c19 0 34 -37 38 -61c-16 -19 -106 -83 -140 -102z" />
    <glyph glyph-name="ocircumflex" unicode="&#xf4;" horiz-adv-x="381" 
d="M30 250c0 183 61 264 165 264c105 0 156 -58 156 -261c0 -186 -57 -270 -162 -270s-159 42 -159 267zM118 248c0 -165 25 -196 71 -196c43 0 74 44 74 200c0 159 -23 192 -70 192c-44 0 -75 -40 -75 -196zM178 728l-113 -123c9 -14 26 -24 54 -24c18 0 75 77 75 77
c13 -25 65 -78 65 -78c29 0 58 9 58 24c0 16 -97 115 -97 115c-8 8 -17 12 -25 12c-7 0 -13 -1 -17 -3z" />
    <glyph glyph-name="odieresis" unicode="&#xf6;" horiz-adv-x="381" 
d="M30 250c0 183 61 264 165 264c105 0 156 -58 156 -261c0 -186 -57 -270 -162 -270s-159 42 -159 267zM118 248c0 -165 25 -196 71 -196c43 0 74 44 74 200c0 159 -23 192 -70 192c-44 0 -75 -40 -75 -196zM70 652c0 27 18 51 49 51c36 0 50 -21 50 -51
c0 -28 -19 -51 -50 -51c-36 0 -49 19 -49 51zM213 652c0 27 18 51 49 51c36 0 49 -21 49 -51c0 -28 -18 -51 -49 -51c-37 0 -49 19 -49 51z" />
    <glyph glyph-name="ograve" unicode="&#xf2;" horiz-adv-x="381" 
d="M30 250c0 183 61 264 165 264c105 0 156 -58 156 -261c0 -186 -57 -270 -162 -270s-159 42 -159 267zM118 248c0 -165 25 -196 71 -196c43 0 74 44 74 200c0 159 -23 192 -70 192c-44 0 -75 -40 -75 -196zM228 604c19 0 32 45 32 45c-23 31 -126 118 -134 118
c-19 0 -34 -37 -38 -61c16 -19 133 -102 140 -102z" />
    <glyph glyph-name="otilde" unicode="&#xf5;" horiz-adv-x="381" 
d="M30 250c0 183 61 264 165 264c105 0 156 -58 156 -261c0 -186 -57 -270 -162 -270s-159 42 -159 267zM118 248c0 -165 25 -196 71 -196c43 0 74 44 74 200c0 159 -23 192 -70 192c-44 0 -75 -40 -75 -196zM44 635c0 0 18 -41 40 -41c13 0 24 39 59 39c36 0 33 -48 87 -48
c60 0 103 61 108 71c0 0 -12 45 -29 45c-15 0 -17 -38 -65 -38c-40 0 -43 47 -87 47c-35 0 -79 -19 -113 -75z" />
    <glyph glyph-name="scaron" unicode="&#x161;" horiz-adv-x="345" 
d="M183 514c110 0 137 -32 137 -51c0 -13 -9 -34 -18 -46c-30 18 -60 27 -98 27c-47 0 -80 -16 -80 -48c0 -17 8 -32 35 -58l99 -90c43 -42 59 -74 59 -122c0 -91 -63 -141 -165 -141c-71 0 -122 17 -122 42c0 15 5 38 15 55c29 -17 60 -24 99 -24c53 0 81 21 81 65
c0 23 -10 48 -40 74l-101 96c-39 37 -55 72 -55 107c0 73 53 114 154 114zM178 586c-20 0 -110 90 -124 111c7 22 24 51 38 51c18 0 89 -85 89 -85c36 52 75 83 75 83c20 -11 33 -24 33 -36c0 -20 -95 -124 -111 -124z" />
    <glyph glyph-name="uacute" unicode="&#xfa;" horiz-adv-x="390" 
d="M343 17v483c-83 0 -81 0 -81 -16v-409c-21 -14 -49 -19 -71 -19c-53 0 -63 30 -63 109v335c-84 0 -84 0 -84 -16v-315c0 -123 18 -184 150 -184c54 0 111 11 149 32zM155 586c-19 0 -32 45 -32 45c46 52 126 118 134 118c19 0 34 -37 38 -61c-16 -19 -106 -83 -140 -102z
" />
    <glyph glyph-name="ucircumflex" unicode="&#xfb;" horiz-adv-x="390" 
d="M343 17v483c-83 0 -81 0 -81 -16v-409c-21 -14 -49 -19 -71 -19c-53 0 -63 30 -63 109v335c-84 0 -84 0 -84 -16v-315c0 -123 18 -184 150 -184c54 0 111 11 149 32zM184 728l-113 -123c9 -14 26 -24 54 -24c18 0 75 77 75 77c13 -25 65 -78 65 -78c29 0 58 9 58 24
c0 16 -97 115 -97 115c-8 8 -17 12 -25 12c-7 0 -13 -1 -17 -3z" />
    <glyph glyph-name="udieresis" unicode="&#xfc;" horiz-adv-x="390" 
d="M343 17v483c-83 0 -81 0 -81 -16v-409c-21 -14 -49 -19 -71 -19c-53 0 -63 30 -63 109v335c-84 0 -84 0 -84 -16v-315c0 -123 18 -184 150 -184c54 0 111 11 149 32zM76 652c0 27 18 51 49 51c36 0 50 -21 50 -51c0 -28 -19 -51 -50 -51c-36 0 -49 19 -49 51zM219 652
c0 27 18 51 49 51c36 0 49 -21 49 -51c0 -28 -18 -51 -49 -51c-37 0 -49 19 -49 51z" />
    <glyph glyph-name="ugrave" unicode="&#xf9;" horiz-adv-x="390" 
d="M343 17v483c-83 0 -81 0 -81 -16v-409c-21 -14 -49 -19 -71 -19c-53 0 -63 30 -63 109v335c-84 0 -84 0 -84 -16v-315c0 -123 18 -184 150 -184c54 0 111 11 149 32zM217 604c19 0 32 45 32 45c-23 31 -126 118 -134 118c-19 0 -34 -37 -38 -61c16 -19 133 -102 140 -102
z" />
    <glyph glyph-name="yacute" unicode="&#xfd;" horiz-adv-x="356" 
d="M24 478l120 -494c-15 -82 -39 -103 -67 -103c-26 0 -53 7 -67 16c-7 -11 -12 -32 -12 -47c0 -21 23 -38 91 -38c64 0 98 34 128 161l123 527c-83 0 -83 0 -88 -24l-45 -213c-15 -82 -23 -166 -23 -166s-9 85 -26 165l-55 238c-85 0 -85 0 -79 -22zM170 565
c-19 0 -32 45 -32 45c46 52 126 118 134 118c19 0 34 -37 38 -61c-16 -19 -106 -83 -140 -102z" />
    <glyph glyph-name="ydieresis" unicode="&#xff;" horiz-adv-x="356" 
d="M24 478l120 -494c-15 -82 -39 -103 -67 -103c-26 0 -53 7 -67 16c-7 -11 -12 -32 -12 -47c0 -21 23 -38 91 -38c64 0 98 34 128 161l123 527c-83 0 -83 0 -88 -24l-45 -213c-15 -82 -23 -166 -23 -166s-9 85 -26 165l-55 238c-85 0 -85 0 -79 -22zM67 652
c0 27 18 51 49 51c36 0 50 -21 50 -51c0 -28 -19 -51 -50 -51c-36 0 -49 19 -49 51zM210 652c0 27 18 51 49 51c36 0 49 -21 49 -51c0 -28 -18 -51 -49 -51c-37 0 -49 19 -49 51z" />
    <glyph glyph-name="zcaron" unicode="&#x17e;" horiz-adv-x="369" 
d="M319 500h-263c-16 0 -16 -19 -16 -72c0 0 39 3 93 3h102l-194 -360c-5 -11 -6 -19 -6 -30c0 -28 13 -41 13 -41h259c13 0 18 16 19 50c0 9 -1 26 -3 34c0 0 -42 -9 -105 -9h-88l187 361c10 17 11 30 11 38c0 18 -9 26 -9 26zM182 586c-20 0 -110 90 -124 111
c7 22 24 51 38 51c18 0 89 -85 89 -85c36 52 75 83 75 83c20 -11 33 -24 33 -36c0 -20 -95 -124 -111 -124z" />
    <glyph glyph-name="sz.alt" horiz-adv-x="477" 
d="M339 431h-211v-375c0 -48 -12 -64 -48 -64c-31 0 -42 12 -42 12s8 32 8 69v515c0 109 61 147 173 147c68 0 117 -31 117 -48c0 -20 -21 -55 -21 -55c-30 23 -57 33 -98 33c-69 0 -89 -34 -89 -123v-42h309s10 -22 -9 -68l-97 -176c79 -22 127 -78 127 -164
c0 -125 -66 -226 -194 -226c-83 0 -108 30 -108 47s8 40 19 59c22 -18 43 -28 81 -28c65 0 115 51 115 141c0 61 -27 91 -65 107c-25 9 -54 15 -88 16z" />
    <glyph glyph-name="et.alt1" horiz-adv-x="641" 
d="M302 448c22 9 33 55 33 97c1 106 -63 141 -124 141c-133 0 -178 -103 -178 -287c0 -187 56 -240 159 -240c94 0 149 54 149 79c0 30 -20 59 -20 59c-18 -29 -63 -66 -120 -66c-46 0 -84 8 -84 148c111 0 309 16 309 16v-252c0 -126 27 -152 97 -152c73 0 97 18 97 34
c0 22 -4 44 -4 44s-26 -10 -67 -10c-33 0 -41 22 -41 89v254c21 2 65 9 65 9c32 4 39 18 39 79c0 0 -51 -9 -104 -15v134c-54 0 -82 -10 -82 -77v-66s-98 -15 -124 -18zM260 535c0 -18 -3 -77 -40 -87c0 0 -63 -9 -102 -9c5 117 41 181 91 181c34 0 51 -29 51 -85z" />
    <glyph glyph-name="et.alt2" horiz-adv-x="436" 
d="M411 568c0 18 -44 65 -130 77v114c-49 0 -74 -4 -74 -32v-81c-92 -12 -154 -72 -154 -162c0 -87 52 -111 92 -118c-57 -20 -107 -67 -107 -150c0 -94 47 -151 159 -159v-109c50 0 74 4 74 31v79c102 13 144 72 144 91s-19 51 -34 68c-24 -35 -74 -77 -143 -77
c-71 0 -109 30 -109 83c0 60 49 109 142 113l10 77c-11 -2 -40 -5 -60 -5c-54 1 -84 24 -84 72c0 55 45 89 114 89c60 0 101 -26 131 -67c16 18 29 48 29 66z" />
    <glyph glyph-name="Euro" unicode="&#x20ac;" 
d="M296 606c75 0 99 -27 99 -40c0 -22 -5 -44 -13 -55c-10 7 -38 21 -66 21c-41 0 -93 -18 -116 -125h143c0 -49 -4 -68 -32 -68h-120c-2 -19 -2 -40 -2 -62v-11h121c0 -49 -4 -68 -32 -68h-86c10 -118 46 -133 97 -133c36 0 69 11 88 25c6 -11 12 -29 12 -52
c0 -19 -49 -52 -109 -52c-98 0 -163 20 -176 212h-88c0 49 4 68 32 68h54v8c0 23 0 45 2 65h-88c0 49 4 68 32 68h63c28 171 113 199 185 199z" />
    <glyph glyph-name="g.alt" horiz-adv-x="391" 
d="M190 -222c-110 0 -156 35 -156 50c0 24 5 41 17 57c29 -17 73 -36 132 -36c29 0 81 14 81 93v69c-12 -22 -50 -37 -87 -37c-94 0 -140 37 -140 258s97 281 205 281c46 0 85 -13 104 -39v-543c0 -117 -71 -153 -156 -153zM266 118v311c0 4 -15 17 -49 17
c-44 0 -90 -42 -90 -205c0 -176 29 -193 71 -195c30 0 59 20 68 72z" />
    <glyph glyph-name="z.alt" horiz-adv-x="348" 
d="M207 431h-189c0 65 0 69 13 69h274s10 -22 -10 -68l-96 -176c78 -22 127 -78 127 -164c0 -125 -66 -226 -195 -226c-82 0 -107 30 -107 47s8 40 19 59c21 -18 42 -28 81 -28c64 0 114 51 114 141c0 61 -26 91 -65 107c-24 9 -53 15 -88 16z" />
    <glyph glyph-name="tz" horiz-adv-x="507" 
d="M367 430h-201v-406c0 -24 -2 -24 -82 -24v430h-78c0 62 1 70 18 70h60v152c0 28 15 28 82 28v-180h3h4h292s9 -22 -10 -68l-97 -176c79 -22 128 -78 128 -164c0 -125 -57 -226 -187 -226c-71 0 -96 23 -96 41c0 16 8 40 19 58c24 -17 41 -21 71 -21c65 0 105 51 105 141
c0 61 -26 91 -65 107c-24 9 -53 15 -88 16z" />
    <glyph glyph-name="fkurz" horiz-adv-x="251" 
d="M78 431h-69c0 64 0 69 21 69h48v61c0 158 54 174 113 174c58 0 69 -13 73 -29c1 -14 -5 -35 -10 -49c-13 8 -31 12 -49 12c-26 0 -46 -9 -46 -96v-73h90c0 -64 -2 -69 -17 -69h-73v-414s0 -17 -16 -17h-65v431z" />
    <glyph glyph-name="longs" unicode="&#x17f;" horiz-adv-x="174" 
d="M46 73v515c0 109 61 147 173 147c68 0 117 -31 117 -49c0 -19 -21 -54 -21 -54c-30 23 -57 32 -98 32c-69 0 -89 -33 -89 -122v-486c0 -48 -12 -64 -48 -64c-31 0 -42 12 -42 12s8 32 8 69z" />
    </font>
</defs>
</svg>
